<svg width="1920" height="1319" viewBox="0 0 1920 1319" fill="none" xmlns="http://www.w3.org/2000/svg">
<path d="M7.17852 558.013V525.414H36.5277V589.309C36.5277 601.044 44.3541 608.868 56.0937 608.868H65.8768C77.6164 608.868 85.4429 601.044 85.4429 589.309V525.414H115.444V558.013C115.444 569.749 123.271 577.573 135.01 577.573H144.793C156.533 577.573 164.359 569.749 164.359 558.013V544.974C164.359 533.238 156.533 525.414 144.793 525.414H135.01C123.271 525.414 115.444 517.591 115.444 505.855V496.075C115.444 484.339 123.271 476.516 135.01 476.516H144.793C156.533 476.516 164.359 468.692 164.359 456.956V443.917C164.359 432.181 156.533 424.357 144.793 424.357H135.01C123.271 424.357 115.444 432.181 115.444 443.917V476.516H85.4429V412.621C85.4429 400.886 77.6164 393.062 65.8768 393.062H56.0937C44.3541 393.062 36.5277 400.886 36.5277 412.621V476.516H7.17852V443.917C7.17852 432.181 -0.647907 424.357 -12.3876 424.357H-22.8228C-34.5624 424.357 -42.3889 432.181 -42.3889 443.917V456.956C-42.3889 468.692 -34.5624 476.516 -22.8228 476.516H-12.3876C-0.647907 476.516 7.17852 484.339 7.17852 496.075V505.855C7.17852 517.591 -0.647907 525.414 -12.3876 525.414H-22.8228C-34.5624 525.414 -42.3889 533.238 -42.3889 544.974V558.013C-42.3889 569.749 -34.5624 577.573 -22.8228 577.573H-12.3876C-0.647907 577.573 7.17852 569.749 7.17852 558.013Z" fill="black"/>
<path fill-rule="evenodd" clip-rule="evenodd" d="M7.17815 525.417H36.5277V589.312C36.5277 601.048 44.3542 608.872 56.0941 608.872H65.8772C77.617 608.872 85.4436 601.048 85.4436 589.312V525.417H115.445V558.017C115.445 569.753 123.272 577.577 135.012 577.577H144.795C156.535 577.577 164.361 569.753 164.361 558.017V544.977C164.361 533.241 156.535 525.417 144.795 525.417H135.012C131.033 525.417 127.504 524.519 124.576 522.874C121.793 521.31 119.554 519.071 117.99 516.289C116.344 513.363 115.445 509.835 115.445 505.858V496.078C115.445 492.1 116.344 488.572 117.99 485.646C119.554 482.864 121.793 480.625 124.576 479.062C127.504 477.417 131.033 476.518 135.012 476.518H144.795C156.535 476.518 164.361 468.694 164.361 456.958V443.918C164.361 432.183 156.535 424.359 144.795 424.359H135.012C123.272 424.359 115.445 432.183 115.445 443.918V476.518H85.4436V412.623C85.4436 400.887 77.617 393.063 65.8772 393.063H56.0941C44.3542 393.063 36.5277 400.887 36.5277 412.623V476.518H7.17815V443.918C7.17815 432.183 -0.648396 424.359 -12.3882 424.359H-22.8236C-34.5634 424.359 -42.39 432.183 -42.39 443.918V456.958C-42.39 468.694 -34.5634 476.518 -22.8236 476.518H-12.3882C-8.4095 476.518 -4.88026 477.417 -1.95282 479.062C0.830167 480.625 3.06927 482.864 4.63363 485.646C6.2792 488.572 7.17815 492.1 7.17815 496.078V505.858C7.17815 509.835 6.2792 513.363 4.63366 516.289C3.0693 519.071 0.83018 521.31 -1.95282 522.874C-4.88026 524.519 -8.4095 525.417 -12.3882 525.417H-22.8236C-34.5634 525.417 -42.39 533.241 -42.39 544.977V558.017C-42.39 569.753 -34.5634 577.577 -22.8236 577.577H-12.3882C-0.648396 577.577 7.17815 569.753 7.17815 558.017V525.417ZM16.3091 534.545H27.3967V589.312C27.3967 597.255 30.0849 604.582 35.4519 609.948C40.8189 615.313 48.1492 618 56.0941 618H65.8772C73.8221 618 81.1524 615.313 86.5194 609.948C91.8864 604.582 94.5746 597.255 94.5746 589.312V534.545H106.314V558.017C106.314 565.959 109.003 573.287 114.37 578.652C119.737 584.017 127.067 586.704 135.012 586.704H144.795C152.74 586.704 160.07 584.017 165.437 578.652C170.804 573.287 173.492 565.959 173.492 558.017V544.977C173.492 537.035 170.804 529.707 165.437 524.342C160.07 518.977 152.74 516.289 144.795 516.289H135.012C131.217 516.289 128.764 515.065 127.283 513.584C125.801 512.103 124.576 509.651 124.576 505.858V496.078C124.576 492.284 125.801 489.832 127.283 488.351C128.764 486.871 131.217 485.646 135.012 485.646H144.795C152.74 485.646 160.07 482.959 165.437 477.593C170.804 472.228 173.492 464.9 173.492 456.958V443.918C173.492 435.976 170.804 428.648 165.437 423.283C160.07 417.918 152.74 415.231 144.795 415.231H135.012C127.067 415.231 119.737 417.918 114.37 423.283C109.003 428.648 106.314 435.976 106.314 443.918V467.39H94.5746V412.623C94.5746 404.681 91.8864 397.353 86.5194 391.988C81.1524 386.623 73.8221 383.935 65.8772 383.935H56.0941C48.1491 383.935 40.8189 386.623 35.4519 391.988C30.0849 397.353 27.3967 404.681 27.3967 412.623V467.39H16.3091V443.918C16.3091 435.976 13.621 428.648 8.25396 423.283C2.88696 417.918 -4.44332 415.231 -12.3882 415.231H-22.8236C-30.7685 415.231 -38.0988 417.918 -43.4658 423.283C-48.8328 428.648 -51.5209 435.976 -51.5209 443.918V456.958C-51.5209 464.901 -48.8328 472.228 -43.4658 477.593C-38.0988 482.959 -30.7685 485.646 -22.8236 485.646H-12.3882C-8.5933 485.646 -6.14041 486.871 -4.65917 488.351C-3.17794 489.832 -1.95282 492.284 -1.95282 496.078V505.858C-1.95282 509.651 -3.17794 512.103 -4.65916 513.584C-6.14039 515.065 -8.59328 516.289 -12.3882 516.289H-22.8236C-30.7685 516.289 -38.0988 518.977 -43.4658 524.342C-48.8328 529.707 -51.5209 537.035 -51.5209 544.977V558.017C-51.5209 565.959 -48.8328 573.287 -43.4658 578.652C-38.0988 584.017 -30.7685 586.704 -22.8236 586.704H-12.3882C-4.44332 586.704 2.88698 584.017 8.25397 578.652C13.621 573.287 16.3091 565.959 16.3091 558.017V534.545Z" fill="black"/>
<path d="M220.797 358.829V326.23H250.146V390.124C250.146 401.86 257.972 409.684 269.712 409.684H279.495C291.235 409.684 299.061 401.86 299.061 390.124V326.23H329.062V358.829C329.062 370.565 336.889 378.388 348.628 378.388H358.411C370.151 378.388 377.978 370.565 377.978 358.829V345.789C377.978 334.054 370.151 326.23 358.411 326.23H348.628C336.889 326.23 329.062 318.406 329.062 306.67V296.891C329.062 285.155 336.889 277.331 348.628 277.331H358.411C370.151 277.331 377.978 269.507 377.978 257.772V244.732C377.978 232.996 370.151 225.173 358.411 225.173H348.628C336.889 225.173 329.062 232.996 329.062 244.732V277.331H299.061V213.437C299.061 201.701 291.235 193.878 279.495 193.878H269.712C257.972 193.878 250.146 201.701 250.146 213.437V277.331H220.797V244.732C220.797 232.996 212.97 225.173 201.231 225.173H190.795C179.056 225.173 171.229 232.996 171.229 244.732V257.772C171.229 269.507 179.056 277.331 190.795 277.331H201.231C212.97 277.331 220.797 285.155 220.797 296.891V306.67C220.797 318.406 212.97 326.23 201.231 326.23H190.795C179.056 326.23 171.229 334.054 171.229 345.789V358.829C171.229 370.565 179.056 378.388 190.795 378.388H201.231C212.97 378.388 220.797 370.565 220.797 358.829Z" fill="black"/>
<path fill-rule="evenodd" clip-rule="evenodd" d="M220.796 326.233H250.146V390.128C250.146 401.864 257.972 409.688 269.712 409.688H279.495C291.235 409.688 299.062 401.864 299.062 390.128V326.233H329.063V358.832C329.063 370.568 336.89 378.392 348.63 378.392H358.413C370.153 378.392 377.979 370.568 377.979 358.832V345.793C377.979 334.057 370.153 326.233 358.413 326.233H348.63C344.651 326.233 341.122 325.334 338.194 323.689C335.411 322.125 333.172 319.887 331.608 317.105C329.962 314.179 329.063 310.651 329.063 306.673V296.893C329.063 292.916 329.962 289.388 331.608 286.461C333.172 283.679 335.411 281.441 338.194 279.877C341.122 278.232 344.651 277.334 348.63 277.334H358.413C370.153 277.334 377.979 269.51 377.979 257.774V244.734C377.979 232.998 370.153 225.174 358.413 225.174H348.63C336.89 225.174 329.063 232.998 329.063 244.734V277.334H299.062V213.438C299.062 201.703 291.235 193.879 279.495 193.879H269.712C257.972 193.879 250.146 201.703 250.146 213.438V277.334H220.796V244.734C220.796 232.998 212.97 225.174 201.23 225.174H190.795C179.055 225.174 171.228 232.998 171.228 244.734V257.774C171.228 269.51 179.055 277.334 190.795 277.334H201.23C205.209 277.334 208.738 278.232 211.665 279.877C214.448 281.441 216.687 283.679 218.252 286.461C219.897 289.388 220.796 292.916 220.796 296.893V306.673C220.796 310.651 219.897 314.179 218.252 317.105C216.687 319.887 214.448 322.125 211.665 323.689C208.738 325.334 205.209 326.233 201.23 326.233H190.795C179.055 326.233 171.228 334.057 171.228 345.793V358.832C171.228 370.568 179.055 378.392 190.795 378.392H201.23C212.97 378.392 220.796 370.568 220.796 358.832V326.233ZM229.927 335.361H241.015V390.128C241.015 398.07 243.703 405.398 249.07 410.763C254.437 416.128 261.767 418.816 269.712 418.816H279.495C287.44 418.816 294.771 416.128 300.138 410.763C305.505 405.398 308.193 398.07 308.193 390.128V335.361H319.933V358.832C319.933 366.775 322.621 374.102 327.988 379.468C333.355 384.833 340.685 387.52 348.63 387.52H358.413C366.358 387.52 373.688 384.833 379.055 379.468C384.422 374.102 387.11 366.775 387.11 358.832V345.793C387.11 337.85 384.422 330.523 379.055 325.157C373.688 319.792 366.358 317.105 358.413 317.105H348.63C344.835 317.105 342.382 315.88 340.901 314.4C339.42 312.919 338.194 310.467 338.194 306.673V296.893C338.194 293.1 339.42 290.648 340.901 289.167C342.382 287.686 344.835 286.461 348.63 286.461H358.413C366.358 286.461 373.688 283.774 379.055 278.409C384.422 273.044 387.11 265.716 387.11 257.774V244.734C387.11 236.792 384.422 229.464 379.055 224.099C373.688 218.734 366.358 216.046 358.413 216.046H348.63C340.685 216.046 333.355 218.734 327.988 224.099C322.621 229.464 319.933 236.792 319.933 244.734V268.206H308.193V213.438C308.193 205.496 305.505 198.168 300.138 192.803C294.771 187.438 287.44 184.751 279.495 184.751H269.712C261.767 184.751 254.437 187.438 249.07 192.803C243.703 198.168 241.015 205.496 241.015 213.438V268.206H229.927V244.734C229.927 236.792 227.239 229.464 221.872 224.099C216.505 218.734 209.175 216.046 201.23 216.046H190.795C182.85 216.046 175.519 218.734 170.152 224.099C164.785 229.464 162.097 236.792 162.097 244.734V257.774C162.097 265.716 164.785 273.044 170.152 278.409C175.519 283.774 182.85 286.461 190.795 286.461H201.23C205.025 286.461 207.478 287.686 208.959 289.167C210.44 290.648 211.665 293.1 211.665 296.893V306.673C211.665 310.467 210.44 312.919 208.959 314.4C207.478 315.88 205.025 317.105 201.23 317.105H190.795C182.85 317.105 175.519 319.792 170.152 325.157C164.785 330.523 162.097 337.85 162.097 345.793V358.832C162.097 366.775 164.785 374.102 170.152 379.468C175.519 384.833 182.85 387.52 190.795 387.52H201.23C209.175 387.52 216.505 384.833 221.872 379.468C227.239 374.102 229.927 366.775 229.927 358.832V335.361Z" fill="black"/>
<path d="M-115.997 275.81V224.16H-69.4959V325.394C-69.4959 343.988 -57.0957 356.384 -38.4953 356.384H-22.9951C-4.39472 356.384 8.00549 343.988 8.00549 325.394V224.16H55.5397V275.81C55.5397 294.404 67.9399 306.8 86.5402 306.8H102.04C120.641 306.8 133.041 294.404 133.041 275.81V255.15C133.041 236.556 120.641 224.16 102.04 224.16H86.5402C67.9399 224.16 55.5397 211.764 55.5397 193.17V177.675C55.5397 159.081 67.9399 146.685 86.5402 146.685H102.04C120.641 146.685 133.041 134.289 133.041 115.695V95.0346C133.041 76.4405 120.641 64.0446 102.04 64.0446H86.5402C67.9399 64.0446 55.5397 76.4405 55.5397 95.0346V146.685H8.00549V45.4505C8.00549 26.8565 -4.39472 14.4604 -22.9951 14.4604H-38.4953C-57.0957 14.4604 -69.4959 26.8565 -69.4959 45.4505V146.685H-115.997V95.0346C-115.997 76.4405 -128.397 64.0446 -146.997 64.0446H-163.531C-182.131 64.0446 -194.531 76.4405 -194.531 95.0346V115.695C-194.531 134.289 -182.131 146.685 -163.531 146.685H-146.997C-128.397 146.685 -115.997 159.081 -115.997 177.675V193.17C-115.997 211.764 -128.397 224.16 -146.997 224.16H-163.531C-182.131 224.16 -194.531 236.556 -194.531 255.15V275.81C-194.531 294.404 -182.131 306.8 -163.531 306.8H-146.997C-128.397 306.8 -115.997 294.404 -115.997 275.81Z" fill="black"/>
<path fill-rule="evenodd" clip-rule="evenodd" d="M-115.997 224.164H-69.4952V325.4C-69.4952 343.994 -57.0948 356.39 -38.4942 356.39H-22.9937C-4.39311 356.39 8.00729 343.994 8.00729 325.4V224.164H55.5421V275.815C55.5421 294.41 67.9425 306.806 86.5431 306.806H102.044C120.644 306.806 133.045 294.41 133.045 275.815V255.155C133.045 236.561 120.644 224.164 102.044 224.164H86.5431C80.2392 224.164 74.6475 222.741 70.0093 220.134C65.5999 217.657 62.0522 214.11 59.5736 209.702C56.9664 205.066 55.5421 199.476 55.5421 193.174V177.679C55.5421 171.377 56.9664 165.787 59.5737 161.15C62.0522 156.743 65.5999 153.196 70.0093 150.718C74.6475 148.112 80.2392 146.688 86.5431 146.688H102.044C120.644 146.688 133.045 134.292 133.045 115.698V95.0375C133.045 76.4432 120.644 64.047 102.044 64.047H86.5431C67.9425 64.047 55.5421 76.4432 55.5421 95.0375V146.688H8.00729V45.4527C8.00729 26.8584 -4.39311 14.4622 -22.9937 14.4622H-38.4942C-57.0948 14.4622 -69.4952 26.8584 -69.4952 45.4527V146.688H-115.997V95.0375C-115.997 76.4432 -128.397 64.047 -146.998 64.047H-163.532C-182.132 64.047 -194.532 76.4432 -194.532 95.0375V115.698C-194.532 134.292 -182.132 146.688 -163.532 146.688H-146.998C-140.694 146.688 -135.102 148.112 -130.464 150.718C-126.054 153.196 -122.507 156.743 -120.028 161.15C-117.421 165.787 -115.997 171.377 -115.997 177.679V193.174C-115.997 199.476 -117.421 205.066 -120.028 209.702C-122.507 214.11 -126.054 217.657 -130.464 220.134C-135.102 222.741 -140.694 224.164 -146.998 224.164H-163.532C-182.132 224.164 -194.532 236.561 -194.532 255.155V275.815C-194.532 294.41 -182.132 306.806 -163.532 306.806H-146.998C-128.397 306.806 -115.997 294.41 -115.997 275.815V224.164ZM-101.53 238.627H-83.9623V325.4C-83.9623 337.984 -79.7032 349.594 -71.1997 358.094C-62.6962 366.595 -51.0821 370.853 -38.4942 370.853H-22.9937C-10.4058 370.853 1.20835 366.595 9.71183 358.094C18.2153 349.594 22.4744 337.984 22.4744 325.4V238.627H41.075V275.815C41.075 288.399 45.3341 300.009 53.8376 308.51C62.3411 317.01 73.9552 321.268 86.5431 321.268H102.044C114.632 321.268 126.246 317.01 134.749 308.51C143.253 300.009 147.512 288.399 147.512 275.815V255.155C147.512 242.571 143.253 230.961 134.749 222.46C126.246 213.96 114.632 209.702 102.044 209.702H86.5431C80.5304 209.702 76.6441 207.762 74.2972 205.416C71.9503 203.07 70.0093 199.185 70.0093 193.174V177.679C70.0093 171.668 71.9503 167.783 74.2972 165.437C76.6441 163.091 80.5305 161.15 86.5431 161.15H102.044C114.632 161.15 126.246 156.893 134.749 148.392C143.253 139.892 147.512 128.281 147.512 115.698V95.0375C147.512 82.4538 143.253 70.8436 134.749 62.343C126.246 53.8425 114.632 49.5848 102.044 49.5848H86.5431C73.9552 49.5848 62.3411 53.8424 53.8376 62.343C45.3341 70.8436 41.075 82.4538 41.075 95.0375V132.226H22.4744V45.4527C22.4744 32.8691 18.2153 21.2589 9.71183 12.7583C1.20835 4.25769 -10.4058 0 -22.9937 0H-38.4942C-51.0821 0 -62.6962 4.25769 -71.1997 12.7583C-79.7032 21.2589 -83.9623 32.8691 -83.9623 45.4527V132.226H-101.53V95.0375C-101.53 82.4538 -105.789 70.8436 -114.292 62.343C-122.796 53.8424 -134.41 49.5848 -146.998 49.5848H-163.532C-176.119 49.5848 -187.734 53.8425 -196.237 62.343C-204.74 70.8436 -209 82.4538 -209 95.0375V115.698C-209 128.281 -204.74 139.892 -196.237 148.392C-187.734 156.893 -176.119 161.15 -163.532 161.15H-146.998C-140.985 161.15 -137.099 163.091 -134.752 165.437C-132.405 167.783 -130.464 171.668 -130.464 177.679V193.174C-130.464 199.185 -132.405 203.07 -134.752 205.416C-137.099 207.762 -140.985 209.702 -146.998 209.702H-163.532C-176.119 209.702 -187.734 213.96 -196.237 222.46C-204.74 230.961 -209 242.571 -209 255.155V275.815C-209 288.399 -204.74 300.009 -196.237 308.51C-187.734 317.01 -176.119 321.268 -163.532 321.268H-146.998C-134.41 321.268 -122.796 317.01 -114.292 308.51C-105.789 300.009 -101.53 288.399 -101.53 275.815V238.627Z" fill="black"/>
<path d="M1731.18 1259.01V1226.41H1760.53V1290.31C1760.53 1302.04 1768.35 1309.87 1780.09 1309.87H1789.88C1801.62 1309.87 1809.44 1302.04 1809.44 1290.31V1226.41H1839.44V1259.01C1839.44 1270.75 1847.27 1278.57 1859.01 1278.57H1868.79C1880.53 1278.57 1888.36 1270.75 1888.36 1259.01V1245.97C1888.36 1234.24 1880.53 1226.41 1868.79 1226.41H1859.01C1847.27 1226.41 1839.44 1218.59 1839.44 1206.85V1197.08C1839.44 1185.34 1847.27 1177.52 1859.01 1177.52H1868.79C1880.53 1177.52 1888.36 1169.69 1888.36 1157.96V1144.92C1888.36 1133.18 1880.53 1125.36 1868.79 1125.36H1859.01C1847.27 1125.36 1839.44 1133.18 1839.44 1144.92V1177.52H1809.44V1113.62C1809.44 1101.89 1801.62 1094.06 1789.88 1094.06H1780.09C1768.35 1094.06 1760.53 1101.89 1760.53 1113.62V1177.52H1731.18V1144.92C1731.18 1133.18 1723.35 1125.36 1711.61 1125.36H1701.18C1689.44 1125.36 1681.61 1133.18 1681.61 1144.92V1157.96C1681.61 1169.69 1689.44 1177.52 1701.18 1177.52H1711.61C1723.35 1177.52 1731.18 1185.34 1731.18 1197.08V1206.85C1731.18 1218.59 1723.35 1226.41 1711.61 1226.41H1701.18C1689.44 1226.41 1681.61 1234.24 1681.61 1245.97V1259.01C1681.61 1270.75 1689.44 1278.57 1701.18 1278.57H1711.61C1723.35 1278.57 1731.18 1270.75 1731.18 1259.01Z" fill="black"/>
<path fill-rule="evenodd" clip-rule="evenodd" d="M1731.18 1226.42H1760.53V1290.31C1760.53 1302.05 1768.35 1309.87 1780.09 1309.87H1789.88C1801.62 1309.87 1809.44 1302.05 1809.44 1290.31V1226.42H1839.45V1259.02C1839.45 1270.75 1847.27 1278.58 1859.01 1278.58H1868.79C1880.53 1278.58 1888.36 1270.75 1888.36 1259.02V1245.98C1888.36 1234.24 1880.53 1226.42 1868.79 1226.42H1859.01C1855.03 1226.42 1851.5 1225.52 1848.58 1223.87C1845.79 1222.31 1843.55 1220.07 1841.99 1217.29C1840.34 1214.36 1839.45 1210.83 1839.45 1206.86V1197.08C1839.45 1193.1 1840.34 1189.57 1841.99 1186.65C1843.55 1183.86 1845.79 1181.63 1848.58 1180.06C1851.5 1178.42 1855.03 1177.52 1859.01 1177.52H1868.79C1880.53 1177.52 1888.36 1169.69 1888.36 1157.96V1144.92C1888.36 1133.18 1880.53 1125.36 1868.79 1125.36H1859.01C1847.27 1125.36 1839.45 1133.18 1839.45 1144.92V1177.52H1809.44V1113.62C1809.44 1101.89 1801.62 1094.06 1789.88 1094.06H1780.09C1768.35 1094.06 1760.53 1101.89 1760.53 1113.62V1177.52H1731.18V1144.92C1731.18 1133.18 1723.35 1125.36 1711.61 1125.36H1701.18C1689.44 1125.36 1681.61 1133.18 1681.61 1144.92V1157.96C1681.61 1169.69 1689.44 1177.52 1701.18 1177.52H1711.61C1715.59 1177.52 1719.12 1178.42 1722.05 1180.06C1724.83 1181.63 1727.07 1183.86 1728.63 1186.65C1730.28 1189.57 1731.18 1193.1 1731.18 1197.08V1206.86C1731.18 1210.83 1730.28 1214.36 1728.63 1217.29C1727.07 1220.07 1724.83 1222.31 1722.05 1223.87C1719.12 1225.52 1715.59 1226.42 1711.61 1226.42H1701.18C1689.44 1226.42 1681.61 1234.24 1681.61 1245.98V1259.02C1681.61 1270.75 1689.44 1278.58 1701.18 1278.58H1711.61C1723.35 1278.58 1731.18 1270.75 1731.18 1259.02V1226.42ZM1740.31 1235.55H1751.4V1290.31C1751.4 1298.25 1754.08 1305.58 1759.45 1310.95C1764.82 1316.31 1772.15 1319 1780.09 1319H1789.88C1797.82 1319 1805.15 1316.31 1810.52 1310.95C1815.89 1305.58 1818.57 1298.25 1818.57 1290.31V1235.55H1830.31V1259.02C1830.31 1266.96 1833 1274.29 1838.37 1279.65C1843.74 1285.02 1851.07 1287.7 1859.01 1287.7H1868.79C1876.74 1287.7 1884.07 1285.02 1889.44 1279.65C1894.8 1274.29 1897.49 1266.96 1897.49 1259.02V1245.98C1897.49 1238.03 1894.8 1230.71 1889.44 1225.34C1884.07 1219.98 1876.74 1217.29 1868.79 1217.29H1859.01C1855.22 1217.29 1852.76 1216.06 1851.28 1214.58C1849.8 1213.1 1848.58 1210.65 1848.58 1206.86V1197.08C1848.58 1193.28 1849.8 1190.83 1851.28 1189.35C1852.76 1187.87 1855.22 1186.65 1859.01 1186.65H1868.79C1876.74 1186.65 1884.07 1183.96 1889.44 1178.59C1894.8 1173.23 1897.49 1165.9 1897.49 1157.96V1144.92C1897.49 1136.98 1894.8 1129.65 1889.44 1124.28C1884.07 1118.92 1876.74 1116.23 1868.79 1116.23H1859.01C1851.07 1116.23 1843.74 1118.92 1838.37 1124.28C1833 1129.65 1830.31 1136.98 1830.31 1144.92V1168.39H1818.57V1113.62C1818.57 1105.68 1815.89 1098.35 1810.52 1092.99C1805.15 1087.62 1797.82 1084.94 1789.88 1084.94H1780.09C1772.15 1084.94 1764.82 1087.62 1759.45 1092.99C1754.08 1098.35 1751.4 1105.68 1751.4 1113.62V1168.39H1740.31V1144.92C1740.31 1136.98 1737.62 1129.65 1732.25 1124.28C1726.89 1118.92 1719.56 1116.23 1711.61 1116.23H1701.18C1693.23 1116.23 1685.9 1118.92 1680.53 1124.28C1675.17 1129.65 1672.48 1136.98 1672.48 1144.92V1157.96C1672.48 1165.9 1675.17 1173.23 1680.53 1178.59C1685.9 1183.96 1693.23 1186.65 1701.18 1186.65H1711.61C1715.41 1186.65 1717.86 1187.87 1719.34 1189.35C1720.82 1190.83 1722.05 1193.28 1722.05 1197.08V1206.86C1722.05 1210.65 1720.82 1213.1 1719.34 1214.58C1717.86 1216.06 1715.41 1217.29 1711.61 1217.29H1701.18C1693.23 1217.29 1685.9 1219.98 1680.53 1225.34C1675.17 1230.71 1672.48 1238.03 1672.48 1245.98V1259.02C1672.48 1266.96 1675.17 1274.29 1680.53 1279.65C1685.9 1285.02 1693.23 1287.7 1701.18 1287.7H1711.61C1719.56 1287.7 1726.89 1285.02 1732.25 1279.65C1737.62 1274.29 1740.31 1266.96 1740.31 1259.02V1235.55Z" fill="black"/>
<path d="M1944.8 1059.83V1027.23H1974.15V1091.12C1974.15 1102.86 1981.97 1110.68 1993.71 1110.68H2003.49C2015.23 1110.68 2023.06 1102.86 2023.06 1091.12V1027.23H2053.06V1059.83C2053.06 1071.56 2060.89 1079.39 2072.63 1079.39H2082.41C2094.15 1079.39 2101.98 1071.56 2101.98 1059.83V1046.79C2101.98 1035.05 2094.15 1027.23 2082.41 1027.23H2072.63C2060.89 1027.23 2053.06 1019.41 2053.06 1007.67V997.891C2053.06 986.155 2060.89 978.331 2072.63 978.331H2082.41C2094.15 978.331 2101.98 970.508 2101.98 958.772V945.732C2101.98 933.997 2094.15 926.173 2082.41 926.173H2072.63C2060.89 926.173 2053.06 933.997 2053.06 945.732V978.331H2023.06V914.437C2023.06 902.701 2015.23 894.878 2003.49 894.878H1993.71C1981.97 894.878 1974.15 902.701 1974.15 914.437V978.331H1944.8V945.732C1944.8 933.997 1936.97 926.173 1925.23 926.173H1914.8C1903.06 926.173 1895.23 933.997 1895.23 945.732V958.772C1895.23 970.508 1903.06 978.331 1914.8 978.331H1925.23C1936.97 978.331 1944.8 986.155 1944.8 997.891V1007.67C1944.8 1019.41 1936.97 1027.23 1925.23 1027.23H1914.8C1903.06 1027.23 1895.23 1035.05 1895.23 1046.79V1059.83C1895.23 1071.56 1903.06 1079.39 1914.8 1079.39H1925.23C1936.97 1079.39 1944.8 1071.56 1944.8 1059.83Z" fill="black"/>
<path fill-rule="evenodd" clip-rule="evenodd" d="M1944.8 1027.23H1974.15V1091.13C1974.15 1102.86 1981.97 1110.69 1993.71 1110.69H2003.5C2015.24 1110.69 2023.06 1102.86 2023.06 1091.13V1027.23H2053.06V1059.83C2053.06 1071.57 2060.89 1079.39 2072.63 1079.39H2082.41C2094.15 1079.39 2101.98 1071.57 2101.98 1059.83V1046.79C2101.98 1035.06 2094.15 1027.23 2082.41 1027.23H2072.63C2068.65 1027.23 2065.12 1026.33 2062.19 1024.69C2059.41 1023.13 2057.17 1020.89 2055.61 1018.11C2053.96 1015.18 2053.06 1011.65 2053.06 1007.67V997.893C2053.06 993.916 2053.96 990.388 2055.61 987.462C2057.17 984.679 2059.41 982.441 2062.19 980.877C2065.12 979.232 2068.65 978.334 2072.63 978.334H2082.41C2094.15 978.334 2101.98 970.51 2101.98 958.774V945.734C2101.98 933.998 2094.15 926.174 2082.41 926.174H2072.63C2060.89 926.174 2053.06 933.998 2053.06 945.734V978.334H2023.06V914.439C2023.06 902.703 2015.24 894.879 2003.5 894.879H1993.71C1981.97 894.879 1974.15 902.703 1974.15 914.439V978.334H1944.8V945.734C1944.8 933.998 1936.97 926.174 1925.23 926.174H1914.79C1903.05 926.174 1895.23 933.998 1895.23 945.734V958.774C1895.23 970.51 1903.05 978.334 1914.79 978.334H1925.23C1929.21 978.334 1932.74 979.232 1935.67 980.877C1938.45 982.441 1940.69 984.679 1942.25 987.462C1943.9 990.388 1944.8 993.916 1944.8 997.893V1007.67C1944.8 1011.65 1943.9 1015.18 1942.25 1018.11C1940.69 1020.89 1938.45 1023.13 1935.67 1024.69C1932.74 1026.33 1929.21 1027.23 1925.23 1027.23H1914.79C1903.05 1027.23 1895.23 1035.06 1895.23 1046.79V1059.83C1895.23 1071.57 1903.05 1079.39 1914.79 1079.39H1925.23C1936.97 1079.39 1944.8 1071.57 1944.8 1059.83V1027.23ZM1953.93 1036.36H1965.01V1091.13C1965.01 1099.07 1967.7 1106.4 1973.07 1111.76C1978.44 1117.13 1985.77 1119.82 1993.71 1119.82H2003.5C2011.44 1119.82 2018.77 1117.13 2024.14 1111.76C2029.5 1106.4 2032.19 1099.07 2032.19 1091.13V1036.36H2043.93V1059.83C2043.93 1067.77 2046.62 1075.1 2051.99 1080.47C2057.35 1085.83 2064.68 1088.52 2072.63 1088.52H2082.41C2090.36 1088.52 2097.69 1085.83 2103.06 1080.47C2108.42 1075.1 2111.11 1067.77 2111.11 1059.83V1046.79C2111.11 1038.85 2108.42 1031.52 2103.06 1026.16C2097.69 1020.79 2090.36 1018.11 2082.41 1018.11H2072.63C2068.83 1018.11 2066.38 1016.88 2064.9 1015.4C2063.42 1013.92 2062.19 1011.47 2062.19 1007.67V997.893C2062.19 994.1 2063.42 991.648 2064.9 990.167C2066.38 988.686 2068.83 987.462 2072.63 987.462H2082.41C2090.36 987.462 2097.69 984.774 2103.06 979.409C2108.42 974.044 2111.11 966.716 2111.11 958.774V945.734C2111.11 937.792 2108.42 930.464 2103.06 925.099C2097.69 919.734 2090.36 917.047 2082.41 917.047H2072.63C2064.68 917.047 2057.35 919.734 2051.99 925.099C2046.62 930.464 2043.93 937.792 2043.93 945.734V969.206H2032.19V914.439C2032.19 906.496 2029.5 899.169 2024.14 893.803C2018.77 888.438 2011.44 885.751 2003.5 885.751H1993.71C1985.77 885.751 1978.44 888.438 1973.07 893.803C1967.7 899.169 1965.01 906.496 1965.01 914.439V969.206H1953.93V945.734C1953.93 937.792 1951.24 930.464 1945.87 925.099C1940.51 919.734 1933.17 917.047 1925.23 917.047H1914.79C1906.85 917.047 1899.52 919.734 1894.15 925.099C1888.79 930.464 1886.1 937.792 1886.1 945.734V958.774C1886.1 966.716 1888.79 974.044 1894.15 979.409C1899.52 984.774 1906.85 987.462 1914.79 987.462H1925.23C1929.02 987.462 1931.48 988.686 1932.96 990.167C1934.44 991.648 1935.67 994.1 1935.67 997.893V1007.67C1935.67 1011.47 1934.44 1013.92 1932.96 1015.4C1931.48 1016.88 1929.02 1018.11 1925.23 1018.11H1914.79C1906.85 1018.11 1899.52 1020.79 1894.15 1026.16C1888.79 1031.52 1886.1 1038.85 1886.1 1046.79V1059.83C1886.1 1067.77 1888.79 1075.1 1894.15 1080.47C1899.52 1085.83 1906.85 1088.52 1914.79 1088.52H1925.23C1933.17 1088.52 1940.51 1085.83 1945.87 1080.47C1951.24 1075.1 1953.93 1067.77 1953.93 1059.83V1036.36Z" fill="black"/>
<path d="M1608 976.81V925.16H1654.5V1026.39C1654.5 1044.99 1666.9 1057.38 1685.5 1057.38H1701C1719.61 1057.38 1732.01 1044.99 1732.01 1026.39V925.16H1779.54V976.81C1779.54 995.404 1791.94 1007.8 1810.54 1007.8H1826.04C1844.64 1007.8 1857.04 995.404 1857.04 976.81V956.15C1857.04 937.556 1844.64 925.16 1826.04 925.16H1810.54C1791.94 925.16 1779.54 912.764 1779.54 894.17V878.675C1779.54 860.081 1791.94 847.685 1810.54 847.685H1826.04C1844.64 847.685 1857.04 835.289 1857.04 816.695V796.035C1857.04 777.441 1844.64 765.045 1826.04 765.045H1810.54C1791.94 765.045 1779.54 777.441 1779.54 796.035V847.685H1732.01V746.451C1732.01 727.856 1719.61 715.46 1701 715.46H1685.5C1666.9 715.46 1654.5 727.856 1654.5 746.451V847.685H1608V796.035C1608 777.441 1595.6 765.045 1577 765.045H1560.47C1541.87 765.045 1529.47 777.441 1529.47 796.035V816.695C1529.47 835.289 1541.87 847.685 1560.47 847.685H1577C1595.6 847.685 1608 860.081 1608 878.675V894.17C1608 912.764 1595.6 925.16 1577 925.16H1560.47C1541.87 925.16 1529.47 937.556 1529.47 956.15V976.81C1529.47 995.404 1541.87 1007.8 1560.47 1007.8H1577C1595.6 1007.8 1608 995.404 1608 976.81Z" fill="black"/>
<path fill-rule="evenodd" clip-rule="evenodd" d="M1608 925.164H1654.5V1026.4C1654.5 1044.99 1666.91 1057.39 1685.51 1057.39H1701.01C1719.61 1057.39 1732.01 1044.99 1732.01 1026.4V925.164H1779.54V976.815C1779.54 995.41 1791.94 1007.81 1810.54 1007.81H1826.04C1844.64 1007.81 1857.04 995.41 1857.04 976.815V956.155C1857.04 937.561 1844.64 925.164 1826.04 925.164H1810.54C1804.24 925.164 1798.65 923.741 1794.01 921.134C1789.6 918.657 1786.05 915.11 1783.57 910.702C1780.97 906.066 1779.54 900.476 1779.54 894.174V878.679C1779.54 872.377 1780.97 866.787 1783.57 862.15C1786.05 857.743 1789.6 854.196 1794.01 851.718C1798.65 849.112 1804.24 847.688 1810.54 847.688H1826.04C1844.64 847.688 1857.04 835.292 1857.04 816.698V796.037C1857.04 777.443 1844.64 765.047 1826.04 765.047H1810.54C1791.94 765.047 1779.54 777.443 1779.54 796.037V847.688H1732.01V746.453C1732.01 727.858 1719.61 715.462 1701.01 715.462H1685.51C1666.91 715.462 1654.5 727.858 1654.5 746.453V847.688H1608V796.037C1608 777.443 1595.6 765.047 1577 765.047H1560.47C1541.87 765.047 1529.47 777.443 1529.47 796.037V816.698C1529.47 835.292 1541.87 847.688 1560.47 847.688H1577C1583.31 847.688 1588.9 849.112 1593.54 851.718C1597.95 854.196 1601.49 857.743 1603.97 862.15C1606.58 866.787 1608 872.377 1608 878.679V894.174C1608 900.476 1606.58 906.066 1603.97 910.702C1601.49 915.11 1597.95 918.657 1593.54 921.134C1588.9 923.741 1583.31 925.164 1577 925.164H1560.47C1541.87 925.164 1529.47 937.561 1529.47 956.155V976.815C1529.47 995.41 1541.87 1007.81 1560.47 1007.81H1577C1595.6 1007.81 1608 995.41 1608 976.815V925.164ZM1622.47 939.627H1640.04V1026.4C1640.04 1038.98 1644.3 1050.59 1652.8 1059.09C1661.3 1067.6 1672.92 1071.85 1685.51 1071.85H1701.01C1713.59 1071.85 1725.21 1067.6 1733.71 1059.09C1742.22 1050.59 1746.47 1038.98 1746.47 1026.4V939.627H1765.08V976.815C1765.08 989.399 1769.33 1001.01 1777.84 1009.51C1786.34 1018.01 1797.96 1022.27 1810.54 1022.27H1826.04C1838.63 1022.27 1850.25 1018.01 1858.75 1009.51C1867.25 1001.01 1871.51 989.399 1871.51 976.815V956.155C1871.51 943.571 1867.25 931.961 1858.75 923.46C1850.25 914.96 1838.63 910.702 1826.04 910.702H1810.54C1804.53 910.702 1800.64 908.762 1798.3 906.416C1795.95 904.07 1794.01 900.185 1794.01 894.174V878.679C1794.01 872.668 1795.95 868.783 1798.3 866.437C1800.64 864.091 1804.53 862.15 1810.54 862.15H1826.04C1838.63 862.15 1850.25 857.893 1858.75 849.392C1867.25 840.892 1871.51 829.281 1871.51 816.698V796.037C1871.51 783.454 1867.25 771.844 1858.75 763.343C1850.25 754.842 1838.63 750.585 1826.04 750.585H1810.54C1797.96 750.585 1786.34 754.842 1777.84 763.343C1769.33 771.844 1765.08 783.454 1765.08 796.037V833.226H1746.47V746.453C1746.47 733.869 1742.22 722.259 1733.71 713.758C1725.21 705.258 1713.59 701 1701.01 701H1685.51C1672.92 701 1661.3 705.258 1652.8 713.758C1644.3 722.259 1640.04 733.869 1640.04 746.453V833.226H1622.47V796.037C1622.47 783.454 1618.21 771.844 1609.71 763.343C1601.2 754.842 1589.59 750.585 1577 750.585H1560.47C1547.88 750.585 1536.27 754.842 1527.76 763.343C1519.26 771.844 1515 783.454 1515 796.037V816.698C1515 829.281 1519.26 840.892 1527.76 849.392C1536.27 857.893 1547.88 862.15 1560.47 862.15H1577C1583.02 862.15 1586.9 864.091 1589.25 866.437C1591.6 868.783 1593.54 872.668 1593.54 878.679V894.174C1593.54 900.185 1591.6 904.07 1589.25 906.416C1586.9 908.762 1583.02 910.702 1577 910.702H1560.47C1547.88 910.702 1536.27 914.96 1527.76 923.46C1519.26 931.961 1515 943.571 1515 956.155V976.815C1515 989.399 1519.26 1001.01 1527.76 1009.51C1536.27 1018.01 1547.88 1022.27 1560.47 1022.27H1577C1589.59 1022.27 1601.2 1018.01 1609.71 1009.51C1618.21 1001.01 1622.47 989.399 1622.47 976.815V939.627Z" fill="black"/>
</svg>
