<svg width="301" height="31" viewBox="0 0 301 31" fill="none" xmlns="http://www.w3.org/2000/svg">
<path d="M260.5 7.07403V7.38935L260.785 7.52523C261.15 7.69972 261.508 7.91778 261.854 8.18268C264.3 10.0577 267.7 10.0577 270.146 8.18268C270.492 7.91778 270.85 7.69972 271.215 7.52523L271.5 7.38935V7.07403V7C271.5 3.41015 274.41 0.5 278 0.5H294C297.59 0.5 300.5 3.41015 300.5 7V24C300.5 27.5898 297.59 30.5 294 30.5H278C274.41 30.5 271.5 27.5899 271.5 24V22.4094V22.1318L271.264 21.985C270.961 21.796 270.666 21.5709 270.385 21.3074L270.043 21.6723L270.385 21.3074C267.918 18.9966 264.082 18.9966 261.615 21.3074C261.334 21.5709 261.039 21.796 260.736 21.9851L260.5 22.1318V22.4095V26C260.5 28.4853 258.485 30.5 256 30.5H5.00001C2.51472 30.5 0.5 28.4853 0.5 26V5C0.5 2.51472 2.51472 0.5 5 0.5H256C258.485 0.5 260.5 2.51472 260.5 5V7.07403Z" fill="#D400A6" stroke="#D400A6"/>
</svg>
