<svg width="16" height="17" viewBox="0 0 16 17" fill="none" xmlns="http://www.w3.org/2000/svg">
<path d="M11.6258 12.316V10.1353H9.66249V14.4095C9.66249 15.1946 9.13894 15.7179 8.35362 15.7179H7.69919C6.91386 15.7179 6.39032 15.1946 6.39032 14.4095V10.1353H4.38338V12.316C4.38338 13.1011 3.85983 13.6244 3.07451 13.6244H2.42008C1.63475 13.6244 1.11121 13.1011 1.11121 12.316V11.4437C1.11121 10.6587 1.63475 10.1353 2.42008 10.1353H3.07451C3.85983 10.1353 4.38338 9.61193 4.38338 8.82688V8.17267C4.38338 7.38761 3.85983 6.86424 3.07451 6.86424H2.42008C1.63475 6.86424 1.11121 6.34087 1.11121 5.55581V4.68353C1.11121 3.89847 1.63475 3.3751 2.42008 3.3751H3.07451C3.85983 3.3751 4.38338 3.89847 4.38338 4.68353V6.86424H6.39032V2.59004C6.39032 1.80499 6.91386 1.28162 7.69919 1.28162H8.35362C9.13894 1.28162 9.66249 1.80499 9.66249 2.59004V6.86424H11.6258V4.68353C11.6258 3.89847 12.1493 3.3751 12.9347 3.3751H13.6327C14.4181 3.3751 14.9416 3.89847 14.9416 4.68353V5.55581C14.9416 6.34087 14.4181 6.86424 13.6327 6.86424H12.9347C12.1493 6.86424 11.6258 7.38761 11.6258 8.17267V8.82688C11.6258 9.61193 12.1493 10.1353 12.9347 10.1353H13.6327C14.4181 10.1353 14.9416 10.6587 14.9416 11.4437V12.316C14.9416 13.1011 14.4181 13.6244 13.6327 13.6244H12.9347C12.1493 13.6244 11.6258 13.1011 11.6258 12.316Z" fill="#FFFEF6"/>
<path fill-rule="evenodd" clip-rule="evenodd" d="M11.6258 10.1356H9.66239V14.4099C9.66239 15.195 9.13883 15.7184 8.35348 15.7184H7.69902C6.91367 15.7184 6.39011 15.195 6.39011 14.4099V10.1356H4.38311V12.3164C4.38311 13.1015 3.85954 13.6249 3.0742 13.6249H2.41974C1.63439 13.6249 1.11083 13.1015 1.11083 12.3164V11.4441C1.11083 10.659 1.63439 10.1356 2.41974 10.1356H3.0742C3.34036 10.1356 3.57645 10.0755 3.77228 9.96546C3.95845 9.86084 4.10824 9.7111 4.21289 9.52499C4.32297 9.32923 4.38311 9.09322 4.38311 8.82715V8.17291C4.38311 7.90684 4.32297 7.67083 4.21289 7.47506C4.10824 7.28895 3.95845 7.13922 3.77228 7.0346C3.57645 6.92456 3.34036 6.86444 3.0742 6.86444H2.41974C1.63439 6.86444 1.11083 6.34106 1.11083 5.55597V4.68366C1.11083 3.89858 1.63439 3.37519 2.41974 3.37519H3.0742C3.85954 3.37519 4.38311 3.89858 4.38311 4.68366V6.86444H6.39011V2.59011C6.39011 1.80503 6.91367 1.28164 7.69902 1.28164H8.35348C9.13883 1.28164 9.66239 1.80503 9.66239 2.59011V6.86444H11.6258V4.68366C11.6258 3.89858 12.1493 3.37519 12.9347 3.37519H13.6328C14.4181 3.37519 14.9417 3.89858 14.9417 4.68366V5.55597C14.9417 6.34106 14.4181 6.86444 13.6328 6.86444H12.9347C12.6685 6.86444 12.4324 6.92456 12.2366 7.0346C12.0504 7.13922 11.9006 7.28895 11.796 7.47506C11.6859 7.67083 11.6258 7.90684 11.6258 8.17291V8.82715C11.6258 9.09322 11.6859 9.32923 11.796 9.52499C11.9006 9.7111 12.0504 9.86084 12.2366 9.96546C12.4324 10.0755 12.6685 10.1356 12.9347 10.1356H13.6328C14.4181 10.1356 14.9417 10.659 14.9417 11.4441V12.3164C14.9417 13.1015 14.4181 13.6249 13.6328 13.6249H12.9347C12.1493 13.6249 11.6258 13.1015 11.6258 12.3164V10.1356ZM11.0149 10.7462H10.2732V14.4099C10.2732 14.9412 10.0934 15.4315 9.73436 15.7904C9.37533 16.1493 8.88496 16.329 8.35348 16.329H7.69902C7.16754 16.329 6.67717 16.1493 6.31814 15.7904C5.95911 15.4315 5.77928 14.9412 5.77928 14.4099V10.7462H4.99393V12.3164C4.99393 12.8477 4.81411 13.3379 4.45508 13.6968C4.09605 14.0557 3.60568 14.2355 3.0742 14.2355H2.41974C1.88826 14.2355 1.39789 14.0557 1.03886 13.6968C0.679827 13.3379 0.5 12.8477 0.5 12.3164V11.4441C0.5 10.9128 0.679827 10.4226 1.03886 10.0637C1.39789 9.70476 1.88826 9.52499 2.41974 9.52499H3.0742C3.32806 9.52499 3.49215 9.44307 3.59124 9.34401C3.69033 9.24496 3.77228 9.08093 3.77228 8.82715V8.17291C3.77228 7.91913 3.69033 7.7551 3.59124 7.65604C3.49215 7.55699 3.32806 7.47506 3.0742 7.47506H2.41974C1.88826 7.47506 1.39789 7.2953 1.03886 6.93639C0.679827 6.57748 0.5 6.08728 0.5 5.55597V4.68366C0.5 4.15236 0.679827 3.66216 1.03886 3.30325C1.39789 2.94434 1.88826 2.76457 2.41974 2.76457H3.0742C3.60568 2.76457 4.09605 2.94434 4.45508 3.30325C4.81411 3.66216 4.99393 4.15236 4.99393 4.68366V6.25382H5.77928V2.59011C5.77928 2.05881 5.95911 1.56861 6.31814 1.2097C6.67717 0.850787 7.16754 0.671021 7.69902 0.671021H8.35348C8.88496 0.671021 9.37533 0.850787 9.73436 1.2097C10.0934 1.56861 10.2732 2.05881 10.2732 2.59011V6.25382H11.0149V4.68366C11.0149 4.15236 11.1948 3.66216 11.5538 3.30325C11.9128 2.94434 12.4032 2.76457 12.9347 2.76457H13.6328C14.1642 2.76457 14.6546 2.94434 15.0136 3.30325C15.3727 3.66216 15.5525 4.15236 15.5525 4.68366V5.55597C15.5525 6.08728 15.3727 6.57748 15.0136 6.93639C14.6546 7.2953 14.1642 7.47506 13.6328 7.47506H12.9347C12.6808 7.47506 12.5167 7.55699 12.4176 7.65604C12.3185 7.7551 12.2366 7.91913 12.2366 8.17291V8.82715C12.2366 9.08093 12.3185 9.24496 12.4176 9.34401C12.5167 9.44307 12.6808 9.52499 12.9347 9.52499H13.6328C14.1642 9.52499 14.6546 9.70476 15.0136 10.0637C15.3727 10.4226 15.5525 10.9128 15.5525 11.4441V12.3164C15.5525 12.8477 15.3727 13.3379 15.0136 13.6968C14.6546 14.0557 14.1642 14.2355 13.6328 14.2355H12.9347C12.4032 14.2355 11.9128 14.0557 11.5538 13.6968C11.1948 13.3379 11.0149 12.8477 11.0149 12.3164V10.7462Z" fill="#FFFEF6"/>
</svg>
