<svg width="17" height="16" viewBox="0 0 17 16" fill="none" xmlns="http://www.w3.org/2000/svg">
<path d="M3.57506 2.89333V2.46778C3.57506 1.70179 4.08589 1.19113 4.85214 1.19113H7.34282C7.89511 1.19113 8.34282 1.63885 8.34282 2.19113V3.16997C8.34282 3.72225 8.79054 4.16997 9.34282 4.16997H12.1106C12.6629 4.16997 13.1106 3.72226 13.1106 3.16997V2.46778C13.1106 1.70179 13.6214 1.19113 14.3877 1.19113H14.8133C15.5796 1.19113 16.0904 1.70179 16.0904 2.46778V2.89333C16.0904 3.65931 15.5796 4.16997 14.8133 4.16997H14.3877C13.6214 4.16997 13.1106 4.68063 13.1106 5.44662V5.87217C13.1106 6.63815 12.5997 7.14881 11.8335 7.14881H9.34282C8.79054 7.14881 8.34282 6.70109 8.34282 6.14881V5.16997C8.34282 4.61769 7.89511 4.16997 7.34282 4.16997H4.57506C4.02278 4.16997 3.57506 4.61769 3.57506 5.16997V5.87217C3.57506 6.63815 3.06423 7.14881 2.29799 7.14881H1.87229C1.10605 7.14881 0.595215 6.63815 0.595215 5.87217V5.44662C0.595215 4.68063 1.10605 4.16997 1.87229 4.16997H2.29799C3.06423 4.16997 3.57506 3.65931 3.57506 2.89333ZM3.57506 10.5532V10.1276C3.57506 9.36166 4.08589 8.851 4.85214 8.851H7.34282C7.89511 8.851 8.34282 9.29872 8.34282 9.851V10.8298C8.34282 11.3821 8.79054 11.8298 9.34282 11.8298H12.1106C12.6629 11.8298 13.1106 11.3821 13.1106 10.8298V10.1276C13.1106 9.36166 13.6214 8.851 14.3877 8.851H14.8133C15.5796 8.851 16.0904 9.36166 16.0904 10.1276V10.5532C16.0904 11.3192 15.5796 11.8298 14.8133 11.8298H14.3877C13.6214 11.8298 13.1106 12.3405 13.1106 13.1065V13.532C13.1106 14.298 12.5997 14.8087 11.8335 14.8087H9.34282C8.79054 14.8087 8.34282 14.361 8.34282 13.8087V12.8298C8.34282 12.2776 7.89511 11.8298 7.34282 11.8298H4.57506C4.02278 11.8298 3.57506 12.2776 3.57506 12.8298V13.532C3.57506 14.298 3.06423 14.8087 2.29799 14.8087H1.87229C1.10605 14.8087 0.595215 14.298 0.595215 13.532V13.1065C0.595215 12.3405 1.10605 11.8298 1.87229 11.8298H2.29799C3.06423 11.8298 3.57506 11.3192 3.57506 10.5532Z" fill="#FFFEF6"/>
<path fill-rule="evenodd" clip-rule="evenodd" d="M7.93955 0.595459C8.49183 0.595459 8.93955 1.04318 8.93955 1.59546V2.5743C8.93955 3.12658 9.38726 3.5743 9.93955 3.5743H11.5154C12.0677 3.5743 12.5154 3.12658 12.5154 2.5743V2.46787C12.5154 1.94949 12.6908 1.47121 13.0411 1.12103C13.3914 0.770853 13.8699 0.595459 14.3884 0.595459H14.8141C15.3327 0.595459 15.8111 0.770853 16.1614 1.12103C16.5117 1.47121 16.6872 1.94949 16.6872 2.46787V2.89342C16.6872 3.4118 16.5117 3.89008 16.1614 4.24026C15.8111 4.59044 15.3327 4.76583 14.8141 4.76583H14.3884C14.1407 4.76583 13.9806 4.84577 13.8839 4.94241C13.7873 5.03906 13.7073 5.1991 13.7073 5.44671V5.87226C13.7073 6.39064 13.5319 6.86892 13.1816 7.2191C12.8313 7.56928 12.3528 7.74467 11.8343 7.74467H8.74761C8.19532 7.74467 7.74761 7.29696 7.74761 6.74467V5.76583C7.74761 5.21355 7.29989 4.76583 6.74761 4.76583H5.17179C4.6195 4.76583 4.17179 5.21355 4.17179 5.76583V5.87226C4.17179 6.39064 3.99634 6.86892 3.64604 7.2191C3.29574 7.56928 2.8173 7.74467 2.29874 7.74467H1.87305C1.35449 7.74467 0.87605 7.56928 0.525752 7.2191C0.175453 6.86892 0 6.39064 0 5.87226V5.44671C0 4.92833 0.175453 4.45005 0.525752 4.09987C0.876051 3.74969 1.35449 3.5743 1.87305 3.5743H2.29874C2.54643 3.5743 2.70653 3.49436 2.80321 3.39772C2.89989 3.30107 2.97985 3.14103 2.97985 2.89342V2.46787C2.97985 1.94949 3.1553 1.47121 3.5056 1.12103C3.8559 0.770853 4.33434 0.595459 4.8529 0.595459H7.93955ZM3.57582 5.17007C3.57582 4.61778 4.02353 4.17007 4.57582 4.17007H8.34358V6.1489C8.34358 6.70119 8.79129 7.1489 9.34358 7.1489H11.8343C12.6005 7.1489 13.1113 6.63825 13.1113 5.87226V5.44671C13.1113 5.18711 13.17 4.95684 13.2774 4.76583C13.3795 4.58425 13.5257 4.43816 13.7073 4.33609C13.8984 4.22872 14.1287 4.17007 14.3884 4.17007H14.8141C15.5804 4.17007 16.0912 3.65941 16.0912 2.89342V2.46787C16.0912 1.70189 15.5804 1.19123 14.8141 1.19123H14.3884C13.6222 1.19123 13.1113 1.70189 13.1113 2.46787V3.17007C13.1113 3.72235 12.6636 4.17007 12.1113 4.17007H8.34358V2.19123C8.34358 1.63894 7.89586 1.19123 7.34358 1.19123H4.8529C4.08665 1.19123 3.57582 1.70189 3.57582 2.46787V2.89342C3.57582 3.15302 3.51715 3.38329 3.40974 3.5743C3.30764 3.75588 3.16149 3.90198 2.97985 4.00404C2.78878 4.11141 2.55843 4.17007 2.29874 4.17007H1.87305C1.1068 4.17007 0.59597 4.68072 0.59597 5.44671V5.87226C0.59597 6.63825 1.1068 7.1489 1.87305 7.1489H2.29874C3.06499 7.1489 3.57582 6.63825 3.57582 5.87226V5.17007ZM7.93955 8.25533C8.49183 8.25533 8.93955 8.70305 8.93955 9.25533V10.2342C8.93955 10.7865 9.38726 11.2342 9.93955 11.2342H11.5154C12.0677 11.2342 12.5154 10.7865 12.5154 10.2342V10.1277C12.5154 9.60936 12.6908 9.13108 13.0411 8.7809C13.3914 8.43072 13.8699 8.25533 14.3884 8.25533H14.8141C15.3327 8.25533 15.8111 8.43072 16.1614 8.7809C16.5117 9.13108 16.6872 9.60936 16.6872 10.1277V10.5533C16.6872 11.0717 16.5117 11.5499 16.1614 11.9001C15.8111 12.2503 15.3327 12.4257 14.8141 12.4257H14.3884C14.1407 12.4257 13.9806 12.5056 13.8839 12.6023C13.7873 12.6989 13.7073 12.859 13.7073 13.1066V13.5321C13.7073 14.0505 13.5319 14.5288 13.1816 14.879C12.8313 15.2291 12.3528 15.4045 11.8343 15.4045H8.74761C8.19532 15.4045 7.74761 14.9568 7.74761 14.4045V13.4257C7.74761 12.8734 7.29989 12.4257 6.74761 12.4257H5.17179C4.6195 12.4257 4.17179 12.8734 4.17179 13.4257V13.5321C4.17179 14.0505 3.99634 14.5288 3.64604 14.879C3.29574 15.2291 2.8173 15.4045 2.29874 15.4045H1.87305C1.35449 15.4045 0.876051 15.2291 0.525752 14.879C0.175453 14.5288 0 14.0505 0 13.5321V13.1066C0 12.5882 0.175453 12.1099 0.525752 11.7597C0.87605 11.4096 1.35449 11.2342 1.87305 11.2342H2.29874C2.54643 11.2342 2.70653 11.1542 2.80321 11.0576C2.89989 10.9609 2.97985 10.8009 2.97985 10.5533V10.1277C2.97985 9.60936 3.1553 9.13108 3.5056 8.7809C3.8559 8.43072 4.33434 8.25533 4.8529 8.25533H7.93955ZM3.57582 12.8299C3.57582 12.2776 4.02353 11.8299 4.57582 11.8299H8.34358V13.8088C8.34358 14.3611 8.79129 14.8088 9.34358 14.8088H11.8343C12.6005 14.8088 13.1113 14.2981 13.1113 13.5321V13.1066C13.1113 12.847 13.17 12.6167 13.2774 12.4257C13.3795 12.2441 13.5257 12.098 13.7073 11.996C13.8984 11.8886 14.1287 11.8299 14.3884 11.8299H14.8141C15.5804 11.8299 16.0912 11.3193 16.0912 10.5533V10.1277C16.0912 9.36175 15.5804 8.8511 14.8141 8.8511H14.3884C13.6222 8.8511 13.1113 9.36175 13.1113 10.1277V10.8299C13.1113 11.3822 12.6636 11.8299 12.1113 11.8299H8.34358V9.8511C8.34358 9.29881 7.89586 8.8511 7.34358 8.8511H4.8529C4.08665 8.8511 3.57582 9.36175 3.57582 10.1277V10.5533C3.57582 10.8129 3.51715 11.0432 3.40974 11.2342C3.30764 11.4157 3.16149 11.5618 2.97985 11.6639C2.78878 11.7713 2.55843 11.8299 2.29874 11.8299H1.87305C1.1068 11.8299 0.59597 12.3406 0.59597 13.1066V13.5321C0.59597 14.2981 1.1068 14.8088 1.87305 14.8088H2.29874C3.06499 14.8088 3.57582 14.2981 3.57582 13.5321V12.8299Z" fill="#FFFEF6"/>
</svg>
