<svg width="20" height="13" viewBox="0 0 20 13" fill="none" xmlns="http://www.w3.org/2000/svg">
<path d="M1.12402 10.2674V7.19081C1.12402 6.38822 1.65927 5.85315 2.46214 5.85315H4.24629C5.04915 5.85315 5.5844 5.31809 5.5844 4.51549V2.73195C5.5844 1.92935 6.11964 1.39429 6.92251 1.39429H8.70666C9.50953 1.39429 10.0448 1.92935 10.0448 2.73195V4.85315C10.0448 5.40544 9.59706 5.85315 9.04477 5.85315H6.5844C6.03211 5.85315 5.5844 6.30087 5.5844 6.85315V10.6051C5.5844 11.1574 5.13668 11.6051 4.5844 11.6051H2.46214C1.65927 11.6051 1.12402 11.07 1.12402 10.2674ZM9.95557 10.2674V7.19081C9.95557 6.38822 10.4908 5.85315 11.2937 5.85315H13.0778C13.8807 5.85315 14.4159 5.31809 14.4159 4.51549V2.73195C14.4159 1.92935 14.9512 1.39429 15.7541 1.39429H17.5382C18.3411 1.39429 18.8763 1.92935 18.8763 2.73195V4.85315C18.8763 5.40544 18.4286 5.85315 17.8763 5.85315H15.4159C14.8637 5.85315 14.4159 6.30087 14.4159 6.85315V10.6051C14.4159 11.1574 13.9682 11.6051 13.4159 11.6051H11.2937C10.4908 11.6051 9.95557 11.07 9.95557 10.2674Z" fill="black"/>
<path fill-rule="evenodd" clip-rule="evenodd" d="M9.04515 5.85346C9.59744 5.85346 10.0452 5.40575 10.0452 4.85346V2.73228C10.0452 1.92968 9.50991 1.39462 8.70705 1.39462H6.92291C6.12004 1.39462 5.5848 1.92968 5.5848 2.73228V4.51581C5.5848 4.78781 5.52332 5.02909 5.41079 5.22923C5.3038 5.41948 5.15067 5.57256 4.96035 5.67951C4.76015 5.79201 4.51879 5.85346 4.2467 5.85346H2.46255C1.65969 5.85346 1.12445 6.38852 1.12445 7.19111V10.2677C1.12445 11.0703 1.65969 11.6054 2.46255 11.6054H4.5848C5.13709 11.6054 5.5848 11.1576 5.5848 10.6054V6.85346C5.5848 6.30118 6.03252 5.85346 6.5848 5.85346H9.04515ZM6.20925 7.4777C6.20925 6.92541 6.65697 6.4777 7.20925 6.4777H8.72172C9.07691 6.4777 9.3315 6.83592 9.3315 7.19111V10.2677C9.3315 10.8109 9.51533 11.312 9.88237 11.6789C10.2494 12.0458 10.7507 12.2296 11.2941 12.2296H14.0407C14.593 12.2296 15.0407 11.7819 15.0407 11.2296V7.4777C15.0407 6.92541 15.4885 6.4777 16.0407 6.4777H18.5011C19.0534 6.4777 19.5011 6.02998 19.5011 5.4777V2.73228C19.5011 2.18912 19.3173 1.68799 18.9502 1.32108C18.5832 0.954162 18.0819 0.770386 17.5385 0.770386H15.7544C15.2111 0.770386 14.7098 0.954161 14.3427 1.32108C13.9757 1.68799 13.7918 2.18912 13.7918 2.73228V4.51581C13.7918 4.77525 13.7081 4.94294 13.6068 5.04421C13.5055 5.14547 13.3377 5.22923 13.0782 5.22923H11.2941C10.9782 5.22923 10.6696 5.00005 10.6696 4.6842V2.73228C10.6696 2.18912 10.4858 1.68799 10.1187 1.32108C9.75169 0.954162 9.25038 0.770386 8.70705 0.770386H6.92291C6.37957 0.770386 5.87827 0.954161 5.51123 1.32108C5.14419 1.68799 4.96035 2.18912 4.96035 2.73228V4.51581C4.96035 4.77525 4.87657 4.94294 4.77527 5.04421C4.67397 5.14547 4.50622 5.22923 4.2467 5.22923H2.46255C1.91922 5.22923 1.41791 5.413 1.05088 5.77991C0.683838 6.14683 0.5 6.64796 0.5 7.19111V10.2677C0.5 10.8109 0.683837 11.312 1.05088 11.6789C1.41791 12.0458 1.91922 12.2296 2.46255 12.2296H5.20925C5.76154 12.2296 6.20925 11.7819 6.20925 11.2296V7.4777ZM10.6696 5.98194C10.4376 6.08875 10.2532 6.25856 10.13 6.4777C10.0174 6.67783 9.95595 6.91911 9.95595 7.19111V10.2677C9.95595 11.0703 10.4912 11.6054 11.2941 11.6054H13.4163C13.9686 11.6054 14.4163 11.1576 14.4163 10.6054V6.85346C14.4163 6.30118 14.864 5.85346 15.4163 5.85346H17.8766C18.4289 5.85346 18.8766 5.40575 18.8766 4.85346V2.73228C18.8766 1.92968 18.3414 1.39462 17.5385 1.39462H15.7544C14.9515 1.39462 14.4163 1.92968 14.4163 2.73228V4.51581C14.4163 4.78781 14.3548 5.02909 14.2423 5.22923C14.1353 5.41948 13.9822 5.57256 13.7918 5.67951C13.5916 5.79201 13.3503 5.85346 13.0782 5.85346H11.2941C11.0612 5.85346 10.8509 5.89846 10.6696 5.98194Z" fill="black"/>
</svg>
