<svg width="19" height="13" viewBox="0 0 19 13" fill="none" xmlns="http://www.w3.org/2000/svg">
<path d="M0.62439 10.2674V7.19081C0.62439 6.38822 1.15963 5.85315 1.9625 5.85315H3.74665C4.54952 5.85315 5.08477 5.31809 5.08477 4.51549V2.73195C5.08477 1.92935 5.62001 1.39429 6.42288 1.39429H8.20703C9.0099 1.39429 9.54514 1.92935 9.54514 2.73195V4.85315C9.54514 5.40544 9.09743 5.85315 8.54514 5.85315H6.08477C5.53248 5.85315 5.08477 6.30087 5.08477 6.85315V10.6051C5.08477 11.1574 4.63705 11.6051 4.08477 11.6051H1.9625C1.15963 11.6051 0.62439 11.07 0.62439 10.2674ZM9.45593 10.2674V7.19081C9.45593 6.38822 9.99118 5.85315 10.794 5.85315H12.5782C13.3811 5.85315 13.9163 5.31809 13.9163 4.51549V2.73195C13.9163 1.92935 14.4516 1.39429 15.2544 1.39429H17.0386C17.8414 1.39429 18.3767 1.92935 18.3767 2.73195V4.85315C18.3767 5.40544 17.929 5.85315 17.3767 5.85315H14.9163C14.364 5.85315 13.9163 6.30087 13.9163 6.85315V10.6051C13.9163 11.1574 13.4686 11.6051 12.9163 11.6051H10.794C9.99118 11.6051 9.45593 11.07 9.45593 10.2674Z" fill="#A80084"/>
<path fill-rule="evenodd" clip-rule="evenodd" d="M8.54515 5.85346C9.09744 5.85346 9.54515 5.40575 9.54515 4.85346V2.73228C9.54515 1.92968 9.00991 1.39462 8.20705 1.39462H6.42291C5.62004 1.39462 5.0848 1.92968 5.0848 2.73228V4.51581C5.0848 4.78781 5.02332 5.02909 4.91079 5.22923C4.8038 5.41948 4.65067 5.57256 4.46035 5.67951C4.26015 5.79201 4.01879 5.85346 3.7467 5.85346H1.96255C1.15969 5.85346 0.624449 6.38852 0.624449 7.19111V10.2677C0.624449 11.0703 1.15969 11.6054 1.96255 11.6054H4.0848C4.63709 11.6054 5.0848 11.1576 5.0848 10.6054V6.85346C5.0848 6.30118 5.53252 5.85346 6.0848 5.85346H8.54515ZM5.70925 7.4777C5.70925 6.92541 6.15697 6.4777 6.70925 6.4777H8.22172C8.57691 6.4777 8.8315 6.83592 8.8315 7.19111V10.2677C8.8315 10.8109 9.01533 11.312 9.38237 11.6789C9.74941 12.0458 10.2507 12.2296 10.7941 12.2296H13.5407C14.093 12.2296 14.5407 11.7819 14.5407 11.2296V7.4777C14.5407 6.92541 14.9885 6.4777 15.5407 6.4777H18.0011C18.5534 6.4777 19.0011 6.02998 19.0011 5.4777V2.73228C19.0011 2.18912 18.8173 1.68799 18.4502 1.32108C18.0832 0.954162 17.5819 0.770386 17.0385 0.770386H15.2544C14.7111 0.770386 14.2098 0.954161 13.8427 1.32108C13.4757 1.68799 13.2918 2.18912 13.2918 2.73228V4.51581C13.2918 4.77525 13.2081 4.94294 13.1068 5.04421C13.0055 5.14547 12.8377 5.22923 12.5782 5.22923H10.7941C10.4782 5.22923 10.1696 5.00005 10.1696 4.6842V2.73228C10.1696 2.18912 9.98576 1.68799 9.61873 1.32108C9.25169 0.954162 8.75038 0.770386 8.20705 0.770386H6.42291C5.87957 0.770386 5.37827 0.954161 5.01123 1.32108C4.64419 1.68799 4.46035 2.18912 4.46035 2.73228V4.51581C4.46035 4.77525 4.37657 4.94294 4.27527 5.04421C4.17397 5.14547 4.00622 5.22923 3.7467 5.22923H1.96255C1.41922 5.22923 0.917914 5.413 0.550876 5.77991C0.183838 6.14683 0 6.64796 0 7.19111V10.2677C0 10.8109 0.183837 11.312 0.550876 11.6789C0.917914 12.0458 1.41922 12.2296 1.96255 12.2296H4.70925C5.26154 12.2296 5.70925 11.7819 5.70925 11.2296V7.4777ZM10.1696 5.98194C9.93762 6.08875 9.75318 6.25856 9.62996 6.4777C9.51742 6.67783 9.45595 6.91911 9.45595 7.19111V10.2677C9.45595 11.0703 9.99119 11.6054 10.7941 11.6054H12.9163C13.4686 11.6054 13.9163 11.1576 13.9163 10.6054V6.85346C13.9163 6.30118 14.364 5.85346 14.9163 5.85346H17.3766C17.9289 5.85346 18.3766 5.40575 18.3766 4.85346V2.73228C18.3766 1.92968 17.8414 1.39462 17.0385 1.39462H15.2544C14.4515 1.39462 13.9163 1.92968 13.9163 2.73228V4.51581C13.9163 4.78781 13.8548 5.02909 13.7423 5.22923C13.6353 5.41948 13.4822 5.57256 13.2918 5.67951C13.0916 5.79201 12.8503 5.85346 12.5782 5.85346H10.7941C10.5612 5.85346 10.3509 5.89846 10.1696 5.98194Z" fill="#A80084"/>
</svg>

