<svg width="16" height="24" viewBox="0 0 16 24" fill="none" xmlns="http://www.w3.org/2000/svg">
<g id="Group 363">
<path id="^" d="M1.94499 5.03914H4.03845C4.59073 5.03914 5.03845 5.48686 5.03845 6.03914L5.03845 8.45987C5.03845 9.01216 5.48616 9.45987 6.03845 9.45987H8.45767C9.00996 9.45987 9.45767 9.90759 9.45767 10.4599V12.8806C9.45767 13.4329 9.00996 13.8806 8.45767 13.8806H6.03845C5.48616 13.8806 5.03845 14.3283 5.03845 14.8806V17.3013C5.03845 17.8536 4.59073 18.3013 4.03845 18.3013H1.94499C1.14953 18.3013 0.619221 18.8318 0.619221 19.6275V21.3958C0.619221 22.1916 1.14953 22.722 1.94499 22.722H2.38691C3.97783 22.722 5.03845 21.6611 5.03845 20.0254C5.03845 19.0086 5.74552 18.3013 6.76194 18.3013H7.95513C8.83898 18.3013 9.45767 17.6824 9.45767 16.7983V15.9583C9.45767 14.7205 10.2973 13.8806 11.5347 13.8806H13.5676C14.2746 13.8806 14.7607 13.3943 14.7607 12.687V10.7861C14.7607 9.99036 14.2304 9.45987 13.435 9.45987H12.1534C10.5625 9.45987 9.45767 8.35469 9.45767 6.71902C9.45767 5.70226 8.79479 5.03914 7.77836 5.03914H6.62937C5.70133 5.03914 5.03845 4.37604 5.03845 3.44769V2.51933C5.03845 1.36995 4.28718 0.618422 3.13818 0.618422H1.63564C1.01695 0.618422 0.619221 1.01629 0.619221 1.63519V3.71293C0.619221 4.50866 1.14953 5.03914 1.94499 5.03914Z" fill="#FFFEF6"/>
<path id="^ (Stroke)" fill-rule="evenodd" clip-rule="evenodd" d="M5.65661 4.73862C5.53465 4.64958 5.42784 4.54272 5.33882 4.42073C5.14708 4.15795 5.03792 3.8249 5.03792 3.44817V2.51982C5.03792 1.37043 4.28665 0.618908 3.13765 0.618908H1.63511C1.01642 0.618908 0.618691 1.01677 0.618691 1.63567V3.71341C0.618691 4.50914 1.149 5.03963 1.94446 5.03963H4.03792C4.5902 5.03963 5.03792 5.48734 5.03792 6.03963V8.46036C5.03792 9.01264 5.48563 9.46036 6.03792 9.46036H8.45714C9.00943 9.46036 9.45714 9.90807 9.45714 10.4604V12.8811C9.45714 13.4334 9.00943 13.8811 8.45714 13.8811H6.03792C5.48563 13.8811 5.03792 14.3288 5.03792 14.8811V17.3018C5.03792 17.8541 4.5902 18.3018 4.03792 18.3018H1.94446C1.149 18.3018 0.618691 18.8323 0.618691 19.628V21.3963C0.618691 22.192 1.149 22.7225 1.94446 22.7225H2.38638C3.9773 22.7225 5.03792 21.6616 5.03792 20.0259C5.03792 19.5903 5.16771 19.2114 5.39602 18.9207C5.47228 18.8236 5.55953 18.7363 5.65661 18.66C5.94724 18.4316 6.32594 18.3018 6.76142 18.3018H7.95461C8.83845 18.3018 9.45714 17.6829 9.45714 16.7988V15.9588C9.45714 15.3645 9.65071 14.8619 9.98892 14.5C10.0169 14.47 10.0459 14.441 10.0758 14.413C10.4377 14.0747 10.9401 13.8811 11.5342 13.8811H13.567C14.2741 13.8811 14.7602 13.3948 14.7602 12.6875V10.7866C14.7602 9.99084 14.2299 9.46036 13.4344 9.46036H12.1529C10.5619 9.46036 9.45714 8.35518 9.45714 6.71951C9.45714 5.70274 8.79426 5.03963 7.77784 5.03963H6.62884C6.25224 5.03963 5.9193 4.93043 5.65661 4.73862ZM4.41923 16.6829C4.41923 17.2352 3.97151 17.6829 3.41923 17.6829H1.94446C1.40613 17.6829 0.909451 17.8651 0.545798 18.2289C0.182143 18.5927 0 19.0895 0 19.628V21.3963C0 21.9348 0.182143 22.4317 0.545798 22.7954C0.909452 23.1592 1.40613 23.3414 1.94446 23.3414H2.38638C3.32264 23.3414 4.15236 23.0264 4.74881 22.4226C5.34475 21.8194 5.65661 20.9799 5.65661 20.0259C5.65661 19.6648 5.7796 19.3966 5.95599 19.2202C6.13239 19.0437 6.40044 18.9207 6.76142 18.9207H7.95461C8.54473 18.9207 9.08284 18.7116 9.4748 18.3195C9.86675 17.9274 10.0758 17.3891 10.0758 16.7988V15.9588C10.0758 15.4833 10.2344 15.1282 10.4691 14.8934C10.7038 14.6586 11.0588 14.5 11.5342 14.5H13.567C14.066 14.5 14.5277 14.3258 14.8663 13.9872C15.2048 13.6485 15.3789 13.1866 15.3789 12.6875V10.7866C15.3789 10.2481 15.1968 9.75121 14.8331 9.38744C14.4695 9.02366 13.9728 8.84145 13.4344 8.84145H12.1529C11.5046 8.84145 10.9951 8.61905 10.6484 8.26822C10.3014 7.91703 10.0758 7.39479 10.0758 6.71951C10.0758 6.07392 9.86268 5.48734 9.43613 5.06065C9.00958 4.63396 8.42321 4.42073 7.77784 4.42073H6.62884C6.04249 4.42073 5.65661 4.03471 5.65661 3.44817V2.51982C5.65661 1.80752 5.42111 1.16584 4.95614 0.700714C4.49117 0.235584 3.84971 5.72205e-06 3.13765 5.72205e-06H1.63511C1.19087 5.72205e-06 0.769335 0.145544 0.457413 0.457573C0.14549 0.7696 0 1.19128 0 1.63567V3.71341C0 4.25192 0.182143 4.74877 0.545798 5.11255C0.909452 5.47633 1.40613 5.65853 1.94446 5.65853H3.41923C3.97151 5.65853 4.41923 6.10625 4.41923 6.65853L4.41923 9.07926C4.41923 9.63154 4.86694 10.0793 5.41923 10.0793H7.83845C8.39074 10.0793 8.83845 10.527 8.83845 11.0793V12.2622C8.83845 12.8145 8.39074 13.2622 7.83845 13.2622H5.41923C4.86694 13.2622 4.41923 13.7099 4.41923 14.2622V16.6829Z" fill="#FFFEF6"/>
</g>
</svg>
