<svg width="20" height="16" viewBox="0 0 20 16" fill="none" xmlns="http://www.w3.org/2000/svg">
<path d="M9.98701 0C7.02801 0 4.53501 1.45402 2.48701 3.84402C1.78701 4.66102 1.173 5.534 0.674995 6.40599C0.372994 6.93299 0.189 7.34201 0.0810001 7.59401C-0.027 7.84501 -0.027 8.15499 0.0810001 8.40599C0.189 8.65799 0.372994 9.06601 0.674995 9.59401C1.173 10.466 1.78701 11.339 2.48701 12.156C2.78801 12.507 3.115 12.856 3.438 13.164L2.31699 14.276C1.92699 14.666 1.906 15.309 2.296 15.699C2.687 16.09 3.315 16.109 3.706 15.719L8.58101 10.812L12.831 6.59401L17.706 1.71902C18.096 1.32802 18.096 0.672005 17.706 0.281005C17.511 0.0860057 17.243 0 16.987 0C16.731 0 16.465 0.123023 16.269 0.318023L15.016 1.58801C13.523 0.594012 11.785 0 9.98701 0ZM9.98701 2C11.236 2 12.47 2.37801 13.555 3.02801L12.042 4.56301C11.444 4.21801 10.699 3.99999 9.98701 3.99999C7.77801 3.99999 5.98701 5.79099 5.98701 7.99999C5.98701 8.71698 6.222 9.444 6.568 10.041L4.839 11.736C4.544 11.458 4.25601 11.157 3.98701 10.844C3.37501 10.13 2.864 9.36201 2.425 8.59401C2.27 8.32301 2.20301 8.18299 2.11201 7.99999C2.20301 7.81599 2.27 7.67699 2.425 7.40599C2.864 6.63799 3.37501 5.87 3.98701 5.156C5.68901 3.171 7.69601 2 9.98701 2ZM17.925 4.84402C17.673 4.79602 17.403 4.84399 17.175 4.99999C16.718 5.31099 16.613 5.91899 16.925 6.37499C17.264 6.87299 17.558 7.38401 17.8 7.84401C17.838 7.91601 17.831 7.93899 17.862 7.99999C17.771 8.18299 17.704 8.32301 17.55 8.59401C17.11 9.36201 16.599 10.13 15.987 10.844C14.285 12.829 12.278 14 9.98701 14C9.73901 14 9.21301 13.951 8.70601 13.875C8.16001 13.793 7.66301 14.172 7.58101 14.719C7.49901 15.265 7.878 15.762 8.425 15.844C9.031 15.935 9.60601 16 9.98701 16C12.946 16 15.439 14.546 17.487 12.156C18.188 11.339 18.801 10.466 19.3 9.59401C19.601 9.06601 19.785 8.65799 19.893 8.40599C20.001 8.15499 20.001 7.84501 19.893 7.59401C19.663 7.05601 19.241 6.21899 18.581 5.24999C18.425 5.02199 18.176 4.89102 17.925 4.84402ZM9.98701 5.99999C10.141 5.99999 10.388 6.03301 10.533 6.06701L8.06901 8.51799C7.98801 8.29599 7.98701 8.15299 7.98701 7.99999C7.98701 6.89499 8.88301 5.99999 9.98701 5.99999Z" fill="#D400A6"/>
</svg>
