<svg width="20" height="20" viewBox="0 0 20 20" fill="none" xmlns="http://www.w3.org/2000/svg">
<path d="M14.431 0.0013613C13.143 0.0343613 11.9 0.629348 10.811 1.71935L9.28199 3.24935C8.89199 3.63935 8.89199 4.26435 9.28199 4.65435C9.67199 5.04435 10.328 5.04435 10.718 4.65435L12.215 3.12435C13.664 1.67435 15.271 1.52935 16.864 3.12435C18.458 4.71835 18.313 6.32636 16.864 7.77636L13.838 10.8053C12.389 12.2553 10.782 12.3993 9.18899 10.8053L8.75199 10.3684C7.81099 9.42637 6.406 10.8314 7.348 11.7734L7.785 12.2103C10.221 14.6483 13.064 14.3893 15.242 12.2103L18.268 9.18136C20.446 7.00236 20.705 4.15735 18.268 1.71935C17.05 0.500348 15.718 -0.0306387 14.431 0.0013613ZM8.18999 6.05935C6.98899 6.13735 5.81999 6.71336 4.75799 7.77636L1.73199 10.8053C-0.705015 13.2433 -0.446015 16.0884 1.73199 18.2674C3.90899 20.4464 6.75299 20.7054 9.18899 18.2674L10.718 16.7374C11.108 16.3474 11.108 15.7224 10.718 15.3324C10.328 14.9424 9.67199 14.9424 9.28199 15.3324L7.785 16.8624C6.191 18.4574 4.58499 18.3124 3.13599 16.8624C1.68699 15.4124 1.54199 13.8053 3.13599 12.2103L6.16199 9.18136C6.897 8.44636 7.62299 8.10236 8.31499 8.05736C9.152 8.00236 10.03 8.39936 10.811 9.18136L11.248 9.61837C11.638 10.0084 12.262 10.0084 12.652 9.61837C13.042 9.22837 13.042 8.60337 12.652 8.21337L12.215 7.77636C11.058 6.61836 9.664 5.96235 8.18999 6.05935Z" fill="white"/>
</svg>
