<svg width="61" height="60" viewBox="0 0 61 60" fill="none" xmlns="http://www.w3.org/2000/svg">
<circle cx="30.5" cy="30" r="30" fill="#D400A6"/>
<path d="M24.3609 20.131H25.63C26.116 20.131 26.4401 20.455 26.4401 20.9411V22.8312H34.5405V17.1068H28.2222C27.1421 17.1068 26.4401 16.4048 26.4401 15.2977C26.4401 14.7577 26.089 14.4067 25.549 14.4067H25.063C24.2799 14.4067 23.7399 13.8667 23.7399 13.0836V11.1125C23.7399 10.0324 24.4419 9.3304 25.549 9.3304C26.089 9.3304 26.4401 8.97938 26.4401 8.43935V7.95332C26.4401 7.17028 26.9801 6.63025 27.7901 6.63025H32.8394C33.8655 6.63025 34.5405 7.30529 34.5405 8.35835C34.5405 8.95238 34.9185 9.3304 35.5126 9.3304H36.0796C36.7816 9.3304 37.2407 9.78943 37.2407 10.4915V11.4095C37.2407 11.7875 36.9976 12.0306 36.6196 12.0306H35.3506C34.8645 12.0306 34.5405 11.7065 34.5405 11.2205V9.3304H26.4401V14.4067H32.7584C33.8385 14.4067 34.5405 15.1087 34.5405 16.2158C34.5405 16.7558 34.8915 17.1068 35.4316 17.1068H35.9176C36.7006 17.1068 37.2407 17.6469 37.2407 18.4299V21.0491C37.2407 22.1291 36.5386 22.8312 35.4316 22.8312C34.8915 22.8312 34.5405 23.1822 34.5405 23.7222V24.2082C34.5405 24.9913 34.0005 25.5313 33.1904 25.5313H28.1412C27.1151 25.5313 26.4401 24.8563 26.4401 23.8032C26.4401 23.2092 26.062 22.8312 25.468 22.8312H24.901C24.1989 22.8312 23.7399 22.3721 23.7399 21.6701V20.752C23.7399 20.374 23.9829 20.131 24.3609 20.131Z" fill="#E7EB17"/>
<path d="M24.3594 36.7639H25.6285C26.1145 36.7639 26.4386 37.0879 26.4386 37.5739V39.464H34.539V33.7397H28.2207C27.1406 33.7397 26.4386 33.0377 26.4386 31.9306C26.4386 31.3906 26.0875 31.0396 25.5475 31.0396H25.0615C24.2784 31.0396 23.7384 30.4995 23.7384 29.7165V27.7454C23.7384 26.6653 24.4404 25.9633 25.5475 25.9633C26.0875 25.9633 26.4386 25.6123 26.4386 25.0722V24.5862C26.4386 23.8032 26.9786 23.2631 27.7886 23.2631H32.8379C33.864 23.2631 34.539 23.9382 34.539 24.9912C34.539 25.5853 34.917 25.9633 35.5111 25.9633H36.0781C36.7801 25.9633 37.2392 26.4223 37.2392 27.1243V28.0424C37.2392 28.4204 36.9961 28.6634 36.6181 28.6634H35.3491C34.863 28.6634 34.539 28.3394 34.539 27.8534V25.9633H26.4386V31.0396H32.7569C33.837 31.0396 34.539 31.7416 34.539 32.8487C34.539 33.3887 34.89 33.7397 35.4301 33.7397H35.9161C36.6991 33.7397 37.2392 34.2797 37.2392 35.0628V37.6819C37.2392 38.762 36.5371 39.464 35.4301 39.464C34.89 39.464 34.539 39.8151 34.539 40.3551V40.8411C34.539 41.6242 33.999 42.1642 33.1889 42.1642H28.1397C27.1136 42.1642 26.4386 41.4891 26.4386 40.4361C26.4386 39.8421 26.0605 39.464 25.4665 39.464H24.8995C24.1974 39.464 23.7384 39.005 23.7384 38.303V37.3849C23.7384 37.0069 23.9814 36.7639 24.3594 36.7639Z" fill="#E7EB17"/>
<path d="M34.539 46.9165V47.4835C34.539 47.9696 34.863 48.2936 35.3491 48.2936H36.4291C36.9151 48.2936 37.2392 48.6176 37.2392 49.1036V52.5598C37.2392 53.0458 36.9151 53.3699 36.4291 53.3699H35.3491C34.863 53.3699 34.539 53.0458 34.539 52.5598V48.2936H31.8389V45.5934H29.1387V48.2936H26.4386V52.5598C26.4386 53.0458 26.1145 53.3699 25.6285 53.3699H24.5484C24.0624 53.3699 23.7384 53.0458 23.7384 52.5598V49.1036C23.7384 48.6176 24.0624 48.2936 24.5484 48.2936H25.6285C26.1145 48.2936 26.4386 47.9696 26.4386 47.4835V46.9165C26.4386 46.1064 26.9516 45.5934 27.7616 45.5934C28.5987 45.5934 29.1387 45.0534 29.1387 44.2433V43.5413C29.1387 42.7313 28.5987 42.2182 27.7616 42.2182C26.9516 42.2182 26.4386 41.7052 26.4386 40.8952V40.3281C26.4386 39.8421 26.1145 39.5181 25.6285 39.5181H24.5484C24.0624 39.5181 23.7384 39.1941 23.7384 38.708V35.2518C23.7384 34.7658 24.0624 34.4418 24.5484 34.4418H25.6285C26.1145 34.4418 26.4386 34.7658 26.4386 35.2518V39.5181H29.1387V42.0712L30.4998 40.8952L31.8389 42.0712V39.5181H34.539V35.2518C34.539 34.7658 34.863 34.4418 35.3491 34.4418H36.4291C36.9151 34.4418 37.2392 34.7658 37.2392 35.2518V38.708C37.2392 39.1941 36.9151 39.5181 36.4291 39.5181H35.3491C34.863 39.5181 34.539 39.8421 34.539 40.3281V40.8952C34.539 41.7052 33.999 42.2182 33.1619 42.2182C32.3519 42.2182 31.8389 42.7313 31.8389 43.5413V44.2433C31.8389 45.0534 32.3519 45.5934 33.1619 45.5934C33.999 45.5934 34.539 46.1064 34.539 46.9165Z" fill="#E7EB17"/>
</svg>
