<svg width="21" height="25" viewBox="0 0 21 25" fill="none" xmlns="http://www.w3.org/2000/svg">
<path d="M10.4999 4.88488C10.0664 4.88485 9.64251 4.75627 9.282 4.51538C8.92146 4.27448 8.64045 3.93206 8.47451 3.53145C8.30857 3.13083 8.26515 2.69001 8.34975 2.26472C8.43434 1.83942 8.64315 1.44877 8.94977 1.14215C9.25639 0.835533 9.64704 0.626724 10.0723 0.542128C10.4976 0.457533 10.9384 0.50095 11.3391 0.666891C11.7397 0.832831 12.0821 1.11384 12.323 1.47439C12.5639 1.8349 12.6925 2.25874 12.6925 2.69232C12.6918 3.27359 12.4605 3.83085 12.0495 4.24188C11.6385 4.65291 11.0812 4.88414 10.4999 4.88488Z" fill="#FFFEF6" stroke="#FFFEF6"/>
<path d="M19.055 5.91684L19.0549 5.91666C19.0127 5.9285 18.9692 5.9415 18.9239 5.95555L18.9167 5.9578L18.9166 5.95775C18.031 6.21758 13.6214 7.46458 10.4793 7.46458C7.55672 7.46458 3.54278 6.38574 2.28646 6.02863L2.26432 6.02234L2.24285 6.01404C2.13482 5.97227 2.0245 5.93669 1.91242 5.90748L1.91129 5.90718C1.67051 5.84382 1.47187 5.92023 1.30239 6.11321C1.11894 6.3221 1 6.64583 1 6.95929C1 7.20174 1.09848 7.38063 1.29447 7.54744C1.50815 7.72929 1.81751 7.87659 2.18736 8.0162L19.055 5.91684ZM19.055 5.91684L19.068 5.91282M19.055 5.91684L19.068 5.91282M19.068 5.91282L19.0787 5.9095L19.089 5.90676C19.0892 5.90669 19.0895 5.90662 19.0898 5.90655C19.3298 5.84379 19.5282 5.92028 19.6976 6.11351C19.8811 6.32284 20 6.64696 20 6.96025C20 7.20491 19.8995 7.38544 19.698 7.55432C19.4785 7.73833 19.162 7.88623 18.7859 8.02726L18.7849 8.02765C18.7751 8.03135 18.7651 8.03456 18.7549 8.03726L18.7365 8.04216L18.7186 8.04843L14.4261 9.54899L14.426 9.54886L14.4153 9.55288C14.1091 9.66784 13.8751 9.7907 13.7017 9.90888C13.5442 10.0163 13.3934 10.149 13.3107 10.3022L13.3049 10.313C13.3045 10.3137 13.3041 10.3144 13.3037 10.3152L13.3008 10.3205L13.3006 10.3208C13.1658 10.576 13.0361 11.1338 13.2365 12.3924L13.5139 14.5485L13.5157 14.5625L13.5183 14.5764L15.0871 22.9773L15.0889 22.9869L15.091 22.9963C15.1023 23.0457 15.1121 23.0986 15.1206 23.1546C15.1563 23.3994 15.0848 23.6304 14.9268 23.8021C14.7706 23.972 14.498 24.1164 14.0766 24.1164C13.7542 24.1164 13.5603 24.0173 13.4226 23.8774C13.2702 23.7226 13.146 23.4749 13.0585 23.1175C13.0385 23.0355 13.0234 22.9547 13.0047 22.8548L13.0012 22.836L12.5097 22.928L13.0012 22.836C12.9006 22.2982 12.5451 20.4332 12.1366 18.6998C11.9329 17.8352 11.7129 16.9902 11.502 16.3562C11.3976 16.0423 11.2886 15.7592 11.1767 15.5469C11.1219 15.4427 11.0539 15.3313 10.9694 15.239C10.8982 15.1612 10.732 15.0049 10.4784 15.0049C10.227 15.0049 10.0619 15.1583 9.99016 15.2363C9.90602 15.3277 9.83877 15.4379 9.78489 15.5403C9.67503 15.749 9.56877 16.0267 9.46737 16.3341C9.26248 16.9552 9.04976 17.7841 8.85251 18.6359C8.45697 20.344 8.11142 22.1983 8.00263 22.7947L7.99834 22.8182C7.97525 22.945 7.95617 23.0497 7.92988 23.1522C7.84121 23.4978 7.7173 23.7361 7.56693 23.885C7.43045 24.0202 7.2381 24.1164 6.9205 24.1164C6.50028 24.1164 6.22807 23.9726 6.07177 23.8034C5.91528 23.6339 5.84342 23.4067 5.87577 23.1656L5.88502 23.1145L5.88513 23.1146L5.88674 23.1045C5.8894 23.0879 5.89233 23.072 5.89549 23.0568L5.89564 23.0568L5.89786 23.0446L7.44554 14.5736L7.4479 14.5606L7.44957 14.5476L7.72747 12.3916C7.75614 12.2121 7.81218 11.8556 7.83534 11.4748C7.85741 11.112 7.85724 10.6355 7.71512 10.2702C7.66232 10.1333 7.57604 9.97742 7.40984 9.82712C7.25237 9.68472 7.04414 9.56632 6.77398 9.46276L6.75919 9.45709M19.068 5.91282L6.75919 9.45709M6.75919 9.45709L6.74407 9.45236M6.75919 9.45709L6.74407 9.45236M6.74407 9.45236L2.26565 8.05362M6.74407 9.45236L2.26565 8.05362M2.26565 8.05362C2.24096 8.03912 2.21481 8.02656 2.18737 8.01621L2.26565 8.05362Z" fill="#FFFEF6" stroke="#FFFEF6"/>
</svg>
