<svg width="20" height="16" viewBox="0 0 20 16" fill="none" xmlns="http://www.w3.org/2000/svg">
<path d="M5.45563 3.30402e-06C5.05463 0.0010033 4.63461 0.223991 4.48761 0.687991L0.049625 14.688C-0.117375 15.214 0.148625 15.77 0.674625 15.938C1.20062 16.105 1.75762 15.839 1.92462 15.313L3.29962 11H7.64362L9.04962 15.313C9.22062 15.838 9.77462 16.108 10.2996 15.938C10.8246 15.767 11.0946 15.213 10.9246 14.688L6.39362 0.687991C6.24362 0.224991 5.85763 -0.000996695 5.45563 3.30402e-06ZM15.5496 4C14.0216 4 12.5586 5.16699 12.0496 6.68798C11.8746 7.21098 12.1506 7.76198 12.6746 7.93798C13.1986 8.11298 13.7496 7.83598 13.9246 7.31298C14.1706 6.57798 14.9166 6 15.5496 6H16.4246C17.2556 6 17.9876 6.86399 17.9876 7.99999V8.99999C17.1016 8.99999 16.0056 8.99999 15.5496 8.99999C13.5836 8.99999 11.9876 10.561 11.9876 12.5C11.9876 14.44 13.5836 16.003 15.5496 16C15.5996 16 15.9196 16.001 16.0186 16C16.7856 15.992 17.4876 15.736 18.1126 15.344C18.2596 15.713 18.5656 16 18.9876 16C19.5396 16 19.9876 15.552 19.9876 15V12C19.9896 11.792 19.9876 10.077 19.9876 9.99999V7.99999C19.9876 5.822 18.4346 4 16.4246 4H15.5496ZM5.45563 4.281L6.98761 8.99999H3.95563L5.45563 4.281ZM15.5496 11C16.0056 11 17.1046 11 17.9876 11C17.9876 11.454 17.9886 11.872 17.9876 11.969C17.9706 13.204 17.0506 13.989 15.9876 14C15.9186 14.001 15.6326 14 15.5496 14C14.6776 14.001 13.9876 13.323 13.9876 12.5C13.9876 11.678 14.6756 11 15.5496 11Z" fill="#D400A6"/>
</svg>
