<svg width="21" height="17" viewBox="0 0 21 17" fill="none" xmlns="http://www.w3.org/2000/svg">
<path d="M5.86766 0.821916V1.56917C5.86766 1.90543 5.64341 2.12961 5.30703 2.12961H4.99889C4.44661 2.12961 3.99889 2.57732 3.99889 3.12961V6.6315C3.99889 7.14754 3.58039 7.56588 3.06435 7.56588C2.54848 7.56588 2.13012 7.98408 2.13012 8.49995C2.13012 9.01582 2.54848 9.43402 3.06435 9.43402C3.58039 9.43402 3.99889 9.85236 3.99889 10.3684V13.8703C3.99889 14.4226 4.44661 14.8703 4.99889 14.8703H5.30703C5.64341 14.8703 5.86766 15.0945 5.86766 15.4307V16.178C5.86766 16.5142 5.64341 16.7384 5.30703 16.7384H4.55952C4.22314 16.7384 3.99889 16.5142 3.99889 16.178V15.3C3.99889 15.0384 3.8307 14.8703 3.55039 14.8703C2.69075 14.8703 2.13012 14.3098 2.13012 13.4505V9.99446C2.13012 9.65819 1.90587 9.43402 1.56949 9.43402H0.821983C0.485605 9.43402 0.261353 9.20984 0.261353 8.87358V8.12632C0.261353 7.79006 0.485605 7.56588 0.821983 7.56588H1.56949C1.90587 7.56588 2.13012 7.34171 2.13012 7.00544V3.54939C2.13012 2.69005 2.69075 2.12961 3.56907 2.12961C3.8307 2.12961 3.99889 1.96148 3.99889 1.69994V0.821916C3.99889 0.485651 4.22314 0.261475 4.55952 0.261475H5.30703C5.64341 0.261475 5.86766 0.485651 5.86766 0.821916Z" fill="#FFFEF6"/>
<path fill-rule="evenodd" clip-rule="evenodd" d="M4.99916 2.12967C4.44688 2.12967 3.99916 2.57739 3.99916 3.12967V6.63156C3.99916 7.14761 3.58067 7.56595 3.06462 7.56595C2.54875 7.56595 2.1304 7.98414 2.1304 8.50001C2.1304 9.01588 2.54875 9.43408 3.06462 9.43408C3.58067 9.43408 3.99916 9.85242 3.99916 10.3685V13.8703C3.99916 14.4226 4.44688 14.8704 4.99916 14.8704H5.3073C5.64368 14.8704 5.86793 15.0945 5.86793 15.4308V16.178C5.86793 16.5143 5.64368 16.7385 5.3073 16.7385H4.55979C4.22342 16.7385 3.99916 16.5143 3.99916 16.178V15.3C3.99916 15.2385 3.98985 15.1821 3.97196 15.1319C3.93265 15.0216 3.85193 14.9409 3.73754 14.9002C3.6827 14.8807 3.62012 14.8704 3.55066 14.8704C2.69103 14.8704 2.1304 14.3099 2.1304 13.4506V9.99452C2.1304 9.88056 2.10464 9.77947 2.05749 9.69562C2.01267 9.61591 1.94851 9.55177 1.86877 9.50696C1.78489 9.45983 1.68377 9.43408 1.56977 9.43408H0.822258C0.48588 9.43408 0.261628 9.2099 0.261628 8.87364V8.12639C0.261628 7.79012 0.48588 7.56595 0.822258 7.56595H1.56977C1.68377 7.56595 1.78489 7.5402 1.86877 7.49306C1.94851 7.44825 2.01267 7.38412 2.05749 7.30441C2.10464 7.22056 2.1304 7.11947 2.1304 7.00551V3.54946C2.1304 2.69011 2.69103 2.12967 3.56935 2.12967C3.63091 2.12967 3.6873 2.12036 3.73754 2.10272C3.85057 2.06302 3.93249 1.98113 3.9722 1.86813C3.98985 1.81791 3.99916 1.76154 3.99916 1.7V0.82198C3.99916 0.485715 4.22342 0.261539 4.55979 0.261539H5.3073C5.64368 0.261539 5.86793 0.485715 5.86793 0.82198V1.56923C5.86793 1.9055 5.64368 2.12967 5.3073 2.12967H4.99916ZM4.26079 3.39121C4.26079 2.83893 4.70851 2.39121 5.26079 2.39121H5.3073C5.53495 2.39121 5.74498 2.31422 5.89876 2.16049C6.05254 2.00676 6.12956 1.7968 6.12956 1.56923V0.82198C6.12956 0.594413 6.05254 0.384451 5.89876 0.230724C5.74498 0.0769972 5.53495 0 5.3073 0H4.55979C4.33215 0 4.12212 0.0769972 3.96834 0.230724C3.81456 0.384452 3.73754 0.594414 3.73754 0.82198V1.7C3.73754 1.77375 3.71497 1.81039 3.69737 1.82798C3.67977 1.84557 3.64312 1.86813 3.56935 1.86813C3.07367 1.86813 2.64349 2.02736 2.33637 2.33151C2.02906 2.63585 1.86877 3.06174 1.86877 3.54946V7.00551C1.86877 7.1142 1.83367 7.18446 1.79122 7.22689C1.74878 7.26932 1.6785 7.30441 1.56977 7.30441H0.822258C0.594614 7.30441 0.384581 7.3814 0.230802 7.53513C0.0770231 7.68886 0 7.89882 0 8.12639V8.87364C0 9.10121 0.0770231 9.31117 0.230802 9.46489C0.384581 9.61862 0.594614 9.69562 0.822258 9.69562H1.56977C1.6785 9.69562 1.74878 9.73071 1.79122 9.77314C1.83367 9.81556 1.86877 9.88582 1.86877 9.99452V13.4506C1.86877 13.9382 2.02898 14.3636 2.33317 14.6677C2.63735 14.9717 3.06284 15.1319 3.55066 15.1319C3.63847 15.1319 3.67981 15.1573 3.6979 15.1749C3.71521 15.1917 3.73754 15.2265 3.73754 15.3V16.178C3.73754 16.4056 3.81456 16.6156 3.96834 16.7693C4.12212 16.923 4.33215 17 4.55979 17H5.3073C5.53495 17 5.74498 16.923 5.89876 16.7693C6.05254 16.6156 6.12956 16.4056 6.12956 16.178V15.4308C6.12956 15.2032 6.05254 14.9933 5.89876 14.8395C5.74498 14.6858 5.53495 14.6088 5.3073 14.6088H5.26079C4.70851 14.6088 4.26079 14.1611 4.26079 13.6088V10.1069C4.26079 9.59088 3.84245 9.17254 3.32641 9.17254H3.06455C2.69312 9.17254 2.39202 8.87144 2.39202 8.50001C2.39202 8.12858 2.69312 7.82748 3.06455 7.82748H3.32641C3.84245 7.82748 4.26079 7.40915 4.26079 6.8931V3.39121Z" fill="#FFFEF6"/>
<path d="M14.3915 0.821916V1.56917C14.3915 1.90543 14.6157 2.12961 14.9521 2.12961H15.2603C15.8126 2.12961 16.2603 2.57732 16.2603 3.12961V6.6315C16.2603 7.14754 16.6788 7.56588 17.1948 7.56588C17.7107 7.56588 18.129 7.98408 18.129 8.49995C18.129 9.01582 17.7107 9.43402 17.1948 9.43402C16.6788 9.43402 16.2603 9.85236 16.2603 10.3684V13.8703C16.2603 14.4226 15.8125 14.8703 15.2603 14.8703H14.9521C14.6157 14.8703 14.3915 15.0945 14.3915 15.4307V16.178C14.3915 16.5142 14.6157 16.7384 14.9521 16.7384H15.6996C16.036 16.7384 16.2603 16.5142 16.2603 16.178V15.3C16.2603 15.0384 16.4285 14.8703 16.7088 14.8703C17.5684 14.8703 18.129 14.3098 18.129 13.4505V9.99446C18.129 9.65819 18.3533 9.43402 18.6897 9.43402H19.4372C19.7736 9.43402 19.9978 9.20984 19.9978 8.87358V8.12632C19.9978 7.79006 19.7736 7.56588 19.4372 7.56588H18.6897C18.3533 7.56588 18.129 7.34171 18.129 7.00544V3.54939C18.129 2.69005 17.5684 2.12961 16.6901 2.12961C16.4285 2.12961 16.2603 1.96148 16.2603 1.69994V0.821916C16.2603 0.485651 16.036 0.261475 15.6996 0.261475H14.9521C14.6157 0.261475 14.3915 0.485651 14.3915 0.821916Z" fill="#FFFEF6"/>
<path fill-rule="evenodd" clip-rule="evenodd" d="M15.26 2.12967C15.8123 2.12967 16.26 2.57739 16.26 3.12967V6.63156C16.26 7.14761 16.6785 7.56595 17.1945 7.56595C17.7104 7.56595 18.1288 7.98414 18.1288 8.50001C18.1288 9.01588 17.7104 9.43408 17.1945 9.43408C16.6785 9.43408 16.26 9.85242 16.26 10.3685V13.8703C16.26 14.4226 15.8123 14.8704 15.26 14.8704H14.9519C14.6155 14.8704 14.3912 15.0945 14.3912 15.4308V16.178C14.3912 16.5143 14.6155 16.7385 14.9519 16.7385H15.6994C16.0357 16.7385 16.26 16.5143 16.26 16.178V15.3C16.26 15.2385 16.2693 15.1821 16.2872 15.1319C16.3265 15.0216 16.4072 14.9409 16.5216 14.9002C16.5765 14.8807 16.639 14.8704 16.7085 14.8704C17.5681 14.8704 18.1288 14.3099 18.1288 13.4506V9.99452C18.1288 9.88056 18.1545 9.77947 18.2017 9.69562C18.2465 9.61591 18.3106 9.55177 18.3904 9.50696C18.4743 9.45983 18.5754 9.43408 18.6894 9.43408H19.4369C19.7733 9.43408 19.9975 9.2099 19.9975 8.87364V8.12639C19.9975 7.79012 19.7733 7.56595 19.4369 7.56595H18.6894C18.5754 7.56595 18.4743 7.5402 18.3904 7.49306C18.3106 7.44825 18.2465 7.38412 18.2017 7.30441C18.1545 7.22056 18.1288 7.11947 18.1288 7.00551V3.54946C18.1288 2.69011 17.5681 2.12967 16.6898 2.12967C16.6282 2.12967 16.5719 2.12036 16.5216 2.10272C16.4086 2.06302 16.3267 1.98113 16.287 1.86813C16.2693 1.81791 16.26 1.76154 16.26 1.7V0.82198C16.26 0.485715 16.0357 0.261539 15.6994 0.261539H14.9519C14.6155 0.261539 14.3912 0.485715 14.3912 0.82198V1.56923C14.3912 1.9055 14.6155 2.12967 14.9519 2.12967H15.26ZM15.9984 3.39121C15.9984 2.83893 15.5506 2.39121 14.9984 2.39121H14.9519C14.7242 2.39121 14.5142 2.31422 14.3604 2.16049C14.2066 2.00676 14.1296 1.7968 14.1296 1.56923V0.82198C14.1296 0.594413 14.2066 0.384451 14.3604 0.230724C14.5142 0.0769972 14.7242 0 14.9519 0H15.6994C15.927 0 16.137 0.0769972 16.2908 0.230724C16.4446 0.384452 16.5216 0.594414 16.5216 0.82198V1.7C16.5216 1.77375 16.5442 1.81039 16.5618 1.82798C16.5794 1.84557 16.616 1.86813 16.6898 1.86813C17.1855 1.86813 17.6157 2.02736 17.9228 2.33151C18.2301 2.63585 18.3904 3.06174 18.3904 3.54946V7.00551C18.3904 7.1142 18.4255 7.18446 18.4679 7.22689C18.5104 7.26932 18.5807 7.30441 18.6894 7.30441H19.4369C19.6645 7.30441 19.8746 7.3814 20.0284 7.53513C20.1821 7.68886 20.2592 7.89882 20.2592 8.12639V8.87364C20.2592 9.10121 20.1821 9.31117 20.0284 9.46489C19.8746 9.61862 19.6645 9.69562 19.4369 9.69562H18.6894C18.5807 9.69562 18.5104 9.73071 18.4679 9.77314C18.4255 9.81556 18.3904 9.88582 18.3904 9.99452V13.4506C18.3904 13.9382 18.2302 14.3636 17.926 14.6677C17.6218 14.9717 17.1963 15.1319 16.7085 15.1319C16.6207 15.1319 16.5793 15.1573 16.5613 15.1749C16.5439 15.1917 16.5216 15.2265 16.5216 15.3V16.178C16.5216 16.4056 16.4446 16.6156 16.2908 16.7693C16.137 16.923 15.927 17 15.6994 17H14.9519C14.7242 17 14.5142 16.923 14.3604 16.7693C14.2066 16.6156 14.1296 16.4056 14.1296 16.178V15.4308C14.1296 15.2032 14.2066 14.9933 14.3604 14.8395C14.5142 14.6858 14.7242 14.6088 14.9519 14.6088H14.9984C15.5506 14.6088 15.9984 14.1611 15.9984 13.6088V10.1069C15.9984 9.59088 16.4167 9.17254 16.9327 9.17254H17.1946C17.566 9.17254 17.8671 8.87144 17.8671 8.50001C17.8671 8.12858 17.566 7.82748 17.1946 7.82748H16.9327C16.4167 7.82748 15.9984 7.40915 15.9984 6.8931V3.39121Z" fill="#FFFEF6"/>
</svg>
