<svg width="19" height="18" viewBox="0 0 19 18" fill="none" xmlns="http://www.w3.org/2000/svg">
<path d="M15 0C14.4477 0 14 0.448 14 1C14 1.552 14.4477 2 15 2H15.5C16.3284 2 17.0001 2.671 17 3.5V4H16C15.4477 4 15 4.448 15 5C15 5.552 15.4477 6 16 6H17V8H15C14.4477 8 14 8.448 14 9C14 9.552 14.4477 10 15 10H17V12H16C15.4477 12 15 12.448 15 13C15 13.552 15.4477 14 16 14H17V14.5C17 15.328 16.3285 16 15.5 16H15C14.4477 16 14 16.448 14 17C14 17.552 14.4477 18 15 18H15.5C17.433 18 19 16.433 19 14.5V3.5C19 1.567 17.4331 0 15.5 0H15ZM6 1C5.7099 1 5.4189 1.125 5.2188 1.375C5.1766 1.428 4.6153 2.12601 4.4063 2.40601C3.809 3.20601 3.2152 4.05401 2.6563 4.90601C2.2653 5.50201 1.9129 6.10001 1.5938 6.65601C0.5739 8.43401 -9.99869e-05 9.872 1.3064e-08 11C1.3064e-08 14.314 2.6863 17 6 17C9.3137 17 11.9999 14.314 12 11C12 9.872 11.4261 8.43401 10.4063 6.65601C10.0872 6.10001 9.7347 5.50201 9.3438 4.90601C8.7848 4.05501 8.191 3.20601 7.5938 2.40601C7.3847 2.12601 6.8234 1.428 6.7813 1.375C6.5811 1.125 6.2901 1 6 1ZM6 3.65601C6.5661 4.41601 7.1295 5.197 7.6563 6C8.0264 6.564 8.7984 7.86397 8.8774 8.00897L3.1254 7.99402C3.2044 7.85002 3.9737 6.564 4.3438 6C4.8706 5.197 5.434 4.41601 6 3.65601Z" fill="#000000"/>
</svg>
