<svg width="61" height="60" viewBox="0 0 61 60" fill="none" xmlns="http://www.w3.org/2000/svg">
<circle cx="30.5" cy="30" r="30" fill="#A80084"/>
<path d="M24.3608 20.131H25.6299C26.1159 20.131 26.4399 20.455 26.4399 20.9411V22.8312H34.5404V17.1068H28.222C27.142 17.1068 26.4399 16.4048 26.4399 15.2977C26.4399 14.7577 26.0889 14.4067 25.5489 14.4067H25.0629C24.2798 14.4067 23.7398 13.8667 23.7398 13.0836V11.1125C23.7398 10.0324 24.4418 9.3304 25.5489 9.3304C26.0889 9.3304 26.4399 8.97938 26.4399 8.43935V7.95332C26.4399 7.17028 26.98 6.63025 27.79 6.63025H32.8393C33.8654 6.63025 34.5404 7.30529 34.5404 8.35835C34.5404 8.95238 34.9184 9.3304 35.5124 9.3304H36.0795C36.7815 9.3304 37.2405 9.78943 37.2405 10.4915V11.4095C37.2405 11.7875 36.9975 12.0306 36.6195 12.0306H35.3504C34.8644 12.0306 34.5404 11.7065 34.5404 11.2205V9.3304H26.4399V14.4067H32.7583C33.8383 14.4067 34.5404 15.1087 34.5404 16.2158C34.5404 16.7558 34.8914 17.1068 35.4314 17.1068H35.9175C36.7005 17.1068 37.2405 17.6469 37.2405 18.4299V21.0491C37.2405 22.1291 36.5385 22.8312 35.4314 22.8312C34.8914 22.8312 34.5404 23.1822 34.5404 23.7222V24.2082C34.5404 24.9913 34.0004 25.5313 33.1903 25.5313H28.141C27.115 25.5313 26.4399 24.8563 26.4399 23.8032C26.4399 23.2092 26.0619 22.8312 25.4679 22.8312H24.9008C24.1988 22.8312 23.7398 22.3721 23.7398 21.6701V20.752C23.7398 20.374 23.9828 20.131 24.3608 20.131Z" fill="#E7EB17"/>
<path d="M24.3593 36.7639H25.6284C26.1144 36.7639 26.4384 37.0879 26.4384 37.5739V39.464H34.5389V33.7397H28.2205C27.1405 33.7397 26.4384 33.0377 26.4384 31.9306C26.4384 31.3906 26.0874 31.0396 25.5474 31.0396H25.0614C24.2783 31.0396 23.7383 30.4995 23.7383 29.7165V27.7454C23.7383 26.6653 24.4403 25.9633 25.5474 25.9633C26.0874 25.9633 26.4384 25.6123 26.4384 25.0722V24.5862C26.4384 23.8032 26.9785 23.2631 27.7885 23.2631H32.8378C33.8638 23.2631 34.5389 23.9382 34.5389 24.9912C34.5389 25.5853 34.9169 25.9633 35.5109 25.9633H36.078C36.78 25.9633 37.239 26.4223 37.239 27.1243V28.0424C37.239 28.4204 36.996 28.6634 36.618 28.6634H35.3489C34.8629 28.6634 34.5389 28.3394 34.5389 27.8534V25.9633H26.4384V31.0396H32.7568C33.8368 31.0396 34.5389 31.7416 34.5389 32.8487C34.5389 33.3887 34.8899 33.7397 35.4299 33.7397H35.916C36.699 33.7397 37.239 34.2797 37.239 35.0628V37.6819C37.239 38.762 36.537 39.464 35.4299 39.464C34.8899 39.464 34.5389 39.8151 34.5389 40.3551V40.8411C34.5389 41.6242 33.9989 42.1642 33.1888 42.1642H28.1395C27.1135 42.1642 26.4384 41.4891 26.4384 40.4361C26.4384 39.8421 26.0604 39.464 25.4664 39.464H24.8993C24.1973 39.464 23.7383 39.005 23.7383 38.303V37.3849C23.7383 37.0069 23.9813 36.7639 24.3593 36.7639Z" fill="#E7EB17"/>
<path d="M34.5389 46.9165V47.4835C34.5389 47.9696 34.8629 48.2936 35.3489 48.2936H36.429C36.915 48.2936 37.239 48.6176 37.239 49.1036V52.5598C37.239 53.0458 36.915 53.3699 36.429 53.3699H35.3489C34.8629 53.3699 34.5389 53.0458 34.5389 52.5598V48.2936H31.8387V45.5934H29.1386V48.2936H26.4384V52.5598C26.4384 53.0458 26.1144 53.3699 25.6284 53.3699H24.5483C24.0623 53.3699 23.7383 53.0458 23.7383 52.5598V49.1036C23.7383 48.6176 24.0623 48.2936 24.5483 48.2936H25.6284C26.1144 48.2936 26.4384 47.9696 26.4384 47.4835V46.9165C26.4384 46.1064 26.9515 45.5934 27.7615 45.5934C28.5986 45.5934 29.1386 45.0534 29.1386 44.2433V43.5413C29.1386 42.7313 28.5986 42.2182 27.7615 42.2182C26.9515 42.2182 26.4384 41.7052 26.4384 40.8952V40.3281C26.4384 39.8421 26.1144 39.5181 25.6284 39.5181H24.5483C24.0623 39.5181 23.7383 39.1941 23.7383 38.708V35.2518C23.7383 34.7658 24.0623 34.4418 24.5483 34.4418H25.6284C26.1144 34.4418 26.4384 34.7658 26.4384 35.2518V39.5181H29.1386V42.0712L30.4997 40.8952L31.8387 42.0712V39.5181H34.5389V35.2518C34.5389 34.7658 34.8629 34.4418 35.3489 34.4418H36.429C36.915 34.4418 37.239 34.7658 37.239 35.2518V38.708C37.239 39.1941 36.915 39.5181 36.429 39.5181H35.3489C34.8629 39.5181 34.5389 39.8421 34.5389 40.3281V40.8952C34.5389 41.7052 33.9989 42.2182 33.1618 42.2182C32.3518 42.2182 31.8387 42.7313 31.8387 43.5413V44.2433C31.8387 45.0534 32.3518 45.5934 33.1618 45.5934C33.9989 45.5934 34.5389 46.1064 34.5389 46.9165Z" fill="#E7EB17"/>
</svg>
