<svg width="21" height="25" viewBox="0 0 21 25" fill="none" xmlns="http://www.w3.org/2000/svg">
<path d="M10.4999 4.88488C10.0664 4.88485 9.64251 4.75627 9.282 4.51538C8.92146 4.27448 8.64045 3.93206 8.47451 3.53145C8.30857 3.13083 8.26515 2.69001 8.34975 2.26472C8.43434 1.83942 8.64315 1.44877 8.94977 1.14215C9.25639 0.835533 9.64704 0.626724 10.0723 0.542128C10.4976 0.457533 10.9384 0.50095 11.3391 0.666891C11.7397 0.832831 12.0821 1.11384 12.323 1.47439C12.5639 1.8349 12.6925 2.25874 12.6925 2.69232C12.6918 3.27359 12.4605 3.83085 12.0495 4.24188C11.6385 4.65291 11.0812 4.88414 10.4999 4.88488Z" fill="#A80084" stroke="#A80084"/>
<path d="M19.055 5.91696L19.0549 5.91679C19.0127 5.92862 18.9692 5.94162 18.9239 5.95567L18.9167 5.95793L18.9166 5.95787C18.031 6.2177 13.6214 7.4647 10.4793 7.4647C7.55672 7.4647 3.54278 6.38586 2.28646 6.02876L2.26432 6.02246L2.24285 6.01416C2.13482 5.97239 2.0245 5.93681 1.91242 5.9076L1.91129 5.9073C1.67051 5.84394 1.47187 5.92035 1.30239 6.11333C1.11894 6.32222 1 6.64595 1 6.95941C1 7.20187 1.09848 7.38076 1.29447 7.54756C1.50815 7.72942 1.81751 7.87671 2.18736 8.01632L19.055 5.91696ZM19.055 5.91696L19.068 5.91294M19.055 5.91696L19.068 5.91294M19.068 5.91294L19.0787 5.90962L19.089 5.90688C19.0892 5.90681 19.0895 5.90674 19.0898 5.90667C19.3298 5.84391 19.5282 5.92041 19.6976 6.11363C19.8811 6.32296 20 6.64708 20 6.96038C20 7.20504 19.8995 7.38556 19.698 7.55444C19.4785 7.73845 19.162 7.88635 18.7859 8.02738L18.7849 8.02777C18.7751 8.03147 18.7651 8.03468 18.7549 8.03738L18.7365 8.04228L18.7186 8.04856L14.4261 9.54911L14.426 9.54899L14.4153 9.553C14.1091 9.66796 13.8751 9.79082 13.7017 9.909C13.5442 10.0164 13.3934 10.1491 13.3107 10.3023L13.3049 10.3131C13.3045 10.3138 13.3041 10.3146 13.3037 10.3153L13.3008 10.3206L13.3006 10.321C13.1658 10.5761 13.0361 11.134 13.2365 12.3925L13.5139 14.5486L13.5157 14.5626L13.5183 14.5766L15.0871 22.9774L15.0889 22.987L15.091 22.9965C15.1023 23.0459 15.1121 23.0987 15.1206 23.1547C15.1563 23.3995 15.0848 23.6306 14.9268 23.8023C14.7706 23.9721 14.498 24.1165 14.0766 24.1165C13.7542 24.1165 13.5603 24.0174 13.4226 23.8775C13.2702 23.7227 13.146 23.475 13.0585 23.1176C13.0385 23.0357 13.0234 22.9549 13.0047 22.8549L13.0012 22.8361L12.5097 22.9281L13.0012 22.8361C12.9006 22.2984 12.5451 20.4333 12.1366 18.6999C11.9329 17.8353 11.7129 16.9903 11.502 16.3563C11.3976 16.0424 11.2886 15.7593 11.1767 15.547C11.1219 15.4428 11.0539 15.3314 10.9694 15.2391C10.8982 15.1613 10.732 15.005 10.4784 15.005C10.227 15.005 10.0619 15.1584 9.99016 15.2364C9.90602 15.3279 9.83877 15.4381 9.78489 15.5404C9.67503 15.7491 9.56877 16.0268 9.46737 16.3342C9.26248 16.9554 9.04976 17.7842 8.85251 18.6361C8.45697 20.3442 8.11142 22.1985 8.00263 22.7949L7.99834 22.8184C7.97525 22.9451 7.95617 23.0498 7.92988 23.1523C7.84121 23.4979 7.7173 23.7362 7.56693 23.8851C7.43045 24.0203 7.2381 24.1165 6.9205 24.1165C6.50028 24.1165 6.22807 23.9728 6.07177 23.8035C5.91528 23.6341 5.84342 23.4068 5.87577 23.1657L5.88502 23.1147L5.88513 23.1147L5.88674 23.1046C5.8894 23.088 5.89233 23.0721 5.89549 23.0569L5.89564 23.0569L5.89786 23.0448L7.44554 14.5737L7.4479 14.5608L7.44957 14.5477L7.72747 12.3917C7.75614 12.2122 7.81218 11.8558 7.83534 11.4749C7.85741 11.1121 7.85724 10.6356 7.71512 10.2703C7.66232 10.1335 7.57604 9.97754 7.40984 9.82724C7.25237 9.68484 7.04414 9.56645 6.77398 9.46288L6.75919 9.45721M19.068 5.91294L6.75919 9.45721M6.75919 9.45721L6.74407 9.45249M6.75919 9.45721L6.74407 9.45249M6.74407 9.45249L2.26565 8.05375M6.74407 9.45249L2.26565 8.05375M2.26565 8.05375C2.24096 8.03924 2.21481 8.02668 2.18737 8.01633L2.26565 8.05375Z" fill="#A80084" stroke="#A80084"/>
</svg>
