<svg width="1149" height="800" viewBox="0 0 1149 800" fill="none" xmlns="http://www.w3.org/2000/svg">
<g opacity="0.6">
<path d="M-537.381 344.243L343.5 765.5" stroke="black" stroke-width="2"/>
<line x1="-476.437" y1="323.916" x2="413.111" y2="730.308" stroke="black" stroke-width="2"/>
<line x1="-410.968" y1="303.594" x2="474.064" y2="700.955" stroke="black" stroke-width="2"/>
<line x1="-352.283" y1="285.525" x2="539.522" y2="667.082" stroke="black" stroke-width="2"/>
<line x1="-295.854" y1="267.457" x2="602.724" y2="635.468" stroke="black" stroke-width="2"/>
<line x1="-232.645" y1="247.134" x2="663.676" y2="606.114" stroke="black" stroke-width="2"/>
<line x1="-173.951" y1="229.07" x2="720.112" y2="579.018" stroke="black" stroke-width="2"/>
<mask id="path-8-inside-1_343_14286" fill="white">
<path fill-rule="evenodd" clip-rule="evenodd" d="M276.667 83.3985C276.667 83.4151 276.678 83.4299 276.694 83.4349L1144.68 357.596C1149.83 359.222 1150.38 366.292 1145.54 368.692L276.761 799.654C276.703 799.682 276.667 799.741 276.667 799.806C276.667 799.932 276.535 800.014 276.422 799.958L276.327 799.911C276.3 799.898 276.268 799.898 276.242 799.911L276.219 799.923C276.165 799.949 276.102 799.91 276.102 799.851C276.102 799.82 276.085 799.792 276.057 799.779L-596.651 369.813C-601.503 367.422 -600.963 360.337 -595.805 358.709L276.01 83.5537C276.065 83.5364 276.102 83.4855 276.102 83.428C276.102 83.3389 276.189 83.2755 276.274 83.3023L276.516 83.3789C276.532 83.3838 276.549 83.3838 276.564 83.3789L276.617 83.3621C276.642 83.3544 276.667 83.3727 276.667 83.3985Z"/>
</mask>
<path d="M276.617 83.3621L276.015 81.4548L276.617 83.3621ZM276.516 83.3789L275.914 85.286L276.516 83.3789ZM276.564 83.3789L277.166 85.2862L276.564 83.3789ZM276.274 83.3023L275.671 85.2094L276.274 83.3023ZM276.01 83.5537L275.408 81.6465L276.01 83.5537ZM-596.651 369.813L-597.535 371.607L-596.651 369.813ZM-595.805 358.709L-595.203 360.616L-595.805 358.709ZM276.057 799.779L276.941 797.984L276.057 799.779ZM276.219 799.923L275.33 798.131L276.219 799.923ZM276.327 799.911L277.211 798.117L276.327 799.911ZM276.242 799.911L275.353 798.12L276.242 799.911ZM276.422 799.958L277.306 798.164L276.422 799.958ZM276.761 799.654L277.65 801.445L276.761 799.654ZM276.694 83.4349L276.091 85.342L276.694 83.4349ZM1144.68 357.596L1145.29 355.689L1144.68 357.596ZM1145.54 368.692L1146.43 370.484L1145.54 368.692ZM1145.29 355.689L277.296 81.5277L276.091 85.342L1144.08 359.503L1145.29 355.689ZM277.65 801.445L1146.43 370.484L1144.66 366.901L275.873 797.862L277.65 801.445ZM277.306 798.164L277.211 798.117L275.443 801.705L275.538 801.752L277.306 798.164ZM277.107 801.715L277.13 801.703L275.353 798.12L275.33 798.131L277.107 801.715ZM276.941 797.984L-595.767 368.019L-597.535 371.607L275.174 801.573L276.941 797.984ZM-595.203 360.616L276.612 85.461L275.408 81.6465L-596.407 356.801L-595.203 360.616ZM277.119 81.4718L276.876 81.3952L275.671 85.2094L275.914 85.286L277.119 81.4718ZM277.166 85.2862L277.219 85.2694L276.015 81.4548L275.962 81.4716L277.166 85.2862ZM277.219 85.2694C275.955 85.6684 274.667 84.7243 274.667 83.3985H278.667C278.667 82.0211 277.329 81.0403 276.015 81.4548L277.219 85.2694ZM275.914 85.286C276.321 85.4147 276.758 85.4148 277.166 85.2862L275.962 81.4716C276.339 81.3529 276.742 81.3529 277.119 81.4718L275.914 85.286ZM278.102 83.428C278.102 84.6908 276.876 85.5898 275.671 85.2094L276.876 81.3952C275.502 80.9612 274.102 81.9871 274.102 83.428H278.102ZM276.612 85.461C277.5 85.1808 278.102 84.3576 278.102 83.428H274.102C274.102 82.6134 274.63 81.892 275.408 81.6465L276.612 85.461ZM-595.767 368.019C-599.002 366.425 -598.642 361.701 -595.203 360.616L-596.407 356.801C-603.285 358.972 -604.004 368.419 -597.535 371.607L-595.767 368.019ZM278.102 799.851C278.102 799.058 277.652 798.335 276.941 797.984L275.174 801.573C274.518 801.25 274.102 800.582 274.102 799.851H278.102ZM275.33 798.131C276.606 797.498 278.102 798.427 278.102 799.851H274.102C274.102 801.394 275.724 802.4 277.107 801.715L275.33 798.131ZM277.211 798.117C276.625 797.829 275.938 797.829 275.353 798.12L277.13 801.703C276.599 801.967 275.975 801.968 275.443 801.705L277.211 798.117ZM274.667 799.806C274.667 798.45 276.09 797.565 277.306 798.164L275.538 801.752C276.98 802.463 278.667 801.413 278.667 799.806H274.667ZM275.873 797.862C275.134 798.228 274.667 798.981 274.667 799.806H278.667C278.667 800.501 278.273 801.136 277.65 801.445L275.873 797.862ZM277.296 81.5277C278.112 81.7855 278.667 82.5425 278.667 83.3985H274.667C274.667 84.2877 275.243 85.0742 276.091 85.342L277.296 81.5277ZM1144.08 359.503C1147.52 360.587 1147.88 365.301 1144.66 366.901L1146.43 370.484C1152.88 367.284 1152.15 357.857 1145.29 355.689L1144.08 359.503Z" fill="black" mask="url(#path-8-inside-1_343_14286)"/>
<line x1="211.319" y1="766.443" x2="1086.56" y2="340.101" stroke="black" stroke-width="2"/>
<line x1="143.601" y1="732.57" x2="1023.58" y2="320.094" stroke="black" stroke-width="2"/>
<line x1="78.1364" y1="700.957" x2="958.586" y2="300.09" stroke="black" stroke-width="2"/>
<line x1="12.6768" y1="669.342" x2="901.6" y2="282.083" stroke="black" stroke-width="2"/>
<line x1="-46.0139" y1="639.987" x2="844.611" y2="264.079" stroke="black" stroke-width="2"/>
<line x1="-104.708" y1="610.634" x2="781.618" y2="244.076" stroke="black" stroke-width="2"/>
<line x1="-165.656" y1="581.279" x2="721.634" y2="226.814" stroke="black" stroke-width="2"/>
<line x1="-274.008" y1="527.086" x2="617.648" y2="192.064" stroke="black" stroke-width="2"/>
<line x1="-323.672" y1="502.248" x2="563.654" y2="175.062" stroke="black" stroke-width="2"/>
<line x1="-373.334" y1="477.41" x2="513.662" y2="159.059" stroke="black" stroke-width="2"/>
<line x1="-425.253" y1="452.572" x2="461.671" y2="143.056" stroke="black" stroke-width="2"/>
<line x1="-472.661" y1="429.993" x2="411.676" y2="127.054" stroke="black" stroke-width="2"/>
<line x1="-522.319" y1="405.154" x2="367.688" y2="113.05" stroke="black" stroke-width="2"/>
<line x1="-562.952" y1="384.832" x2="325.694" y2="100.047" stroke="black" stroke-width="2"/>
<line x1="-67.857" y1="195.196" x2="828.464" y2="524.825" stroke="black" stroke-width="2"/>
<line x1="-15.9361" y1="179.39" x2="875.869" y2="499.988" stroke="black" stroke-width="2"/>
<line x1="33.722" y1="163.581" x2="932.301" y2="472.891" stroke="black" stroke-width="2"/>
<line x1="83.3862" y1="147.775" x2="979.707" y2="450.311" stroke="black" stroke-width="2"/>
<line x1="133.051" y1="131.969" x2="1024.86" y2="427.732" stroke="black" stroke-width="2"/>
<line x1="175.939" y1="118.419" x2="1070" y2="405.152" stroke="black" stroke-width="2"/>
<path d="M229.5 100L1112.9 382.575" stroke="black" stroke-width="2"/>
<path d="M873.009 599.486C875.759 600.541 878.844 599.168 879.899 596.418C880.955 593.668 879.581 590.583 876.832 589.527C874.082 588.472 870.997 589.845 869.941 592.595C868.886 595.345 870.259 598.43 873.009 599.486ZM-239.9 172.28C-237.15 173.336 -234.065 171.962 -233.009 169.212C-231.954 166.462 -233.327 163.378 -236.077 162.322C-238.827 161.266 -241.912 162.64 -242.967 165.39C-244.023 168.14 -242.649 171.225 -239.9 172.28ZM-238.347 168.235L-234.637 169.659L-233.92 167.791L-237.63 166.367L-238.347 168.235ZM-227.218 172.507L-219.798 175.355L-219.081 173.488L-226.501 170.64L-227.218 172.507ZM-212.379 178.203L-204.959 181.051L-204.243 179.184L-211.662 176.336L-212.379 178.203ZM-197.54 183.899L-190.121 186.747L-189.404 184.88L-196.823 182.032L-197.54 183.899ZM-182.701 189.595L-175.282 192.443L-174.565 190.576L-181.984 187.728L-182.701 189.595ZM-167.862 195.291L-160.443 198.139L-159.726 196.272L-167.146 193.424L-167.862 195.291ZM-153.024 200.987L-145.604 203.835L-144.888 201.968L-152.307 199.12L-153.024 200.987ZM-138.185 206.683L-130.765 209.531L-130.049 207.664L-137.468 204.816L-138.185 206.683ZM-123.346 212.379L-115.927 215.227L-115.21 213.36L-122.629 210.512L-123.346 212.379ZM-108.507 218.075L-101.088 220.923L-100.371 219.056L-107.791 216.208L-108.507 218.075ZM-93.6685 223.771L-86.2492 226.619L-85.5324 224.752L-92.9518 221.904L-93.6685 223.771ZM-78.8298 229.467L-71.4104 232.315L-70.6937 230.448L-78.113 227.6L-78.8298 229.467ZM-63.991 235.163L-56.5716 238.012L-55.8549 236.144L-63.2743 233.296L-63.991 235.163ZM-49.1522 240.86L-41.7329 243.708L-41.0161 241.84L-48.4355 238.992L-49.1522 240.86ZM-34.3135 246.556L-26.8941 249.404L-26.1774 247.536L-33.5968 244.688L-34.3135 246.556ZM-19.4747 252.252L-12.0554 255.1L-11.3386 253.233L-18.758 250.385L-19.4747 252.252ZM-4.63597 257.948L2.78342 260.796L3.50016 258.929L-3.91924 256.081L-4.63597 257.948ZM10.2028 263.644L17.6222 266.492L18.3389 264.625L10.9195 261.777L10.2028 263.644ZM25.0416 269.34L32.461 272.188L33.1777 270.321L25.7583 267.473L25.0416 269.34ZM39.8803 275.036L47.2997 277.884L48.0165 276.017L40.5971 273.169L39.8803 275.036ZM54.7191 280.732L62.1385 283.58L62.8552 281.713L55.4358 278.865L54.7191 280.732ZM69.5579 286.428L76.9773 289.276L77.694 287.409L70.2746 284.561L69.5579 286.428ZM84.3966 292.124L91.816 294.972L92.5328 293.105L85.1134 290.257L84.3966 292.124ZM99.2354 297.82L106.655 300.668L107.372 298.801L99.9521 295.953L99.2354 297.82ZM114.074 303.516L121.494 306.364L122.21 304.497L114.791 301.649L114.074 303.516ZM128.913 309.212L136.332 312.06L137.049 310.193L129.63 307.345L128.913 309.212ZM143.752 314.908L151.171 317.756L151.888 315.889L144.468 313.041L143.752 314.908ZM158.59 320.604L166.01 323.453L166.727 321.585L159.307 318.737L158.59 320.604ZM173.429 326.301L180.849 329.149L181.565 327.281L174.146 324.433L173.429 326.301ZM188.268 331.997L195.687 334.845L196.404 332.978L188.985 330.129L188.268 331.997ZM203.107 337.693L210.526 340.541L211.243 338.674L203.823 335.826L203.107 337.693ZM217.946 343.389L225.365 346.237L226.082 344.37L218.662 341.522L217.946 343.389ZM232.784 349.085L240.204 351.933L240.92 350.066L233.501 347.218L232.784 349.085ZM247.623 354.781L255.043 357.629L255.759 355.762L248.34 352.914L247.623 354.781ZM262.462 360.477L269.881 363.325L270.598 361.458L263.179 358.61L262.462 360.477ZM277.301 366.173L284.72 369.021L285.437 367.154L278.017 364.306L277.301 366.173ZM292.14 371.869L299.559 374.717L300.276 372.85L292.856 370.002L292.14 371.869ZM306.978 377.565L314.398 380.413L315.115 378.546L307.695 375.698L306.978 377.565ZM321.817 383.261L329.237 386.109L329.953 384.242L322.534 381.394L321.817 383.261ZM336.656 388.957L344.075 391.806L344.792 389.938L337.373 387.09L336.656 388.957ZM351.495 394.654L358.914 397.502L359.631 395.634L352.212 392.786L351.495 394.654ZM366.334 400.35L373.753 403.198L374.47 401.331L367.05 398.482L366.334 400.35ZM381.172 406.046L388.592 408.894L389.309 407.027L381.889 404.179L381.172 406.046ZM396.011 411.742L403.431 414.59L404.147 412.723L396.728 409.875L396.011 411.742ZM410.85 417.438L418.27 420.286L418.986 418.419L411.567 415.571L410.85 417.438ZM425.689 423.134L433.108 425.982L433.825 424.115L426.406 421.267L425.689 423.134ZM440.528 428.83L447.947 431.678L448.664 429.811L441.245 426.963L440.528 428.83ZM455.367 434.526L462.786 437.374L463.503 435.507L456.083 432.659L455.367 434.526ZM470.205 440.222L477.625 443.07L478.342 441.203L470.922 438.355L470.205 440.222ZM485.044 445.918L492.464 448.766L493.18 446.899L485.761 444.051L485.044 445.918ZM499.883 451.614L507.302 454.463L508.019 452.595L500.6 449.747L499.883 451.614ZM514.722 457.311L522.141 460.159L522.858 458.291L515.439 455.443L514.722 457.311ZM529.561 463.007L536.98 465.855L537.697 463.988L530.277 461.139L529.561 463.007ZM544.4 468.703L551.819 471.551L552.536 469.684L545.116 466.836L544.4 468.703ZM559.238 474.399L566.658 477.247L567.375 475.38L559.955 472.532L559.238 474.399ZM574.077 480.095L581.497 482.943L582.213 481.076L574.794 478.228L574.077 480.095ZM588.916 485.791L596.335 488.639L597.052 486.772L589.633 483.924L588.916 485.791ZM603.755 491.487L611.174 494.335L611.891 492.468L604.472 489.62L603.755 491.487ZM618.594 497.183L626.013 500.031L626.73 498.164L619.31 495.316L618.594 497.183ZM633.432 502.879L640.852 505.727L641.569 503.86L634.149 501.012L633.432 502.879ZM648.271 508.575L655.691 511.423L656.407 509.556L648.988 506.708L648.271 508.575ZM663.11 514.271L670.53 517.119L671.246 515.252L663.827 512.404L663.11 514.271ZM677.949 519.968L685.368 522.816L686.085 520.948L678.666 518.1L677.949 519.968ZM692.788 525.664L700.207 528.512L700.924 526.645L693.505 523.796L692.788 525.664ZM707.627 531.36L715.046 534.208L715.763 532.341L708.343 529.493L707.627 531.36ZM722.465 537.056L729.885 539.904L730.602 538.037L723.182 535.189L722.465 537.056ZM737.304 542.752L744.724 545.6L745.44 543.733L738.021 540.885L737.304 542.752ZM752.143 548.448L759.562 551.296L760.279 549.429L752.86 546.581L752.143 548.448ZM766.982 554.144L774.401 556.992L775.118 555.125L767.699 552.277L766.982 554.144ZM781.821 559.84L789.24 562.688L789.957 560.821L782.537 557.973L781.821 559.84ZM796.66 565.536L804.079 568.384L804.796 566.517L797.376 563.669L796.66 565.536ZM811.498 571.232L818.918 574.08L819.635 572.213L812.215 569.365L811.498 571.232ZM826.337 576.928L833.757 579.776L834.473 577.909L827.054 575.061L826.337 576.928ZM841.176 582.625L848.595 585.473L849.312 583.605L841.893 580.757L841.176 582.625ZM856.015 588.321L863.434 591.169L864.151 589.302L856.732 586.453L856.015 588.321ZM870.854 594.017L874.562 595.44L875.279 593.573L871.57 592.15L870.854 594.017ZM873.009 599.486C875.759 600.541 878.844 599.168 879.899 596.418C880.955 593.668 879.581 590.583 876.832 589.527C874.082 588.472 870.997 589.845 869.941 592.595C868.886 595.345 870.259 598.43 873.009 599.486ZM-239.9 172.28C-237.15 173.336 -234.065 171.962 -233.009 169.212C-231.954 166.462 -233.327 163.378 -236.077 162.322C-238.827 161.266 -241.912 162.64 -242.967 165.39C-244.023 168.14 -242.649 171.225 -239.9 172.28ZM-238.347 168.235L-234.637 169.659L-233.92 167.791L-237.63 166.367L-238.347 168.235ZM-227.218 172.507L-219.798 175.355L-219.081 173.488L-226.501 170.64L-227.218 172.507ZM-212.379 178.203L-204.959 181.051L-204.243 179.184L-211.662 176.336L-212.379 178.203ZM-197.54 183.899L-190.121 186.747L-189.404 184.88L-196.823 182.032L-197.54 183.899ZM-182.701 189.595L-175.282 192.443L-174.565 190.576L-181.984 187.728L-182.701 189.595ZM-167.862 195.291L-160.443 198.139L-159.726 196.272L-167.146 193.424L-167.862 195.291ZM-153.024 200.987L-145.604 203.835L-144.888 201.968L-152.307 199.12L-153.024 200.987ZM-138.185 206.683L-130.765 209.531L-130.049 207.664L-137.468 204.816L-138.185 206.683ZM-123.346 212.379L-115.927 215.227L-115.21 213.36L-122.629 210.512L-123.346 212.379ZM-108.507 218.075L-101.088 220.923L-100.371 219.056L-107.791 216.208L-108.507 218.075ZM-93.6685 223.771L-86.2492 226.619L-85.5324 224.752L-92.9518 221.904L-93.6685 223.771ZM-78.8298 229.467L-71.4104 232.315L-70.6937 230.448L-78.113 227.6L-78.8298 229.467ZM-63.991 235.163L-56.5716 238.012L-55.8549 236.144L-63.2743 233.296L-63.991 235.163ZM-49.1522 240.86L-41.7329 243.708L-41.0161 241.84L-48.4355 238.992L-49.1522 240.86ZM-34.3135 246.556L-26.8941 249.404L-26.1774 247.536L-33.5968 244.688L-34.3135 246.556ZM-19.4747 252.252L-12.0554 255.1L-11.3386 253.233L-18.758 250.385L-19.4747 252.252ZM-4.63597 257.948L2.78342 260.796L3.50016 258.929L-3.91924 256.081L-4.63597 257.948ZM10.2028 263.644L17.6222 266.492L18.3389 264.625L10.9195 261.777L10.2028 263.644ZM25.0416 269.34L32.461 272.188L33.1777 270.321L25.7583 267.473L25.0416 269.34ZM39.8803 275.036L47.2997 277.884L48.0165 276.017L40.5971 273.169L39.8803 275.036ZM54.7191 280.732L62.1385 283.58L62.8552 281.713L55.4358 278.865L54.7191 280.732ZM69.5579 286.428L76.9773 289.276L77.694 287.409L70.2746 284.561L69.5579 286.428ZM84.3966 292.124L91.816 294.972L92.5328 293.105L85.1134 290.257L84.3966 292.124ZM99.2354 297.82L106.655 300.668L107.372 298.801L99.9521 295.953L99.2354 297.82ZM114.074 303.516L121.494 306.364L122.21 304.497L114.791 301.649L114.074 303.516ZM128.913 309.212L136.332 312.06L137.049 310.193L129.63 307.345L128.913 309.212ZM143.752 314.908L151.171 317.756L151.888 315.889L144.468 313.041L143.752 314.908ZM158.59 320.604L166.01 323.453L166.727 321.585L159.307 318.737L158.59 320.604ZM173.429 326.301L180.849 329.149L181.565 327.281L174.146 324.433L173.429 326.301ZM188.268 331.997L195.687 334.845L196.404 332.978L188.985 330.129L188.268 331.997ZM203.107 337.693L210.526 340.541L211.243 338.674L203.823 335.826L203.107 337.693ZM217.946 343.389L225.365 346.237L226.082 344.37L218.662 341.522L217.946 343.389ZM232.784 349.085L240.204 351.933L240.92 350.066L233.501 347.218L232.784 349.085ZM247.623 354.781L255.043 357.629L255.759 355.762L248.34 352.914L247.623 354.781ZM262.462 360.477L269.881 363.325L270.598 361.458L263.179 358.61L262.462 360.477ZM277.301 366.173L284.72 369.021L285.437 367.154L278.017 364.306L277.301 366.173ZM292.14 371.869L299.559 374.717L300.276 372.85L292.856 370.002L292.14 371.869ZM306.978 377.565L314.398 380.413L315.115 378.546L307.695 375.698L306.978 377.565ZM321.817 383.261L329.237 386.109L329.953 384.242L322.534 381.394L321.817 383.261ZM336.656 388.957L344.075 391.806L344.792 389.938L337.373 387.09L336.656 388.957ZM351.495 394.654L358.914 397.502L359.631 395.634L352.212 392.786L351.495 394.654ZM366.334 400.35L373.753 403.198L374.47 401.331L367.05 398.482L366.334 400.35ZM381.172 406.046L388.592 408.894L389.309 407.027L381.889 404.179L381.172 406.046ZM396.011 411.742L403.431 414.59L404.147 412.723L396.728 409.875L396.011 411.742ZM410.85 417.438L418.27 420.286L418.986 418.419L411.567 415.571L410.85 417.438ZM425.689 423.134L433.108 425.982L433.825 424.115L426.406 421.267L425.689 423.134ZM440.528 428.83L447.947 431.678L448.664 429.811L441.245 426.963L440.528 428.83ZM455.367 434.526L462.786 437.374L463.503 435.507L456.083 432.659L455.367 434.526ZM470.205 440.222L477.625 443.07L478.342 441.203L470.922 438.355L470.205 440.222ZM485.044 445.918L492.464 448.766L493.18 446.899L485.761 444.051L485.044 445.918ZM499.883 451.614L507.302 454.463L508.019 452.595L500.6 449.747L499.883 451.614ZM514.722 457.311L522.141 460.159L522.858 458.291L515.439 455.443L514.722 457.311ZM529.561 463.007L536.98 465.855L537.697 463.988L530.277 461.139L529.561 463.007ZM544.4 468.703L551.819 471.551L552.536 469.684L545.116 466.836L544.4 468.703ZM559.238 474.399L566.658 477.247L567.375 475.38L559.955 472.532L559.238 474.399ZM574.077 480.095L581.497 482.943L582.213 481.076L574.794 478.228L574.077 480.095ZM588.916 485.791L596.335 488.639L597.052 486.772L589.633 483.924L588.916 485.791ZM603.755 491.487L611.174 494.335L611.891 492.468L604.472 489.62L603.755 491.487ZM618.594 497.183L626.013 500.031L626.73 498.164L619.31 495.316L618.594 497.183ZM633.432 502.879L640.852 505.727L641.569 503.86L634.149 501.012L633.432 502.879ZM648.271 508.575L655.691 511.423L656.407 509.556L648.988 506.708L648.271 508.575ZM663.11 514.271L670.53 517.119L671.246 515.252L663.827 512.404L663.11 514.271ZM677.949 519.968L685.368 522.816L686.085 520.948L678.666 518.1L677.949 519.968ZM692.788 525.664L700.207 528.512L700.924 526.645L693.505 523.796L692.788 525.664ZM707.627 531.36L715.046 534.208L715.763 532.341L708.343 529.493L707.627 531.36ZM722.465 537.056L729.885 539.904L730.602 538.037L723.182 535.189L722.465 537.056ZM737.304 542.752L744.724 545.6L745.44 543.733L738.021 540.885L737.304 542.752ZM752.143 548.448L759.562 551.296L760.279 549.429L752.86 546.581L752.143 548.448ZM766.982 554.144L774.401 556.992L775.118 555.125L767.699 552.277L766.982 554.144ZM781.821 559.84L789.24 562.688L789.957 560.821L782.537 557.973L781.821 559.84ZM796.66 565.536L804.079 568.384L804.796 566.517L797.376 563.669L796.66 565.536ZM811.498 571.232L818.918 574.08L819.635 572.213L812.215 569.365L811.498 571.232ZM826.337 576.928L833.757 579.776L834.473 577.909L827.054 575.061L826.337 576.928ZM841.176 582.625L848.595 585.473L849.312 583.605L841.893 580.757L841.176 582.625ZM856.015 588.321L863.434 591.169L864.151 589.302L856.732 586.453L856.015 588.321ZM870.854 594.017L874.562 595.44L875.279 593.573L871.57 592.15L870.854 594.017Z" fill="black"/>
<path d="M-343.299 593.893C-346.049 594.949 -347.423 598.034 -346.367 600.783C-345.312 603.533 -342.227 604.907 -339.477 603.851C-336.727 602.796 -335.353 599.711 -336.409 596.961C-337.465 594.211 -340.549 592.837 -343.299 593.893ZM769.609 166.687C766.859 167.743 765.486 170.828 766.541 173.578C767.597 176.328 770.682 177.701 773.432 176.646C776.182 175.59 777.555 172.505 776.5 169.755C775.444 167.005 772.359 165.632 769.609 166.687ZM771.162 170.733L767.452 172.157L768.169 174.024L771.879 172.6L771.162 170.733ZM760.033 175.005L752.614 177.853L753.33 179.72L760.75 176.872L760.033 175.005ZM745.194 180.701L737.775 183.549L738.492 185.416L745.911 182.568L745.194 180.701ZM730.355 186.397L722.936 189.245L723.653 191.112L731.072 188.264L730.355 186.397ZM715.517 192.093L708.097 194.941L708.814 196.808L716.233 193.96L715.517 192.093ZM700.678 197.789L693.259 200.637L693.975 202.504L701.395 199.656L700.678 197.789ZM685.839 203.485L678.42 206.333L679.136 208.201L686.556 205.353L685.839 203.485ZM671 209.181L663.581 212.029L664.298 213.897L671.717 211.049L671 209.181ZM656.162 214.877L648.742 217.726L649.459 219.593L656.878 216.745L656.162 214.877ZM641.323 220.574L633.903 223.422L634.62 225.289L642.04 222.441L641.323 220.574ZM626.484 226.27L619.065 229.118L619.781 230.985L627.201 228.137L626.484 226.27ZM611.645 231.966L604.226 234.814L604.943 236.681L612.362 233.833L611.645 231.966ZM596.806 237.662L589.387 240.51L590.104 242.377L597.523 239.529L596.806 237.662ZM581.968 243.358L574.548 246.206L575.265 248.073L582.684 245.225L581.968 243.358ZM567.129 249.054L559.71 251.902L560.426 253.769L567.846 250.921L567.129 249.054ZM552.29 254.75L544.871 257.598L545.588 259.465L553.007 256.617L552.29 254.75ZM537.451 260.446L530.032 263.294L530.749 265.161L538.168 262.313L537.451 260.446ZM522.613 266.142L515.193 268.99L515.91 270.857L523.329 268.009L522.613 266.142ZM507.774 271.838L500.355 274.686L501.071 276.553L508.491 273.705L507.774 271.838ZM492.935 277.534L485.516 280.382L486.232 282.249L493.652 279.401L492.935 277.534ZM478.096 283.23L470.677 286.078L471.394 287.946L478.813 285.097L478.096 283.23ZM463.258 288.926L455.838 291.774L456.555 293.642L463.974 290.794L463.258 288.926ZM448.419 294.622L440.999 297.471L441.716 299.338L449.136 296.49L448.419 294.622ZM433.58 300.319L426.161 303.167L426.877 305.034L434.297 302.186L433.58 300.319ZM418.741 306.015L411.322 308.863L412.039 310.73L419.458 307.882L418.741 306.015ZM403.903 311.711L396.483 314.559L397.2 316.426L404.619 313.578L403.903 311.711ZM389.064 317.407L381.644 320.255L382.361 322.122L389.781 319.274L389.064 317.407ZM374.225 323.103L366.806 325.951L367.522 327.818L374.942 324.97L374.225 323.103ZM359.386 328.799L351.967 331.647L352.684 333.514L360.103 330.666L359.386 328.799ZM344.547 334.495L337.128 337.343L337.845 339.21L345.264 336.362L344.547 334.495ZM329.709 340.191L322.289 343.039L323.006 344.906L330.425 342.058L329.709 340.191ZM314.87 345.887L307.451 348.735L308.167 350.602L315.587 347.754L314.87 345.887ZM300.031 351.583L292.612 354.431L293.329 356.298L300.748 353.45L300.031 351.583ZM285.192 357.279L277.773 360.127L278.49 361.994L285.909 359.146L285.192 357.279ZM270.354 362.975L262.934 365.823L263.651 367.691L271.07 364.842L270.354 362.975ZM255.515 368.671L248.095 371.519L248.812 373.387L256.231 370.539L255.515 368.671ZM240.676 374.368L233.256 377.216L233.973 379.083L241.393 376.235L240.676 374.368ZM225.837 380.064L218.418 382.912L219.134 384.779L226.554 381.931L225.837 380.064ZM210.998 385.76L203.579 388.608L204.296 390.475L211.715 387.627L210.998 385.76ZM196.159 391.456L188.74 394.304L189.457 396.171L196.876 393.323L196.159 391.456ZM181.321 397.152L173.901 400L174.618 401.867L182.037 399.019L181.321 397.152ZM166.482 402.848L159.062 405.696L159.779 407.563L167.199 404.715L166.482 402.848ZM151.643 408.544L144.224 411.392L144.94 413.259L152.36 410.411L151.643 408.544ZM136.804 414.24L129.385 417.088L130.101 418.955L137.521 416.107L136.804 414.24ZM121.965 419.936L114.546 422.784L115.263 424.651L122.682 421.803L121.965 419.936ZM107.127 425.632L99.7071 428.48L100.424 430.348L107.843 427.499L107.127 425.632ZM92.2877 431.328L84.8683 434.176L85.585 436.044L93.0044 433.196L92.2877 431.328ZM77.4488 437.025L70.0294 439.873L70.7462 441.74L78.1656 438.892L77.4488 437.025ZM62.61 442.721L55.1907 445.569L55.9074 447.436L63.3268 444.588L62.61 442.721ZM47.7712 448.417L40.3518 451.265L41.0685 453.132L48.4879 450.284L47.7712 448.417ZM32.9324 454.113L25.513 456.961L26.2297 458.828L33.6491 455.98L32.9324 454.113ZM18.0935 459.809L10.6741 462.657L11.3909 464.524L18.8103 461.676L18.0935 459.809ZM3.25478 465.505L-4.16469 468.353L-3.44796 470.22L3.97151 467.372L3.25478 465.505ZM-11.5841 471.201L-19.0035 474.049L-18.2868 475.916L-10.8674 473.068L-11.5841 471.201ZM-26.4229 476.897L-33.8423 479.745L-33.1256 481.612L-25.7062 478.764L-26.4229 476.897ZM-41.2618 482.593L-48.6811 485.441L-47.9644 487.308L-40.545 484.46L-41.2618 482.593ZM-56.1006 488.289L-63.52 491.137L-62.8033 493.005L-55.3838 490.156L-56.1006 488.289ZM-70.9394 493.985L-78.3588 496.833L-77.6421 498.701L-70.2227 495.853L-70.9394 493.985ZM-85.7782 499.681L-93.1976 502.53L-92.4809 504.397L-85.0615 501.549L-85.7782 499.681ZM-100.617 505.378L-108.036 508.226L-107.32 510.093L-99.9003 507.245L-100.617 505.378ZM-115.456 511.074L-122.875 513.922L-122.159 515.789L-114.739 512.941L-115.456 511.074ZM-130.295 516.77L-137.714 519.618L-136.997 521.485L-129.578 518.637L-130.295 516.77ZM-145.134 522.466L-152.553 525.314L-151.836 527.181L-144.417 524.333L-145.134 522.466ZM-159.972 528.162L-167.392 531.01L-166.675 532.877L-159.256 530.029L-159.972 528.162ZM-174.811 533.858L-182.231 536.706L-181.514 538.573L-174.094 535.725L-174.811 533.858ZM-189.65 539.554L-197.069 542.402L-196.353 544.269L-188.933 541.421L-189.65 539.554ZM-204.489 545.25L-211.908 548.098L-211.191 549.965L-203.772 547.117L-204.489 545.25ZM-219.328 550.946L-226.747 553.794L-226.03 555.662L-218.611 552.813L-219.328 550.946ZM-234.166 556.642L-241.586 559.49L-240.869 561.358L-233.45 558.51L-234.166 556.642ZM-249.005 562.338L-256.425 565.187L-255.708 567.054L-248.289 564.206L-249.005 562.338ZM-263.844 568.035L-271.264 570.883L-270.547 572.75L-263.127 569.902L-263.844 568.035ZM-278.683 573.731L-286.102 576.579L-285.386 578.446L-277.966 575.598L-278.683 573.731ZM-293.522 579.427L-300.941 582.275L-300.224 584.142L-292.805 581.294L-293.522 579.427ZM-308.361 585.123L-315.78 587.971L-315.063 589.838L-307.644 586.99L-308.361 585.123ZM-323.199 590.819L-330.619 593.667L-329.902 595.534L-322.483 592.686L-323.199 590.819ZM-338.038 596.515L-341.746 597.938L-341.03 599.806L-337.321 598.382L-338.038 596.515ZM-343.299 593.893C-346.049 594.949 -347.423 598.034 -346.367 600.783C-345.312 603.533 -342.227 604.907 -339.477 603.851C-336.727 602.796 -335.353 599.711 -336.409 596.961C-337.465 594.211 -340.549 592.837 -343.299 593.893ZM769.609 166.687C766.859 167.743 765.486 170.828 766.541 173.578C767.597 176.328 770.682 177.701 773.432 176.646C776.182 175.59 777.555 172.505 776.5 169.755C775.444 167.005 772.359 165.632 769.609 166.687ZM771.162 170.733L767.452 172.157L768.169 174.024L771.879 172.6L771.162 170.733ZM760.033 175.005L752.614 177.853L753.33 179.72L760.75 176.872L760.033 175.005ZM745.194 180.701L737.775 183.549L738.492 185.416L745.911 182.568L745.194 180.701ZM730.355 186.397L722.936 189.245L723.653 191.112L731.072 188.264L730.355 186.397ZM715.517 192.093L708.097 194.941L708.814 196.808L716.233 193.96L715.517 192.093ZM700.678 197.789L693.259 200.637L693.975 202.504L701.395 199.656L700.678 197.789ZM685.839 203.485L678.42 206.333L679.136 208.201L686.556 205.353L685.839 203.485ZM671 209.181L663.581 212.029L664.298 213.897L671.717 211.049L671 209.181ZM656.162 214.877L648.742 217.726L649.459 219.593L656.878 216.745L656.162 214.877ZM641.323 220.574L633.903 223.422L634.62 225.289L642.04 222.441L641.323 220.574ZM626.484 226.27L619.065 229.118L619.781 230.985L627.201 228.137L626.484 226.27ZM611.645 231.966L604.226 234.814L604.943 236.681L612.362 233.833L611.645 231.966ZM596.806 237.662L589.387 240.51L590.104 242.377L597.523 239.529L596.806 237.662ZM581.968 243.358L574.548 246.206L575.265 248.073L582.684 245.225L581.968 243.358ZM567.129 249.054L559.71 251.902L560.426 253.769L567.846 250.921L567.129 249.054ZM552.29 254.75L544.871 257.598L545.588 259.465L553.007 256.617L552.29 254.75ZM537.451 260.446L530.032 263.294L530.749 265.161L538.168 262.313L537.451 260.446ZM522.613 266.142L515.193 268.99L515.91 270.857L523.329 268.009L522.613 266.142ZM507.774 271.838L500.355 274.686L501.071 276.553L508.491 273.705L507.774 271.838ZM492.935 277.534L485.516 280.382L486.232 282.249L493.652 279.401L492.935 277.534ZM478.096 283.23L470.677 286.078L471.394 287.946L478.813 285.097L478.096 283.23ZM463.258 288.926L455.838 291.774L456.555 293.642L463.974 290.794L463.258 288.926ZM448.419 294.622L440.999 297.471L441.716 299.338L449.136 296.49L448.419 294.622ZM433.58 300.319L426.161 303.167L426.877 305.034L434.297 302.186L433.58 300.319ZM418.741 306.015L411.322 308.863L412.039 310.73L419.458 307.882L418.741 306.015ZM403.903 311.711L396.483 314.559L397.2 316.426L404.619 313.578L403.903 311.711ZM389.064 317.407L381.644 320.255L382.361 322.122L389.781 319.274L389.064 317.407ZM374.225 323.103L366.806 325.951L367.522 327.818L374.942 324.97L374.225 323.103ZM359.386 328.799L351.967 331.647L352.684 333.514L360.103 330.666L359.386 328.799ZM344.547 334.495L337.128 337.343L337.845 339.21L345.264 336.362L344.547 334.495ZM329.709 340.191L322.289 343.039L323.006 344.906L330.425 342.058L329.709 340.191ZM314.87 345.887L307.451 348.735L308.167 350.602L315.587 347.754L314.87 345.887ZM300.031 351.583L292.612 354.431L293.329 356.298L300.748 353.45L300.031 351.583ZM285.192 357.279L277.773 360.127L278.49 361.994L285.909 359.146L285.192 357.279ZM270.354 362.975L262.934 365.823L263.651 367.691L271.07 364.842L270.354 362.975ZM255.515 368.671L248.095 371.519L248.812 373.387L256.231 370.539L255.515 368.671ZM240.676 374.368L233.256 377.216L233.973 379.083L241.393 376.235L240.676 374.368ZM225.837 380.064L218.418 382.912L219.134 384.779L226.554 381.931L225.837 380.064ZM210.998 385.76L203.579 388.608L204.296 390.475L211.715 387.627L210.998 385.76ZM196.159 391.456L188.74 394.304L189.457 396.171L196.876 393.323L196.159 391.456ZM181.321 397.152L173.901 400L174.618 401.867L182.037 399.019L181.321 397.152ZM166.482 402.848L159.062 405.696L159.779 407.563L167.199 404.715L166.482 402.848ZM151.643 408.544L144.224 411.392L144.94 413.259L152.36 410.411L151.643 408.544ZM136.804 414.24L129.385 417.088L130.101 418.955L137.521 416.107L136.804 414.24ZM121.965 419.936L114.546 422.784L115.263 424.651L122.682 421.803L121.965 419.936ZM107.127 425.632L99.7071 428.48L100.424 430.348L107.843 427.499L107.127 425.632ZM92.2877 431.328L84.8683 434.176L85.585 436.044L93.0044 433.196L92.2877 431.328ZM77.4488 437.025L70.0294 439.873L70.7462 441.74L78.1656 438.892L77.4488 437.025ZM62.61 442.721L55.1907 445.569L55.9074 447.436L63.3268 444.588L62.61 442.721ZM47.7712 448.417L40.3518 451.265L41.0685 453.132L48.4879 450.284L47.7712 448.417ZM32.9324 454.113L25.513 456.961L26.2297 458.828L33.6491 455.98L32.9324 454.113ZM18.0935 459.809L10.6741 462.657L11.3909 464.524L18.8103 461.676L18.0935 459.809ZM3.25478 465.505L-4.16469 468.353L-3.44796 470.22L3.97151 467.372L3.25478 465.505ZM-11.5841 471.201L-19.0035 474.049L-18.2868 475.916L-10.8674 473.068L-11.5841 471.201ZM-26.4229 476.897L-33.8423 479.745L-33.1256 481.612L-25.7062 478.764L-26.4229 476.897ZM-41.2618 482.593L-48.6811 485.441L-47.9644 487.308L-40.545 484.46L-41.2618 482.593ZM-56.1006 488.289L-63.52 491.137L-62.8033 493.005L-55.3838 490.156L-56.1006 488.289ZM-70.9394 493.985L-78.3588 496.833L-77.6421 498.701L-70.2227 495.853L-70.9394 493.985ZM-85.7782 499.681L-93.1976 502.53L-92.4809 504.397L-85.0615 501.549L-85.7782 499.681ZM-100.617 505.378L-108.036 508.226L-107.32 510.093L-99.9003 507.245L-100.617 505.378ZM-115.456 511.074L-122.875 513.922L-122.159 515.789L-114.739 512.941L-115.456 511.074ZM-130.295 516.77L-137.714 519.618L-136.997 521.485L-129.578 518.637L-130.295 516.77ZM-145.134 522.466L-152.553 525.314L-151.836 527.181L-144.417 524.333L-145.134 522.466ZM-159.972 528.162L-167.392 531.01L-166.675 532.877L-159.256 530.029L-159.972 528.162ZM-174.811 533.858L-182.231 536.706L-181.514 538.573L-174.094 535.725L-174.811 533.858ZM-189.65 539.554L-197.069 542.402L-196.353 544.269L-188.933 541.421L-189.65 539.554ZM-204.489 545.25L-211.908 548.098L-211.191 549.965L-203.772 547.117L-204.489 545.25ZM-219.328 550.946L-226.747 553.794L-226.03 555.662L-218.611 552.813L-219.328 550.946ZM-234.166 556.642L-241.586 559.49L-240.869 561.358L-233.45 558.51L-234.166 556.642ZM-249.005 562.338L-256.425 565.187L-255.708 567.054L-248.289 564.206L-249.005 562.338ZM-263.844 568.035L-271.264 570.883L-270.547 572.75L-263.127 569.902L-263.844 568.035ZM-278.683 573.731L-286.102 576.579L-285.386 578.446L-277.966 575.598L-278.683 573.731ZM-293.522 579.427L-300.941 582.275L-300.224 584.142L-292.805 581.294L-293.522 579.427ZM-308.361 585.123L-315.78 587.971L-315.063 589.838L-307.644 586.99L-308.361 585.123ZM-323.199 590.819L-330.619 593.667L-329.902 595.534L-322.483 592.686L-323.199 590.819ZM-338.038 596.515L-341.746 597.938L-341.03 599.806L-337.321 598.382L-338.038 596.515Z" fill="black"/>
<path d="M271.134 984.086C271.134 987.032 273.522 989.42 276.468 989.42C279.413 989.42 281.801 987.032 281.801 984.086C281.801 981.141 279.413 978.753 276.468 978.753C273.522 978.753 271.134 981.141 271.134 984.086ZM271.134 -208C271.134 -205.054 273.522 -202.667 276.468 -202.667C279.413 -202.667 281.801 -205.054 281.801 -208C281.801 -210.946 279.413 -213.333 276.468 -213.333C273.522 -213.333 271.134 -210.946 271.134 -208ZM275.468 -208V-204.026H277.468V-208H275.468ZM275.468 -196.079V-188.132H277.468V-196.079H275.468ZM275.468 -180.185V-172.237H277.468V-180.185H275.468ZM275.468 -164.29V-156.343H277.468V-164.29H275.468ZM275.468 -148.396V-140.448H277.468V-148.396H275.468ZM275.468 -132.501V-124.554H277.468V-132.501H275.468ZM275.468 -116.607V-108.659H277.468V-116.607H275.468ZM275.468 -100.712V-92.765H277.468V-100.712H275.468ZM275.468 -84.8177V-76.8705H277.468V-84.8177H275.468ZM275.468 -68.9232V-60.976H277.468V-68.9232H275.468ZM275.468 -53.0288V-45.0815H277.468V-53.0288H275.468ZM275.468 -37.1343V-29.1871H277.468V-37.1343H275.468ZM275.468 -21.2398V-13.2926H277.468V-21.2398H275.468ZM275.468 -5.34535V2.60188H277.468V-5.34535H275.468ZM275.468 10.5491V18.4963H277.468V10.5491H275.468ZM275.468 26.4436V34.3908H277.468V26.4436H275.468ZM275.468 42.338V50.2853H277.468V42.338H275.468ZM275.468 58.2325V66.1797H277.468V58.2325H275.468ZM275.468 74.127V82.0742H277.468V74.127H275.468ZM275.468 90.0215V97.9687H277.468V90.0215H275.468ZM275.468 105.916V113.863H277.468V105.916H275.468ZM275.468 121.81V129.758H277.468V121.81H275.468ZM275.468 137.705V145.652H277.468V137.705H275.468ZM275.468 153.599V161.547H277.468V153.599H275.468ZM275.468 169.494V177.441H277.468V169.494H275.468ZM275.468 185.388V193.336H277.468V185.388H275.468ZM275.468 201.283V209.23H277.468V201.283H275.468ZM275.468 217.177V225.124H277.468V217.177H275.468ZM275.468 233.072V241.019H277.468V233.072H275.468ZM275.468 248.966V256.913H277.468V248.966H275.468ZM275.468 264.861V272.808H277.468V264.861H275.468ZM275.468 280.755V288.702H277.468V280.755H275.468ZM275.468 296.65V304.597H277.468V296.65H275.468ZM275.468 312.544V320.491H277.468V312.544H275.468ZM275.468 328.439V336.386H277.468V328.439H275.468ZM275.468 344.333V352.28H277.468V344.333H275.468ZM275.468 360.228V368.175H277.468V360.228H275.468ZM275.468 376.122V384.069H277.468V376.122H275.468ZM275.468 392.017V399.964H277.468V392.017H275.468ZM275.468 407.911V415.859H277.468V407.911H275.468ZM275.468 423.806V431.753H277.468V423.806H275.468ZM275.468 439.7V447.648H277.468V439.7H275.468ZM275.468 455.595V463.542H277.468V455.595H275.468ZM275.468 471.489V479.437H277.468V471.489H275.468ZM275.468 487.384V495.331H277.468V487.384H275.468ZM275.468 503.278V511.226H277.468V503.278H275.468ZM275.468 519.173V527.12H277.468V519.173H275.468ZM275.468 535.068V543.015H277.468V535.068H275.468ZM275.468 550.962V558.909H277.468V550.962H275.468ZM275.468 566.857V574.804H277.468V566.857H275.468ZM275.468 582.751V590.698H277.468V582.751H275.468ZM275.468 598.646V606.593H277.468V598.646H275.468ZM275.468 614.54V622.487H277.468V614.54H275.468ZM275.468 630.435V638.382H277.468V630.435H275.468ZM275.468 646.329V654.276H277.468V646.329H275.468ZM275.468 662.224V670.171H277.468V662.224H275.468ZM275.468 678.118V686.066H277.468V678.118H275.468ZM275.468 694.013V701.96H277.468V694.013H275.468ZM275.468 709.907V717.855H277.468V709.907H275.468ZM275.468 725.802V733.749H277.468V725.802H275.468ZM275.468 741.696V749.644H277.468V741.696H275.468ZM275.468 757.591V765.538H277.468V757.591H275.468ZM275.468 773.485V781.433H277.468V773.485H275.468ZM275.468 789.38V797.327H277.468V789.38H275.468ZM275.468 805.275V813.222H277.468V805.275H275.468ZM275.468 821.169V829.116H277.468V821.169H275.468ZM275.468 837.064V845.011H277.468V837.064H275.468ZM275.468 852.958V860.905H277.468V852.958H275.468ZM275.468 868.853V876.8H277.468V868.853H275.468ZM275.468 884.747V892.694H277.468V884.747H275.468ZM275.468 900.642V908.589H277.468V900.642H275.468ZM275.468 916.536V924.484H277.468V916.536H275.468ZM275.468 932.431V940.378H277.468V932.431H275.468ZM275.468 948.325V956.273H277.468V948.325H275.468ZM275.468 964.22V972.167H277.468V964.22H275.468ZM275.468 980.114V984.086H277.468V980.114H275.468ZM271.134 984.086C271.134 987.032 273.522 989.42 276.468 989.42C279.413 989.42 281.801 987.032 281.801 984.086C281.801 981.141 279.413 978.753 276.468 978.753C273.522 978.753 271.134 981.141 271.134 984.086ZM271.134 -208C271.134 -205.054 273.522 -202.667 276.468 -202.667C279.413 -202.667 281.801 -205.054 281.801 -208C281.801 -210.946 279.413 -213.333 276.468 -213.333C273.522 -213.333 271.134 -210.946 271.134 -208ZM275.468 -208V-204.026H277.468V-208H275.468ZM275.468 -196.079V-188.132H277.468V-196.079H275.468ZM275.468 -180.185V-172.237H277.468V-180.185H275.468ZM275.468 -164.29V-156.343H277.468V-164.29H275.468ZM275.468 -148.396V-140.448H277.468V-148.396H275.468ZM275.468 -132.501V-124.554H277.468V-132.501H275.468ZM275.468 -116.607V-108.659H277.468V-116.607H275.468ZM275.468 -100.712V-92.765H277.468V-100.712H275.468ZM275.468 -84.8177V-76.8705H277.468V-84.8177H275.468ZM275.468 -68.9232V-60.976H277.468V-68.9232H275.468ZM275.468 -53.0288V-45.0815H277.468V-53.0288H275.468ZM275.468 -37.1343V-29.1871H277.468V-37.1343H275.468ZM275.468 -21.2398V-13.2926H277.468V-21.2398H275.468ZM275.468 -5.34535V2.60188H277.468V-5.34535H275.468ZM275.468 10.5491V18.4963H277.468V10.5491H275.468ZM275.468 26.4436V34.3908H277.468V26.4436H275.468ZM275.468 42.338V50.2853H277.468V42.338H275.468ZM275.468 58.2325V66.1797H277.468V58.2325H275.468ZM275.468 74.127V82.0742H277.468V74.127H275.468ZM275.468 90.0215V97.9687H277.468V90.0215H275.468ZM275.468 105.916V113.863H277.468V105.916H275.468ZM275.468 121.81V129.758H277.468V121.81H275.468ZM275.468 137.705V145.652H277.468V137.705H275.468ZM275.468 153.599V161.547H277.468V153.599H275.468ZM275.468 169.494V177.441H277.468V169.494H275.468ZM275.468 185.388V193.336H277.468V185.388H275.468ZM275.468 201.283V209.23H277.468V201.283H275.468ZM275.468 217.177V225.124H277.468V217.177H275.468ZM275.468 233.072V241.019H277.468V233.072H275.468ZM275.468 248.966V256.913H277.468V248.966H275.468ZM275.468 264.861V272.808H277.468V264.861H275.468ZM275.468 280.755V288.702H277.468V280.755H275.468ZM275.468 296.65V304.597H277.468V296.65H275.468ZM275.468 312.544V320.491H277.468V312.544H275.468ZM275.468 328.439V336.386H277.468V328.439H275.468ZM275.468 344.333V352.28H277.468V344.333H275.468ZM275.468 360.228V368.175H277.468V360.228H275.468ZM275.468 376.122V384.069H277.468V376.122H275.468ZM275.468 392.017V399.964H277.468V392.017H275.468ZM275.468 407.911V415.859H277.468V407.911H275.468ZM275.468 423.806V431.753H277.468V423.806H275.468ZM275.468 439.7V447.648H277.468V439.7H275.468ZM275.468 455.595V463.542H277.468V455.595H275.468ZM275.468 471.489V479.437H277.468V471.489H275.468ZM275.468 487.384V495.331H277.468V487.384H275.468ZM275.468 503.278V511.226H277.468V503.278H275.468ZM275.468 519.173V527.12H277.468V519.173H275.468ZM275.468 535.068V543.015H277.468V535.068H275.468ZM275.468 550.962V558.909H277.468V550.962H275.468ZM275.468 566.857V574.804H277.468V566.857H275.468ZM275.468 582.751V590.698H277.468V582.751H275.468ZM275.468 598.646V606.593H277.468V598.646H275.468ZM275.468 614.54V622.487H277.468V614.54H275.468ZM275.468 630.435V638.382H277.468V630.435H275.468ZM275.468 646.329V654.276H277.468V646.329H275.468ZM275.468 662.224V670.171H277.468V662.224H275.468ZM275.468 678.118V686.066H277.468V678.118H275.468ZM275.468 694.013V701.96H277.468V694.013H275.468ZM275.468 709.907V717.855H277.468V709.907H275.468ZM275.468 725.802V733.749H277.468V725.802H275.468ZM275.468 741.696V749.644H277.468V741.696H275.468ZM275.468 757.591V765.538H277.468V757.591H275.468ZM275.468 773.485V781.433H277.468V773.485H275.468ZM275.468 789.38V797.327H277.468V789.38H275.468ZM275.468 805.275V813.222H277.468V805.275H275.468ZM275.468 821.169V829.116H277.468V821.169H275.468ZM275.468 837.064V845.011H277.468V837.064H275.468ZM275.468 852.958V860.905H277.468V852.958H275.468ZM275.468 868.853V876.8H277.468V868.853H275.468ZM275.468 884.747V892.694H277.468V884.747H275.468ZM275.468 900.642V908.589H277.468V900.642H275.468ZM275.468 916.536V924.484H277.468V916.536H275.468ZM275.468 932.431V940.378H277.468V932.431H275.468ZM275.468 948.325V956.273H277.468V948.325H275.468ZM275.468 964.22V972.167H277.468V964.22H275.468ZM275.468 980.114V984.086H277.468V980.114H275.468Z" fill="black"/>
</g>
</svg>
