<svg width="410" height="268" viewBox="0 0 410 268" fill="none" xmlns="http://www.w3.org/2000/svg">
<g filter="url(#filter0_d_305_639)">
<rect x="10.5" width="394" height="264" rx="16" fill="#FFFEF6" shape-rendering="crispEdges"/>
<rect x="11" y="0.5" width="393" height="263" rx="15.5" stroke="#E7EB17" shape-rendering="crispEdges"/>
<rect x="18.5" y="8" width="378" height="33" rx="8" fill="#E7EB17"/>
<path d="M34.0471 20.7772H33.5501C32.8648 20.7772 32.3092 21.3328 32.3092 22.0182C32.3092 22.7035 31.7532 23.2591 31.0678 23.2591C30.3825 23.2591 29.8265 23.8147 29.8265 24.5C29.8265 25.1853 30.3825 25.7409 31.0678 25.7409C31.7532 25.7409 32.3092 26.2965 32.3092 26.9818C32.3092 27.6672 32.8648 28.2228 33.5501 28.2228H34.0471C34.4939 28.2228 34.7919 28.5206 34.7919 28.9673V29.9601C34.7919 30.4068 34.4939 30.7046 34.0471 30.7046H33.7988C32.905 30.7046 32.3092 30.109 32.3092 29.1907C32.3092 28.6199 31.912 28.2228 31.3409 28.2228H30.6706C30.1741 28.2228 29.8265 27.8753 29.8265 27.3789V26.9074C29.8265 26.2125 29.3548 25.7409 28.6596 25.7409H27.5176C27.1204 25.7409 26.8473 25.4679 26.8473 25.0708V24.0036C26.8473 23.5569 27.1452 23.2591 27.5921 23.2591H28.3121C29.2058 23.2591 29.8265 22.6386 29.8265 21.7203C29.8265 21.1495 30.1989 20.7772 30.7699 20.7772H31.4154C31.9368 20.7772 32.3092 20.405 32.3092 19.8838V19.3626C32.3092 18.7173 32.7312 18.2954 33.3767 18.2954H34.2209C34.5684 18.2954 34.7919 18.5188 34.7919 18.8662V20.0327C34.7919 20.4794 34.4939 20.7772 34.0471 20.7772Z" fill="#D400A6"/>
<path fill-rule="evenodd" clip-rule="evenodd" d="M31.9619 20.6083C32.0304 20.5583 32.0904 20.4983 32.1404 20.4298C32.2481 20.2823 32.3095 20.0953 32.3095 19.8838V19.3626C32.3095 18.7174 32.7315 18.2955 33.377 18.2955H34.2211C34.5687 18.2955 34.7922 18.5188 34.7922 18.8663V20.0327C34.7922 20.4795 34.4942 20.7773 34.0473 20.7773H33.5504C32.8651 20.7773 32.3095 21.3329 32.3095 22.0182C32.3095 22.7036 31.7535 23.2591 31.0681 23.2591C30.3828 23.2591 29.8268 23.8147 29.8268 24.5001C29.8268 25.1854 30.3828 25.741 31.0681 25.741C31.7535 25.741 32.3095 26.2965 32.3095 26.9819C32.3095 27.6672 32.8651 28.2228 33.5504 28.2228H34.0473C34.4942 28.2228 34.7922 28.5206 34.7922 28.9674V29.9601C34.7922 30.4068 34.4942 30.7046 34.0473 30.7046H33.7991C32.9053 30.7046 32.3095 30.109 32.3095 29.1907C32.3095 28.9462 32.2366 28.7335 32.1083 28.5703C32.0655 28.5157 32.0164 28.4667 31.9619 28.4239C31.7986 28.2957 31.5859 28.2228 31.3412 28.2228H30.6709C30.1744 28.2228 29.8268 27.8754 29.8268 27.379V26.9074C29.8268 26.5738 29.7181 26.2916 29.528 26.0884C29.5123 26.0716 29.496 26.0553 29.4792 26.0396C29.2759 25.8497 28.9937 25.741 28.6599 25.741H27.5179C27.1207 25.741 26.8476 25.468 26.8476 25.0709V24.0037C26.8476 23.557 27.1455 23.2591 27.5924 23.2591H28.3124C29.2061 23.2591 29.8268 22.6387 29.8268 21.7204C29.8268 21.1496 30.1992 20.7773 30.7702 20.7773H31.4157C31.6273 20.7773 31.8143 20.716 31.9619 20.6083ZM32.657 26.6344C32.657 27.3198 33.2126 27.8754 33.898 27.8754H34.0473C34.3498 27.8754 34.6288 27.9776 34.8331 28.1819C35.0374 28.3861 35.1397 28.665 35.1397 28.9674V29.9601C35.1397 30.2624 35.0374 30.5414 34.8331 30.7456C34.6288 30.9498 34.3498 31.0521 34.0473 31.0521H33.7991C33.2731 31.0521 32.807 30.8752 32.4719 30.5363C32.1371 30.1976 31.9619 29.7263 31.9619 29.1907C31.9619 28.988 31.8928 28.8375 31.7937 28.7384C31.6946 28.6393 31.544 28.5703 31.3412 28.5703H30.6709C30.3394 28.5703 30.0371 28.4528 29.8169 28.2327C29.5967 28.0126 29.4792 27.7104 29.4792 27.379V26.9074C29.4792 26.6405 29.3901 26.4411 29.2583 26.3093C29.1264 26.1775 28.927 26.0884 28.6599 26.0884H27.5179C27.2376 26.0884 26.9782 25.9906 26.788 25.8005C26.5978 25.6104 26.5 25.3511 26.5 25.0709V24.0037C26.5 23.7014 26.6023 23.4224 26.8066 23.2182C27.0109 23.014 27.29 22.9117 27.5924 22.9117H28.3124C28.6765 22.9117 28.9628 22.7868 29.1575 22.5899C29.3525 22.3927 29.4792 22.0995 29.4792 21.7204C29.4792 21.358 29.599 21.0286 29.8386 20.7891C30.0782 20.5495 30.4076 20.4298 30.7702 20.4298H31.4157C31.7451 20.4298 31.9619 20.2131 31.9619 19.8838V19.3626C31.9619 18.9628 32.0942 18.6025 32.3554 18.3414C32.6166 18.0803 32.977 17.948 33.377 17.948H34.2211C34.4707 17.948 34.7075 18.0297 34.8828 18.2049C35.058 18.3801 35.1397 18.6168 35.1397 18.8663V20.0327C35.1397 20.3351 35.0374 20.614 34.8331 20.8182C34.6288 21.0225 34.3498 21.1248 34.0473 21.1248H33.898C33.2126 21.1248 32.657 21.6803 32.657 22.3657C32.657 23.051 32.1015 23.6066 31.4161 23.6066H31.0678C30.5744 23.6066 30.1744 24.0066 30.1744 24.5001C30.1744 24.9935 30.5744 25.3935 31.0678 25.3935H31.4161C32.1015 25.3935 32.657 25.9491 32.657 26.6344Z" fill="#D400A6"/>
<path d="M45.97 22.0182C45.97 21.3328 45.4144 20.7772 44.7291 20.7772H44.2321C43.7852 20.7772 43.4873 20.4794 43.4873 20.0327V18.8662C43.4873 18.5188 43.7107 18.2954 44.0583 18.2954H44.9024C45.5479 18.2954 45.97 18.7173 45.97 19.3626V19.8838C45.97 20.405 46.3424 20.7772 46.8638 20.7772H47.5092C48.0803 20.7772 48.4527 21.1495 48.4527 21.7203C48.4527 22.6386 49.0733 23.2591 49.9671 23.2591H50.6871C51.134 23.2591 51.4319 23.5569 51.4319 24.0036V25.0708C51.4319 25.4679 51.1588 25.7409 50.7616 25.7409H49.6195C48.9244 25.7409 48.4527 26.2125 48.4527 26.9074V27.3789C48.4527 27.8753 48.1051 28.2228 47.6086 28.2228H46.9382C46.3672 28.2228 45.97 28.6199 45.97 29.1907C45.97 30.109 45.3741 30.7046 44.4804 30.7046H44.2321C43.7852 30.7046 43.4873 30.4068 43.4873 29.9601V28.9673C43.4873 28.5206 43.7852 28.2228 44.2321 28.2228H44.7291C45.4144 28.2228 45.97 27.6672 45.97 26.9818C45.97 26.2965 46.526 25.7409 47.2113 25.7409C47.8967 25.7409 48.4527 25.1853 48.4527 24.5C48.4527 23.8147 47.8967 23.2591 47.2113 23.2591C46.526 23.2591 45.97 22.7035 45.97 22.0182Z" fill="#D400A6"/>
<path fill-rule="evenodd" clip-rule="evenodd" d="M46.139 20.4298C46.0313 20.2823 45.97 20.0953 45.97 19.8838V19.3626C45.97 18.7174 45.5479 18.2955 44.9024 18.2955H44.0583C43.7107 18.2955 43.4873 18.5188 43.4873 18.8663V20.0327C43.4873 20.4795 43.7852 20.7773 44.2321 20.7773H44.729C45.4144 20.7773 45.97 21.3329 45.97 22.0182C45.97 22.7036 46.526 23.2591 47.2113 23.2591C47.8966 23.2591 48.4526 23.8147 48.4526 24.5001C48.4526 25.1854 47.8966 25.741 47.2113 25.741C46.526 25.741 45.97 26.2965 45.97 26.9819C45.97 27.6672 45.4144 28.2228 44.729 28.2228H44.2321C43.7852 28.2228 43.4873 28.5206 43.4873 28.9674V29.9601C43.4873 30.4068 43.7852 30.7046 44.2321 30.7046H44.4804C45.3741 30.7046 45.97 30.109 45.97 29.1907C45.97 28.9462 46.0429 28.7335 46.1711 28.5703C46.214 28.5157 46.263 28.4667 46.3175 28.4239C46.4808 28.2957 46.6936 28.2228 46.9382 28.2228H47.6085C48.1051 28.2228 48.4526 27.8754 48.4526 27.379V26.9074C48.4526 26.5738 48.5614 26.2916 48.7514 26.0884C48.7671 26.0716 48.7834 26.0553 48.8002 26.0396C49.0035 25.8497 49.2857 25.741 49.6195 25.741H50.7615C51.1588 25.741 51.4319 25.468 51.4319 25.0709V24.0037C51.4319 23.557 51.1339 23.2591 50.6871 23.2591H49.9671C49.0733 23.2591 48.4526 22.6387 48.4526 21.7204C48.4526 21.1496 48.0802 20.7773 47.5092 20.7773H46.8637C46.6522 20.7773 46.4651 20.716 46.3175 20.6083C46.249 20.5583 46.189 20.4983 46.139 20.4298ZM45.6224 26.6344C45.6224 27.3198 45.0668 27.8754 44.3815 27.8754H44.2321C43.9297 27.8754 43.6506 27.9776 43.4463 28.1819C43.242 28.3861 43.1397 28.665 43.1397 28.9674V29.9601C43.1397 30.2624 43.242 30.5414 43.4463 30.7456C43.6506 30.9498 43.9297 31.0521 44.2321 31.0521H44.4804C45.0063 31.0521 45.4725 30.8752 45.8075 30.5363C46.1423 30.1976 46.3175 29.7263 46.3175 29.1907C46.3175 28.988 46.3866 28.8375 46.4857 28.7384C46.5848 28.6393 46.7354 28.5703 46.9382 28.5703H47.6085C47.9401 28.5703 48.2424 28.4528 48.4626 28.2327C48.6828 28.0126 48.8002 27.7104 48.8002 27.379V26.9074C48.8002 26.6405 48.8893 26.4411 49.0212 26.3093C49.153 26.1775 49.3525 26.0884 49.6195 26.0884H50.7615C51.0418 26.0884 51.3013 25.9906 51.4914 25.8005C51.6816 25.6104 51.7794 25.3511 51.7794 25.0709V24.0037C51.7794 23.7014 51.6771 23.4224 51.4728 23.2182C51.2685 23.014 50.9895 22.9117 50.6871 22.9117H49.9671C49.6029 22.9117 49.3167 22.7868 49.1219 22.5899C48.9269 22.3927 48.8002 22.0995 48.8002 21.7204C48.8002 21.358 48.6805 21.0286 48.4408 20.7891C48.2012 20.5495 47.8718 20.4298 47.5092 20.4298H46.8637C46.5343 20.4298 46.3175 20.2131 46.3175 19.8838V19.3626C46.3175 18.9628 46.1852 18.6025 45.924 18.3414C45.6628 18.0803 45.3024 17.948 44.9024 17.948H44.0583C43.8087 17.948 43.5719 18.0297 43.3967 18.2049C43.2214 18.3801 43.1397 18.6168 43.1397 18.8663V20.0327C43.1397 20.3351 43.242 20.614 43.4463 20.8182C43.6506 21.0225 43.9297 21.1248 44.2321 21.1248H44.3815C45.0668 21.1248 45.6224 21.6803 45.6224 22.3657C45.6224 23.051 46.178 23.6066 46.8633 23.6066H47.2116C47.7051 23.6066 48.1051 24.0066 48.1051 24.5001C48.1051 24.9935 47.7051 25.3935 47.2116 25.3935H46.8633C46.178 25.3935 45.6224 25.9491 45.6224 26.6344Z" fill="#D400A6"/>
<text fill="#D400A6" xml:space="preserve" style="white-space: pre" font-family="Lakonet" font-size="24" letter-spacing="-0.01em"><tspan x="59.7795" y="32.8">Sari-Sari Xchange</tspan></text>
<rect x="18.5" y="49" width="378" height="168" rx="8" fill="#FCFCCE"/>
<text fill="#D400A6" xml:space="preserve" style="white-space: pre" font-family="Inter" font-size="16" letter-spacing="-0.05em"><tspan x="32" y="72.3182">SSX is a community-building research &#38; creation </tspan><tspan x="32" y="91.3182">project using Extended Reality (XR) (ie. Virtual, </tspan><tspan x="32" y="110.318">Augmented, Mixed Realities) to foster new works </tspan><tspan x="32" y="129.318">by artists from the Asian diaspora. &#10;</tspan><tspan x="32" y="148.318">&#10;</tspan><tspan x="32" y="167.318">Sari-Sari Xchange Assetory (SSXA) is a virtual </tspan><tspan x="32" y="186.318">asset library created with and for the Asian </tspan><tspan x="32" y="205.318">diaspora community.</tspan></text>
<rect x="366.5" y="225" width="30" height="31" rx="7" fill="#FCFCCE"/>
<rect x="18.5" y="225" width="340" height="31" rx="7" fill="#FCFCCE"/>
<path d="M349.5 237.136C349.5 232.3 355.13 229.647 358.859 232.726C360.973 234.47 364.027 234.47 366.141 232.726C369.87 229.647 375.5 232.3 375.5 237.136V242.952C375.5 247.748 369.691 250.14 366.315 246.733C364.213 244.613 360.787 244.613 358.685 246.733C355.309 250.14 349.5 247.748 349.5 242.952V237.136Z" fill="#FCFCCE"/>
<text fill="#D400A6" xml:space="preserve" style="white-space: pre" font-family="Lakonet" font-size="20" letter-spacing="-0.05em"><tspan x="26.5" y="247">Learn More</tspan></text>
<line x1="30" y1="249.5" x2="35" y2="249.5" stroke="#D400A6" stroke-linecap="round"/>
<text fill="#D400A6" xml:space="preserve" style="white-space: pre" font-family="Lakonet" font-size="20" letter-spacing="-0.05em"><tspan x="369.5" y="247">OK</tspan></text>
<line x1="373" y1="249.5" x2="378" y2="249.5" stroke="#D400A6" stroke-linecap="round"/>
</g>
<g filter="url(#filter1_d_305_639)">
<circle cx="10" cy="83.5" r="5.5" fill="#D400A6"/>
</g>
<g filter="url(#filter2_d_305_639)">
<circle cx="10" cy="98.5" r="5.5" fill="#FFFEF6"/>
<circle cx="10" cy="98.5" r="5" stroke="#D400A6"/>
</g>
<circle cx="404" cy="133.5" r="5.5" fill="#F1AFDD"/>
<circle cx="404" cy="148.5" r="5" fill="#FFFEF6" stroke="#F1AFDD"/>
<defs>
<filter id="filter0_d_305_639" x="6.5" y="0" width="398" height="268" filterUnits="userSpaceOnUse" color-interpolation-filters="sRGB">
<feFlood flood-opacity="0" result="BackgroundImageFix"/>
<feColorMatrix in="SourceAlpha" type="matrix" values="0 0 0 0 0 0 0 0 0 0 0 0 0 0 0 0 0 0 127 0" result="hardAlpha"/>
<feOffset dx="-4" dy="4"/>
<feComposite in2="hardAlpha" operator="out"/>
<feColorMatrix type="matrix" values="0 0 0 0 0.945098 0 0 0 0 0.686275 0 0 0 0 0.866667 0 0 0 1 0"/>
<feBlend mode="normal" in2="BackgroundImageFix" result="effect1_dropShadow_305_639"/>
<feBlend mode="normal" in="SourceGraphic" in2="effect1_dropShadow_305_639" result="shape"/>
</filter>
<filter id="filter1_d_305_639" x="0.5" y="78" width="15" height="13" filterUnits="userSpaceOnUse" color-interpolation-filters="sRGB">
<feFlood flood-opacity="0" result="BackgroundImageFix"/>
<feColorMatrix in="SourceAlpha" type="matrix" values="0 0 0 0 0 0 0 0 0 0 0 0 0 0 0 0 0 0 127 0" result="hardAlpha"/>
<feOffset dx="-4" dy="2"/>
<feComposite in2="hardAlpha" operator="out"/>
<feColorMatrix type="matrix" values="0 0 0 0 0.945098 0 0 0 0 0.686275 0 0 0 0 0.866667 0 0 0 1 0"/>
<feBlend mode="normal" in2="BackgroundImageFix" result="effect1_dropShadow_305_639"/>
<feBlend mode="normal" in="SourceGraphic" in2="effect1_dropShadow_305_639" result="shape"/>
</filter>
<filter id="filter2_d_305_639" x="0.5" y="93" width="15" height="13" filterUnits="userSpaceOnUse" color-interpolation-filters="sRGB">
<feFlood flood-opacity="0" result="BackgroundImageFix"/>
<feColorMatrix in="SourceAlpha" type="matrix" values="0 0 0 0 0 0 0 0 0 0 0 0 0 0 0 0 0 0 127 0" result="hardAlpha"/>
<feOffset dx="-4" dy="2"/>
<feComposite in2="hardAlpha" operator="out"/>
<feColorMatrix type="matrix" values="0 0 0 0 0.945098 0 0 0 0 0.686275 0 0 0 0 0.866667 0 0 0 1 0"/>
<feBlend mode="normal" in2="BackgroundImageFix" result="effect1_dropShadow_305_639"/>
<feBlend mode="normal" in="SourceGraphic" in2="effect1_dropShadow_305_639" result="shape"/>
</filter>
</defs>
</svg>
