<svg width="344" height="401" viewBox="0 0 344 401" fill="none" xmlns="http://www.w3.org/2000/svg">
<g filter="url(#filter0_d_332_346)">
<path d="M14 16C14 7.71572 20.7157 1 29 1H324C332.284 1 339 7.71573 339 16V387C339 389.761 336.761 392 334 392H19C16.2386 392 14 389.761 14 387V16Z" fill="#FFFEF6" shape-rendering="crispEdges"/>
<path d="M14 16C14 7.71572 20.7157 1 29 1H324C332.284 1 339 7.71573 339 16V387C339 389.761 336.761 392 334 392H19C16.2386 392 14 389.761 14 387V16Z" stroke="#D400A6" shape-rendering="crispEdges"/>
<rect x="26.5" y="13.5" width="300" height="38" rx="6.5" fill="#D400A6"/>
<rect x="26.5" y="13.5" width="300" height="38" rx="6.5" stroke="#D400A6"/>
<text fill="#FFFEF6" xml:space="preserve" style="white-space: pre" font-family="Lakonet" font-size="24" letter-spacing="-0.01em"><tspan x="76.5" y="40.8">Accessibility Tools</tspan></text>
<path d="M286.5 69.074V69.3894L286.785 69.5252C287.15 69.6997 287.508 69.9178 287.854 70.1827C290.3 72.0577 293.7 72.0577 296.146 70.1827C296.492 69.9178 296.85 69.6997 297.215 69.5252L297.5 69.3894V69.074V69C297.5 65.4101 300.41 62.5 304 62.5H320C323.59 62.5 326.5 65.4101 326.5 69V86C326.5 89.5898 323.59 92.5 320 92.5H304C300.41 92.5 297.5 89.5899 297.5 86V84.4094V84.1318L297.264 83.985C296.961 83.796 296.666 83.5709 296.385 83.3074L296.043 83.6723L296.385 83.3074C293.918 80.9966 290.082 80.9966 287.615 83.3074C287.334 83.5709 287.039 83.796 286.736 83.9851L286.5 84.1318V84.4095V88C286.5 90.4853 284.485 92.5 282 92.5H31C28.5147 92.5 26.5 90.4853 26.5 88V67C26.5 64.5147 28.5147 62.5 31 62.5H282C284.485 62.5 286.5 64.5147 286.5 67V69.074Z" fill="#D400A6" stroke="#D400A6"/>
<text fill="#FFFEF6" xml:space="preserve" style="white-space: pre" font-family="Inter" font-size="18" font-weight="500" letter-spacing="-0.05em"><tspan x="37" y="83.5455">Increase Text</tspan></text>
<circle cx="312" cy="77" r="9" stroke="#FFFEF6" stroke-width="2"/>
<line x1="309" y1="77" x2="315" y2="77" stroke="#FFFEF6" stroke-width="2" stroke-linecap="round"/>
<line x1="312" y1="80" x2="312" y2="74" stroke="#FFFEF6" stroke-width="2" stroke-linecap="round"/>
<path d="M26 108C26 105.239 28.2386 103 31 103H282C284.761 103 287 105.239 287 108V110.074C287.397 110.264 287.785 110.5 288.158 110.786C290.425 112.523 293.575 112.523 295.842 110.786C296.215 110.5 296.603 110.264 297 110.074V110C297 106.134 300.134 103 304 103H320C323.866 103 327 106.134 327 110V127C327 130.866 323.866 134 320 134H304C300.134 134 297 130.866 297 127V125.409C296.668 125.203 296.348 124.958 296.043 124.672C293.769 122.542 290.231 122.542 287.957 124.672C287.652 124.958 287.332 125.203 287 125.409V129C287 131.761 284.761 134 282 134H31C28.2386 134 26 131.761 26 129V108Z" fill="#FFEDF4"/>
<circle cx="312" cy="118" r="9" stroke="#D400A6" stroke-width="2"/>
<line x1="309" y1="118" x2="315" y2="118" stroke="#D400A6" stroke-width="2" stroke-linecap="round"/>
<text fill="#D400A6" xml:space="preserve" style="white-space: pre" font-family="Inter" font-size="18" font-weight="500" letter-spacing="-0.05em"><tspan x="37" y="124.545">Decrease Text</tspan></text>
<path d="M26 149C26 146.239 28.2386 144 31 144H282C284.761 144 287 146.239 287 149V151.074C287.397 151.264 287.785 151.5 288.158 151.786C290.425 153.523 293.575 153.523 295.842 151.786C296.215 151.5 296.603 151.264 297 151.074V151C297 147.134 300.134 144 304 144H320C323.866 144 327 147.134 327 151V168C327 171.866 323.866 175 320 175H304C300.134 175 297 171.866 297 168V166.409C296.668 166.203 296.348 165.958 296.043 165.672C293.769 163.542 290.231 163.542 287.957 165.672C287.652 165.958 287.332 166.203 287 166.409V170C287 172.761 284.761 175 282 175H31C28.2386 175 26 172.761 26 170V149Z" fill="#FFEDF4"/>
<path d="M318 151C317.448 151 317 151.448 317 152C317 152.552 317.448 153 318 153H318.5C319.328 153 320 153.671 320 154.5V155H319C318.448 155 318 155.448 318 156C318 156.552 318.448 157 319 157H320V159H318C317.448 159 317 159.448 317 160C317 160.552 317.448 161 318 161H320V163H319C318.448 163 318 163.448 318 164C318 164.552 318.448 165 319 165H320V165.5C320 166.328 319.329 167 318.5 167H318C317.448 167 317 167.448 317 168C317 168.552 317.448 169 318 169H318.5C320.433 169 322 167.433 322 165.5V154.5C322 152.567 320.433 151 318.5 151H318ZM309 152C308.71 152 308.419 152.125 308.219 152.375C308.177 152.428 307.615 153.126 307.406 153.406C306.809 154.206 306.215 155.054 305.656 155.906C305.265 156.502 304.913 157.1 304.594 157.656C303.574 159.434 303 160.872 303 162C303 165.314 305.686 168 309 168C312.314 168 315 165.314 315 162C315 160.872 314.426 159.434 313.406 157.656C313.087 157.1 312.735 156.502 312.344 155.906C311.785 155.055 311.191 154.206 310.594 153.406C310.385 153.126 309.823 152.428 309.781 152.375C309.581 152.125 309.29 152 309 152ZM309 154.656C309.566 155.416 310.129 156.197 310.656 157C311.026 157.564 311.798 158.864 311.877 159.009L306.125 158.994C306.204 158.85 306.974 157.564 307.344 157C307.871 156.197 308.434 155.416 309 154.656Z" fill="#D400A6"/>
<text fill="#D400A6" xml:space="preserve" style="white-space: pre" font-family="Inter" font-size="18" font-weight="500" letter-spacing="-0.05em"><tspan x="37" y="165.545">Grayscale</tspan></text>
<path d="M26 190C26 187.239 28.2386 185 31 185H282C284.761 185 287 187.239 287 190V192.074C287.397 192.264 287.785 192.5 288.158 192.786C290.425 194.523 293.575 194.523 295.842 192.786C296.215 192.5 296.603 192.264 297 192.074V192C297 188.134 300.134 185 304 185H320C323.866 185 327 188.134 327 192V209C327 212.866 323.866 216 320 216H304C300.134 216 297 212.866 297 209V207.409C296.668 207.203 296.348 206.958 296.043 206.672C293.769 204.542 290.231 204.542 287.957 206.672C287.652 206.958 287.332 207.203 287 207.409V211C287 213.761 284.761 216 282 216H31C28.2386 216 26 213.761 26 211V190Z" fill="#FFEDF4"/>
<path d="M311.987 192C309.028 192 306.535 193.454 304.487 195.844C303.787 196.661 303.173 197.534 302.675 198.406C302.373 198.933 302.189 199.342 302.081 199.594C301.973 199.845 301.973 200.155 302.081 200.406C302.189 200.658 302.373 201.066 302.675 201.594C303.173 202.466 303.787 203.339 304.487 204.156C304.788 204.507 305.115 204.856 305.438 205.164L304.317 206.276C303.927 206.666 303.906 207.309 304.296 207.699C304.687 208.09 305.315 208.109 305.706 207.719L310.581 202.812L314.831 198.594L319.706 193.719C320.096 193.328 320.096 192.672 319.706 192.281C319.511 192.086 319.243 192 318.987 192C318.731 192 318.465 192.123 318.269 192.318L317.016 193.588C315.523 192.594 313.785 192 311.987 192ZM311.987 194C313.236 194 314.47 194.378 315.555 195.028L314.042 196.563C313.444 196.218 312.699 196 311.987 196C309.778 196 307.987 197.791 307.987 200C307.987 200.717 308.222 201.444 308.568 202.041L306.839 203.736C306.544 203.458 306.256 203.157 305.987 202.844C305.375 202.13 304.864 201.362 304.425 200.594C304.27 200.323 304.203 200.183 304.112 200C304.203 199.816 304.27 199.677 304.425 199.406C304.864 198.638 305.375 197.87 305.987 197.156C307.689 195.171 309.696 194 311.987 194ZM319.925 196.844C319.673 196.796 319.403 196.844 319.175 197C318.718 197.311 318.613 197.919 318.925 198.375C319.264 198.873 319.558 199.384 319.8 199.844C319.838 199.916 319.831 199.939 319.862 200C319.771 200.183 319.704 200.323 319.55 200.594C319.11 201.362 318.599 202.13 317.987 202.844C316.285 204.829 314.278 206 311.987 206C311.739 206 311.213 205.951 310.706 205.875C310.16 205.793 309.663 206.172 309.581 206.719C309.499 207.265 309.878 207.762 310.425 207.844C311.031 207.935 311.606 208 311.987 208C314.946 208 317.439 206.546 319.487 204.156C320.188 203.339 320.801 202.466 321.3 201.594C321.601 201.066 321.785 200.658 321.893 200.406C322.001 200.155 322.001 199.845 321.893 199.594C321.663 199.056 321.241 198.219 320.581 197.25C320.425 197.022 320.176 196.891 319.925 196.844ZM311.987 198C312.141 198 312.388 198.033 312.533 198.067L310.069 200.518C309.988 200.296 309.987 200.153 309.987 200C309.987 198.895 310.883 198 311.987 198Z" fill="#D400A6"/>
<text fill="#D400A6" xml:space="preserve" style="white-space: pre" font-family="Inter" font-size="18" font-weight="500" letter-spacing="-0.05em"><tspan x="37" y="206.545">High Contrast</tspan></text>
<path d="M26 231C26 228.239 28.2386 226 31 226H282C284.761 226 287 228.239 287 231V233.074C287.397 233.264 287.785 233.5 288.158 233.786C290.425 235.523 293.575 235.523 295.842 233.786C296.215 233.5 296.603 233.264 297 233.074V233C297 229.134 300.134 226 304 226H320C323.866 226 327 229.134 327 233V250C327 253.866 323.866 257 320 257H304C300.134 257 297 253.866 297 250V248.409C296.668 248.203 296.348 247.958 296.043 247.672C293.769 245.542 290.231 245.542 287.957 247.672C287.652 247.958 287.332 248.203 287 248.409V252C287 254.761 284.761 257 282 257H31C28.2386 257 26 254.761 26 252V231Z" fill="#FFEDF4"/>
<path d="M316.431 231.001C315.143 231.034 313.9 231.629 312.811 232.719L311.282 234.249C310.892 234.639 310.892 235.264 311.282 235.654C311.672 236.044 312.328 236.044 312.718 235.654L314.215 234.124C315.664 232.674 317.271 232.529 318.864 234.124C320.458 235.718 320.313 237.326 318.864 238.776L315.838 241.805C314.389 243.255 312.782 243.399 311.189 241.805L310.752 241.368C309.811 240.426 308.406 241.831 309.348 242.773L309.785 243.21C312.221 245.648 315.064 245.389 317.242 243.21L320.268 240.181C322.446 238.002 322.705 235.157 320.268 232.719C319.05 231.5 317.718 230.969 316.431 231.001ZM310.19 237.059C308.989 237.137 307.82 237.713 306.758 238.776L303.732 241.805C301.295 244.243 301.554 247.088 303.732 249.267C305.909 251.446 308.753 251.705 311.189 249.267L312.718 247.737C313.108 247.347 313.108 246.722 312.718 246.332C312.328 245.942 311.672 245.942 311.282 246.332L309.785 247.862C308.191 249.457 306.585 249.312 305.136 247.862C303.687 246.412 303.542 244.805 305.136 243.21L308.162 240.181C308.897 239.446 309.623 239.102 310.315 239.057C311.152 239.002 312.03 239.399 312.811 240.181L313.248 240.618C313.638 241.008 314.262 241.008 314.652 240.618C315.042 240.228 315.042 239.603 314.652 239.213L314.215 238.776C313.058 237.618 311.664 236.962 310.19 237.059Z" fill="#D400A6"/>
<text fill="#D400A6" xml:space="preserve" style="white-space: pre" font-family="Inter" font-size="18" font-weight="500" letter-spacing="-0.05em"><tspan x="37" y="247.545">Links Underline</tspan></text>
<path d="M26 272C26 269.239 28.2386 267 31 267H282C284.761 267 287 269.239 287 272V274.074C287.397 274.264 287.785 274.5 288.158 274.786C290.425 276.523 293.575 276.523 295.842 274.786C296.215 274.5 296.603 274.264 297 274.074V274C297 270.134 300.134 267 304 267H320C323.866 267 327 270.134 327 274V291C327 294.866 323.866 298 320 298H304C300.134 298 297 294.866 297 291V289.409C296.668 289.203 296.348 288.958 296.043 288.672C293.769 286.542 290.231 286.542 287.957 288.672C287.652 288.958 287.332 289.203 287 289.409V293C287 295.761 284.761 298 282 298H31C28.2386 298 26 295.761 26 293V272Z" fill="#FFEDF4"/>
<path d="M307.456 274C307.055 274.001 306.635 274.224 306.488 274.688L302.05 288.688C301.883 289.214 302.149 289.77 302.675 289.938C303.201 290.105 303.758 289.839 303.925 289.313L305.3 285H309.644L311.05 289.313C311.221 289.838 311.775 290.108 312.3 289.938C312.825 289.767 313.095 289.213 312.925 288.688L308.394 274.688C308.244 274.225 307.858 273.999 307.456 274ZM317.55 278C316.022 278 314.559 279.167 314.05 280.688C313.875 281.211 314.151 281.762 314.675 281.938C315.199 282.113 315.75 281.836 315.925 281.313C316.171 280.578 316.917 280 317.55 280H318.425C319.256 280 319.988 280.864 319.988 282V283C319.102 283 318.006 283 317.55 283C315.584 283 313.988 284.561 313.988 286.5C313.988 288.44 315.584 290.003 317.55 290C317.6 290 317.92 290.001 318.019 290C318.786 289.992 319.488 289.736 320.113 289.344C320.26 289.713 320.566 290 320.988 290C321.54 290 321.988 289.552 321.988 289V286C321.99 285.792 321.988 284.077 321.988 284V282C321.988 279.822 320.435 278 318.425 278H317.55ZM307.456 278.281L308.988 283H305.956L307.456 278.281ZM317.55 285C318.006 285 319.105 285 319.988 285C319.988 285.454 319.989 285.872 319.988 285.969C319.971 287.204 319.051 287.989 317.988 288C317.919 288.001 317.633 288 317.55 288C316.678 288.001 315.988 287.323 315.988 286.5C315.988 285.678 316.676 285 317.55 285Z" fill="#D400A6"/>
<text fill="#D400A6" xml:space="preserve" style="white-space: pre" font-family="Inter" font-size="18" font-weight="500" letter-spacing="-0.05em"><tspan x="37" y="288.545">Readable Font</tspan></text>
<path d="M26 313C26 310.239 28.2386 308 31 308H282C284.761 308 287 310.239 287 313V315.074C287.397 315.264 287.785 315.5 288.158 315.786C290.425 317.523 293.575 317.523 295.842 315.786C296.215 315.5 296.603 315.264 297 315.074V315C297 311.134 300.134 308 304 308H320C323.866 308 327 311.134 327 315V332C327 335.866 323.866 339 320 339H304C300.134 339 297 335.866 297 332V330.409C296.668 330.203 296.348 329.958 296.043 329.672C293.769 327.542 290.231 327.542 287.957 329.672C287.652 329.958 287.332 330.203 287 330.409V334C287 336.761 284.761 339 282 339H31C28.2386 339 26 336.761 26 334V313Z" fill="#FFEDF4"/>
<text fill="#D400A6" xml:space="preserve" style="white-space: pre" font-family="Inter" font-size="18" font-weight="500" letter-spacing="-0.05em"><tspan x="37" y="329.545">WCAG AAA Colours</tspan></text>
<path d="M318.353 314C317.4 314 316.435 314.33 315.744 315.02C315.23 315.535 312.78 317.987 311.634 319.135L311.364 318.864C311.176 318.676 310.919 318.594 310.674 318.594C310.428 318.594 310.171 318.676 309.984 318.864C309.609 319.239 309.609 319.871 309.984 320.245L310.734 320.996L304.224 327.511C304.119 327.617 304.061 327.761 304.014 327.902C303.894 328.262 303.174 330.424 303.054 330.784C302.939 331.129 303.007 331.518 303.264 331.775L304.224 332.736C304.481 332.993 304.869 333.061 305.214 332.946L308.094 331.985C308.235 331.938 308.378 331.881 308.484 331.775L314.994 325.26L315.744 326.01C316.118 326.386 316.749 326.386 317.123 326.01C317.498 325.634 317.498 325.004 317.123 324.629L316.854 324.359L320.963 320.245C322.346 318.862 322.346 316.405 320.963 315.02C320.272 314.33 319.307 314 318.353 314ZM318.353 315.922C318.816 315.922 319.267 316.086 319.583 316.402C320.216 317.035 320.216 318.231 319.583 318.864L315.474 322.978L313.014 320.515C314.16 319.368 316.61 316.916 317.123 316.402C317.44 316.086 317.891 315.922 318.353 315.922ZM312.114 322.377L313.614 323.908L307.224 330.273L305.214 330.964L305.064 330.814C305.284 330.152 305.567 329.243 305.724 328.773L312.114 322.377Z" fill="#D400A6"/>
<path d="M26 354C26 351.239 28.2386 349 31 349H282C284.761 349 287 351.239 287 354V356.074C287.397 356.264 287.785 356.5 288.158 356.786C290.425 358.523 293.575 358.523 295.842 356.786C296.215 356.5 296.603 356.264 297 356.074V356C297 352.134 300.134 349 304 349H320C323.866 349 327 352.134 327 356V373C327 376.866 323.866 380 320 380H304C300.134 380 297 376.866 297 373V371.409C296.668 371.203 296.348 370.958 296.043 370.672C293.769 368.542 290.231 368.542 287.957 370.672C287.652 370.958 287.332 371.203 287 371.409V375C287 377.761 284.761 380 282 380H31C28.2386 380 26 377.761 26 375V354Z" fill="#FFEDF4"/>
<path d="M312 354V357C316.971 357 321 361.029 321 366C321 370.971 316.971 375 312 375C307.029 375 303 370.971 303 366C303 364.392 303.428 362.83 304.219 361.469C304.496 360.991 305.116 360.847 305.594 361.125C306.071 361.402 306.215 362.022 305.938 362.5C305.323 363.558 305 364.748 305 366C305 369.866 308.134 373 312 373C315.866 373 319 369.866 319 366C319 362.134 315.866 359 312 359V362L308 358L312 354Z" fill="#D400A6"/>
<text fill="#D400A6" xml:space="preserve" style="white-space: pre" font-family="Inter" font-size="18" font-weight="500" letter-spacing="-0.05em"><tspan x="37" y="370.545">Reset</tspan></text>
<ellipse cx="13.5" cy="148.358" rx="5.5" ry="5.35837" fill="#E7EB17"/>
<path d="M18.5 169.075C18.5 171.746 16.2738 173.934 13.5 173.934C10.7262 173.934 8.5 171.746 8.5 169.075C8.5 166.404 10.7262 164.217 13.5 164.217C16.2738 164.217 18.5 166.404 18.5 169.075Z" fill="#FFFEF6" stroke="#D400A6"/>
<ellipse cx="338.5" cy="51.3584" rx="5.5" ry="5.35837" fill="#D400A6"/>
<path d="M343.5 72.0752C343.5 74.7462 341.274 76.9335 338.5 76.9335C335.726 76.9335 333.5 74.7462 333.5 72.0752C333.5 69.4042 335.726 67.2168 338.5 67.2168C341.274 67.2168 343.5 69.4042 343.5 72.0752Z" fill="#FFFEF6" stroke="#D400A6"/>
</g>
<defs>
<filter id="filter0_d_332_346" x="0" y="0.5" width="344" height="400" filterUnits="userSpaceOnUse" color-interpolation-filters="sRGB">
<feFlood flood-opacity="0" result="BackgroundImageFix"/>
<feColorMatrix in="SourceAlpha" type="matrix" values="0 0 0 0 0 0 0 0 0 0 0 0 0 0 0 0 0 0 127 0" result="hardAlpha"/>
<feOffset dx="-4" dy="4"/>
<feGaussianBlur stdDeviation="2"/>
<feComposite in2="hardAlpha" operator="out"/>
<feColorMatrix type="matrix" values="0 0 0 0 0 0 0 0 0 0 0 0 0 0 0 0 0 0 0.25 0"/>
<feBlend mode="normal" in2="BackgroundImageFix" result="effect1_dropShadow_332_346"/>
<feBlend mode="normal" in="SourceGraphic" in2="effect1_dropShadow_332_346" result="shape"/>
</filter>
</defs>
</svg>
