<svg width="301" height="31" viewBox="0 0 301 31" fill="none" xmlns="http://www.w3.org/2000/svg">
<path id="Union" d="M0 5C0 2.23858 2.23858 0 5 0H256C258.761 0 261 2.23858 261 5V7.07403C261.397 7.26364 261.785 7.49998 262.158 7.78584C264.425 9.52329 267.575 9.52329 269.842 7.78584C270.215 7.49998 270.603 7.26364 271 7.07403V7C271 3.13401 274.134 0 278 0H294C297.866 0 301 3.13401 301 7V24C301 27.866 297.866 31 294 31H278C274.134 31 271 27.866 271 24V22.4094C270.668 22.2029 270.348 21.9578 270.043 21.6723C267.769 19.5416 264.231 19.5416 261.957 21.6723C261.652 21.9578 261.332 22.2029 261 22.4095V26C261 28.7614 258.761 31 256 31H5.00001C2.23858 31 0 28.7614 0 26V5Z" fill="#FFEDF4"/>
</svg>
