<svg width="51" height="35" viewBox="0 0 51 35" fill="none" xmlns="http://www.w3.org/2000/svg">
<g id="Accessibility Icon Idle">
<g id="Outline">
<rect id="Rectangle 2" x="1" y="0.5" width="49" height="34" rx="15.5" fill="#FFFEF6" stroke="#F1AFDD"/>
</g>
<g id="Person">
<path id="Vector" d="M25.4999 9.88488C25.0664 9.88485 24.6425 9.75627 24.282 9.51538C23.9215 9.27448 23.6404 8.93206 23.4745 8.53145C23.3086 8.13083 23.2651 7.69001 23.3497 7.26472C23.4343 6.83942 23.6432 6.44877 23.9498 6.14215C24.2564 5.83553 24.647 5.62672 25.0723 5.54213C25.4976 5.45753 25.9384 5.50095 26.3391 5.66689C26.7397 5.83283 27.0821 6.11384 27.323 6.47439C27.5639 6.8349 27.6925 7.25874 27.6925 7.69232C27.6918 8.27359 27.4605 8.83085 27.0495 9.24188C26.6385 9.65291 26.0812 9.88414 25.4999 9.88488Z" fill="#D400A6" stroke="#D400A6"/>
<path id="Vector_2" d="M34.055 10.917L34.0549 10.9168C34.0127 10.9286 33.9692 10.9416 33.9239 10.9557L33.9167 10.9579L33.9166 10.9579C33.031 11.2177 28.6214 12.4647 25.4793 12.4647C22.5567 12.4647 18.5428 11.3859 17.2865 11.0288L17.2643 11.0225L17.2428 11.0142C17.1348 10.9724 17.0245 10.9368 16.9124 10.9076L16.9113 10.9073C16.6705 10.8439 16.4719 10.9204 16.3024 11.1133C16.1189 11.3222 16 11.646 16 11.9594C16 12.2019 16.0985 12.3808 16.2945 12.5476C16.5081 12.7294 16.8175 12.8767 17.1874 13.0163L34.055 10.917ZM34.055 10.917L34.068 10.9129M34.055 10.917L34.068 10.9129M34.068 10.9129L34.0787 10.9096L34.089 10.9069C34.0892 10.9068 34.0895 10.9067 34.0898 10.9067C34.3298 10.8439 34.5282 10.9204 34.6976 11.1136C34.8811 11.323 35 11.6471 35 11.9604C35 12.205 34.8995 12.3856 34.698 12.5544C34.4785 12.7384 34.162 12.8864 33.7859 13.0274L33.7849 13.0278C33.7751 13.0315 33.7651 13.0347 33.7549 13.0374L33.7365 13.0423L33.7186 13.0486L29.4261 14.5491L29.426 14.549L29.4153 14.553C29.1091 14.668 28.8751 14.7908 28.7017 14.909C28.5442 15.0164 28.3934 15.1491 28.3107 15.3023L28.3049 15.3131C28.3045 15.3138 28.3041 15.3146 28.3037 15.3153L28.3008 15.3206L28.3006 15.321C28.1658 15.5761 28.0361 16.134 28.2365 17.3925L28.5139 19.5486L28.5157 19.5626L28.5183 19.5766L30.0871 27.9774L30.0889 27.987L30.091 27.9965C30.1023 28.0459 30.1121 28.0987 30.1206 28.1547C30.1563 28.3995 30.0848 28.6306 29.9268 28.8023C29.7706 28.9721 29.498 29.1165 29.0766 29.1165C28.7542 29.1165 28.5603 29.0174 28.4226 28.8775C28.2702 28.7227 28.146 28.475 28.0585 28.1176C28.0385 28.0357 28.0234 27.9549 28.0047 27.8549L28.0012 27.8361L27.5097 27.9281L28.0012 27.8361C27.9006 27.2984 27.5451 25.4333 27.1366 23.6999C26.9329 22.8353 26.7129 21.9903 26.502 21.3563C26.3976 21.0424 26.2886 20.7593 26.1767 20.547C26.1219 20.4428 26.0539 20.3314 25.9694 20.2391C25.8982 20.1613 25.732 20.005 25.4784 20.005C25.227 20.005 25.0619 20.1584 24.9902 20.2364C24.906 20.3279 24.8388 20.4381 24.7849 20.5404C24.675 20.7491 24.5688 21.0268 24.4674 21.3342C24.2625 21.9554 24.0498 22.7842 23.8525 23.6361C23.457 25.3442 23.1114 27.1985 23.0026 27.7949L22.9983 27.8184C22.9753 27.9451 22.9562 28.0498 22.9299 28.1523C22.8412 28.4979 22.7173 28.7362 22.5669 28.8851C22.4305 29.0203 22.2381 29.1165 21.9205 29.1165C21.5003 29.1165 21.2281 28.9728 21.0718 28.8035C20.9153 28.6341 20.8434 28.4068 20.8758 28.1657L20.885 28.1147L20.8851 28.1147L20.8867 28.1046C20.8894 28.088 20.8923 28.0721 20.8955 28.0569L20.8956 28.0569L20.8979 28.0448L22.4455 19.5737L22.4479 19.5608L22.4496 19.5477L22.7275 17.3917C22.7561 17.2122 22.8122 16.8558 22.8353 16.4749C22.8574 16.1121 22.8572 15.6356 22.7151 15.2703C22.6623 15.1335 22.576 14.9775 22.4098 14.8272C22.2524 14.6848 22.0441 14.5664 21.774 14.4629L21.7592 14.4572M34.068 10.9129L21.7592 14.4572M21.7592 14.4572L21.7441 14.4525M21.7592 14.4572L21.7441 14.4525M21.7441 14.4525L17.2657 13.0537M21.7441 14.4525L17.2657 13.0537M17.2657 13.0537C17.241 13.0392 17.2148 13.0267 17.1874 13.0163L17.2657 13.0537Z" fill="#D400A6" stroke="#D400A6"/>
</g>
</g>
</svg>
