<svg width="409" height="276" viewBox="0 0 409 276" fill="none" xmlns="http://www.w3.org/2000/svg">
<g filter="url(#filter0_d_305_670)">
<rect x="10" width="394" height="271" rx="16" fill="#FFFEF6" shape-rendering="crispEdges"/>
<rect x="10.5" y="0.5" width="393" height="270" rx="15.5" stroke="#D400A6" shape-rendering="crispEdges"/>
<rect x="18" y="8" width="378" height="33" rx="8" fill="#D400A6"/>
<path d="M29.5751 19.3934V18.9678C29.5751 18.2018 30.0859 17.6912 30.8521 17.6912H33.3428C33.8951 17.6912 34.3428 18.1389 34.3428 18.6912V19.67C34.3428 20.2223 34.7905 20.67 35.3428 20.67H38.1106C38.6629 20.67 39.1106 20.2223 39.1106 19.67V18.9678C39.1106 18.2018 39.6214 17.6912 40.3877 17.6912H40.8133C41.5796 17.6912 42.0904 18.2018 42.0904 18.9678V19.3934C42.0904 20.1593 41.5796 20.67 40.8133 20.67H40.3877C39.6214 20.67 39.1106 21.1807 39.1106 21.9466V22.3722C39.1106 23.1382 38.5997 23.6488 37.8335 23.6488H35.3428C34.7905 23.6488 34.3428 23.2011 34.3428 22.6488V21.67C34.3428 21.1177 33.8951 20.67 33.3428 20.67H30.5751C30.0228 20.67 29.5751 21.1177 29.5751 21.67V22.3722C29.5751 23.1382 29.0642 23.6488 28.298 23.6488H27.8723C27.106 23.6488 26.5952 23.1382 26.5952 22.3722V21.9466C26.5952 21.1807 27.106 20.67 27.8723 20.67H28.298C29.0642 20.67 29.5751 20.1593 29.5751 19.3934ZM29.5751 27.0532V26.6277C29.5751 25.8617 30.0859 25.351 30.8521 25.351H33.3428C33.8951 25.351 34.3428 25.7987 34.3428 26.351V27.3299C34.3428 27.8822 34.7905 28.3299 35.3428 28.3299H38.1106C38.6629 28.3299 39.1106 27.8822 39.1106 27.3299V26.6277C39.1106 25.8617 39.6214 25.351 40.3877 25.351H40.8133C41.5796 25.351 42.0904 25.8617 42.0904 26.6277V27.0532C42.0904 27.8192 41.5796 28.3299 40.8133 28.3299H40.3877C39.6214 28.3299 39.1106 28.8405 39.1106 29.6065V30.0321C39.1106 30.7981 38.5997 31.3087 37.8335 31.3087H35.3428C34.7905 31.3087 34.3428 30.861 34.3428 30.3087V29.3299C34.3428 28.7776 33.8951 28.3299 33.3428 28.3299H30.5751C30.0228 28.3299 29.5751 28.7776 29.5751 29.3299V30.0321C29.5751 30.7981 29.0642 31.3087 28.298 31.3087H27.8723C27.106 31.3087 26.5952 30.7981 26.5952 30.0321V29.6065C26.5952 28.8405 27.106 28.3299 27.8723 28.3299H28.298C29.0642 28.3299 29.5751 27.8192 29.5751 27.0532Z" fill="#FFFEF6"/>
<path fill-rule="evenodd" clip-rule="evenodd" d="M33.9395 17.0955C34.4918 17.0955 34.9395 17.5432 34.9395 18.0955V19.0743C34.9395 19.6266 35.3873 20.0743 35.9395 20.0743H37.5154C38.0677 20.0743 38.5154 19.6266 38.5154 19.0743V18.9679C38.5154 18.4495 38.6908 17.9712 39.0411 17.621C39.3914 17.2709 39.8699 17.0955 40.3884 17.0955H40.8141C41.3327 17.0955 41.8111 17.2709 42.1614 17.621C42.5117 17.9712 42.6872 18.4495 42.6872 18.9679V19.3934C42.6872 19.9118 42.5117 20.3901 42.1614 20.7403C41.8111 21.0904 41.3327 21.2658 40.8141 21.2658H40.3884C40.1407 21.2658 39.9806 21.3458 39.8839 21.4424C39.7873 21.5391 39.7073 21.6991 39.7073 21.9467V22.3723C39.7073 22.8906 39.5319 23.3689 39.1816 23.7191C38.8313 24.0693 38.3528 24.2447 37.8343 24.2447H34.7476C34.1953 24.2447 33.7476 23.797 33.7476 23.2447V22.2658C33.7476 21.7135 33.2999 21.2658 32.7476 21.2658H31.1718C30.6195 21.2658 30.1718 21.7135 30.1718 22.2658V22.3723C30.1718 22.8906 29.9963 23.3689 29.646 23.7191C29.2957 24.0693 28.8173 24.2447 28.2987 24.2447H27.873C27.3545 24.2447 26.8761 24.0693 26.5258 23.7191C26.1755 23.3689 26 22.8906 26 22.3723V21.9467C26 21.4283 26.1755 20.9501 26.5258 20.5999C26.8761 20.2497 27.3545 20.0743 27.873 20.0743H28.2987C28.5464 20.0743 28.7065 19.9944 28.8032 19.8977C28.8999 19.8011 28.9798 19.641 28.9798 19.3934V18.9679C28.9798 18.4495 29.1553 17.9712 29.5056 17.621C29.8559 17.2709 30.3343 17.0955 30.8529 17.0955H33.9395ZM29.5758 21.6701C29.5758 21.1178 30.0235 20.6701 30.5758 20.6701H34.3436V22.6489C34.3436 23.2012 34.7913 23.6489 35.3436 23.6489H37.8343C38.6005 23.6489 39.1113 23.1382 39.1113 22.3723V21.9467C39.1113 21.6871 39.17 21.4568 39.2774 21.2658C39.3795 21.0843 39.5257 20.9382 39.7073 20.8361C39.8984 20.7287 40.1287 20.6701 40.3884 20.6701H40.8141C41.5804 20.6701 42.0912 20.1594 42.0912 19.3934V18.9679C42.0912 18.2019 41.5804 17.6912 40.8141 17.6912H40.3884C39.6222 17.6912 39.1113 18.2019 39.1113 18.9679V19.6701C39.1113 20.2223 38.6636 20.6701 38.1113 20.6701H34.3436V18.6912C34.3436 18.1389 33.8959 17.6912 33.3436 17.6912H30.8529C30.0867 17.6912 29.5758 18.2019 29.5758 18.9679V19.3934C29.5758 19.653 29.5171 19.8833 29.4097 20.0743C29.3076 20.2559 29.1615 20.402 28.9798 20.504C28.7888 20.6114 28.5584 20.6701 28.2987 20.6701H27.873C27.1068 20.6701 26.596 21.1807 26.596 21.9467V22.3723C26.596 23.1382 27.1068 23.6489 27.873 23.6489H28.2987C29.065 23.6489 29.5758 23.1382 29.5758 22.3723V21.6701ZM33.9395 24.7553C34.4918 24.7553 34.9395 25.203 34.9395 25.7553V26.7342C34.9395 27.2865 35.3873 27.7342 35.9395 27.7342H37.5154C38.0677 27.7342 38.5154 27.2865 38.5154 26.7342V26.6277C38.5154 26.1094 38.6908 25.6311 39.0411 25.2809C39.3914 24.9307 39.8699 24.7553 40.3884 24.7553H40.8141C41.3327 24.7553 41.8111 24.9307 42.1614 25.2809C42.5117 25.6311 42.6872 26.1094 42.6872 26.6277V27.0533C42.6872 27.5717 42.5117 28.0499 42.1614 28.4001C41.8111 28.7503 41.3327 28.9257 40.8141 28.9257H40.3884C40.1407 28.9257 39.9806 29.0056 39.8839 29.1023C39.7873 29.1989 39.7073 29.359 39.7073 29.6066V30.0321C39.7073 30.5505 39.5319 31.0288 39.1816 31.379C38.8313 31.7291 38.3528 31.9045 37.8343 31.9045H34.7476C34.1953 31.9045 33.7476 31.4568 33.7476 30.9045V29.9257C33.7476 29.3734 33.2999 28.9257 32.7476 28.9257H31.1718C30.6195 28.9257 30.1718 29.3734 30.1718 29.9257V30.0321C30.1718 30.5505 29.9963 31.0288 29.646 31.379C29.2957 31.7291 28.8173 31.9045 28.2987 31.9045H27.873C27.3545 31.9045 26.8761 31.7291 26.5258 31.379C26.1755 31.0288 26 30.5505 26 30.0321V29.6066C26 29.0882 26.1755 28.6099 26.5258 28.2597C26.8761 27.9096 27.3545 27.7342 27.873 27.7342H28.2987C28.5464 27.7342 28.7065 27.6542 28.8032 27.5576C28.8999 27.4609 28.9798 27.3009 28.9798 27.0533V26.6277C28.9798 26.1094 29.1553 25.6311 29.5056 25.2809C29.8559 24.9307 30.3343 24.7553 30.8529 24.7553H33.9395ZM29.5758 29.3299C29.5758 28.7776 30.0235 28.3299 30.5758 28.3299H34.3436V30.3088C34.3436 30.8611 34.7913 31.3088 35.3436 31.3088H37.8343C38.6005 31.3088 39.1113 30.7981 39.1113 30.0321V29.6066C39.1113 29.347 39.17 29.1167 39.2774 28.9257C39.3795 28.7441 39.5257 28.598 39.7073 28.496C39.8984 28.3886 40.1287 28.3299 40.3884 28.3299H40.8141C41.5804 28.3299 42.0912 27.8193 42.0912 27.0533V26.6277C42.0912 25.8618 41.5804 25.3511 40.8141 25.3511H40.3884C39.6222 25.3511 39.1113 25.8618 39.1113 26.6277V27.3299C39.1113 27.8822 38.6636 28.3299 38.1113 28.3299H34.3436V26.3511C34.3436 25.7988 33.8959 25.3511 33.3436 25.3511H30.8529C30.0867 25.3511 29.5758 25.8618 29.5758 26.6277V27.0533C29.5758 27.3129 29.5171 27.5432 29.4097 27.7342C29.3076 27.9157 29.1615 28.0618 28.9798 28.1639C28.7888 28.2713 28.5584 28.3299 28.2987 28.3299H27.873C27.1068 28.3299 26.596 28.8406 26.596 29.6066V30.0321C26.596 30.7981 27.1068 31.3088 27.873 31.3088H28.2987C29.065 31.3088 29.5758 30.7981 29.5758 30.0321V29.3299Z" fill="#FFFEF6"/>
<text fill="#FFFEF6" xml:space="preserve" style="white-space: pre" font-family="Lakonet" font-size="24" letter-spacing="-0.01em"><tspan x="50.6871" y="32.8">Collections</tspan></text>
<rect x="18" y="49" width="378" height="35" rx="8" fill="#FFEDF4"/>
<path d="M26.6244 70.2674V67.1908C26.6244 66.3882 27.1596 65.8532 27.9625 65.8532H29.7467C30.5495 65.8532 31.0848 65.3181 31.0848 64.5155V62.7319C31.0848 61.9294 31.62 61.3943 32.4229 61.3943H34.207C35.0099 61.3943 35.5451 61.9294 35.5451 62.7319V64.8532C35.5451 65.4054 35.0974 65.8532 34.5451 65.8532H32.0848C31.5325 65.8532 31.0848 66.3009 31.0848 66.8532V70.6051C31.0848 71.1574 30.6371 71.6051 30.0848 71.6051H27.9625C27.1596 71.6051 26.6244 71.07 26.6244 70.2674ZM35.4559 70.2674V67.1908C35.4559 66.3882 35.9912 65.8532 36.794 65.8532H38.5782C39.3811 65.8532 39.9163 65.3181 39.9163 64.5155V62.7319C39.9163 61.9294 40.4516 61.3943 41.2544 61.3943H43.0386C43.8414 61.3943 44.3767 61.9294 44.3767 62.7319V64.8532C44.3767 65.4054 43.929 65.8532 43.3767 65.8532H40.9163C40.364 65.8532 39.9163 66.3009 39.9163 66.8532V70.6051C39.9163 71.1574 39.4686 71.6051 38.9163 71.6051H36.794C35.9912 71.6051 35.4559 71.07 35.4559 70.2674Z" fill="#D400A6"/>
<path fill-rule="evenodd" clip-rule="evenodd" d="M34.5452 65.8535C35.0974 65.8535 35.5452 65.4057 35.5452 64.8535V62.7323C35.5452 61.9297 35.0099 61.3946 34.207 61.3946H32.4229C31.62 61.3946 31.0848 61.9297 31.0848 62.7323V64.5158C31.0848 64.7878 31.0233 65.0291 30.9108 65.2292C30.8038 65.4195 30.6507 65.5726 30.4604 65.6795C30.2601 65.792 30.0188 65.8535 29.7467 65.8535H27.9626C27.1597 65.8535 26.6244 66.3885 26.6244 67.1911V70.2677C26.6244 71.0703 27.1597 71.6054 27.9626 71.6054H30.0848C30.6371 71.6054 31.0848 71.1576 31.0848 70.6054V66.8535C31.0848 66.3012 31.5325 65.8535 32.0848 65.8535H34.5452ZM31.7093 67.4777C31.7093 66.9254 32.157 66.4777 32.7093 66.4777H34.2217C34.5769 66.4777 34.8315 66.8359 34.8315 67.1911V70.2677C34.8315 70.8109 35.0153 71.312 35.3824 71.6789C35.7494 72.0458 36.2507 72.2296 36.7941 72.2296H39.5407C40.093 72.2296 40.5407 71.7819 40.5407 71.2296V67.4777C40.5407 66.9254 40.9885 66.4777 41.5407 66.4777H44.0011C44.5534 66.4777 45.0011 66.03 45.0011 65.4777V62.7323C45.0011 62.1891 44.8173 61.688 44.4502 61.3211C44.0832 60.9542 43.5819 60.7704 43.0385 60.7704H41.2544C40.7111 60.7704 40.2098 60.9542 39.8427 61.3211C39.4757 61.688 39.2918 62.1891 39.2918 62.7323V64.5158C39.2918 64.7752 39.2081 64.9429 39.1068 65.0442C39.0055 65.1455 38.8377 65.2292 38.5782 65.2292H36.7941C36.4782 65.2292 36.1696 65.0001 36.1696 64.6842V62.7323C36.1696 62.1891 35.9858 61.688 35.6187 61.3211C35.2517 60.9542 34.7504 60.7704 34.207 60.7704H32.4229C31.8796 60.7704 31.3783 60.9542 31.0112 61.3211C30.6442 61.688 30.4604 62.1891 30.4604 62.7323V64.5158C30.4604 64.7752 30.3766 64.9429 30.2753 65.0442C30.174 65.1455 30.0062 65.2292 29.7467 65.2292H27.9626C27.4192 65.2292 26.9179 65.413 26.5509 65.7799C26.1838 66.1468 26 66.648 26 67.1911V70.2677C26 70.8109 26.1838 71.312 26.5509 71.6789C26.9179 72.0458 27.4192 72.2296 27.9626 72.2296H30.7093C31.2615 72.2296 31.7093 71.7819 31.7093 71.2296V67.4777ZM36.1696 65.9819C35.9376 66.0888 35.7532 66.2586 35.63 66.4777C35.5174 66.6778 35.4559 66.9191 35.4559 67.1911V70.2677C35.4559 71.0703 35.9912 71.6054 36.7941 71.6054H38.9163C39.4686 71.6054 39.9163 71.1576 39.9163 70.6054V66.8535C39.9163 66.3012 40.364 65.8535 40.9163 65.8535H43.3766C43.9289 65.8535 44.3766 65.4057 44.3766 64.8535V62.7323C44.3766 61.9297 43.8414 61.3946 43.0385 61.3946H41.2544C40.4515 61.3946 39.9163 61.9297 39.9163 62.7323V64.5158C39.9163 64.7878 39.8548 65.0291 39.7423 65.2292C39.6353 65.4195 39.4822 65.5726 39.2918 65.6795C39.0916 65.792 38.8503 65.8535 38.5782 65.8535H36.7941C36.5612 65.8535 36.3509 65.8985 36.1696 65.9819Z" fill="#D400A6"/>
<text fill="#D400A6" xml:space="preserve" style="white-space: pre" font-family="Inter" font-size="16" letter-spacing="-0.05em"><tspan x="53.0011" y="72.3182">Explore collections by SSX.</tspan></text>
<rect x="18" y="92" width="378" height="132" rx="8" fill="#FFEDF4"/>
<rect x="366" y="232" width="30" height="31" rx="7" fill="#FFEDF4"/>
<rect x="18" y="232" width="340" height="31" rx="7" fill="#FFEDF4"/>
<path d="M349 244.136C349 239.3 354.63 236.647 358.359 239.726C360.473 241.47 363.527 241.47 365.641 239.726C369.37 236.647 375 239.3 375 244.136V249.952C375 254.748 369.191 257.14 365.815 253.733C363.713 251.613 360.287 251.613 358.185 253.733C354.809 257.14 349 254.748 349 249.952V244.136Z" fill="#FFEDF4"/>
<path d="M375.945 241.039H378.038C378.591 241.039 379.038 241.487 379.038 242.039V244.46C379.038 245.012 379.486 245.46 380.038 245.46H382.458C383.01 245.46 383.458 245.908 383.458 246.46V248.881C383.458 249.433 383.01 249.881 382.458 249.881H380.038C379.486 249.881 379.038 250.328 379.038 250.881V253.301C379.038 253.854 378.591 254.301 378.038 254.301H375.945C375.15 254.301 374.619 254.832 374.619 255.628V257.396C374.619 258.192 375.15 258.722 375.945 258.722H376.387C377.978 258.722 379.038 257.661 379.038 256.025C379.038 255.009 379.746 254.301 380.762 254.301H381.955C382.839 254.301 383.458 253.682 383.458 252.798V251.958C383.458 250.721 384.297 249.881 385.535 249.881H387.568C388.275 249.881 388.761 249.394 388.761 248.687V246.786C388.761 245.99 388.23 245.46 387.435 245.46H386.153C384.562 245.46 383.458 244.355 383.458 242.719C383.458 241.702 382.795 241.039 381.778 241.039H380.629C379.701 241.039 379.038 240.376 379.038 239.448V238.519C379.038 237.37 378.287 236.618 377.138 236.618H375.636C375.017 236.618 374.619 237.016 374.619 237.635V239.713C374.619 240.509 375.15 241.039 375.945 241.039Z" fill="#D400A6"/>
<path fill-rule="evenodd" clip-rule="evenodd" d="M379.657 240.739C379.535 240.65 379.428 240.543 379.339 240.421C379.147 240.158 379.038 239.825 379.038 239.448V238.52C379.038 237.37 378.287 236.619 377.138 236.619H375.635C375.016 236.619 374.619 237.017 374.619 237.636V239.713C374.619 240.509 375.149 241.04 375.944 241.04H378.038C378.59 241.04 379.038 241.487 379.038 242.04V244.46C379.038 245.013 379.486 245.46 380.038 245.46H382.457C383.009 245.46 383.457 245.908 383.457 246.46V248.881C383.457 249.433 383.009 249.881 382.457 249.881H380.038C379.486 249.881 379.038 250.329 379.038 250.881V253.302C379.038 253.854 378.59 254.302 378.038 254.302H375.944C375.149 254.302 374.619 254.832 374.619 255.628V257.396C374.619 258.192 375.149 258.723 375.944 258.723H376.386C377.977 258.723 379.038 257.662 379.038 256.026C379.038 255.59 379.168 255.211 379.396 254.921C379.472 254.824 379.56 254.736 379.657 254.66C379.947 254.432 380.326 254.302 380.761 254.302H381.955C382.838 254.302 383.457 253.683 383.457 252.799V251.959C383.457 251.365 383.651 250.862 383.989 250.5C384.017 250.47 384.046 250.441 384.076 250.413C384.438 250.075 384.94 249.881 385.534 249.881H387.567C388.274 249.881 388.76 249.395 388.76 248.687V246.787C388.76 245.991 388.23 245.46 387.434 245.46H386.153C384.562 245.46 383.457 244.355 383.457 242.72C383.457 241.703 382.794 241.04 381.778 241.04H380.629C380.252 241.04 379.919 240.93 379.657 240.739ZM378.419 252.683C378.419 253.235 377.972 253.683 377.419 253.683H375.944C375.406 253.683 374.909 253.865 374.546 254.229C374.182 254.593 374 255.09 374 255.628V257.396C374 257.935 374.182 258.432 374.546 258.795C374.909 259.159 375.406 259.341 375.944 259.341H376.386C377.323 259.341 378.152 259.026 378.749 258.423C379.345 257.819 379.657 256.98 379.657 256.026C379.657 255.665 379.78 255.397 379.956 255.22C380.132 255.044 380.4 254.921 380.761 254.921H381.955C382.545 254.921 383.083 254.712 383.475 254.319C383.867 253.927 384.076 253.389 384.076 252.799V251.959C384.076 251.483 384.234 251.128 384.469 250.893C384.704 250.659 385.059 250.5 385.534 250.5H387.567C388.066 250.5 388.528 250.326 388.866 249.987C389.205 249.649 389.379 249.187 389.379 248.687V246.787C389.379 246.248 389.197 245.751 388.833 245.387C388.469 245.024 387.973 244.841 387.434 244.841H386.153C385.505 244.841 384.995 244.619 384.648 244.268C384.301 243.917 384.076 243.395 384.076 242.72C384.076 242.074 383.863 241.487 383.436 241.061C383.01 240.634 382.423 240.421 381.778 240.421H380.629C380.042 240.421 379.657 240.035 379.657 239.448V238.52C379.657 237.808 379.421 237.166 378.956 236.701C378.491 236.236 377.85 236 377.138 236H375.635C375.191 236 374.769 236.146 374.457 236.458C374.145 236.77 374 237.191 374 237.636V239.713C374 240.252 374.182 240.749 374.546 241.113C374.909 241.476 375.406 241.659 375.944 241.659H377.419C377.972 241.659 378.419 242.106 378.419 242.659V245.079C378.419 245.632 378.867 246.079 379.419 246.079H381.838C382.391 246.079 382.838 246.527 382.838 247.079V248.262C382.838 248.814 382.391 249.262 381.838 249.262H379.419C378.867 249.262 378.419 249.71 378.419 250.262V252.683Z" fill="#D400A6"/>
<text fill="#D400A6" xml:space="preserve" style="white-space: pre" font-family="Lakonet" font-size="20" letter-spacing="-0.05em"><tspan x="26" y="254">Open Artists</tspan></text>
<line x1="29.5" y1="256.5" x2="34.5" y2="256.5" stroke="#D400A6" stroke-linecap="round"/>
</g>
<g filter="url(#filter1_d_305_670)">
<circle cx="9.5" cy="83.5" r="5.5" fill="#F1AFDD"/>
</g>
<g filter="url(#filter2_d_305_670)">
<circle cx="9.5" cy="98.5" r="5.5" fill="#FFFEF6"/>
<circle cx="9.5" cy="98.5" r="5" stroke="#D400A6"/>
</g>
<circle cx="403.5" cy="133.5" r="5.5" fill="#D400A6"/>
<circle cx="403.5" cy="148.5" r="5" fill="#FFFEF6" stroke="#D400A6"/>
<defs>
<filter id="filter0_d_305_670" x="6" y="0" width="398" height="275" filterUnits="userSpaceOnUse" color-interpolation-filters="sRGB">
<feFlood flood-opacity="0" result="BackgroundImageFix"/>
<feColorMatrix in="SourceAlpha" type="matrix" values="0 0 0 0 0 0 0 0 0 0 0 0 0 0 0 0 0 0 127 0" result="hardAlpha"/>
<feOffset dx="-4" dy="4"/>
<feComposite in2="hardAlpha" operator="out"/>
<feColorMatrix type="matrix" values="0 0 0 0 0.945098 0 0 0 0 0.686275 0 0 0 0 0.866667 0 0 0 1 0"/>
<feBlend mode="normal" in2="BackgroundImageFix" result="effect1_dropShadow_305_670"/>
<feBlend mode="normal" in="SourceGraphic" in2="effect1_dropShadow_305_670" result="shape"/>
</filter>
<filter id="filter1_d_305_670" x="0" y="78" width="15" height="13" filterUnits="userSpaceOnUse" color-interpolation-filters="sRGB">
<feFlood flood-opacity="0" result="BackgroundImageFix"/>
<feColorMatrix in="SourceAlpha" type="matrix" values="0 0 0 0 0 0 0 0 0 0 0 0 0 0 0 0 0 0 127 0" result="hardAlpha"/>
<feOffset dx="-4" dy="2"/>
<feComposite in2="hardAlpha" operator="out"/>
<feColorMatrix type="matrix" values="0 0 0 0 0.945098 0 0 0 0 0.686275 0 0 0 0 0.866667 0 0 0 1 0"/>
<feBlend mode="normal" in2="BackgroundImageFix" result="effect1_dropShadow_305_670"/>
<feBlend mode="normal" in="SourceGraphic" in2="effect1_dropShadow_305_670" result="shape"/>
</filter>
<filter id="filter2_d_305_670" x="0" y="93" width="15" height="13" filterUnits="userSpaceOnUse" color-interpolation-filters="sRGB">
<feFlood flood-opacity="0" result="BackgroundImageFix"/>
<feColorMatrix in="SourceAlpha" type="matrix" values="0 0 0 0 0 0 0 0 0 0 0 0 0 0 0 0 0 0 127 0" result="hardAlpha"/>
<feOffset dx="-4" dy="2"/>
<feComposite in2="hardAlpha" operator="out"/>
<feColorMatrix type="matrix" values="0 0 0 0 0.945098 0 0 0 0 0.686275 0 0 0 0 0.866667 0 0 0 1 0"/>
<feBlend mode="normal" in2="BackgroundImageFix" result="effect1_dropShadow_305_670"/>
<feBlend mode="normal" in="SourceGraphic" in2="effect1_dropShadow_305_670" result="shape"/>
</filter>
</defs>
</svg>
