<svg width="409" height="276" viewBox="0 0 409 276" fill="none" xmlns="http://www.w3.org/2000/svg">
<g filter="url(#filter0_d_305_698)">
<rect x="10" width="394" height="271" rx="16" fill="#FFFEF6" shape-rendering="crispEdges"/>
<rect x="10.5" y="0.5" width="393" height="270" rx="15.5" stroke="#D400A6" shape-rendering="crispEdges"/>
<rect x="18" y="8" width="378" height="33" rx="8" fill="#D400A6"/>
<path d="M31.8677 16.8219V17.5692C31.8677 17.9054 31.6434 18.1296 31.307 18.1296H30.9989C30.4466 18.1296 29.9989 18.5773 29.9989 19.1296V22.6315C29.9989 23.1475 29.5804 23.5659 29.0643 23.5659C28.5485 23.5659 28.1301 23.9841 28.1301 24.4999C28.1301 25.0158 28.5485 25.434 29.0643 25.434C29.5804 25.434 29.9989 25.8524 29.9989 26.3684V29.8703C29.9989 30.4226 30.4466 30.8703 30.9989 30.8703H31.307C31.6434 30.8703 31.8677 31.0945 31.8677 31.4307V32.178C31.8677 32.5142 31.6434 32.7384 31.307 32.7384H30.5595C30.2231 32.7384 29.9989 32.5142 29.9989 32.178V31.3C29.9989 31.0384 29.8307 30.8703 29.5504 30.8703C28.6908 30.8703 28.1301 30.3098 28.1301 29.4505V25.9945C28.1301 25.6582 27.9059 25.434 27.5695 25.434H26.822C26.4856 25.434 26.2614 25.2098 26.2614 24.8736V24.1263C26.2614 23.7901 26.4856 23.5659 26.822 23.5659H27.5695C27.9059 23.5659 28.1301 23.3417 28.1301 23.0054V19.5494C28.1301 18.6901 28.6908 18.1296 29.5691 18.1296C29.8307 18.1296 29.9989 17.9615 29.9989 17.6999V16.8219C29.9989 16.4857 30.2231 16.2615 30.5595 16.2615H31.307C31.6434 16.2615 31.8677 16.4857 31.8677 16.8219Z" fill="#FFFEF6"/>
<path fill-rule="evenodd" clip-rule="evenodd" d="M30.9992 18.1297C30.4469 18.1297 29.9992 18.5774 29.9992 19.1297V22.6316C29.9992 23.1476 29.5807 23.5659 29.0646 23.5659C28.5488 23.5659 28.1304 23.9841 28.1304 24.5C28.1304 25.0159 28.5488 25.4341 29.0646 25.4341C29.5807 25.4341 29.9992 25.8524 29.9992 26.3685V29.8703C29.9992 30.4226 30.4469 30.8704 30.9992 30.8704H31.3073C31.6437 30.8704 31.8679 31.0945 31.8679 31.4308V32.178C31.8679 32.5143 31.6437 32.7385 31.3073 32.7385H30.5598C30.2234 32.7385 29.9992 32.5143 29.9992 32.178V31.3C29.9992 31.2385 29.9899 31.1821 29.972 31.1319C29.9327 31.0216 29.8519 30.9409 29.7375 30.9002C29.6827 30.8807 29.6201 30.8704 29.5507 30.8704C28.691 30.8704 28.1304 30.3099 28.1304 29.4506V25.9945C28.1304 25.8806 28.1046 25.7795 28.0575 25.6956C28.0127 25.6159 27.9485 25.5518 27.8688 25.507C27.7849 25.4598 27.6838 25.4341 27.5698 25.4341H26.8223C26.4859 25.4341 26.2616 25.2099 26.2616 24.8736V24.1264C26.2616 23.7901 26.4859 23.5659 26.8223 23.5659H27.5698C27.6838 23.5659 27.7849 23.5402 27.8688 23.4931C27.9485 23.4483 28.0127 23.3841 28.0575 23.3044C28.1046 23.2206 28.1304 23.1195 28.1304 23.0055V19.5495C28.1304 18.6901 28.691 18.1297 29.5693 18.1297C29.6309 18.1297 29.6873 18.1204 29.7375 18.1027C29.8506 18.063 29.9325 17.9811 29.9722 17.8681C29.9899 17.8179 29.9992 17.7615 29.9992 17.7V16.822C29.9992 16.4857 30.2234 16.2615 30.5598 16.2615H31.3073C31.6437 16.2615 31.8679 16.4857 31.8679 16.822V17.5692C31.8679 17.9055 31.6437 18.1297 31.3073 18.1297H30.9992ZM30.2608 19.3912C30.2608 18.8389 30.7085 18.3912 31.2608 18.3912H31.3073C31.5349 18.3912 31.745 18.3142 31.8988 18.1605C32.0525 18.0068 32.1296 17.7968 32.1296 17.5692V16.822C32.1296 16.5944 32.0525 16.3845 31.8988 16.2307C31.745 16.077 31.5349 16 31.3073 16H30.5598C30.3322 16 30.1221 16.077 29.9683 16.2307C29.8146 16.3845 29.7375 16.5944 29.7375 16.822V17.7C29.7375 17.7737 29.715 17.8104 29.6974 17.828C29.6798 17.8456 29.6431 17.8681 29.5693 17.8681C29.0737 17.8681 28.6435 18.0274 28.3364 18.3315C28.0291 18.6358 27.8688 19.0617 27.8688 19.5495V23.0055C27.8688 23.1142 27.8337 23.1845 27.7912 23.2269C27.7488 23.2693 27.6785 23.3044 27.5698 23.3044H26.8223C26.5946 23.3044 26.3846 23.3814 26.2308 23.5351C26.077 23.6889 26 23.8988 26 24.1264V24.8736C26 25.1012 26.077 25.3112 26.2308 25.4649C26.3846 25.6186 26.5946 25.6956 26.8223 25.6956H27.5698C27.6785 25.6956 27.7488 25.7307 27.7912 25.7731C27.8337 25.8156 27.8688 25.8858 27.8688 25.9945V29.4506C27.8688 29.9382 28.029 30.3636 28.3332 30.6677C28.6373 30.9717 29.0628 31.1319 29.5507 31.1319C29.6385 31.1319 29.6798 31.1573 29.6979 31.1749C29.7152 31.1917 29.7375 31.2265 29.7375 31.3V32.178C29.7375 32.4056 29.8146 32.6156 29.9683 32.7693C30.1221 32.923 30.3322 33 30.5598 33H31.3073C31.5349 33 31.745 32.923 31.8988 32.7693C32.0525 32.6156 32.1296 32.4056 32.1296 32.178V31.4308C32.1296 31.2032 32.0525 30.9933 31.8988 30.8395C31.745 30.6858 31.5349 30.6088 31.3073 30.6088H31.2608C30.7085 30.6088 30.2608 30.1611 30.2608 29.6088V26.1069C30.2608 25.5909 29.8425 25.1725 29.3264 25.1725H29.0646C28.6931 25.1725 28.392 24.8714 28.392 24.5C28.392 24.1286 28.6931 23.8275 29.0646 23.8275H29.3264C29.8425 23.8275 30.2608 23.4091 30.2608 22.8931V19.3912Z" fill="#FFFEF6"/>
<path d="M40.3915 16.8219V17.5692C40.3915 17.9054 40.6157 18.1296 40.9521 18.1296H41.2603C41.8126 18.1296 42.2603 18.5773 42.2603 19.1296V22.6315C42.2603 23.1475 42.6788 23.5659 43.1948 23.5659C43.7107 23.5659 44.129 23.9841 44.129 24.4999C44.129 25.0158 43.7107 25.434 43.1948 25.434C42.6788 25.434 42.2603 25.8524 42.2603 26.3684V29.8703C42.2603 30.4226 41.8125 30.8703 41.2603 30.8703H40.9521C40.6157 30.8703 40.3915 31.0945 40.3915 31.4307V32.178C40.3915 32.5142 40.6157 32.7384 40.9521 32.7384H41.6996C42.036 32.7384 42.2603 32.5142 42.2603 32.178V31.3C42.2603 31.0384 42.4285 30.8703 42.7088 30.8703C43.5684 30.8703 44.129 30.3098 44.129 29.4505V25.9945C44.129 25.6582 44.3533 25.434 44.6897 25.434H45.4372C45.7736 25.434 45.9978 25.2098 45.9978 24.8736V24.1263C45.9978 23.7901 45.7736 23.5659 45.4372 23.5659H44.6897C44.3533 23.5659 44.129 23.3417 44.129 23.0054V19.5494C44.129 18.6901 43.5684 18.1296 42.6901 18.1296C42.4285 18.1296 42.2603 17.9615 42.2603 17.6999V16.8219C42.2603 16.4857 42.036 16.2615 41.6996 16.2615H40.9521C40.6157 16.2615 40.3915 16.4857 40.3915 16.8219Z" fill="#FFFEF6"/>
<path fill-rule="evenodd" clip-rule="evenodd" d="M41.26 18.1297C41.8123 18.1297 42.26 18.5774 42.26 19.1297V22.6316C42.26 23.1476 42.6785 23.5659 43.1945 23.5659C43.7104 23.5659 44.1288 23.9841 44.1288 24.5C44.1288 25.0159 43.7104 25.4341 43.1945 25.4341C42.6785 25.4341 42.26 25.8524 42.26 26.3685V29.8703C42.26 30.4226 41.8123 30.8704 41.26 30.8704H40.9519C40.6155 30.8704 40.3912 31.0945 40.3912 31.4308V32.178C40.3912 32.5143 40.6155 32.7385 40.9519 32.7385H41.6994C42.0357 32.7385 42.26 32.5143 42.26 32.178V31.3C42.26 31.2385 42.2693 31.1821 42.2872 31.1319C42.3265 31.0216 42.4072 30.9409 42.5216 30.9002C42.5765 30.8807 42.639 30.8704 42.7085 30.8704C43.5681 30.8704 44.1288 30.3099 44.1288 29.4506V25.9945C44.1288 25.8806 44.1545 25.7795 44.2017 25.6956C44.2465 25.6159 44.3106 25.5518 44.3904 25.507C44.4743 25.4598 44.5754 25.4341 44.6894 25.4341H45.4369C45.7733 25.4341 45.9975 25.2099 45.9975 24.8736V24.1264C45.9975 23.7901 45.7733 23.5659 45.4369 23.5659H44.6894C44.5754 23.5659 44.4743 23.5402 44.3904 23.4931C44.3106 23.4483 44.2465 23.3841 44.2017 23.3044C44.1545 23.2206 44.1288 23.1195 44.1288 23.0055V19.5495C44.1288 18.6901 43.5681 18.1297 42.6898 18.1297C42.6282 18.1297 42.5719 18.1204 42.5216 18.1027C42.4086 18.063 42.3267 17.9811 42.287 17.8681C42.2693 17.8179 42.26 17.7615 42.26 17.7V16.822C42.26 16.4857 42.0357 16.2615 41.6994 16.2615H40.9519C40.6155 16.2615 40.3912 16.4857 40.3912 16.822V17.5692C40.3912 17.9055 40.6155 18.1297 40.9519 18.1297H41.26ZM41.9984 19.3912C41.9984 18.8389 41.5506 18.3912 40.9984 18.3912H40.9519C40.7242 18.3912 40.5142 18.3142 40.3604 18.1605C40.2066 18.0068 40.1296 17.7968 40.1296 17.5692V16.822C40.1296 16.5944 40.2066 16.3845 40.3604 16.2307C40.5142 16.077 40.7242 16 40.9519 16H41.6994C41.927 16 42.137 16.077 42.2908 16.2307C42.4446 16.3845 42.5216 16.5944 42.5216 16.822V17.7C42.5216 17.7737 42.5442 17.8104 42.5618 17.828C42.5794 17.8456 42.616 17.8681 42.6898 17.8681C43.1855 17.8681 43.6157 18.0274 43.9228 18.3315C44.2301 18.6358 44.3904 19.0617 44.3904 19.5495V23.0055C44.3904 23.1142 44.4255 23.1845 44.4679 23.2269C44.5104 23.2693 44.5807 23.3044 44.6894 23.3044H45.4369C45.6645 23.3044 45.8746 23.3814 46.0284 23.5351C46.1821 23.6889 46.2592 23.8988 46.2592 24.1264V24.8736C46.2592 25.1012 46.1821 25.3112 46.0284 25.4649C45.8746 25.6186 45.6645 25.6956 45.4369 25.6956H44.6894C44.5807 25.6956 44.5104 25.7307 44.4679 25.7731C44.4255 25.8156 44.3904 25.8858 44.3904 25.9945V29.4506C44.3904 29.9382 44.2302 30.3636 43.926 30.6677C43.6218 30.9717 43.1963 31.1319 42.7085 31.1319C42.6207 31.1319 42.5793 31.1573 42.5613 31.1749C42.5439 31.1917 42.5216 31.2265 42.5216 31.3V32.178C42.5216 32.4056 42.4446 32.6156 42.2908 32.7693C42.137 32.923 41.927 33 41.6994 33H40.9519C40.7242 33 40.5142 32.923 40.3604 32.7693C40.2066 32.6156 40.1296 32.4056 40.1296 32.178V31.4308C40.1296 31.2032 40.2066 30.9933 40.3604 30.8395C40.5142 30.6858 40.7242 30.6088 40.9519 30.6088H40.9984C41.5506 30.6088 41.9984 30.1611 41.9984 29.6088V26.1069C41.9984 25.5909 42.4167 25.1725 42.9327 25.1725H43.1946C43.566 25.1725 43.8671 24.8714 43.8671 24.5C43.8671 24.1286 43.566 23.8275 43.1946 23.8275H42.9327C42.4167 23.8275 41.9984 23.4091 41.9984 22.8931V19.3912Z" fill="#FFFEF6"/>
<text fill="#FFFEF6" xml:space="preserve" style="white-space: pre" font-family="Lakonet" font-size="24" letter-spacing="-0.01em"><tspan x="54.2592" y="32.8">Events</tspan></text>
<rect x="18" y="49" width="378" height="35" rx="8" fill="#FFEDF4"/>
<path d="M26.6244 70.2674V67.1908C26.6244 66.3882 27.1596 65.8532 27.9625 65.8532H29.7467C30.5495 65.8532 31.0848 65.3181 31.0848 64.5155V62.7319C31.0848 61.9294 31.62 61.3943 32.4229 61.3943H34.207C35.0099 61.3943 35.5451 61.9294 35.5451 62.7319V64.8532C35.5451 65.4054 35.0974 65.8532 34.5451 65.8532H32.0848C31.5325 65.8532 31.0848 66.3009 31.0848 66.8532V70.6051C31.0848 71.1574 30.6371 71.6051 30.0848 71.6051H27.9625C27.1596 71.6051 26.6244 71.07 26.6244 70.2674ZM35.4559 70.2674V67.1908C35.4559 66.3882 35.9912 65.8532 36.794 65.8532H38.5782C39.3811 65.8532 39.9163 65.3181 39.9163 64.5155V62.7319C39.9163 61.9294 40.4516 61.3943 41.2544 61.3943H43.0386C43.8414 61.3943 44.3767 61.9294 44.3767 62.7319V64.8532C44.3767 65.4054 43.929 65.8532 43.3767 65.8532H40.9163C40.364 65.8532 39.9163 66.3009 39.9163 66.8532V70.6051C39.9163 71.1574 39.4686 71.6051 38.9163 71.6051H36.794C35.9912 71.6051 35.4559 71.07 35.4559 70.2674Z" fill="#D400A6"/>
<path fill-rule="evenodd" clip-rule="evenodd" d="M34.5452 65.8535C35.0974 65.8535 35.5452 65.4057 35.5452 64.8535V62.7323C35.5452 61.9297 35.0099 61.3946 34.207 61.3946H32.4229C31.62 61.3946 31.0848 61.9297 31.0848 62.7323V64.5158C31.0848 64.7878 31.0233 65.0291 30.9108 65.2292C30.8038 65.4195 30.6507 65.5726 30.4604 65.6795C30.2601 65.792 30.0188 65.8535 29.7467 65.8535H27.9626C27.1597 65.8535 26.6244 66.3885 26.6244 67.1911V70.2677C26.6244 71.0703 27.1597 71.6054 27.9626 71.6054H30.0848C30.6371 71.6054 31.0848 71.1576 31.0848 70.6054V66.8535C31.0848 66.3012 31.5325 65.8535 32.0848 65.8535H34.5452ZM31.7093 67.4777C31.7093 66.9254 32.157 66.4777 32.7093 66.4777H34.2217C34.5769 66.4777 34.8315 66.8359 34.8315 67.1911V70.2677C34.8315 70.8109 35.0153 71.312 35.3824 71.6789C35.7494 72.0458 36.2507 72.2296 36.7941 72.2296H39.5407C40.093 72.2296 40.5407 71.7819 40.5407 71.2296V67.4777C40.5407 66.9254 40.9885 66.4777 41.5407 66.4777H44.0011C44.5534 66.4777 45.0011 66.03 45.0011 65.4777V62.7323C45.0011 62.1891 44.8173 61.688 44.4502 61.3211C44.0832 60.9542 43.5819 60.7704 43.0385 60.7704H41.2544C40.7111 60.7704 40.2098 60.9542 39.8427 61.3211C39.4757 61.688 39.2918 62.1891 39.2918 62.7323V64.5158C39.2918 64.7752 39.2081 64.9429 39.1068 65.0442C39.0055 65.1455 38.8377 65.2292 38.5782 65.2292H36.7941C36.4782 65.2292 36.1696 65.0001 36.1696 64.6842V62.7323C36.1696 62.1891 35.9858 61.688 35.6187 61.3211C35.2517 60.9542 34.7504 60.7704 34.207 60.7704H32.4229C31.8796 60.7704 31.3783 60.9542 31.0112 61.3211C30.6442 61.688 30.4604 62.1891 30.4604 62.7323V64.5158C30.4604 64.7752 30.3766 64.9429 30.2753 65.0442C30.174 65.1455 30.0062 65.2292 29.7467 65.2292H27.9626C27.4192 65.2292 26.9179 65.413 26.5509 65.7799C26.1838 66.1468 26 66.648 26 67.1911V70.2677C26 70.8109 26.1838 71.312 26.5509 71.6789C26.9179 72.0458 27.4192 72.2296 27.9626 72.2296H30.7093C31.2615 72.2296 31.7093 71.7819 31.7093 71.2296V67.4777ZM36.1696 65.9819C35.9376 66.0888 35.7532 66.2586 35.63 66.4777C35.5174 66.6778 35.4559 66.9191 35.4559 67.1911V70.2677C35.4559 71.0703 35.9912 71.6054 36.7941 71.6054H38.9163C39.4686 71.6054 39.9163 71.1576 39.9163 70.6054V66.8535C39.9163 66.3012 40.364 65.8535 40.9163 65.8535H43.3766C43.9289 65.8535 44.3766 65.4057 44.3766 64.8535V62.7323C44.3766 61.9297 43.8414 61.3946 43.0385 61.3946H41.2544C40.4515 61.3946 39.9163 61.9297 39.9163 62.7323V64.5158C39.9163 64.7878 39.8548 65.0291 39.7423 65.2292C39.6353 65.4195 39.4822 65.5726 39.2918 65.6795C39.0916 65.792 38.8503 65.8535 38.5782 65.8535H36.7941C36.5612 65.8535 36.3509 65.8985 36.1696 65.9819Z" fill="#D400A6"/>
<text fill="#D400A6" xml:space="preserve" style="white-space: pre" font-family="Inter" font-size="16" letter-spacing="-0.05em"><tspan x="53.0011" y="72.3182">Assets created during SSX events.</tspan></text>
<rect x="18" y="92" width="378" height="132" rx="8" fill="#FFEDF4"/>
<rect x="366" y="232" width="30" height="31" rx="7" fill="#FFEDF4"/>
<rect x="18" y="232" width="340" height="31" rx="7" fill="#FFEDF4"/>
<path d="M349 244.136C349 239.3 354.63 236.647 358.359 239.726C360.473 241.47 363.527 241.47 365.641 239.726C369.37 236.647 375 239.3 375 244.136V249.952C375 254.748 369.191 257.14 365.815 253.733C363.713 251.613 360.287 251.613 358.185 253.733C354.809 257.14 349 254.748 349 249.952V244.136Z" fill="#FFEDF4"/>
<path d="M375.945 241.039H378.038C378.591 241.039 379.038 241.487 379.038 242.039V244.46C379.038 245.012 379.486 245.46 380.038 245.46H382.458C383.01 245.46 383.458 245.908 383.458 246.46V248.881C383.458 249.433 383.01 249.881 382.458 249.881H380.038C379.486 249.881 379.038 250.328 379.038 250.881V253.301C379.038 253.854 378.591 254.301 378.038 254.301H375.945C375.15 254.301 374.619 254.832 374.619 255.627V257.396C374.619 258.191 375.15 258.722 375.945 258.722H376.387C377.978 258.722 379.038 257.661 379.038 256.025C379.038 255.009 379.746 254.301 380.762 254.301H381.955C382.839 254.301 383.458 253.682 383.458 252.798V251.958C383.458 250.72 384.297 249.881 385.535 249.881H387.568C388.275 249.881 388.761 249.394 388.761 248.687V246.786C388.761 245.99 388.23 245.46 387.435 245.46H386.153C384.562 245.46 383.458 244.355 383.458 242.719C383.458 241.702 382.795 241.039 381.778 241.039H380.629C379.701 241.039 379.038 240.376 379.038 239.448V238.519C379.038 237.37 378.287 236.618 377.138 236.618H375.636C375.017 236.618 374.619 237.016 374.619 237.635V239.713C374.619 240.509 375.15 241.039 375.945 241.039Z" fill="#D400A6"/>
<path fill-rule="evenodd" clip-rule="evenodd" d="M379.657 240.739C379.535 240.65 379.428 240.543 379.339 240.421C379.147 240.158 379.038 239.825 379.038 239.448V238.52C379.038 237.37 378.287 236.619 377.138 236.619H375.635C375.016 236.619 374.619 237.017 374.619 237.636V239.713C374.619 240.509 375.149 241.04 375.944 241.04H378.038C378.59 241.04 379.038 241.487 379.038 242.04V244.46C379.038 245.013 379.486 245.46 380.038 245.46H382.457C383.009 245.46 383.457 245.908 383.457 246.46V248.881C383.457 249.433 383.009 249.881 382.457 249.881H380.038C379.486 249.881 379.038 250.329 379.038 250.881V253.302C379.038 253.854 378.59 254.302 378.038 254.302H375.944C375.149 254.302 374.619 254.832 374.619 255.628V257.396C374.619 258.192 375.149 258.723 375.944 258.723H376.386C377.977 258.723 379.038 257.662 379.038 256.026C379.038 255.59 379.168 255.211 379.396 254.921C379.472 254.824 379.56 254.736 379.657 254.66C379.947 254.432 380.326 254.302 380.761 254.302H381.955C382.838 254.302 383.457 253.683 383.457 252.799V251.959C383.457 251.365 383.651 250.862 383.989 250.5C384.017 250.47 384.046 250.441 384.076 250.413C384.438 250.075 384.94 249.881 385.534 249.881H387.567C388.274 249.881 388.76 249.395 388.76 248.687V246.787C388.76 245.991 388.23 245.46 387.434 245.46H386.153C384.562 245.46 383.457 244.355 383.457 242.72C383.457 241.703 382.794 241.04 381.778 241.04H380.629C380.252 241.04 379.919 240.93 379.657 240.739ZM378.419 252.683C378.419 253.235 377.972 253.683 377.419 253.683H375.944C375.406 253.683 374.909 253.865 374.546 254.229C374.182 254.593 374 255.09 374 255.628V257.396C374 257.935 374.182 258.432 374.546 258.795C374.909 259.159 375.406 259.341 375.944 259.341H376.386C377.323 259.341 378.152 259.026 378.749 258.423C379.345 257.819 379.657 256.98 379.657 256.026C379.657 255.665 379.78 255.397 379.956 255.22C380.132 255.044 380.4 254.921 380.761 254.921H381.955C382.545 254.921 383.083 254.712 383.475 254.319C383.867 253.927 384.076 253.389 384.076 252.799V251.959C384.076 251.483 384.234 251.128 384.469 250.893C384.704 250.659 385.059 250.5 385.534 250.5H387.567C388.066 250.5 388.528 250.326 388.866 249.987C389.205 249.649 389.379 249.187 389.379 248.687V246.787C389.379 246.248 389.197 245.751 388.833 245.387C388.469 245.024 387.973 244.841 387.434 244.841H386.153C385.505 244.841 384.995 244.619 384.648 244.268C384.301 243.917 384.076 243.395 384.076 242.72C384.076 242.074 383.863 241.487 383.436 241.061C383.01 240.634 382.423 240.421 381.778 240.421H380.629C380.042 240.421 379.657 240.035 379.657 239.448V238.52C379.657 237.808 379.421 237.166 378.956 236.701C378.491 236.236 377.85 236 377.138 236H375.635C375.191 236 374.769 236.146 374.457 236.458C374.145 236.77 374 237.191 374 237.636V239.713C374 240.252 374.182 240.749 374.546 241.113C374.909 241.476 375.406 241.659 375.944 241.659H377.419C377.972 241.659 378.419 242.106 378.419 242.659V245.079C378.419 245.632 378.867 246.079 379.419 246.079H381.838C382.391 246.079 382.838 246.527 382.838 247.079V248.262C382.838 248.814 382.391 249.262 381.838 249.262H379.419C378.867 249.262 378.419 249.71 378.419 250.262V252.683Z" fill="#D400A6"/>
<text fill="#D400A6" xml:space="preserve" style="white-space: pre" font-family="Lakonet" font-size="20" letter-spacing="-0.05em"><tspan x="26" y="254">Open Events</tspan></text>
<line x1="29.5" y1="256.5" x2="34.5" y2="256.5" stroke="#D400A6" stroke-linecap="round"/>
</g>
<g filter="url(#filter1_d_305_698)">
<circle cx="9.5" cy="83.5" r="5.5" fill="#F1AFDD"/>
</g>
<g filter="url(#filter2_d_305_698)">
<circle cx="9.5" cy="98.5" r="5.5" fill="#FFFEF6"/>
<circle cx="9.5" cy="98.5" r="5" stroke="#D400A6"/>
</g>
<circle cx="403.5" cy="133.5" r="5.5" fill="#D400A6"/>
<circle cx="403.5" cy="148.5" r="5" fill="#FFFEF6" stroke="#D400A6"/>
<defs>
<filter id="filter0_d_305_698" x="6" y="0" width="398" height="275" filterUnits="userSpaceOnUse" color-interpolation-filters="sRGB">
<feFlood flood-opacity="0" result="BackgroundImageFix"/>
<feColorMatrix in="SourceAlpha" type="matrix" values="0 0 0 0 0 0 0 0 0 0 0 0 0 0 0 0 0 0 127 0" result="hardAlpha"/>
<feOffset dx="-4" dy="4"/>
<feComposite in2="hardAlpha" operator="out"/>
<feColorMatrix type="matrix" values="0 0 0 0 0.945098 0 0 0 0 0.686275 0 0 0 0 0.866667 0 0 0 1 0"/>
<feBlend mode="normal" in2="BackgroundImageFix" result="effect1_dropShadow_305_698"/>
<feBlend mode="normal" in="SourceGraphic" in2="effect1_dropShadow_305_698" result="shape"/>
</filter>
<filter id="filter1_d_305_698" x="0" y="78" width="15" height="13" filterUnits="userSpaceOnUse" color-interpolation-filters="sRGB">
<feFlood flood-opacity="0" result="BackgroundImageFix"/>
<feColorMatrix in="SourceAlpha" type="matrix" values="0 0 0 0 0 0 0 0 0 0 0 0 0 0 0 0 0 0 127 0" result="hardAlpha"/>
<feOffset dx="-4" dy="2"/>
<feComposite in2="hardAlpha" operator="out"/>
<feColorMatrix type="matrix" values="0 0 0 0 0.945098 0 0 0 0 0.686275 0 0 0 0 0.866667 0 0 0 1 0"/>
<feBlend mode="normal" in2="BackgroundImageFix" result="effect1_dropShadow_305_698"/>
<feBlend mode="normal" in="SourceGraphic" in2="effect1_dropShadow_305_698" result="shape"/>
</filter>
<filter id="filter2_d_305_698" x="0" y="93" width="15" height="13" filterUnits="userSpaceOnUse" color-interpolation-filters="sRGB">
<feFlood flood-opacity="0" result="BackgroundImageFix"/>
<feColorMatrix in="SourceAlpha" type="matrix" values="0 0 0 0 0 0 0 0 0 0 0 0 0 0 0 0 0 0 127 0" result="hardAlpha"/>
<feOffset dx="-4" dy="2"/>
<feComposite in2="hardAlpha" operator="out"/>
<feColorMatrix type="matrix" values="0 0 0 0 0.945098 0 0 0 0 0.686275 0 0 0 0 0.866667 0 0 0 1 0"/>
<feBlend mode="normal" in2="BackgroundImageFix" result="effect1_dropShadow_305_698"/>
<feBlend mode="normal" in="SourceGraphic" in2="effect1_dropShadow_305_698" result="shape"/>
</filter>
</defs>
</svg>
