<svg width="1410" height="744" viewBox="0 0 1410 744" fill="none" xmlns="http://www.w3.org/2000/svg">
<g id="Frame 26">
<g id="Artist Node Idle">
<g id="Frame 29" filter="url(#filter0_d_305_607)">
<rect x="507.5" y="6" width="394" height="271" rx="16" fill="#FFFEF6" shape-rendering="crispEdges"/>
<rect x="508" y="6.5" width="393" height="270" rx="15.5" stroke="#D400A6" shape-rendering="crispEdges"/>
<g id="Frame 31">
<rect x="515.5" y="14" width="378" height="33" rx="8" fill="#D400A6"/>
<g id="Group 156">
<path id="*" d="M534.626 34.316V32.1353H532.662V36.4095C532.662 37.1946 532.139 37.7179 531.354 37.7179H530.699C529.914 37.7179 529.39 37.1946 529.39 36.4095V32.1353H527.383V34.316C527.383 35.1011 526.86 35.6244 526.075 35.6244H525.42C524.635 35.6244 524.111 35.1011 524.111 34.316V33.4437C524.111 32.6587 524.635 32.1353 525.42 32.1353H526.075C526.86 32.1353 527.383 31.6119 527.383 30.8269V30.1727C527.383 29.3876 526.86 28.8642 526.075 28.8642H525.42C524.635 28.8642 524.111 28.3409 524.111 27.5558V26.6835C524.111 25.8985 524.635 25.3751 525.42 25.3751H526.075C526.86 25.3751 527.383 25.8985 527.383 26.6835V28.8642H529.39V24.59C529.39 23.805 529.914 23.2816 530.699 23.2816H531.354C532.139 23.2816 532.662 23.805 532.662 24.59V28.8642H534.626V26.6835C534.626 25.8985 535.149 25.3751 535.935 25.3751H536.633C537.418 25.3751 537.942 25.8985 537.942 26.6835V27.5558C537.942 28.3409 537.418 28.8642 536.633 28.8642H535.935C535.149 28.8642 534.626 29.3876 534.626 30.1727V30.8269C534.626 31.6119 535.149 32.1353 535.935 32.1353H536.633C537.418 32.1353 537.942 32.6587 537.942 33.4437V34.316C537.942 35.1011 537.418 35.6244 536.633 35.6244H535.935C535.149 35.6244 534.626 35.1011 534.626 34.316Z" fill="#FFFEF6"/>
<path id="* (Stroke)" fill-rule="evenodd" clip-rule="evenodd" d="M534.626 32.1356H532.662V36.4099C532.662 37.195 532.139 37.7184 531.353 37.7184H530.699C529.914 37.7184 529.39 37.195 529.39 36.4099V32.1356H527.383V34.3164C527.383 35.1015 526.86 35.6249 526.074 35.6249H525.42C524.634 35.6249 524.111 35.1015 524.111 34.3164V33.4441C524.111 32.659 524.634 32.1356 525.42 32.1356H526.074C526.34 32.1356 526.576 32.0755 526.772 31.9655C526.958 31.8608 527.108 31.7111 527.213 31.525C527.323 31.3292 527.383 31.0932 527.383 30.8271V30.1729C527.383 29.9068 527.323 29.6708 527.213 29.4751C527.108 29.289 526.958 29.1392 526.772 29.0346C526.576 28.9246 526.34 28.8644 526.074 28.8644H525.42C524.634 28.8644 524.111 28.3411 524.111 27.556V26.6837C524.111 25.8986 524.634 25.3752 525.42 25.3752H526.074C526.86 25.3752 527.383 25.8986 527.383 26.6837V28.8644H529.39V24.5901C529.39 23.805 529.914 23.2816 530.699 23.2816H531.353C532.139 23.2816 532.662 23.805 532.662 24.5901V28.8644H534.626V26.6837C534.626 25.8986 535.149 25.3752 535.935 25.3752H536.633C537.418 25.3752 537.942 25.8986 537.942 26.6837V27.556C537.942 28.3411 537.418 28.8644 536.633 28.8644H535.935C535.669 28.8644 535.432 28.9246 535.237 29.0346C535.05 29.1392 534.901 29.289 534.796 29.4751C534.686 29.6708 534.626 29.9068 534.626 30.1729V30.8271C534.626 31.0932 534.686 31.3292 534.796 31.525C534.901 31.7111 535.05 31.8608 535.237 31.9655C535.432 32.0755 535.669 32.1356 535.935 32.1356H536.633C537.418 32.1356 537.942 32.659 537.942 33.4441V34.3164C537.942 35.1015 537.418 35.6249 536.633 35.6249H535.935C535.149 35.6249 534.626 35.1015 534.626 34.3164V32.1356ZM534.015 32.7462H533.273V36.4099C533.273 36.9412 533.093 37.4315 532.734 37.7904C532.375 38.1493 531.885 38.329 531.353 38.329H530.699C530.168 38.329 529.677 38.1493 529.318 37.7904C528.959 37.4315 528.779 36.9412 528.779 36.4099V32.7462H527.994V34.3164C527.994 34.8477 527.814 35.3379 527.455 35.6968C527.096 36.0557 526.606 36.2355 526.074 36.2355H525.42C524.888 36.2355 524.398 36.0557 524.039 35.6968C523.68 35.3379 523.5 34.8477 523.5 34.3164V33.4441C523.5 32.9128 523.68 32.4226 524.039 32.0637C524.398 31.7048 524.888 31.525 525.42 31.525H526.074C526.328 31.525 526.492 31.4431 526.591 31.344C526.69 31.245 526.772 31.0809 526.772 30.8271V30.1729C526.772 29.9191 526.69 29.7551 526.591 29.656C526.492 29.557 526.328 29.4751 526.074 29.4751H525.42C524.888 29.4751 524.398 29.2953 524.039 28.9364C523.68 28.5775 523.5 28.0873 523.5 27.556V26.6837C523.5 26.1524 523.68 25.6622 524.039 25.3032C524.398 24.9443 524.888 24.7646 525.42 24.7646H526.074C526.606 24.7646 527.096 24.9443 527.455 25.3032C527.814 25.6622 527.994 26.1524 527.994 26.6837V28.2538H528.779V24.5901C528.779 24.0588 528.959 23.5686 529.318 23.2097C529.677 22.8508 530.168 22.671 530.699 22.671H531.353C531.885 22.671 532.375 22.8508 532.734 23.2097C533.093 23.5686 533.273 24.0588 533.273 24.5901V28.2538H534.015V26.6837C534.015 26.1524 534.195 25.6622 534.554 25.3032C534.913 24.9443 535.403 24.7646 535.935 24.7646H536.633C537.164 24.7646 537.655 24.9443 538.014 25.3032C538.373 25.6622 538.553 26.1524 538.553 26.6837V27.556C538.553 28.0873 538.373 28.5775 538.014 28.9364C537.655 29.2953 537.164 29.4751 536.633 29.4751H535.935C535.681 29.4751 535.517 29.557 535.418 29.656C535.319 29.7551 535.237 29.9191 535.237 30.1729V30.8271C535.237 31.0809 535.319 31.245 535.418 31.344C535.517 31.4431 535.681 31.525 535.935 31.525H536.633C537.164 31.525 537.655 31.7048 538.014 32.0637C538.373 32.4226 538.553 32.9128 538.553 33.4441V34.3164C538.553 34.8477 538.373 35.3379 538.014 35.6968C537.655 36.0557 537.164 36.2355 536.633 36.2355H535.935C535.403 36.2355 534.913 36.0557 534.554 35.6968C534.195 35.3379 534.015 34.8477 534.015 34.3164V32.7462Z" fill="#FFFEF6"/>
</g>
<text id="Artists" fill="#FFFEF6" xml:space="preserve" style="white-space: pre" font-family="Lakonet" font-size="24" letter-spacing="-0.01em"><tspan x="546.552" y="38.8">Artists</tspan></text>
</g>
<g id="Frame 29_2">
<rect x="515.5" y="55" width="378" height="35" rx="8" fill="#FFEDF4"/>
<g id="Group 165">
<path id="&#226;&#128;&#156;" d="M524.124 76.2674V73.1908C524.124 72.3882 524.66 71.8532 525.463 71.8532H527.247C528.05 71.8532 528.585 71.3181 528.585 70.5155V68.7319C528.585 67.9294 529.12 67.3943 529.923 67.3943H531.707C532.51 67.3943 533.045 67.9294 533.045 68.7319V70.8532C533.045 71.4054 532.597 71.8532 532.045 71.8532H529.585C529.032 71.8532 528.585 72.3009 528.585 72.8532V76.6051C528.585 77.1574 528.137 77.6051 527.585 77.6051H525.463C524.66 77.6051 524.124 77.07 524.124 76.2674ZM532.956 76.2674V73.1908C532.956 72.3882 533.491 71.8532 534.294 71.8532H536.078C536.881 71.8532 537.416 71.3181 537.416 70.5155V68.7319C537.416 67.9294 537.952 67.3943 538.754 67.3943H540.539C541.341 67.3943 541.877 67.9294 541.877 68.7319V70.8532C541.877 71.4054 541.429 71.8532 540.877 71.8532H538.416C537.864 71.8532 537.416 72.3009 537.416 72.8532V76.6051C537.416 77.1574 536.969 77.6051 536.416 77.6051H534.294C533.491 77.6051 532.956 77.07 532.956 76.2674Z" fill="#D400A6"/>
<path id="&#226;&#128;&#156; (Stroke)" fill-rule="evenodd" clip-rule="evenodd" d="M532.045 71.8535C532.597 71.8535 533.045 71.4057 533.045 70.8535V68.7323C533.045 67.9297 532.51 67.3946 531.707 67.3946H529.923C529.12 67.3946 528.585 67.9297 528.585 68.7323V70.5158C528.585 70.7878 528.523 71.0291 528.411 71.2292C528.304 71.4195 528.151 71.5726 527.96 71.6795C527.76 71.792 527.519 71.8535 527.247 71.8535H525.463C524.66 71.8535 524.124 72.3885 524.124 73.1911V76.2677C524.124 77.0703 524.66 77.6054 525.463 77.6054H527.585C528.137 77.6054 528.585 77.1576 528.585 76.6054V72.8535C528.585 72.3012 529.033 71.8535 529.585 71.8535H532.045ZM529.209 73.4777C529.209 72.9254 529.657 72.4777 530.209 72.4777H531.722C532.077 72.4777 532.331 72.8359 532.331 73.1911V76.2677C532.331 76.8109 532.515 77.312 532.882 77.6789C533.249 78.0458 533.751 78.2296 534.294 78.2296H537.041C537.593 78.2296 538.041 77.7819 538.041 77.2296V73.4777C538.041 72.9254 538.488 72.4777 539.041 72.4777H541.501C542.053 72.4777 542.501 72.03 542.501 71.4777V68.7323C542.501 68.1891 542.317 67.688 541.95 67.3211C541.583 66.9542 541.082 66.7704 540.539 66.7704H538.754C538.211 66.7704 537.71 66.9542 537.343 67.3211C536.976 67.688 536.792 68.1891 536.792 68.7323V70.5158C536.792 70.7752 536.708 70.9429 536.607 71.0442C536.505 71.1455 536.338 71.2292 536.078 71.2292H534.294C533.978 71.2292 533.67 71.0001 533.67 70.6842V68.7323C533.67 68.1891 533.486 67.688 533.119 67.3211C532.752 66.9542 532.25 66.7704 531.707 66.7704H529.923C529.38 66.7704 528.878 66.9542 528.511 67.3211C528.144 67.688 527.96 68.1891 527.96 68.7323V70.5158C527.96 70.7752 527.877 70.9429 527.775 71.0442C527.674 71.1455 527.506 71.2292 527.247 71.2292H525.463C524.919 71.2292 524.418 71.413 524.051 71.7799C523.684 72.1468 523.5 72.648 523.5 73.1911V76.2677C523.5 76.8109 523.684 77.312 524.051 77.6789C524.418 78.0458 524.919 78.2296 525.463 78.2296H528.209C528.762 78.2296 529.209 77.7819 529.209 77.2296V73.4777ZM533.67 71.9819C533.438 72.0888 533.253 72.2586 533.13 72.4777C533.017 72.6778 532.956 72.9191 532.956 73.1911V76.2677C532.956 77.0703 533.491 77.6054 534.294 77.6054H536.416C536.969 77.6054 537.416 77.1576 537.416 76.6054V72.8535C537.416 72.3012 537.864 71.8535 538.416 71.8535H540.877C541.429 71.8535 541.877 71.4057 541.877 70.8535V68.7323C541.877 67.9297 541.341 67.3946 540.539 67.3946H538.754C537.952 67.3946 537.416 67.9297 537.416 68.7323V70.5158C537.416 70.7878 537.355 71.0291 537.242 71.2292C537.135 71.4195 536.982 71.5726 536.792 71.6795C536.592 71.792 536.35 71.8535 536.078 71.8535H534.294C534.061 71.8535 533.851 71.8985 533.67 71.9819Z" fill="#D400A6"/>
</g>
<text id="Explore community assets created by artists." fill="#D400A6" xml:space="preserve" style="white-space: pre" font-family="Inter" font-size="16" letter-spacing="-0.05em"><tspan x="550.501" y="78.3182">Explore community assets created by artists.</tspan></text>
</g>
<g id="Frame 30">
<rect x="515.5" y="98" width="378" height="132" rx="8" fill="#FFEDF4"/>
</g>
<g id="Learn More Button Idle">
<g id="Group 405">
<rect id="Rectangle 25" x="863.5" y="238" width="30" height="31" rx="7" fill="#FFEDF4"/>
<rect id="Rectangle 26" x="515.5" y="238" width="340" height="31" rx="7" fill="#FFEDF4"/>
<path id="Rectangle 32" d="M846.5 250.136C846.5 245.3 852.13 242.647 855.859 245.726C857.973 247.47 861.027 247.47 863.141 245.726C866.87 242.647 872.5 245.3 872.5 250.136V255.952C872.5 260.748 866.691 263.14 863.315 259.733C861.213 257.613 857.787 257.613 855.685 259.733C852.309 263.14 846.5 260.748 846.5 255.952V250.136Z" fill="#FFEDF4"/>
<g id="Group 363">
<path id="^" d="M873.445 247.039H875.538C876.091 247.039 876.538 247.487 876.538 248.039V250.46C876.538 251.012 876.986 251.46 877.538 251.46H879.958C880.51 251.46 880.958 251.907 880.958 252.46V254.88C880.958 255.433 880.51 255.88 879.958 255.88H877.538C876.986 255.88 876.538 256.328 876.538 256.88V259.301C876.538 259.853 876.091 260.301 875.538 260.301H873.445C872.65 260.301 872.119 260.832 872.119 261.627V263.396C872.119 264.191 872.65 264.722 873.445 264.722H873.887C875.478 264.722 876.538 263.661 876.538 262.025C876.538 261.009 877.246 260.301 878.262 260.301H879.455C880.339 260.301 880.958 259.682 880.958 258.798V257.958C880.958 256.72 881.797 255.88 883.035 255.88H885.068C885.775 255.88 886.261 255.394 886.261 254.687V252.786C886.261 251.99 885.73 251.46 884.935 251.46H883.653C882.062 251.46 880.958 250.355 880.958 248.719C880.958 247.702 880.295 247.039 879.278 247.039H878.129C877.201 247.039 876.538 246.376 876.538 245.448V244.519C876.538 243.37 875.787 242.618 874.638 242.618H873.136C872.517 242.618 872.119 243.016 872.119 243.635V245.713C872.119 246.509 872.65 247.039 873.445 247.039Z" fill="#D400A6"/>
<path id="^ (Stroke)" fill-rule="evenodd" clip-rule="evenodd" d="M877.157 246.739C877.035 246.65 876.928 246.543 876.839 246.421C876.647 246.158 876.538 245.825 876.538 245.448V244.52C876.538 243.37 875.787 242.619 874.638 242.619H873.135C872.516 242.619 872.119 243.017 872.119 243.636V245.713C872.119 246.509 872.649 247.04 873.444 247.04H875.538C876.09 247.04 876.538 247.487 876.538 248.04V250.46C876.538 251.013 876.986 251.46 877.538 251.46H879.957C880.509 251.46 880.957 251.908 880.957 252.46V254.881C880.957 255.433 880.509 255.881 879.957 255.881H877.538C876.986 255.881 876.538 256.329 876.538 256.881V259.302C876.538 259.854 876.09 260.302 875.538 260.302H873.444C872.649 260.302 872.119 260.832 872.119 261.628V263.396C872.119 264.192 872.649 264.723 873.444 264.723H873.886C875.477 264.723 876.538 263.662 876.538 262.026C876.538 261.59 876.668 261.211 876.896 260.921C876.972 260.824 877.06 260.736 877.157 260.66C877.447 260.432 877.826 260.302 878.261 260.302H879.455C880.338 260.302 880.957 259.683 880.957 258.799V257.959C880.957 257.365 881.151 256.862 881.489 256.5C881.517 256.47 881.546 256.441 881.576 256.413C881.938 256.075 882.44 255.881 883.034 255.881H885.067C885.774 255.881 886.26 255.395 886.26 254.687V252.787C886.26 251.991 885.73 251.46 884.934 251.46H883.653C882.062 251.46 880.957 250.355 880.957 248.72C880.957 247.703 880.294 247.04 879.278 247.04H878.129C877.752 247.04 877.419 246.93 877.157 246.739ZM875.919 258.683C875.919 259.235 875.472 259.683 874.919 259.683H873.444C872.906 259.683 872.409 259.865 872.046 260.229C871.682 260.593 871.5 261.09 871.5 261.628V263.396C871.5 263.935 871.682 264.432 872.046 264.795C872.409 265.159 872.906 265.341 873.444 265.341H873.886C874.823 265.341 875.652 265.026 876.249 264.423C876.845 263.819 877.157 262.98 877.157 262.026C877.157 261.665 877.28 261.397 877.456 261.22C877.632 261.044 877.9 260.921 878.261 260.921H879.455C880.045 260.921 880.583 260.712 880.975 260.319C881.367 259.927 881.576 259.389 881.576 258.799V257.959C881.576 257.483 881.734 257.128 881.969 256.893C882.204 256.659 882.559 256.5 883.034 256.5H885.067C885.566 256.5 886.028 256.326 886.366 255.987C886.705 255.649 886.879 255.187 886.879 254.687V252.787C886.879 252.248 886.697 251.751 886.333 251.387C885.969 251.024 885.473 250.841 884.934 250.841H883.653C883.005 250.841 882.495 250.619 882.148 250.268C881.801 249.917 881.576 249.395 881.576 248.72C881.576 248.074 881.363 247.487 880.936 247.061C880.51 246.634 879.923 246.421 879.278 246.421H878.129C877.542 246.421 877.157 246.035 877.157 245.448V244.52C877.157 243.808 876.921 243.166 876.456 242.701C875.991 242.236 875.35 242 874.638 242H873.135C872.691 242 872.269 242.146 871.957 242.458C871.645 242.77 871.5 243.191 871.5 243.636V245.713C871.5 246.252 871.682 246.749 872.046 247.113C872.409 247.476 872.906 247.659 873.444 247.659H874.919C875.472 247.659 875.919 248.106 875.919 248.659V251.079C875.919 251.632 876.367 252.079 876.919 252.079H879.338C879.891 252.079 880.338 252.527 880.338 253.079V254.262C880.338 254.814 879.891 255.262 879.338 255.262H876.919C876.367 255.262 875.919 255.71 875.919 256.262V258.683Z" fill="#D400A6"/>
</g>
</g>
<g id="Group 403">
<text id="Open Artists" fill="#D400A6" xml:space="preserve" style="white-space: pre" font-family="Lakonet" font-size="20" letter-spacing="-0.05em"><tspan x="523.5" y="260">Open Artists</tspan></text>
<line id="Line 30" x1="527" y1="262.5" x2="532" y2="262.5" stroke="#D400A6" stroke-linecap="round"/>
</g>
</g>
</g>
<g id="Ellipse 9" filter="url(#filter1_d_305_607)">
<circle cx="507" cy="89.5" r="5.5" fill="#F1AFDD"/>
</g>
<g id="Ellipse 10" filter="url(#filter2_d_305_607)">
<circle cx="507" cy="104.5" r="5.5" fill="#FFFEF6"/>
<circle cx="507" cy="104.5" r="5" stroke="#D400A6"/>
</g>
<circle id="Ellipse 12" cx="901" cy="139.5" r="5.5" fill="#D400A6"/>
<circle id="Ellipse 11" cx="901" cy="154.5" r="5" fill="#FFFEF6" stroke="#D400A6"/>
</g>
<g id="About Node Idle">
<g id="Frame 29_3" filter="url(#filter3_d_305_607)">
<rect x="46.5" y="231" width="394" height="264" rx="16" fill="#FFFEF6" shape-rendering="crispEdges"/>
<rect x="47" y="231.5" width="393" height="263" rx="15.5" stroke="#E7EB17" shape-rendering="crispEdges"/>
<g id="Frame 31_2">
<rect x="54.5" y="239" width="378" height="33" rx="8" fill="#E7EB17"/>
<g id="Group 466">
<path id="&#60;" d="M70.0471 251.777H69.5501C68.8648 251.777 68.3092 252.333 68.3092 253.018C68.3092 253.704 67.7532 254.259 67.0678 254.259C66.3825 254.259 65.8265 254.815 65.8265 255.5C65.8265 256.185 66.3825 256.741 67.0678 256.741C67.7532 256.741 68.3092 257.297 68.3092 257.982C68.3092 258.667 68.8648 259.223 69.5501 259.223H70.0471C70.4939 259.223 70.7919 259.521 70.7919 259.967V260.96C70.7919 261.407 70.4939 261.705 70.0471 261.705H69.7988C68.905 261.705 68.3092 261.109 68.3092 260.191C68.3092 259.62 67.912 259.223 67.3409 259.223H66.6706C66.1741 259.223 65.8265 258.875 65.8265 258.379V257.907C65.8265 257.212 65.3548 256.741 64.6596 256.741H63.5176C63.1204 256.741 62.8473 256.468 62.8473 256.071V255.004C62.8473 254.557 63.1452 254.259 63.5921 254.259H64.3121C65.2058 254.259 65.8265 253.639 65.8265 252.72C65.8265 252.15 66.1989 251.777 66.7699 251.777H67.4154C67.9368 251.777 68.3092 251.405 68.3092 250.884V250.363C68.3092 249.717 68.7312 249.295 69.3767 249.295H70.2209C70.5684 249.295 70.7919 249.519 70.7919 249.866V251.033C70.7919 251.479 70.4939 251.777 70.0471 251.777Z" fill="#D400A6"/>
<path id="&#60; (Stroke)" fill-rule="evenodd" clip-rule="evenodd" d="M67.9619 251.608C68.0304 251.558 68.0904 251.498 68.1404 251.43C68.2481 251.282 68.3095 251.095 68.3095 250.884V250.363C68.3095 249.717 68.7315 249.295 69.377 249.295H70.2211C70.5687 249.295 70.7922 249.519 70.7922 249.866V251.033C70.7922 251.479 70.4942 251.777 70.0473 251.777H69.5504C68.8651 251.777 68.3095 252.333 68.3095 253.018C68.3095 253.704 67.7535 254.259 67.0681 254.259C66.3828 254.259 65.8268 254.815 65.8268 255.5C65.8268 256.185 66.3828 256.741 67.0681 256.741C67.7535 256.741 68.3095 257.297 68.3095 257.982C68.3095 258.667 68.8651 259.223 69.5504 259.223H70.0473C70.4942 259.223 70.7922 259.521 70.7922 259.967V260.96C70.7922 261.407 70.4942 261.705 70.0473 261.705H69.7991C68.9053 261.705 68.3095 261.109 68.3095 260.191C68.3095 259.946 68.2366 259.733 68.1083 259.57C68.0655 259.516 68.0164 259.467 67.9619 259.424C67.7986 259.296 67.5859 259.223 67.3412 259.223H66.6709C66.1744 259.223 65.8268 258.875 65.8268 258.379V257.907C65.8268 257.574 65.7181 257.292 65.528 257.088C65.5123 257.072 65.496 257.055 65.4792 257.04C65.2759 256.85 64.9937 256.741 64.6599 256.741H63.5179C63.1207 256.741 62.8476 256.468 62.8476 256.071V255.004C62.8476 254.557 63.1455 254.259 63.5924 254.259H64.3124C65.2061 254.259 65.8268 253.639 65.8268 252.72C65.8268 252.15 66.1992 251.777 66.7702 251.777H67.4157C67.6273 251.777 67.8143 251.716 67.9619 251.608ZM68.657 257.634C68.657 258.32 69.2126 258.875 69.898 258.875H70.0473C70.3498 258.875 70.6288 258.978 70.8331 259.182C71.0374 259.386 71.1397 259.665 71.1397 259.967V260.96C71.1397 261.262 71.0374 261.541 70.8331 261.746C70.6288 261.95 70.3498 262.052 70.0473 262.052H69.7991C69.2731 262.052 68.807 261.875 68.4719 261.536C68.1371 261.198 67.9619 260.726 67.9619 260.191C67.9619 259.988 67.8928 259.837 67.7937 259.738C67.6946 259.639 67.544 259.57 67.3412 259.57H66.6709C66.3394 259.57 66.0371 259.453 65.8169 259.233C65.5967 259.013 65.4792 258.71 65.4792 258.379V257.907C65.4792 257.64 65.3901 257.441 65.2583 257.309C65.1264 257.178 64.927 257.088 64.6599 257.088H63.5179C63.2376 257.088 62.9782 256.991 62.788 256.801C62.5978 256.61 62.5 256.351 62.5 256.071V255.004C62.5 254.701 62.6023 254.422 62.8066 254.218C63.0109 254.014 63.29 253.912 63.5924 253.912H64.3124C64.6765 253.912 64.9628 253.787 65.1575 253.59C65.3525 253.393 65.4792 253.1 65.4792 252.72C65.4792 252.358 65.599 252.029 65.8386 251.789C66.0782 251.55 66.4076 251.43 66.7702 251.43H67.4157C67.7451 251.43 67.9619 251.213 67.9619 250.884V250.363C67.9619 249.963 68.0942 249.603 68.3554 249.341C68.6166 249.08 68.977 248.948 69.377 248.948H70.2211C70.4707 248.948 70.7075 249.03 70.8828 249.205C71.058 249.38 71.1397 249.617 71.1397 249.866V251.033C71.1397 251.335 71.0374 251.614 70.8331 251.818C70.6288 252.022 70.3498 252.125 70.0473 252.125H69.898C69.2126 252.125 68.657 252.68 68.657 253.366C68.657 254.051 68.1015 254.607 67.4161 254.607H67.0678C66.5744 254.607 66.1744 255.007 66.1744 255.5C66.1744 255.993 66.5744 256.394 67.0678 256.394H67.4161C68.1015 256.394 68.657 256.949 68.657 257.634Z" fill="#D400A6"/>
</g>
<g id="Group 467">
<path id="&#62;" d="M81.97 253.018C81.97 252.333 81.4144 251.777 80.7291 251.777H80.2321C79.7852 251.777 79.4873 251.479 79.4873 251.033V249.866C79.4873 249.519 79.7107 249.295 80.0583 249.295H80.9024C81.5479 249.295 81.97 249.717 81.97 250.363V250.884C81.97 251.405 82.3424 251.777 82.8638 251.777H83.5092C84.0803 251.777 84.4527 252.15 84.4527 252.72C84.4527 253.639 85.0733 254.259 85.9671 254.259H86.6871C87.134 254.259 87.4319 254.557 87.4319 255.004V256.071C87.4319 256.468 87.1588 256.741 86.7616 256.741H85.6195C84.9244 256.741 84.4527 257.212 84.4527 257.907V258.379C84.4527 258.875 84.1051 259.223 83.6086 259.223H82.9382C82.3672 259.223 81.97 259.62 81.97 260.191C81.97 261.109 81.3741 261.705 80.4804 261.705H80.2321C79.7852 261.705 79.4873 261.407 79.4873 260.96V259.967C79.4873 259.521 79.7852 259.223 80.2321 259.223H80.7291C81.4144 259.223 81.97 258.667 81.97 257.982C81.97 257.297 82.526 256.741 83.2113 256.741C83.8967 256.741 84.4527 256.185 84.4527 255.5C84.4527 254.815 83.8967 254.259 83.2113 254.259C82.526 254.259 81.97 253.704 81.97 253.018Z" fill="#D400A6"/>
<path id="&#62; (Stroke)" fill-rule="evenodd" clip-rule="evenodd" d="M82.139 251.43C82.0313 251.282 81.97 251.095 81.97 250.884V250.363C81.97 249.717 81.5479 249.295 80.9024 249.295H80.0583C79.7107 249.295 79.4873 249.519 79.4873 249.866V251.033C79.4873 251.479 79.7852 251.777 80.2321 251.777H80.729C81.4144 251.777 81.97 252.333 81.97 253.018C81.97 253.704 82.526 254.259 83.2113 254.259C83.8966 254.259 84.4526 254.815 84.4526 255.5C84.4526 256.185 83.8966 256.741 83.2113 256.741C82.526 256.741 81.97 257.297 81.97 257.982C81.97 258.667 81.4144 259.223 80.729 259.223H80.2321C79.7852 259.223 79.4873 259.521 79.4873 259.967V260.96C79.4873 261.407 79.7852 261.705 80.2321 261.705H80.4804C81.3741 261.705 81.97 261.109 81.97 260.191C81.97 259.946 82.0429 259.733 82.1711 259.57C82.214 259.516 82.263 259.467 82.3175 259.424C82.4808 259.296 82.6936 259.223 82.9382 259.223H83.6085C84.1051 259.223 84.4526 258.875 84.4526 258.379V257.907C84.4526 257.574 84.5614 257.292 84.7514 257.088C84.7671 257.072 84.7834 257.055 84.8002 257.04C85.0035 256.85 85.2857 256.741 85.6195 256.741H86.7615C87.1588 256.741 87.4319 256.468 87.4319 256.071V255.004C87.4319 254.557 87.1339 254.259 86.6871 254.259H85.9671C85.0733 254.259 84.4526 253.639 84.4526 252.72C84.4526 252.15 84.0802 251.777 83.5092 251.777H82.8637C82.6522 251.777 82.4651 251.716 82.3175 251.608C82.249 251.558 82.189 251.498 82.139 251.43ZM81.6224 257.634C81.6224 258.32 81.0668 258.875 80.3815 258.875H80.2321C79.9297 258.875 79.6506 258.978 79.4463 259.182C79.242 259.386 79.1397 259.665 79.1397 259.967V260.96C79.1397 261.262 79.242 261.541 79.4463 261.746C79.6506 261.95 79.9297 262.052 80.2321 262.052H80.4804C81.0063 262.052 81.4725 261.875 81.8075 261.536C82.1423 261.198 82.3175 260.726 82.3175 260.191C82.3175 259.988 82.3866 259.837 82.4857 259.738C82.5848 259.639 82.7354 259.57 82.9382 259.57H83.6085C83.9401 259.57 84.2424 259.453 84.4626 259.233C84.6828 259.013 84.8002 258.71 84.8002 258.379V257.907C84.8002 257.64 84.8893 257.441 85.0212 257.309C85.153 257.178 85.3525 257.088 85.6195 257.088H86.7615C87.0418 257.088 87.3013 256.991 87.4914 256.801C87.6816 256.61 87.7794 256.351 87.7794 256.071V255.004C87.7794 254.701 87.6771 254.422 87.4728 254.218C87.2685 254.014 86.9895 253.912 86.6871 253.912H85.9671C85.6029 253.912 85.3167 253.787 85.1219 253.59C84.9269 253.393 84.8002 253.1 84.8002 252.72C84.8002 252.358 84.6805 252.029 84.4408 251.789C84.2012 251.55 83.8718 251.43 83.5092 251.43H82.8637C82.5343 251.43 82.3175 251.213 82.3175 250.884V250.363C82.3175 249.963 82.1852 249.603 81.924 249.341C81.6628 249.08 81.3024 248.948 80.9024 248.948H80.0583C79.8087 248.948 79.5719 249.03 79.3967 249.205C79.2214 249.38 79.1397 249.617 79.1397 249.866V251.033C79.1397 251.335 79.242 251.614 79.4463 251.818C79.6506 252.022 79.9297 252.125 80.2321 252.125H80.3815C81.0668 252.125 81.6224 252.68 81.6224 253.366C81.6224 254.051 82.178 254.607 82.8633 254.607H83.2116C83.7051 254.607 84.1051 255.007 84.1051 255.5C84.1051 255.993 83.7051 256.394 83.2116 256.394H82.8633C82.178 256.394 81.6224 256.949 81.6224 257.634Z" fill="#D400A6"/>
</g>
<text id="Sari-Sari Xchange" fill="#D400A6" xml:space="preserve" style="white-space: pre" font-family="Lakonet" font-size="24" letter-spacing="-0.01em"><tspan x="95.7795" y="263.8">Sari-Sari Xchange</tspan></text>
</g>
<g id="Frame 29_4">
<rect x="54.5" y="280" width="378" height="168" rx="8" fill="#FCFCCE"/>
<text id="SSX is a community-building research &#38; creation project using Extended Reality (XR) (ie. Virtual, Augmented, Mixed Realities) to foster new works by artists from the Asian diaspora. Sari-Sari Xchange Assetory (SSXA) is a virtual asset library created with and for the Asian diaspora community." fill="#D400A6" xml:space="preserve" style="white-space: pre" font-family="Inter" font-size="16" letter-spacing="-0.05em"><tspan x="68" y="303.318">SSX is a community-building research &#38; creation </tspan><tspan x="68" y="322.318">project using Extended Reality (XR) (ie. Virtual, </tspan><tspan x="68" y="341.318">Augmented, Mixed Realities) to foster new works </tspan><tspan x="68" y="360.318">by artists from the Asian diaspora. &#10;</tspan><tspan x="68" y="379.318">&#10;</tspan><tspan x="68" y="398.318">Sari-Sari Xchange Assetory (SSXA) is a virtual </tspan><tspan x="68" y="417.318">asset library created with and for the Asian </tspan><tspan x="68" y="436.318">diaspora community.</tspan></text>
</g>
<g id="Learn More Button Idle_2">
<g id="Group 405_2">
<rect id="Rectangle 25_2" x="402.5" y="456" width="30" height="31" rx="7" fill="#FCFCCE"/>
<rect id="Rectangle 26_2" x="54.5" y="456" width="340" height="31" rx="7" fill="#FCFCCE"/>
<path id="Rectangle 32_2" d="M385.5 468.136C385.5 463.3 391.13 460.647 394.859 463.726C396.973 465.47 400.027 465.47 402.141 463.726C405.87 460.647 411.5 463.3 411.5 468.136V473.952C411.5 478.748 405.691 481.14 402.315 477.733C400.213 475.613 396.787 475.613 394.685 477.733C391.309 481.14 385.5 478.748 385.5 473.952V468.136Z" fill="#FCFCCE"/>
</g>
<g id="Group 403_2">
<text id="Learn More" fill="#D400A6" xml:space="preserve" style="white-space: pre" font-family="Lakonet" font-size="20" letter-spacing="-0.05em"><tspan x="62.5" y="478">Learn More</tspan></text>
<line id="Line 30_2" x1="66" y1="480.5" x2="71" y2="480.5" stroke="#D400A6" stroke-linecap="round"/>
</g>
<g id="Group 404">
<text id="OK" fill="#D400A6" xml:space="preserve" style="white-space: pre" font-family="Lakonet" font-size="20" letter-spacing="-0.05em"><tspan x="405.5" y="478">OK</tspan></text>
<line id="Line 30_3" x1="409" y1="480.5" x2="414" y2="480.5" stroke="#D400A6" stroke-linecap="round"/>
</g>
</g>
</g>
<g id="Ellipse 9_2" filter="url(#filter4_d_305_607)">
<circle cx="46" cy="314.5" r="5.5" fill="#D400A6"/>
</g>
<g id="Ellipse 10_2" filter="url(#filter5_d_305_607)">
<circle cx="46" cy="329.5" r="5.5" fill="#FFFEF6"/>
<circle cx="46" cy="329.5" r="5" stroke="#D400A6"/>
</g>
<circle id="Ellipse 12_2" cx="440" cy="364.5" r="5.5" fill="#F1AFDD"/>
<circle id="Ellipse 11_2" cx="440" cy="379.5" r="5" fill="#FFFEF6" stroke="#F1AFDD"/>
</g>
<g id="Group 593">
<path id="SSX to Artists Connector" d="M442 362C515 313 436 22.9999 506.5 89.9999" stroke="#F1AFDD" stroke-width="2" stroke-linecap="round"/>
<path id="SSX to Collections Connector" d="M441.5 363.5C628 422 848.5 394.5 961.5 271" stroke="#F1AFDD" stroke-width="2" stroke-linecap="round"/>
<path id="SSX to Events Connector" d="M441.5 365.5C539 411.5 354.5 495.5 550 547.5" stroke="#F1AFDD" stroke-width="2" stroke-linecap="round"/>
</g>
<g id="Collections Node Idle">
<g id="Frame 29_5" filter="url(#filter6_d_305_607)">
<rect x="964" y="186" width="394" height="271" rx="16" fill="#FFFEF6" shape-rendering="crispEdges"/>
<rect x="964.5" y="186.5" width="393" height="270" rx="15.5" stroke="#D400A6" shape-rendering="crispEdges"/>
<g id="Frame 31_3">
<rect x="972" y="194" width="378" height="33" rx="8" fill="#D400A6"/>
<g id="Group 153">
<path id="~" d="M983.575 205.393V204.968C983.575 204.202 984.086 203.691 984.852 203.691H987.343C987.895 203.691 988.343 204.139 988.343 204.691V205.67C988.343 206.222 988.791 206.67 989.343 206.67H992.111C992.663 206.67 993.111 206.222 993.111 205.67V204.968C993.111 204.202 993.621 203.691 994.388 203.691H994.813C995.58 203.691 996.09 204.202 996.09 204.968V205.393C996.09 206.159 995.58 206.67 994.813 206.67H994.388C993.621 206.67 993.111 207.181 993.111 207.947V208.372C993.111 209.138 992.6 209.649 991.834 209.649H989.343C988.791 209.649 988.343 209.201 988.343 208.649V207.67C988.343 207.118 987.895 206.67 987.343 206.67H984.575C984.023 206.67 983.575 207.118 983.575 207.67V208.372C983.575 209.138 983.064 209.649 982.298 209.649H981.872C981.106 209.649 980.595 209.138 980.595 208.372V207.947C980.595 207.181 981.106 206.67 981.872 206.67H982.298C983.064 206.67 983.575 206.159 983.575 205.393ZM983.575 213.053V212.628C983.575 211.862 984.086 211.351 984.852 211.351H987.343C987.895 211.351 988.343 211.799 988.343 212.351V213.33C988.343 213.882 988.791 214.33 989.343 214.33H992.111C992.663 214.33 993.111 213.882 993.111 213.33V212.628C993.111 211.862 993.621 211.351 994.388 211.351H994.813C995.58 211.351 996.09 211.862 996.09 212.628V213.053C996.09 213.819 995.58 214.33 994.813 214.33H994.388C993.621 214.33 993.111 214.841 993.111 215.607V216.032C993.111 216.798 992.6 217.309 991.834 217.309H989.343C988.791 217.309 988.343 216.861 988.343 216.309V215.33C988.343 214.778 987.895 214.33 987.343 214.33H984.575C984.023 214.33 983.575 214.778 983.575 215.33V216.032C983.575 216.798 983.064 217.309 982.298 217.309H981.872C981.106 217.309 980.595 216.798 980.595 216.032V215.607C980.595 214.841 981.106 214.33 981.872 214.33H982.298C983.064 214.33 983.575 213.819 983.575 213.053Z" fill="#FFFEF6"/>
<path id="~ (Stroke)" fill-rule="evenodd" clip-rule="evenodd" d="M987.94 203.095C988.492 203.095 988.94 203.543 988.94 204.095V205.074C988.94 205.627 989.387 206.074 989.94 206.074H991.515C992.068 206.074 992.515 205.627 992.515 205.074V204.968C992.515 204.449 992.691 203.971 993.041 203.621C993.391 203.271 993.87 203.095 994.388 203.095H994.814C995.333 203.095 995.811 203.271 996.161 203.621C996.512 203.971 996.687 204.449 996.687 204.968V205.393C996.687 205.912 996.512 206.39 996.161 206.74C995.811 207.09 995.333 207.266 994.814 207.266H994.388C994.141 207.266 993.981 207.346 993.884 207.442C993.787 207.539 993.707 207.699 993.707 207.947V208.372C993.707 208.891 993.532 209.369 993.182 209.719C992.831 210.069 992.353 210.245 991.834 210.245H988.748C988.195 210.245 987.748 209.797 987.748 209.245V208.266C987.748 207.714 987.3 207.266 986.748 207.266H985.172C984.62 207.266 984.172 207.714 984.172 208.266V208.372C984.172 208.891 983.996 209.369 983.646 209.719C983.296 210.069 982.817 210.245 982.299 210.245H981.873C981.354 210.245 980.876 210.069 980.526 209.719C980.175 209.369 980 208.891 980 208.372V207.947C980 207.428 980.175 206.95 980.526 206.6C980.876 206.25 981.354 206.074 981.873 206.074H982.299C982.546 206.074 982.707 205.994 982.803 205.898C982.9 205.801 982.98 205.641 982.98 205.393V204.968C982.98 204.449 983.155 203.971 983.506 203.621C983.856 203.271 984.334 203.095 984.853 203.095H987.94ZM983.576 207.67C983.576 207.118 984.024 206.67 984.576 206.67H988.344V208.649C988.344 209.201 988.791 209.649 989.344 209.649H991.834C992.601 209.649 993.111 209.138 993.111 208.372V207.947C993.111 207.687 993.17 207.457 993.277 207.266C993.38 207.084 993.526 206.938 993.707 206.836C993.898 206.729 994.129 206.67 994.388 206.67H994.814C995.58 206.67 996.091 206.159 996.091 205.393V204.968C996.091 204.202 995.58 203.691 994.814 203.691H994.388C993.622 203.691 993.111 204.202 993.111 204.968V205.67C993.111 206.222 992.664 206.67 992.111 206.67H988.344V204.691C988.344 204.139 987.896 203.691 987.344 203.691H984.853C984.087 203.691 983.576 204.202 983.576 204.968V205.393C983.576 205.653 983.517 205.883 983.41 206.074C983.308 206.256 983.161 206.402 982.98 206.504C982.789 206.611 982.558 206.67 982.299 206.67H981.873C981.107 206.67 980.596 207.181 980.596 207.947V208.372C980.596 209.138 981.107 209.649 981.873 209.649H982.299C983.065 209.649 983.576 209.138 983.576 208.372V207.67ZM987.94 210.755C988.492 210.755 988.94 211.203 988.94 211.755V212.734C988.94 213.286 989.387 213.734 989.94 213.734H991.515C992.068 213.734 992.515 213.286 992.515 212.734V212.628C992.515 212.109 992.691 211.631 993.041 211.281C993.391 210.931 993.87 210.755 994.388 210.755H994.814C995.333 210.755 995.811 210.931 996.161 211.281C996.512 211.631 996.687 212.109 996.687 212.628V213.053C996.687 213.572 996.512 214.05 996.161 214.4C995.811 214.75 995.333 214.926 994.814 214.926H994.388C994.141 214.926 993.981 215.006 993.884 215.102C993.787 215.199 993.707 215.359 993.707 215.607V216.032C993.707 216.551 993.532 217.029 993.182 217.379C992.831 217.729 992.353 217.905 991.834 217.905H988.748C988.195 217.905 987.748 217.457 987.748 216.905V215.926C987.748 215.373 987.3 214.926 986.748 214.926H985.172C984.62 214.926 984.172 215.373 984.172 215.926V216.032C984.172 216.551 983.996 217.029 983.646 217.379C983.296 217.729 982.817 217.905 982.299 217.905H981.873C981.354 217.905 980.876 217.729 980.526 217.379C980.175 217.029 980 216.551 980 216.032V215.607C980 215.088 980.175 214.61 980.526 214.26C980.876 213.91 981.354 213.734 981.873 213.734H982.299C982.546 213.734 982.707 213.654 982.803 213.558C982.9 213.461 982.98 213.301 982.98 213.053V212.628C982.98 212.109 983.155 211.631 983.506 211.281C983.856 210.931 984.334 210.755 984.853 210.755H987.94ZM983.576 215.33C983.576 214.778 984.024 214.33 984.576 214.33H988.344V216.309C988.344 216.861 988.791 217.309 989.344 217.309H991.834C992.601 217.309 993.111 216.798 993.111 216.032V215.607C993.111 215.347 993.17 215.117 993.277 214.926C993.38 214.744 993.526 214.598 993.707 214.496C993.898 214.389 994.129 214.33 994.388 214.33H994.814C995.58 214.33 996.091 213.819 996.091 213.053V212.628C996.091 211.862 995.58 211.351 994.814 211.351H994.388C993.622 211.351 993.111 211.862 993.111 212.628V213.33C993.111 213.882 992.664 214.33 992.111 214.33H988.344V212.351C988.344 211.799 987.896 211.351 987.344 211.351H984.853C984.087 211.351 983.576 211.862 983.576 212.628V213.053C983.576 213.313 983.517 213.543 983.41 213.734C983.308 213.916 983.161 214.062 982.98 214.164C982.789 214.271 982.558 214.33 982.299 214.33H981.873C981.107 214.33 980.596 214.841 980.596 215.607V216.032C980.596 216.798 981.107 217.309 981.873 217.309H982.299C983.065 217.309 983.576 216.798 983.576 216.032V215.33Z" fill="#FFFEF6"/>
</g>
<text id="Collections" fill="#FFFEF6" xml:space="preserve" style="white-space: pre" font-family="Lakonet" font-size="24" letter-spacing="-0.01em"><tspan x="1004.69" y="218.8">Collections</tspan></text>
</g>
<g id="Frame 29_6">
<rect x="972" y="235" width="378" height="35" rx="8" fill="#FFEDF4"/>
<g id="Group 165_2">
<path id="&#226;&#128;&#156;_2" d="M980.624 256.267V253.191C980.624 252.388 981.16 251.853 981.963 251.853H983.747C984.55 251.853 985.085 251.318 985.085 250.515V248.732C985.085 247.929 985.62 247.394 986.423 247.394H988.207C989.01 247.394 989.545 247.929 989.545 248.732V250.853C989.545 251.405 989.097 251.853 988.545 251.853H986.085C985.532 251.853 985.085 252.301 985.085 252.853V256.605C985.085 257.157 984.637 257.605 984.085 257.605H981.963C981.16 257.605 980.624 257.07 980.624 256.267ZM989.456 256.267V253.191C989.456 252.388 989.991 251.853 990.794 251.853H992.578C993.381 251.853 993.916 251.318 993.916 250.515V248.732C993.916 247.929 994.452 247.394 995.254 247.394H997.039C997.841 247.394 998.377 247.929 998.377 248.732V250.853C998.377 251.405 997.929 251.853 997.377 251.853H994.916C994.364 251.853 993.916 252.301 993.916 252.853V256.605C993.916 257.157 993.469 257.605 992.916 257.605H990.794C989.991 257.605 989.456 257.07 989.456 256.267Z" fill="#D400A6"/>
<path id="&#226;&#128;&#156; (Stroke)_2" fill-rule="evenodd" clip-rule="evenodd" d="M988.545 251.853C989.097 251.853 989.545 251.406 989.545 250.853V248.732C989.545 247.93 989.01 247.395 988.207 247.395H986.423C985.62 247.395 985.085 247.93 985.085 248.732V250.516C985.085 250.788 985.023 251.029 984.911 251.229C984.804 251.419 984.651 251.573 984.46 251.68C984.26 251.792 984.019 251.853 983.747 251.853H981.963C981.16 251.853 980.624 252.389 980.624 253.191V256.268C980.624 257.07 981.16 257.605 981.963 257.605H984.085C984.637 257.605 985.085 257.158 985.085 256.605V252.853C985.085 252.301 985.533 251.853 986.085 251.853H988.545ZM985.709 253.478C985.709 252.925 986.157 252.478 986.709 252.478H988.222C988.577 252.478 988.831 252.836 988.831 253.191V256.268C988.831 256.811 989.015 257.312 989.382 257.679C989.749 258.046 990.251 258.23 990.794 258.23H993.541C994.093 258.23 994.541 257.782 994.541 257.23V253.478C994.541 252.925 994.988 252.478 995.541 252.478H998.001C998.553 252.478 999.001 252.03 999.001 251.478V248.732C999.001 248.189 998.817 247.688 998.45 247.321C998.083 246.954 997.582 246.77 997.039 246.77H995.254C994.711 246.77 994.21 246.954 993.843 247.321C993.476 247.688 993.292 248.189 993.292 248.732V250.516C993.292 250.775 993.208 250.943 993.107 251.044C993.005 251.145 992.838 251.229 992.578 251.229H990.794C990.478 251.229 990.17 251 990.17 250.684V248.732C990.17 248.189 989.986 247.688 989.619 247.321C989.252 246.954 988.75 246.77 988.207 246.77H986.423C985.88 246.77 985.378 246.954 985.011 247.321C984.644 247.688 984.46 248.189 984.46 248.732V250.516C984.46 250.775 984.377 250.943 984.275 251.044C984.174 251.145 984.006 251.229 983.747 251.229H981.963C981.419 251.229 980.918 251.413 980.551 251.78C980.184 252.147 980 252.648 980 253.191V256.268C980 256.811 980.184 257.312 980.551 257.679C980.918 258.046 981.419 258.23 981.963 258.23H984.709C985.262 258.23 985.709 257.782 985.709 257.23V253.478ZM990.17 251.982C989.938 252.089 989.753 252.259 989.63 252.478C989.517 252.678 989.456 252.919 989.456 253.191V256.268C989.456 257.07 989.991 257.605 990.794 257.605H992.916C993.469 257.605 993.916 257.158 993.916 256.605V252.853C993.916 252.301 994.364 251.853 994.916 251.853H997.377C997.929 251.853 998.377 251.406 998.377 250.853V248.732C998.377 247.93 997.841 247.395 997.039 247.395H995.254C994.452 247.395 993.916 247.93 993.916 248.732V250.516C993.916 250.788 993.855 251.029 993.742 251.229C993.635 251.419 993.482 251.573 993.292 251.68C993.092 251.792 992.85 251.853 992.578 251.853H990.794C990.561 251.853 990.351 251.898 990.17 251.982Z" fill="#D400A6"/>
</g>
<text id="Explore collections by SSX." fill="#D400A6" xml:space="preserve" style="white-space: pre" font-family="Inter" font-size="16" letter-spacing="-0.05em"><tspan x="1007" y="258.318">Explore collections by SSX.</tspan></text>
</g>
<g id="Frame 30_2">
<rect x="972" y="278" width="378" height="132" rx="8" fill="#FFEDF4"/>
</g>
<g id="Learn More Button Idle_3">
<g id="Group 405_3">
<rect id="Rectangle 25_3" x="1320" y="418" width="30" height="31" rx="7" fill="#FFEDF4"/>
<rect id="Rectangle 26_3" x="972" y="418" width="340" height="31" rx="7" fill="#FFEDF4"/>
<path id="Rectangle 32_3" d="M1303 430.136C1303 425.3 1308.63 422.647 1312.36 425.726C1314.47 427.47 1317.53 427.47 1319.64 425.726C1323.37 422.647 1329 425.3 1329 430.136V435.952C1329 440.748 1323.19 443.14 1319.81 439.733C1317.71 437.613 1314.29 437.613 1312.19 439.733C1308.81 443.14 1303 440.748 1303 435.952V430.136Z" fill="#FFEDF4"/>
<g id="Group 363_2">
<path id="^_2" d="M1329.94 427.039H1332.04C1332.59 427.039 1333.04 427.487 1333.04 428.039V430.46C1333.04 431.012 1333.49 431.46 1334.04 431.46H1336.46C1337.01 431.46 1337.46 431.908 1337.46 432.46V434.881C1337.46 435.433 1337.01 435.881 1336.46 435.881H1334.04C1333.49 435.881 1333.04 436.328 1333.04 436.881V439.301C1333.04 439.854 1332.59 440.301 1332.04 440.301H1329.94C1329.15 440.301 1328.62 440.832 1328.62 441.628V443.396C1328.62 444.192 1329.15 444.722 1329.94 444.722H1330.39C1331.98 444.722 1333.04 443.661 1333.04 442.025C1333.04 441.009 1333.75 440.301 1334.76 440.301H1335.96C1336.84 440.301 1337.46 439.682 1337.46 438.798V437.958C1337.46 436.721 1338.3 435.881 1339.53 435.881H1341.57C1342.27 435.881 1342.76 435.394 1342.76 434.687V432.786C1342.76 431.99 1342.23 431.46 1341.43 431.46H1340.15C1338.56 431.46 1337.46 430.355 1337.46 428.719C1337.46 427.702 1336.79 427.039 1335.78 427.039H1334.63C1333.7 427.039 1333.04 426.376 1333.04 425.448V424.519C1333.04 423.37 1332.29 422.618 1331.14 422.618H1329.64C1329.02 422.618 1328.62 423.016 1328.62 423.635V425.713C1328.62 426.509 1329.15 427.039 1329.94 427.039Z" fill="#D400A6"/>
<path id="^ (Stroke)_2" fill-rule="evenodd" clip-rule="evenodd" d="M1333.66 426.739C1333.53 426.65 1333.43 426.543 1333.34 426.421C1333.15 426.158 1333.04 425.825 1333.04 425.448V424.52C1333.04 423.37 1332.29 422.619 1331.14 422.619H1329.64C1329.02 422.619 1328.62 423.017 1328.62 423.636V425.713C1328.62 426.509 1329.15 427.04 1329.94 427.04H1332.04C1332.59 427.04 1333.04 427.487 1333.04 428.04V430.46C1333.04 431.013 1333.49 431.46 1334.04 431.46H1336.46C1337.01 431.46 1337.46 431.908 1337.46 432.46V434.881C1337.46 435.433 1337.01 435.881 1336.46 435.881H1334.04C1333.49 435.881 1333.04 436.329 1333.04 436.881V439.302C1333.04 439.854 1332.59 440.302 1332.04 440.302H1329.94C1329.15 440.302 1328.62 440.832 1328.62 441.628V443.396C1328.62 444.192 1329.15 444.723 1329.94 444.723H1330.39C1331.98 444.723 1333.04 443.662 1333.04 442.026C1333.04 441.59 1333.17 441.211 1333.4 440.921C1333.47 440.824 1333.56 440.736 1333.66 440.66C1333.95 440.432 1334.33 440.302 1334.76 440.302H1335.95C1336.84 440.302 1337.46 439.683 1337.46 438.799V437.959C1337.46 437.365 1337.65 436.862 1337.99 436.5C1338.02 436.47 1338.05 436.441 1338.08 436.413C1338.44 436.075 1338.94 435.881 1339.53 435.881H1341.57C1342.27 435.881 1342.76 435.395 1342.76 434.687V432.787C1342.76 431.991 1342.23 431.46 1341.43 431.46H1340.15C1338.56 431.46 1337.46 430.355 1337.46 428.72C1337.46 427.703 1336.79 427.04 1335.78 427.04H1334.63C1334.25 427.04 1333.92 426.93 1333.66 426.739ZM1332.42 438.683C1332.42 439.235 1331.97 439.683 1331.42 439.683H1329.94C1329.41 439.683 1328.91 439.865 1328.55 440.229C1328.18 440.593 1328 441.09 1328 441.628V443.396C1328 443.935 1328.18 444.432 1328.55 444.795C1328.91 445.159 1329.41 445.341 1329.94 445.341H1330.39C1331.32 445.341 1332.15 445.026 1332.75 444.423C1333.34 443.819 1333.66 442.98 1333.66 442.026C1333.66 441.665 1333.78 441.397 1333.96 441.22C1334.13 441.044 1334.4 440.921 1334.76 440.921H1335.95C1336.54 440.921 1337.08 440.712 1337.47 440.319C1337.87 439.927 1338.08 439.389 1338.08 438.799V437.959C1338.08 437.483 1338.23 437.128 1338.47 436.893C1338.7 436.659 1339.06 436.5 1339.53 436.5H1341.57C1342.07 436.5 1342.53 436.326 1342.87 435.987C1343.2 435.649 1343.38 435.187 1343.38 434.687V432.787C1343.38 432.248 1343.2 431.751 1342.83 431.387C1342.47 431.024 1341.97 430.841 1341.43 430.841H1340.15C1339.5 430.841 1339 430.619 1338.65 430.268C1338.3 429.917 1338.08 429.395 1338.08 428.72C1338.08 428.074 1337.86 427.487 1337.44 427.061C1337.01 426.634 1336.42 426.421 1335.78 426.421H1334.63C1334.04 426.421 1333.66 426.035 1333.66 425.448V424.52C1333.66 423.808 1333.42 423.166 1332.96 422.701C1332.49 422.236 1331.85 422 1331.14 422H1329.64C1329.19 422 1328.77 422.146 1328.46 422.458C1328.15 422.77 1328 423.191 1328 423.636V425.713C1328 426.252 1328.18 426.749 1328.55 427.113C1328.91 427.476 1329.41 427.659 1329.94 427.659H1331.42C1331.97 427.659 1332.42 428.106 1332.42 428.659V431.079C1332.42 431.632 1332.87 432.079 1333.42 432.079H1335.84C1336.39 432.079 1336.84 432.527 1336.84 433.079V434.262C1336.84 434.814 1336.39 435.262 1335.84 435.262H1333.42C1332.87 435.262 1332.42 435.71 1332.42 436.262V438.683Z" fill="#D400A6"/>
</g>
</g>
<g id="Group 403_3">
<text id="Open Artists_2" fill="#D400A6" xml:space="preserve" style="white-space: pre" font-family="Lakonet" font-size="20" letter-spacing="-0.05em"><tspan x="980" y="440">Open Artists</tspan></text>
<line id="Line 30_4" x1="983.5" y1="442.5" x2="988.5" y2="442.5" stroke="#D400A6" stroke-linecap="round"/>
</g>
</g>
</g>
<g id="Ellipse 9_3" filter="url(#filter7_d_305_607)">
<circle cx="963.5" cy="269.5" r="5.5" fill="#F1AFDD"/>
</g>
<g id="Ellipse 10_3" filter="url(#filter8_d_305_607)">
<circle cx="963.5" cy="284.5" r="5.5" fill="#FFFEF6"/>
<circle cx="963.5" cy="284.5" r="5" stroke="#D400A6"/>
</g>
<circle id="Ellipse 12_3" cx="1357.5" cy="319.5" r="5.5" fill="#D400A6"/>
<circle id="Ellipse 11_3" cx="1357.5" cy="334.5" r="5" fill="#FFFEF6" stroke="#D400A6"/>
</g>
<g id="Events Node Idle">
<g id="Frame 29_7" filter="url(#filter9_d_305_607)">
<rect x="551" y="462" width="394" height="271" rx="16" fill="#FFFEF6" shape-rendering="crispEdges"/>
<rect x="551.5" y="462.5" width="393" height="270" rx="15.5" stroke="#D400A6" shape-rendering="crispEdges"/>
<g id="Frame 31_4">
<rect x="559" y="470" width="378" height="33" rx="8" fill="#D400A6"/>
<g id="Group 161">
<path id="{" d="M572.868 478.822V479.569C572.868 479.905 572.643 480.13 572.307 480.13H571.999C571.447 480.13 570.999 480.577 570.999 481.13V484.631C570.999 485.148 570.58 485.566 570.064 485.566C569.548 485.566 569.13 485.984 569.13 486.5C569.13 487.016 569.548 487.434 570.064 487.434C570.58 487.434 570.999 487.852 570.999 488.368V491.87C570.999 492.423 571.447 492.87 571.999 492.87H572.307C572.643 492.87 572.868 493.094 572.868 493.431V494.178C572.868 494.514 572.643 494.738 572.307 494.738H571.56C571.223 494.738 570.999 494.514 570.999 494.178V493.3C570.999 493.038 570.831 492.87 570.55 492.87C569.691 492.87 569.13 492.31 569.13 491.451V487.994C569.13 487.658 568.906 487.434 568.569 487.434H567.822C567.486 487.434 567.261 487.21 567.261 486.874V486.126C567.261 485.79 567.486 485.566 567.822 485.566H568.569C568.906 485.566 569.13 485.342 569.13 485.005V481.549C569.13 480.69 569.691 480.13 570.569 480.13C570.831 480.13 570.999 479.961 570.999 479.7V478.822C570.999 478.486 571.223 478.261 571.56 478.261H572.307C572.643 478.261 572.868 478.486 572.868 478.822Z" fill="#FFFEF6"/>
<path id="{ (Stroke)" fill-rule="evenodd" clip-rule="evenodd" d="M571.999 480.13C571.447 480.13 570.999 480.577 570.999 481.13V484.632C570.999 485.148 570.581 485.566 570.065 485.566C569.549 485.566 569.13 485.984 569.13 486.5C569.13 487.016 569.549 487.434 570.065 487.434C570.581 487.434 570.999 487.852 570.999 488.368V491.87C570.999 492.423 571.447 492.87 571.999 492.87H572.307C572.644 492.87 572.868 493.095 572.868 493.431V494.178C572.868 494.514 572.644 494.738 572.307 494.738H571.56C571.223 494.738 570.999 494.514 570.999 494.178V493.3C570.999 493.238 570.99 493.182 570.972 493.132C570.933 493.022 570.852 492.941 570.738 492.9C570.683 492.881 570.62 492.87 570.551 492.87C569.691 492.87 569.13 492.31 569.13 491.451V487.995C569.13 487.881 569.105 487.779 569.057 487.696C569.013 487.616 568.949 487.552 568.869 487.507C568.785 487.46 568.684 487.434 568.57 487.434H567.822C567.486 487.434 567.262 487.21 567.262 486.874V486.126C567.262 485.79 567.486 485.566 567.822 485.566H568.57C568.684 485.566 568.785 485.54 568.869 485.493C568.949 485.448 569.013 485.384 569.057 485.304C569.105 485.221 569.13 485.119 569.13 485.006V481.549C569.13 480.69 569.691 480.13 570.569 480.13C570.631 480.13 570.687 480.12 570.738 480.103C570.851 480.063 570.932 479.981 570.972 479.868C570.99 479.818 570.999 479.762 570.999 479.7V478.822C570.999 478.486 571.223 478.262 571.56 478.262H572.307C572.644 478.262 572.868 478.486 572.868 478.822V479.569C572.868 479.905 572.644 480.13 572.307 480.13H571.999ZM571.261 481.391C571.261 480.839 571.709 480.391 572.261 480.391H572.307C572.535 480.391 572.745 480.314 572.899 480.16C573.053 480.007 573.13 479.797 573.13 479.569V478.822C573.13 478.594 573.053 478.384 572.899 478.231C572.745 478.077 572.535 478 572.307 478H571.56C571.332 478 571.122 478.077 570.968 478.231C570.815 478.384 570.738 478.594 570.738 478.822V479.7C570.738 479.774 570.715 479.81 570.697 479.828C570.68 479.846 570.643 479.868 570.569 479.868C570.074 479.868 569.643 480.027 569.336 480.332C569.029 480.636 568.869 481.062 568.869 481.549V485.006C568.869 485.114 568.834 485.184 568.791 485.227C568.749 485.269 568.679 485.304 568.57 485.304H567.822C567.595 485.304 567.385 485.381 567.231 485.535C567.077 485.689 567 485.899 567 486.126V486.874C567 487.101 567.077 487.311 567.231 487.465C567.385 487.619 567.595 487.696 567.822 487.696H568.57C568.679 487.696 568.749 487.731 568.791 487.773C568.834 487.816 568.869 487.886 568.869 487.995V491.451C568.869 491.938 569.029 492.364 569.333 492.668C569.637 492.972 570.063 493.132 570.551 493.132C570.638 493.132 570.68 493.157 570.698 493.175C570.715 493.192 570.738 493.226 570.738 493.3V494.178C570.738 494.406 570.815 494.616 570.968 494.769C571.122 494.923 571.332 495 571.56 495H572.307C572.535 495 572.745 494.923 572.899 494.769C573.053 494.616 573.13 494.406 573.13 494.178V493.431C573.13 493.203 573.053 492.993 572.899 492.84C572.745 492.686 572.535 492.609 572.307 492.609H572.261C571.709 492.609 571.261 492.161 571.261 491.609V488.107C571.261 487.591 570.842 487.173 570.326 487.173H570.065C569.693 487.173 569.392 486.871 569.392 486.5C569.392 486.129 569.693 485.827 570.065 485.827H570.326C570.842 485.827 571.261 485.409 571.261 484.893V481.391Z" fill="#FFFEF6"/>
</g>
<g id="Group 162">
<path id="{_2" d="M581.391 478.822V479.569C581.391 479.905 581.616 480.13 581.952 480.13H582.26C582.813 480.13 583.26 480.577 583.26 481.13V484.631C583.26 485.148 583.679 485.566 584.195 485.566C584.711 485.566 585.129 485.984 585.129 486.5C585.129 487.016 584.711 487.434 584.195 487.434C583.679 487.434 583.26 487.852 583.26 488.368V491.87C583.26 492.423 582.813 492.87 582.26 492.87H581.952C581.616 492.87 581.391 493.094 581.391 493.431V494.178C581.391 494.514 581.616 494.738 581.952 494.738H582.7C583.036 494.738 583.26 494.514 583.26 494.178V493.3C583.26 493.038 583.428 492.87 583.709 492.87C584.568 492.87 585.129 492.31 585.129 491.451V487.994C585.129 487.658 585.353 487.434 585.69 487.434H586.437C586.774 487.434 586.998 487.21 586.998 486.874V486.126C586.998 485.79 586.774 485.566 586.437 485.566H585.69C585.353 485.566 585.129 485.342 585.129 485.005V481.549C585.129 480.69 584.568 480.13 583.69 480.13C583.428 480.13 583.26 479.961 583.26 479.7V478.822C583.26 478.486 583.036 478.261 582.7 478.261H581.952C581.616 478.261 581.391 478.486 581.391 478.822Z" fill="#FFFEF6"/>
<path id="{ (Stroke)_2" fill-rule="evenodd" clip-rule="evenodd" d="M582.26 480.13C582.812 480.13 583.26 480.577 583.26 481.13V484.632C583.26 485.148 583.678 485.566 584.195 485.566C584.71 485.566 585.129 485.984 585.129 486.5C585.129 487.016 584.71 487.434 584.195 487.434C583.678 487.434 583.26 487.852 583.26 488.368V491.87C583.26 492.423 582.812 492.87 582.26 492.87H581.952C581.615 492.87 581.391 493.095 581.391 493.431V494.178C581.391 494.514 581.615 494.738 581.952 494.738H582.699C583.036 494.738 583.26 494.514 583.26 494.178V493.3C583.26 493.238 583.269 493.182 583.287 493.132C583.327 493.022 583.407 492.941 583.522 492.9C583.576 492.881 583.639 492.87 583.708 492.87C584.568 492.87 585.129 492.31 585.129 491.451V487.995C585.129 487.881 585.155 487.779 585.202 487.696C585.246 487.616 585.311 487.552 585.39 487.507C585.474 487.46 585.575 487.434 585.689 487.434H586.437C586.773 487.434 586.998 487.21 586.998 486.874V486.126C586.998 485.79 586.773 485.566 586.437 485.566H585.689C585.575 485.566 585.474 485.54 585.39 485.493C585.311 485.448 585.246 485.384 585.202 485.304C585.155 485.221 585.129 485.119 585.129 485.006V481.549C585.129 480.69 584.568 480.13 583.69 480.13C583.628 480.13 583.572 480.12 583.522 480.103C583.409 480.063 583.327 479.981 583.287 479.868C583.269 479.818 583.26 479.762 583.26 479.7V478.822C583.26 478.486 583.036 478.262 582.699 478.262H581.952C581.615 478.262 581.391 478.486 581.391 478.822V479.569C581.391 479.905 581.615 480.13 581.952 480.13H582.26ZM582.998 481.391C582.998 480.839 582.551 480.391 581.998 480.391H581.952C581.724 480.391 581.514 480.314 581.36 480.16C581.207 480.007 581.13 479.797 581.13 479.569V478.822C581.13 478.594 581.207 478.384 581.36 478.231C581.514 478.077 581.724 478 581.952 478H582.699C582.927 478 583.137 478.077 583.291 478.231C583.445 478.384 583.522 478.594 583.522 478.822V479.7C583.522 479.774 583.544 479.81 583.562 479.828C583.579 479.846 583.616 479.868 583.69 479.868C584.185 479.868 584.616 480.027 584.923 480.332C585.23 480.636 585.39 481.062 585.39 481.549V485.006C585.39 485.114 585.425 485.184 585.468 485.227C585.51 485.269 585.581 485.304 585.689 485.304H586.437C586.665 485.304 586.875 485.381 587.028 485.535C587.182 485.689 587.259 485.899 587.259 486.126V486.874C587.259 487.101 587.182 487.311 587.028 487.465C586.875 487.619 586.665 487.696 586.437 487.696H585.689C585.581 487.696 585.51 487.731 585.468 487.773C585.425 487.816 585.39 487.886 585.39 487.995V491.451C585.39 491.938 585.23 492.364 584.926 492.668C584.622 492.972 584.196 493.132 583.708 493.132C583.621 493.132 583.579 493.157 583.561 493.175C583.544 493.192 583.522 493.226 583.522 493.3V494.178C583.522 494.406 583.445 494.616 583.291 494.769C583.137 494.923 582.927 495 582.699 495H581.952C581.724 495 581.514 494.923 581.36 494.769C581.207 494.616 581.13 494.406 581.13 494.178V493.431C581.13 493.203 581.207 492.993 581.36 492.84C581.514 492.686 581.724 492.609 581.952 492.609H581.998C582.551 492.609 582.998 492.161 582.998 491.609V488.107C582.998 487.591 583.417 487.173 583.933 487.173H584.195C584.566 487.173 584.867 486.871 584.867 486.5C584.867 486.129 584.566 485.827 584.195 485.827H583.933C583.417 485.827 582.998 485.409 582.998 484.893V481.391Z" fill="#FFFEF6"/>
</g>
<text id="Events" fill="#FFFEF6" xml:space="preserve" style="white-space: pre" font-family="Lakonet" font-size="24" letter-spacing="-0.01em"><tspan x="595.259" y="494.8">Events</tspan></text>
</g>
<g id="Frame 29_8">
<rect x="559" y="511" width="378" height="35" rx="8" fill="#FFEDF4"/>
<g id="Group 165_3">
<path id="&#226;&#128;&#156;_3" d="M567.624 532.267V529.191C567.624 528.388 568.16 527.853 568.963 527.853H570.747C571.55 527.853 572.085 527.318 572.085 526.515V524.732C572.085 523.929 572.62 523.394 573.423 523.394H575.207C576.01 523.394 576.545 523.929 576.545 524.732V526.853C576.545 527.405 576.097 527.853 575.545 527.853H573.085C572.532 527.853 572.085 528.301 572.085 528.853V532.605C572.085 533.157 571.637 533.605 571.085 533.605H568.963C568.16 533.605 567.624 533.07 567.624 532.267ZM576.456 532.267V529.191C576.456 528.388 576.991 527.853 577.794 527.853H579.578C580.381 527.853 580.916 527.318 580.916 526.515V524.732C580.916 523.929 581.452 523.394 582.254 523.394H584.039C584.841 523.394 585.377 523.929 585.377 524.732V526.853C585.377 527.405 584.929 527.853 584.377 527.853H581.916C581.364 527.853 580.916 528.301 580.916 528.853V532.605C580.916 533.157 580.469 533.605 579.916 533.605H577.794C576.991 533.605 576.456 533.07 576.456 532.267Z" fill="#D400A6"/>
<path id="&#226;&#128;&#156; (Stroke)_3" fill-rule="evenodd" clip-rule="evenodd" d="M575.545 527.853C576.097 527.853 576.545 527.406 576.545 526.853V524.732C576.545 523.93 576.01 523.395 575.207 523.395H573.423C572.62 523.395 572.085 523.93 572.085 524.732V526.516C572.085 526.788 572.023 527.029 571.911 527.229C571.804 527.419 571.651 527.573 571.46 527.68C571.26 527.792 571.019 527.853 570.747 527.853H568.963C568.16 527.853 567.624 528.389 567.624 529.191V532.268C567.624 533.07 568.16 533.605 568.963 533.605H571.085C571.637 533.605 572.085 533.158 572.085 532.605V528.853C572.085 528.301 572.533 527.853 573.085 527.853H575.545ZM572.709 529.478C572.709 528.925 573.157 528.478 573.709 528.478H575.222C575.577 528.478 575.831 528.836 575.831 529.191V532.268C575.831 532.811 576.015 533.312 576.382 533.679C576.749 534.046 577.251 534.23 577.794 534.23H580.541C581.093 534.23 581.541 533.782 581.541 533.23V529.478C581.541 528.925 581.988 528.478 582.541 528.478H585.001C585.553 528.478 586.001 528.03 586.001 527.478V524.732C586.001 524.189 585.817 523.688 585.45 523.321C585.083 522.954 584.582 522.77 584.039 522.77H582.254C581.711 522.77 581.21 522.954 580.843 523.321C580.476 523.688 580.292 524.189 580.292 524.732V526.516C580.292 526.775 580.208 526.943 580.107 527.044C580.005 527.145 579.838 527.229 579.578 527.229H577.794C577.478 527.229 577.17 527 577.17 526.684V524.732C577.17 524.189 576.986 523.688 576.619 523.321C576.252 522.954 575.75 522.77 575.207 522.77H573.423C572.88 522.77 572.378 522.954 572.011 523.321C571.644 523.688 571.46 524.189 571.46 524.732V526.516C571.46 526.775 571.377 526.943 571.275 527.044C571.174 527.145 571.006 527.229 570.747 527.229H568.963C568.419 527.229 567.918 527.413 567.551 527.78C567.184 528.147 567 528.648 567 529.191V532.268C567 532.811 567.184 533.312 567.551 533.679C567.918 534.046 568.419 534.23 568.963 534.23H571.709C572.262 534.23 572.709 533.782 572.709 533.23V529.478ZM577.17 527.982C576.938 528.089 576.753 528.259 576.63 528.478C576.517 528.678 576.456 528.919 576.456 529.191V532.268C576.456 533.07 576.991 533.605 577.794 533.605H579.916C580.469 533.605 580.916 533.158 580.916 532.605V528.853C580.916 528.301 581.364 527.853 581.916 527.853H584.377C584.929 527.853 585.377 527.406 585.377 526.853V524.732C585.377 523.93 584.841 523.395 584.039 523.395H582.254C581.452 523.395 580.916 523.93 580.916 524.732V526.516C580.916 526.788 580.855 527.029 580.742 527.229C580.635 527.419 580.482 527.573 580.292 527.68C580.092 527.792 579.85 527.853 579.578 527.853H577.794C577.561 527.853 577.351 527.898 577.17 527.982Z" fill="#D400A6"/>
</g>
<text id="Assets created during SSX events." fill="#D400A6" xml:space="preserve" style="white-space: pre" font-family="Inter" font-size="16" letter-spacing="-0.05em"><tspan x="594.001" y="534.318">Assets created during SSX events.</tspan></text>
</g>
<g id="Frame 30_3">
<rect x="559" y="554" width="378" height="132" rx="8" fill="#FFEDF4"/>
</g>
<g id="Learn More Button Idle_4">
<g id="Group 405_4">
<rect id="Rectangle 25_4" x="907" y="694" width="30" height="31" rx="7" fill="#FFEDF4"/>
<rect id="Rectangle 26_4" x="559" y="694" width="340" height="31" rx="7" fill="#FFEDF4"/>
<path id="Rectangle 32_4" d="M890 706.136C890 701.3 895.63 698.647 899.359 701.726C901.473 703.47 904.527 703.47 906.641 701.726C910.37 698.647 916 701.3 916 706.136V711.952C916 716.748 910.191 719.14 906.815 715.733C904.713 713.613 901.287 713.613 899.185 715.733C895.809 719.14 890 716.748 890 711.952V706.136Z" fill="#FFEDF4"/>
<g id="Group 363_3">
<path id="^_3" d="M916.945 703.039H919.038C919.591 703.039 920.038 703.487 920.038 704.039V706.46C920.038 707.012 920.486 707.46 921.038 707.46H923.458C924.01 707.46 924.458 707.908 924.458 708.46V710.881C924.458 711.433 924.01 711.881 923.458 711.881H921.038C920.486 711.881 920.038 712.328 920.038 712.881V715.301C920.038 715.854 919.591 716.301 919.038 716.301H916.945C916.15 716.301 915.619 716.832 915.619 717.627V719.396C915.619 720.191 916.15 720.722 916.945 720.722H917.387C918.978 720.722 920.038 719.661 920.038 718.025C920.038 717.009 920.746 716.301 921.762 716.301H922.955C923.839 716.301 924.458 715.682 924.458 714.798V713.958C924.458 712.72 925.297 711.881 926.535 711.881H928.568C929.275 711.881 929.761 711.394 929.761 710.687V708.786C929.761 707.99 929.23 707.46 928.435 707.46H927.153C925.562 707.46 924.458 706.355 924.458 704.719C924.458 703.702 923.795 703.039 922.778 703.039H921.629C920.701 703.039 920.038 702.376 920.038 701.448V700.519C920.038 699.37 919.287 698.618 918.138 698.618H916.636C916.017 698.618 915.619 699.016 915.619 699.635V701.713C915.619 702.509 916.15 703.039 916.945 703.039Z" fill="#D400A6"/>
<path id="^ (Stroke)_3" fill-rule="evenodd" clip-rule="evenodd" d="M920.657 702.739C920.535 702.65 920.428 702.543 920.339 702.421C920.147 702.158 920.038 701.825 920.038 701.448V700.52C920.038 699.37 919.287 698.619 918.138 698.619H916.635C916.016 698.619 915.619 699.017 915.619 699.636V701.713C915.619 702.509 916.149 703.04 916.944 703.04H919.038C919.59 703.04 920.038 703.487 920.038 704.04V706.46C920.038 707.013 920.486 707.46 921.038 707.46H923.457C924.009 707.46 924.457 707.908 924.457 708.46V710.881C924.457 711.433 924.009 711.881 923.457 711.881H921.038C920.486 711.881 920.038 712.329 920.038 712.881V715.302C920.038 715.854 919.59 716.302 919.038 716.302H916.944C916.149 716.302 915.619 716.832 915.619 717.628V719.396C915.619 720.192 916.149 720.723 916.944 720.723H917.386C918.977 720.723 920.038 719.662 920.038 718.026C920.038 717.59 920.168 717.211 920.396 716.921C920.472 716.824 920.56 716.736 920.657 716.66C920.947 716.432 921.326 716.302 921.761 716.302H922.955C923.838 716.302 924.457 715.683 924.457 714.799V713.959C924.457 713.365 924.651 712.862 924.989 712.5C925.017 712.47 925.046 712.441 925.076 712.413C925.438 712.075 925.94 711.881 926.534 711.881H928.567C929.274 711.881 929.76 711.395 929.76 710.687V708.787C929.76 707.991 929.23 707.46 928.434 707.46H927.153C925.562 707.46 924.457 706.355 924.457 704.72C924.457 703.703 923.794 703.04 922.778 703.04H921.629C921.252 703.04 920.919 702.93 920.657 702.739ZM919.419 714.683C919.419 715.235 918.972 715.683 918.419 715.683H916.944C916.406 715.683 915.909 715.865 915.546 716.229C915.182 716.593 915 717.09 915 717.628V719.396C915 719.935 915.182 720.432 915.546 720.795C915.909 721.159 916.406 721.341 916.944 721.341H917.386C918.323 721.341 919.152 721.026 919.749 720.423C920.345 719.819 920.657 718.98 920.657 718.026C920.657 717.665 920.78 717.397 920.956 717.22C921.132 717.044 921.4 716.921 921.761 716.921H922.955C923.545 716.921 924.083 716.712 924.475 716.319C924.867 715.927 925.076 715.389 925.076 714.799V713.959C925.076 713.483 925.234 713.128 925.469 712.893C925.704 712.659 926.059 712.5 926.534 712.5H928.567C929.066 712.5 929.528 712.326 929.866 711.987C930.205 711.649 930.379 711.187 930.379 710.687V708.787C930.379 708.248 930.197 707.751 929.833 707.387C929.469 707.024 928.973 706.841 928.434 706.841H927.153C926.505 706.841 925.995 706.619 925.648 706.268C925.301 705.917 925.076 705.395 925.076 704.72C925.076 704.074 924.863 703.487 924.436 703.061C924.01 702.634 923.423 702.421 922.778 702.421H921.629C921.042 702.421 920.657 702.035 920.657 701.448V700.52C920.657 699.808 920.421 699.166 919.956 698.701C919.491 698.236 918.85 698 918.138 698H916.635C916.191 698 915.769 698.146 915.457 698.458C915.145 698.77 915 699.191 915 699.636V701.713C915 702.252 915.182 702.749 915.546 703.113C915.909 703.476 916.406 703.659 916.944 703.659H918.419C918.972 703.659 919.419 704.106 919.419 704.659V707.079C919.419 707.632 919.867 708.079 920.419 708.079H922.838C923.391 708.079 923.838 708.527 923.838 709.079V710.262C923.838 710.814 923.391 711.262 922.838 711.262H920.419C919.867 711.262 919.419 711.71 919.419 712.262V714.683Z" fill="#D400A6"/>
</g>
</g>
<g id="Group 403_4">
<text id="Open Events" fill="#D400A6" xml:space="preserve" style="white-space: pre" font-family="Lakonet" font-size="20" letter-spacing="-0.05em"><tspan x="567" y="716">Open Events</tspan></text>
<line id="Line 30_5" x1="570.5" y1="718.5" x2="575.5" y2="718.5" stroke="#D400A6" stroke-linecap="round"/>
</g>
</g>
</g>
<g id="Ellipse 9_4" filter="url(#filter10_d_305_607)">
<circle cx="550.5" cy="545.5" r="5.5" fill="#F1AFDD"/>
</g>
<g id="Ellipse 10_4" filter="url(#filter11_d_305_607)">
<circle cx="550.5" cy="560.5" r="5.5" fill="#FFFEF6"/>
<circle cx="550.5" cy="560.5" r="5" stroke="#D400A6"/>
</g>
<circle id="Ellipse 12_4" cx="944.5" cy="595.5" r="5.5" fill="#D400A6"/>
<circle id="Ellipse 11_4" cx="944.5" cy="610.5" r="5" fill="#FFFEF6" stroke="#D400A6"/>
</g>
</g>
<defs>
<filter id="filter0_d_305_607" x="503.5" y="6" width="398" height="275" filterUnits="userSpaceOnUse" color-interpolation-filters="sRGB">
<feFlood flood-opacity="0" result="BackgroundImageFix"/>
<feColorMatrix in="SourceAlpha" type="matrix" values="0 0 0 0 0 0 0 0 0 0 0 0 0 0 0 0 0 0 127 0" result="hardAlpha"/>
<feOffset dx="-4" dy="4"/>
<feComposite in2="hardAlpha" operator="out"/>
<feColorMatrix type="matrix" values="0 0 0 0 0.945098 0 0 0 0 0.686275 0 0 0 0 0.866667 0 0 0 1 0"/>
<feBlend mode="normal" in2="BackgroundImageFix" result="effect1_dropShadow_305_607"/>
<feBlend mode="normal" in="SourceGraphic" in2="effect1_dropShadow_305_607" result="shape"/>
</filter>
<filter id="filter1_d_305_607" x="497.5" y="84" width="15" height="13" filterUnits="userSpaceOnUse" color-interpolation-filters="sRGB">
<feFlood flood-opacity="0" result="BackgroundImageFix"/>
<feColorMatrix in="SourceAlpha" type="matrix" values="0 0 0 0 0 0 0 0 0 0 0 0 0 0 0 0 0 0 127 0" result="hardAlpha"/>
<feOffset dx="-4" dy="2"/>
<feComposite in2="hardAlpha" operator="out"/>
<feColorMatrix type="matrix" values="0 0 0 0 0.945098 0 0 0 0 0.686275 0 0 0 0 0.866667 0 0 0 1 0"/>
<feBlend mode="normal" in2="BackgroundImageFix" result="effect1_dropShadow_305_607"/>
<feBlend mode="normal" in="SourceGraphic" in2="effect1_dropShadow_305_607" result="shape"/>
</filter>
<filter id="filter2_d_305_607" x="497.5" y="99" width="15" height="13" filterUnits="userSpaceOnUse" color-interpolation-filters="sRGB">
<feFlood flood-opacity="0" result="BackgroundImageFix"/>
<feColorMatrix in="SourceAlpha" type="matrix" values="0 0 0 0 0 0 0 0 0 0 0 0 0 0 0 0 0 0 127 0" result="hardAlpha"/>
<feOffset dx="-4" dy="2"/>
<feComposite in2="hardAlpha" operator="out"/>
<feColorMatrix type="matrix" values="0 0 0 0 0.945098 0 0 0 0 0.686275 0 0 0 0 0.866667 0 0 0 1 0"/>
<feBlend mode="normal" in2="BackgroundImageFix" result="effect1_dropShadow_305_607"/>
<feBlend mode="normal" in="SourceGraphic" in2="effect1_dropShadow_305_607" result="shape"/>
</filter>
<filter id="filter3_d_305_607" x="42.5" y="231" width="398" height="268" filterUnits="userSpaceOnUse" color-interpolation-filters="sRGB">
<feFlood flood-opacity="0" result="BackgroundImageFix"/>
<feColorMatrix in="SourceAlpha" type="matrix" values="0 0 0 0 0 0 0 0 0 0 0 0 0 0 0 0 0 0 127 0" result="hardAlpha"/>
<feOffset dx="-4" dy="4"/>
<feComposite in2="hardAlpha" operator="out"/>
<feColorMatrix type="matrix" values="0 0 0 0 0.945098 0 0 0 0 0.686275 0 0 0 0 0.866667 0 0 0 1 0"/>
<feBlend mode="normal" in2="BackgroundImageFix" result="effect1_dropShadow_305_607"/>
<feBlend mode="normal" in="SourceGraphic" in2="effect1_dropShadow_305_607" result="shape"/>
</filter>
<filter id="filter4_d_305_607" x="36.5" y="309" width="15" height="13" filterUnits="userSpaceOnUse" color-interpolation-filters="sRGB">
<feFlood flood-opacity="0" result="BackgroundImageFix"/>
<feColorMatrix in="SourceAlpha" type="matrix" values="0 0 0 0 0 0 0 0 0 0 0 0 0 0 0 0 0 0 127 0" result="hardAlpha"/>
<feOffset dx="-4" dy="2"/>
<feComposite in2="hardAlpha" operator="out"/>
<feColorMatrix type="matrix" values="0 0 0 0 0.945098 0 0 0 0 0.686275 0 0 0 0 0.866667 0 0 0 1 0"/>
<feBlend mode="normal" in2="BackgroundImageFix" result="effect1_dropShadow_305_607"/>
<feBlend mode="normal" in="SourceGraphic" in2="effect1_dropShadow_305_607" result="shape"/>
</filter>
<filter id="filter5_d_305_607" x="36.5" y="324" width="15" height="13" filterUnits="userSpaceOnUse" color-interpolation-filters="sRGB">
<feFlood flood-opacity="0" result="BackgroundImageFix"/>
<feColorMatrix in="SourceAlpha" type="matrix" values="0 0 0 0 0 0 0 0 0 0 0 0 0 0 0 0 0 0 127 0" result="hardAlpha"/>
<feOffset dx="-4" dy="2"/>
<feComposite in2="hardAlpha" operator="out"/>
<feColorMatrix type="matrix" values="0 0 0 0 0.945098 0 0 0 0 0.686275 0 0 0 0 0.866667 0 0 0 1 0"/>
<feBlend mode="normal" in2="BackgroundImageFix" result="effect1_dropShadow_305_607"/>
<feBlend mode="normal" in="SourceGraphic" in2="effect1_dropShadow_305_607" result="shape"/>
</filter>
<filter id="filter6_d_305_607" x="960" y="186" width="398" height="275" filterUnits="userSpaceOnUse" color-interpolation-filters="sRGB">
<feFlood flood-opacity="0" result="BackgroundImageFix"/>
<feColorMatrix in="SourceAlpha" type="matrix" values="0 0 0 0 0 0 0 0 0 0 0 0 0 0 0 0 0 0 127 0" result="hardAlpha"/>
<feOffset dx="-4" dy="4"/>
<feComposite in2="hardAlpha" operator="out"/>
<feColorMatrix type="matrix" values="0 0 0 0 0.945098 0 0 0 0 0.686275 0 0 0 0 0.866667 0 0 0 1 0"/>
<feBlend mode="normal" in2="BackgroundImageFix" result="effect1_dropShadow_305_607"/>
<feBlend mode="normal" in="SourceGraphic" in2="effect1_dropShadow_305_607" result="shape"/>
</filter>
<filter id="filter7_d_305_607" x="954" y="264" width="15" height="13" filterUnits="userSpaceOnUse" color-interpolation-filters="sRGB">
<feFlood flood-opacity="0" result="BackgroundImageFix"/>
<feColorMatrix in="SourceAlpha" type="matrix" values="0 0 0 0 0 0 0 0 0 0 0 0 0 0 0 0 0 0 127 0" result="hardAlpha"/>
<feOffset dx="-4" dy="2"/>
<feComposite in2="hardAlpha" operator="out"/>
<feColorMatrix type="matrix" values="0 0 0 0 0.945098 0 0 0 0 0.686275 0 0 0 0 0.866667 0 0 0 1 0"/>
<feBlend mode="normal" in2="BackgroundImageFix" result="effect1_dropShadow_305_607"/>
<feBlend mode="normal" in="SourceGraphic" in2="effect1_dropShadow_305_607" result="shape"/>
</filter>
<filter id="filter8_d_305_607" x="954" y="279" width="15" height="13" filterUnits="userSpaceOnUse" color-interpolation-filters="sRGB">
<feFlood flood-opacity="0" result="BackgroundImageFix"/>
<feColorMatrix in="SourceAlpha" type="matrix" values="0 0 0 0 0 0 0 0 0 0 0 0 0 0 0 0 0 0 127 0" result="hardAlpha"/>
<feOffset dx="-4" dy="2"/>
<feComposite in2="hardAlpha" operator="out"/>
<feColorMatrix type="matrix" values="0 0 0 0 0.945098 0 0 0 0 0.686275 0 0 0 0 0.866667 0 0 0 1 0"/>
<feBlend mode="normal" in2="BackgroundImageFix" result="effect1_dropShadow_305_607"/>
<feBlend mode="normal" in="SourceGraphic" in2="effect1_dropShadow_305_607" result="shape"/>
</filter>
<filter id="filter9_d_305_607" x="547" y="462" width="398" height="275" filterUnits="userSpaceOnUse" color-interpolation-filters="sRGB">
<feFlood flood-opacity="0" result="BackgroundImageFix"/>
<feColorMatrix in="SourceAlpha" type="matrix" values="0 0 0 0 0 0 0 0 0 0 0 0 0 0 0 0 0 0 127 0" result="hardAlpha"/>
<feOffset dx="-4" dy="4"/>
<feComposite in2="hardAlpha" operator="out"/>
<feColorMatrix type="matrix" values="0 0 0 0 0.945098 0 0 0 0 0.686275 0 0 0 0 0.866667 0 0 0 1 0"/>
<feBlend mode="normal" in2="BackgroundImageFix" result="effect1_dropShadow_305_607"/>
<feBlend mode="normal" in="SourceGraphic" in2="effect1_dropShadow_305_607" result="shape"/>
</filter>
<filter id="filter10_d_305_607" x="541" y="540" width="15" height="13" filterUnits="userSpaceOnUse" color-interpolation-filters="sRGB">
<feFlood flood-opacity="0" result="BackgroundImageFix"/>
<feColorMatrix in="SourceAlpha" type="matrix" values="0 0 0 0 0 0 0 0 0 0 0 0 0 0 0 0 0 0 127 0" result="hardAlpha"/>
<feOffset dx="-4" dy="2"/>
<feComposite in2="hardAlpha" operator="out"/>
<feColorMatrix type="matrix" values="0 0 0 0 0.945098 0 0 0 0 0.686275 0 0 0 0 0.866667 0 0 0 1 0"/>
<feBlend mode="normal" in2="BackgroundImageFix" result="effect1_dropShadow_305_607"/>
<feBlend mode="normal" in="SourceGraphic" in2="effect1_dropShadow_305_607" result="shape"/>
</filter>
<filter id="filter11_d_305_607" x="541" y="555" width="15" height="13" filterUnits="userSpaceOnUse" color-interpolation-filters="sRGB">
<feFlood flood-opacity="0" result="BackgroundImageFix"/>
<feColorMatrix in="SourceAlpha" type="matrix" values="0 0 0 0 0 0 0 0 0 0 0 0 0 0 0 0 0 0 127 0" result="hardAlpha"/>
<feOffset dx="-4" dy="2"/>
<feComposite in2="hardAlpha" operator="out"/>
<feColorMatrix type="matrix" values="0 0 0 0 0.945098 0 0 0 0 0.686275 0 0 0 0 0.866667 0 0 0 1 0"/>
<feBlend mode="normal" in2="BackgroundImageFix" result="effect1_dropShadow_305_607"/>
<feBlend mode="normal" in="SourceGraphic" in2="effect1_dropShadow_305_607" result="shape"/>
</filter>
</defs>
</svg>
