<svg width="19" height="18" viewBox="0 0 19 18" fill="none" xmlns="http://www.w3.org/2000/svg">
<path d="M4.80699 2.70509L4.80695 2.70514C4.21578 3.49692 3.62779 4.33662 3.07437 5.18026L3.07436 5.18027C2.6915 5.76387 2.34487 6.35182 2.02751 6.90479C1.01112 8.67667 0.499913 10.0145 0.5 11V11C0.5 14.0378 2.96243 16.5 6 16.5C9.03756 16.5 11.4999 14.0379 11.5 11L4.80699 2.70509ZM4.80699 2.70509C4.98481 2.46685 5.43144 1.90932 5.57095 1.73517C5.58996 1.71145 5.60326 1.69484 5.60941 1.68712M4.80699 2.70509L5.60941 1.68712M5.99996 2.81895L6.40099 3.35732C6.96979 4.12096 7.53978 4.91087 8.07433 5.72568C8.07434 5.7257 8.07435 5.72572 8.07436 5.72573L7.6563 6L5.99996 2.81895ZM5.99996 2.81895L5.59899 3.35736M5.99996 2.81895L5.59899 3.35736M5.59899 3.35736C5.0303 4.12097 4.46032 4.91087 3.92577 5.72568L5.59899 3.35736ZM5.60941 1.68712C5.70934 1.56248 5.85323 1.5 6 1.5C6.14688 1.5 6.29095 1.56257 6.39102 1.68754L6.7813 1.375C6.78683 1.38196 6.80131 1.40004 6.82277 1.42684C6.96474 1.60411 7.41216 2.16278 7.5938 2.40601M5.60941 1.68712L6.38979 1.68599C6.39656 1.69452 6.41318 1.71528 6.43732 1.74542C6.58574 1.93078 7.01836 2.47109 7.19313 2.70511L7.5938 2.40601M7.5938 2.40601L7.19318 2.70518M7.5938 2.40601L7.19318 2.70518M7.19318 2.70518C7.78407 3.49673 8.37205 4.33738 8.9257 5.18022M7.19318 2.70518L8.9257 5.18022M8.9257 5.18022C9.3085 5.76387 9.65525 6.35186 9.97258 6.90477C10.9889 8.67662 11.5 10.0145 11.5 11L8.9257 5.18022ZM17 4.5H17.5V4V3.50006C17.5 3.50004 17.5 3.50002 17.5 3.5C17.5001 2.39465 16.6043 1.5 15.5 1.5H15C14.7239 1.5 14.5 1.27596 14.5 1C14.5 0.724045 14.7239 0.5 15 0.5H15.5C17.1569 0.5 18.5 1.84313 18.5 3.5V14.5C18.5 16.1569 17.1569 17.5 15.5 17.5H15C14.7239 17.5 14.5 17.276 14.5 17C14.5 16.724 14.7239 16.5 15 16.5H15.5C16.6048 16.5 17.5 15.604 17.5 14.5V14V13.5H17H16C15.7239 13.5 15.5 13.276 15.5 13C15.5 12.724 15.7239 12.5 16 12.5H17H17.5V12V10V9.5H17H15C14.7239 9.5 14.5 9.27596 14.5 9C14.5 8.72404 14.7239 8.5 15 8.5H17H17.5V8V6V5.5H17H16C15.7239 5.5 15.5 5.27596 15.5 5C15.5 4.72404 15.7239 4.5 16 4.5H17Z" fill="#525252" stroke="#525252"/>
</svg>
