<svg width="26" height="15" viewBox="0 0 26 15" fill="none" xmlns="http://www.w3.org/2000/svg">
<path d="M8.04706 3.77725H7.55011C6.86477 3.77725 6.30919 4.33283 6.30919 5.01817C6.30919 5.70351 5.75319 6.25909 5.06785 6.25909C4.38251 6.25909 3.82651 6.81467 3.82651 7.50001C3.82651 8.18535 4.38251 8.74093 5.06785 8.74093C5.75319 8.74093 6.30919 9.2965 6.30919 9.98185C6.30919 10.6672 6.86477 11.2228 7.55011 11.2228H8.04706C8.49395 11.2228 8.79187 11.5206 8.79187 11.9673V12.9601C8.79187 13.4068 8.49395 13.7046 8.04706 13.7046H7.7988C6.90503 13.7046 6.30919 13.109 6.30919 12.1907C6.30919 11.6199 5.91196 11.2228 5.34094 11.2228H4.67062C4.17408 11.2228 3.82651 10.8753 3.82651 10.3789V9.90739C3.82651 9.21248 3.3548 8.74093 2.65965 8.74093H1.51761C1.12038 8.74093 0.84729 8.46792 0.84729 8.07083V7.00364C0.84729 6.55691 1.14521 6.25909 1.59209 6.25909H2.31207C3.20584 6.25909 3.82651 5.63863 3.82651 4.72035C3.82651 4.14952 4.19891 3.77725 4.76993 3.77725H5.41542C5.93679 3.77725 6.30919 3.40497 6.30919 2.88379V2.3626C6.30919 1.71732 6.73124 1.29541 7.37674 1.29541H8.22085C8.56843 1.29541 8.79187 1.51878 8.79187 1.86623V3.0327C8.79187 3.47943 8.49395 3.77725 8.04706 3.77725Z" fill="#525252"/>
<path fill-rule="evenodd" clip-rule="evenodd" d="M5.9619 3.60831C6.03041 3.55831 6.09042 3.49833 6.14043 3.42984C6.24815 3.28231 6.30947 3.09533 6.30947 2.88383V2.36265C6.30947 1.71737 6.73153 1.29546 7.37702 1.29546H8.22114C8.56871 1.29546 8.79215 1.51882 8.79215 1.86628V3.03274C8.79215 3.47947 8.49423 3.77729 8.04735 3.77729H7.55039C6.86505 3.77729 6.30947 4.33287 6.30947 5.01821C6.30947 5.70355 5.75347 6.25913 5.06813 6.25913C4.38279 6.25913 3.82679 6.81471 3.82679 7.50005C3.82679 8.18539 4.38279 8.74097 5.06813 8.74097C5.75347 8.74097 6.30947 9.29655 6.30947 9.98189C6.30947 10.6672 6.86505 11.2228 7.55039 11.2228H8.04735C8.49423 11.2228 8.79215 11.5206 8.79215 11.9674V12.9601C8.79215 13.4068 8.49423 13.7046 8.04735 13.7046H7.79908C6.90532 13.7046 6.30947 13.109 6.30947 12.1907C6.30947 11.9462 6.23656 11.7335 6.10829 11.5703C6.06545 11.5157 6.01643 11.4667 5.9619 11.4239C5.79862 11.2957 5.58588 11.2228 5.34123 11.2228H4.6709C4.17437 11.2228 3.82679 10.8754 3.82679 10.379V9.90743C3.82679 9.57378 3.71805 9.29163 3.52805 9.08843C3.51232 9.07161 3.49604 9.05533 3.47922 9.03961C3.27595 8.84968 2.9937 8.74097 2.65993 8.74097H1.5179C1.12067 8.74097 0.847575 8.46797 0.847575 8.07087V7.00368C0.847575 6.55695 1.1455 6.25913 1.59238 6.25913H2.31236C3.20612 6.25913 3.82679 5.63867 3.82679 4.72039C3.82679 4.14957 4.19919 3.77729 4.77021 3.77729H5.41571C5.62728 3.77729 5.81432 3.71599 5.9619 3.60831ZM6.65705 9.63443C6.65705 10.3198 7.21263 10.8754 7.89797 10.8754H8.04735C8.34978 10.8754 8.62881 10.9776 8.83311 11.1819C9.0374 11.3861 9.13973 11.665 9.13973 11.9674V12.9601C9.13973 13.2624 9.0374 13.5414 8.83311 13.7456C8.62881 13.9498 8.34978 14.0521 8.04735 14.0521H7.79908C7.2731 14.0521 6.80697 13.8752 6.47189 13.5363C6.1371 13.1976 5.9619 12.7263 5.9619 12.1907C5.9619 11.988 5.89281 11.8375 5.79371 11.7384C5.69461 11.6393 5.54402 11.5703 5.34123 11.5703H4.6709C4.33938 11.5703 4.03707 11.4528 3.81687 11.2327C3.59668 11.0126 3.47922 10.7104 3.47922 10.379V9.90743C3.47922 9.64049 3.39011 9.4411 3.25827 9.3093C3.12643 9.1775 2.92697 9.08843 2.65993 9.08843H1.5179C1.2376 9.08843 0.978181 8.99064 0.788003 8.80052C0.597826 8.61041 0.5 8.35108 0.5 8.07087V7.00368C0.5 6.70136 0.602326 6.42242 0.806624 6.21819C1.01092 6.01397 1.28995 5.91167 1.59238 5.91167H2.31236C2.67655 5.91167 2.96278 5.78681 3.15755 5.58985C3.35251 5.39269 3.47922 5.0995 3.47922 4.72039C3.47922 4.35795 3.59897 4.02865 3.8386 3.7891C4.07823 3.54955 4.40765 3.42984 4.77021 3.42984H5.41571C5.74511 3.42984 5.9619 3.21312 5.9619 2.88383V2.36265C5.9619 1.96275 6.0942 1.60251 6.35541 1.34138C6.61663 1.08025 6.977 0.947998 7.37702 0.947998H8.22114C8.47071 0.947998 8.70752 1.02971 8.88276 1.20488C9.05799 1.38006 9.13973 1.61679 9.13973 1.86628V3.03274C9.13973 3.33507 9.0374 3.614 8.83311 3.81823C8.62881 4.02246 8.34978 4.12475 8.04735 4.12475H7.89797C7.21263 4.12475 6.65705 4.68033 6.65705 5.36567C6.65705 6.05101 6.10147 6.60659 5.41613 6.60659H5.06783C4.57438 6.60659 4.17437 7.00661 4.17437 7.50005C4.17437 7.9935 4.57438 8.39351 5.06783 8.39351H5.41613C6.10147 8.39351 6.65705 8.94909 6.65705 9.63443Z" fill="#525252"/>
<path d="M19.9701 5.01817C19.9701 4.33283 19.4145 3.77725 18.7292 3.77725H18.2322C17.7853 3.77725 17.4874 3.47943 17.4874 3.0327V1.86623C17.4874 1.51878 17.7109 1.29541 18.0584 1.29541H18.9026C19.5481 1.29541 19.9701 1.71732 19.9701 2.3626V2.88379C19.9701 3.40497 20.3425 3.77725 20.8639 3.77725H21.5094C22.0804 3.77725 22.4528 4.14952 22.4528 4.72035C22.4528 5.63863 23.0735 6.25909 23.9672 6.25909H24.6872C25.1341 6.25909 25.432 6.55691 25.432 7.00364V8.07083C25.432 8.46792 25.1589 8.74093 24.7617 8.74093H23.6196C22.9245 8.74093 22.4528 9.21248 22.4528 9.90739V10.3789C22.4528 10.8753 22.1052 11.2228 21.6087 11.2228H20.9384C20.3673 11.2228 19.9701 11.6199 19.9701 12.1907C19.9701 13.109 19.3743 13.7046 18.4805 13.7046H18.2322C17.7853 13.7046 17.4874 13.4068 17.4874 12.9601V11.9673C17.4874 11.5206 17.7853 11.2228 18.2322 11.2228H18.7292C19.4145 11.2228 19.9701 10.6672 19.9701 9.98185C19.9701 9.2965 20.5261 8.74093 21.2114 8.74093C21.8968 8.74093 22.4528 8.18535 22.4528 7.50001C22.4528 6.81467 21.8968 6.25909 21.2114 6.25909C20.5261 6.25909 19.9701 5.70351 19.9701 5.01817Z" fill="#525252"/>
<path fill-rule="evenodd" clip-rule="evenodd" d="M20.1391 3.42984C20.0314 3.28231 19.97 3.09533 19.97 2.88383V2.36265C19.97 1.71737 19.548 1.29546 18.9025 1.29546H18.0584C17.7108 1.29546 17.4873 1.51882 17.4873 1.86628V3.03274C17.4873 3.47947 17.7853 3.77729 18.2321 3.77729H18.7291C19.4144 3.77729 19.97 4.33287 19.97 5.01821C19.97 5.70355 20.526 6.25913 21.2114 6.25913C21.8967 6.25913 22.4527 6.81471 22.4527 7.50005C22.4527 8.18539 21.8967 8.74097 21.2114 8.74097C20.526 8.74097 19.97 9.29655 19.97 9.98189C19.97 10.6672 19.4144 11.2228 18.7291 11.2228H18.2321C17.7853 11.2228 17.4873 11.5206 17.4873 11.9674V12.9601C17.4873 13.4068 17.7853 13.7046 18.2321 13.7046H18.4804C19.3742 13.7046 19.97 13.109 19.97 12.1907C19.97 11.9462 20.0429 11.7335 20.1712 11.5703C20.214 11.5157 20.2631 11.4667 20.3176 11.4239C20.4809 11.2957 20.6936 11.2228 20.9383 11.2228H21.6086C22.1051 11.2228 22.4527 10.8754 22.4527 10.379V9.90743C22.4527 9.57378 22.5614 9.29163 22.7515 9.08843C22.7672 9.07161 22.7835 9.05533 22.8003 9.03961C23.0035 8.84968 23.2858 8.74097 23.6196 8.74097H24.7616C25.1588 8.74097 25.4319 8.46797 25.4319 8.07087V7.00368C25.4319 6.55695 25.134 6.25913 24.6871 6.25913H23.9671C23.0734 6.25913 22.4527 5.63867 22.4527 4.72039C22.4527 4.14957 22.0803 3.77729 21.5093 3.77729H20.8638C20.6522 3.77729 20.4652 3.71599 20.3176 3.60831C20.2491 3.55831 20.1891 3.49833 20.1391 3.42984ZM19.6225 9.63443C19.6225 10.3198 19.0669 10.8754 18.3815 10.8754H18.2321C17.9297 10.8754 17.6507 10.9776 17.4464 11.1819C17.2421 11.3861 17.1398 11.665 17.1398 11.9674V12.9601C17.1398 13.2624 17.2421 13.5414 17.4464 13.7456C17.6507 13.9498 17.9297 14.0521 18.2321 14.0521H18.4804C19.0064 14.0521 19.4725 13.8752 19.8076 13.5363C20.1424 13.1976 20.3176 12.7263 20.3176 12.1907C20.3176 11.988 20.3867 11.8375 20.4858 11.7384C20.5849 11.6393 20.7355 11.5703 20.9383 11.5703H21.6086C21.9401 11.5703 22.2424 11.4528 22.4626 11.2327C22.6828 11.0126 22.8003 10.7104 22.8003 10.379V9.90743C22.8003 9.64049 22.8894 9.4411 23.0212 9.3093C23.1531 9.1775 23.3525 9.08843 23.6196 9.08843H24.7616C25.0419 9.08843 25.3013 8.99064 25.4915 8.80052C25.6817 8.61041 25.7795 8.35108 25.7795 8.07087V7.00368C25.7795 6.70136 25.6772 6.42242 25.4729 6.21819C25.2686 6.01397 24.9895 5.91167 24.6871 5.91167H23.9671C23.6029 5.91167 23.3167 5.78681 23.122 5.58985C22.927 5.39269 22.8003 5.0995 22.8003 4.72039C22.8003 4.35795 22.6805 4.02865 22.4409 3.7891C22.2013 3.54955 21.8719 3.42984 21.5093 3.42984H20.8638C20.5344 3.42984 20.3176 3.21312 20.3176 2.88383V2.36265C20.3176 1.96275 20.1853 1.60251 19.9241 1.34138C19.6629 1.08025 19.3025 0.947998 18.9025 0.947998H18.0584C17.8088 0.947998 17.572 1.02971 17.3967 1.20488C17.2215 1.38006 17.1398 1.61679 17.1398 1.86628V3.03274C17.1398 3.33507 17.2421 3.614 17.4464 3.81823C17.6507 4.02246 17.9297 4.12475 18.2321 4.12475H18.3815C19.0669 4.12475 19.6225 4.68033 19.6225 5.36567C19.6225 6.05101 20.178 6.60659 20.8634 6.60659H21.2117C21.7051 6.60659 22.1051 7.00661 22.1051 7.50005C22.1051 7.9935 21.7051 8.39351 21.2117 8.39351H20.8634C20.178 8.39351 19.6225 8.94909 19.6225 9.63443Z" fill="#525252"/>
</svg>
