<svg width="1410" height="77" viewBox="0 0 1410 77" fill="none" xmlns="http://www.w3.org/2000/svg">
<g id="Menu [Home]">
<rect id="Border" x="0.5" y="-0.5" width="1408" height="76" rx="29.5" transform="matrix(1 0 0 -1 0.5 76)" fill="#FFFEF6" stroke="#D400A6"/>
<g id="Accessibility Icon Idle">
<g id="Outline">
<rect id="Rectangle 2" x="1343" y="21.5" width="49" height="34" rx="15.5" fill="#FFFEF6" stroke="#F1AFDD"/>
</g>
<g id="Person">
<path id="Vector" d="M1367.5 30.8849C1367.07 30.8849 1366.64 30.7563 1366.28 30.5154C1365.92 30.2745 1365.64 29.9321 1365.47 29.5314C1365.31 29.1308 1365.27 28.69 1365.35 28.2647C1365.43 27.8394 1365.64 27.4488 1365.95 27.1422C1366.26 26.8355 1366.65 26.6267 1367.07 26.5421C1367.5 26.4575 1367.94 26.501 1368.34 26.6669C1368.74 26.8328 1369.08 27.1138 1369.32 27.4744C1369.56 27.8349 1369.69 28.2587 1369.69 28.6923C1369.69 29.2736 1369.46 29.8309 1369.05 30.2419C1368.64 30.6529 1368.08 30.8841 1367.5 30.8849Z" fill="#D400A6" stroke="#D400A6"/>
<path id="Vector_2" d="M1376.05 31.917L1376.05 31.9168C1376.01 31.9286 1375.97 31.9416 1375.92 31.9557L1375.92 31.9579L1375.92 31.9579C1375.03 32.2177 1370.62 33.4647 1367.48 33.4647C1364.56 33.4647 1360.54 32.3859 1359.29 32.0288L1359.26 32.0225L1359.24 32.0142C1359.13 31.9724 1359.02 31.9368 1358.91 31.9076L1358.91 31.9073C1358.67 31.8439 1358.47 31.9204 1358.3 32.1133C1358.12 32.3222 1358 32.646 1358 32.9594C1358 33.2019 1358.1 33.3808 1358.29 33.5476C1358.51 33.7294 1358.82 33.8767 1359.19 34.0163L1376.05 31.917ZM1376.05 31.917L1376.07 31.9129M1376.05 31.917L1376.07 31.9129M1376.07 31.9129L1376.08 31.9096L1376.09 31.9069C1376.09 31.9068 1376.09 31.9067 1376.09 31.9067C1376.33 31.8439 1376.53 31.9204 1376.7 32.1136C1376.88 32.323 1377 32.6471 1377 32.9604C1377 33.205 1376.9 33.3856 1376.7 33.5544C1376.48 33.7384 1376.16 33.8864 1375.79 34.0274L1375.78 34.0278C1375.78 34.0315 1375.77 34.0347 1375.75 34.0374L1375.74 34.0423L1375.72 34.0486L1371.43 35.5491L1371.43 35.549L1371.42 35.553C1371.11 35.668 1370.88 35.7908 1370.7 35.909C1370.54 36.0164 1370.39 36.1491 1370.31 36.3023L1370.3 36.3131C1370.3 36.3138 1370.3 36.3146 1370.3 36.3153L1370.3 36.3206L1370.3 36.321C1370.17 36.5761 1370.04 37.134 1370.24 38.3925L1370.51 40.5486L1370.52 40.5626L1370.52 40.5766L1372.09 48.9774L1372.09 48.987L1372.09 48.9965C1372.1 49.0459 1372.11 49.0987 1372.12 49.1547C1372.16 49.3995 1372.08 49.6306 1371.93 49.8023C1371.77 49.9721 1371.5 50.1165 1371.08 50.1165C1370.75 50.1165 1370.56 50.0174 1370.42 49.8775C1370.27 49.7227 1370.15 49.475 1370.06 49.1176C1370.04 49.0357 1370.02 48.9549 1370 48.8549L1370 48.8361L1369.51 48.9281L1370 48.8361C1369.9 48.2984 1369.55 46.4333 1369.14 44.6999C1368.93 43.8353 1368.71 42.9903 1368.5 42.3563C1368.4 42.0424 1368.29 41.7593 1368.18 41.547C1368.12 41.4428 1368.05 41.3314 1367.97 41.2391C1367.9 41.1613 1367.73 41.005 1367.48 41.005C1367.23 41.005 1367.06 41.1584 1366.99 41.2364C1366.91 41.3279 1366.84 41.4381 1366.78 41.5404C1366.68 41.7491 1366.57 42.0268 1366.47 42.3342C1366.26 42.9554 1366.05 43.7842 1365.85 44.6361C1365.46 46.3442 1365.11 48.1985 1365 48.7949L1365 48.8184C1364.98 48.9451 1364.96 49.0498 1364.93 49.1523C1364.84 49.4979 1364.72 49.7362 1364.57 49.8851C1364.43 50.0203 1364.24 50.1165 1363.92 50.1165C1363.5 50.1165 1363.23 49.9728 1363.07 49.8035C1362.92 49.6341 1362.84 49.4068 1362.88 49.1657L1362.89 49.1147L1362.89 49.1147L1362.89 49.1046C1362.89 49.088 1362.89 49.0721 1362.9 49.0569L1362.9 49.0569L1362.9 49.0448L1364.45 40.5737L1364.45 40.5608L1364.45 40.5477L1364.73 38.3917C1364.76 38.2122 1364.81 37.8558 1364.84 37.4749C1364.86 37.1121 1364.86 36.6356 1364.72 36.2703C1364.66 36.1335 1364.58 35.9775 1364.41 35.8272C1364.25 35.6848 1364.04 35.5664 1363.77 35.4629L1363.76 35.4572M1376.07 31.9129L1363.76 35.4572M1363.76 35.4572L1363.74 35.4525M1363.76 35.4572L1363.74 35.4525M1363.74 35.4525L1359.27 34.0537M1363.74 35.4525L1359.27 34.0537M1359.27 34.0537C1359.24 34.0392 1359.21 34.0267 1359.19 34.0163L1359.27 34.0537Z" fill="#D400A6" stroke="#D400A6"/>
</g>
</g>
<g id="Terms of Use Button Idle">
<rect x="1205" y="21.5" width="121" height="34" rx="15.5" fill="#FFFEF6"/>
<rect x="1205" y="21.5" width="121" height="34" rx="15.5" stroke="#F1AFDD"/>
<text id="Terms of Use" fill="#D400A6" xml:space="preserve" style="white-space: pre" font-family="Inter" font-size="14" font-weight="600" letter-spacing="-0.05em"><tspan x="1224.5" y="43.5909">Terms of Use</tspan></text>
</g>
<g id="Accessibility Statement Button Idle">
<rect x="1000" y="21.5" width="188" height="34" rx="15.5" fill="#FFFEF6"/>
<rect x="1000" y="21.5" width="188" height="34" rx="15.5" stroke="#F1AFDD"/>
<text id="Accessibility Statement" fill="#D400A6" xml:space="preserve" style="white-space: pre" font-family="Inter" font-size="14" font-weight="600" letter-spacing="-0.05em"><tspan x="1021" y="43.5909">Accessibility Statement</tspan></text>
</g>
<g id="About Button Idle">
<rect x="905" y="21.5" width="78" height="34" rx="15.5" fill="#FFFEF6"/>
<rect x="905" y="21.5" width="78" height="34" rx="15.5" stroke="#F1AFDD"/>
<text id="About" fill="#D400A6" xml:space="preserve" style="white-space: pre" font-family="Inter" font-size="14" font-weight="600" letter-spacing="-0.05em"><tspan x="924.5" y="43.5909">About</tspan></text>
</g>
<g id="Marquee" clip-path="url(#clip0_305_558)">
<g id="Group 178">
<text id="ASSET LIBRARY" fill="#F1AFDD" stroke="#F1AFDD" stroke-width="0.3" xml:space="preserve" style="white-space: pre" font-family="Lakonet" font-size="25" letter-spacing="0.03em"><tspan x="139" y="47.25">ASSET LIBRARY</tspan></text>
</g>
<g id="Group 179">
<text id="ASSET LIBRARY_2" fill="#F1AFDD" stroke="#F1AFDD" stroke-width="0.3" xml:space="preserve" style="white-space: pre" font-family="Lakonet" font-size="25" letter-spacing="0.03em"><tspan x="340" y="47.25">ASSET LIBRARY</tspan></text>
</g>
<g id="Group 180">
<text id="ASSET LIBRARY_3" fill="#F1AFDD" stroke="#F1AFDD" stroke-width="0.3" xml:space="preserve" style="white-space: pre" font-family="Lakonet" font-size="25" letter-spacing="0.03em"><tspan x="541" y="47.25">ASSET LIBRARY</tspan></text>
</g>
<g id="Group 181">
<text id="ASSET LIBRARY_4" fill="#F1AFDD" stroke="#F1AFDD" stroke-width="0.3" xml:space="preserve" style="white-space: pre" font-family="Lakonet" font-size="25" letter-spacing="0.03em"><tspan x="742" y="47.25">ASSET LIBRARY</tspan></text>
</g>
<g id="Group 182">
<text id="ASSET LIBRARY_5" fill="#F1AFDD" stroke="#F1AFDD" stroke-width="0.3" xml:space="preserve" style="white-space: pre" font-family="Lakonet" font-size="25" letter-spacing="0.03em"><tspan x="-62" y="47.25">ASSET LIBRARY</tspan></text>
</g>
<g id="Group 371">
<path id="*" d="M129.691 42.097V40.3934H128.157V43.7324C128.157 44.3457 127.748 44.7545 127.135 44.7545H126.624C126.01 44.7545 125.601 44.3457 125.601 43.7324V40.3934H124.033V42.097C124.033 42.7102 123.624 43.1191 123.011 43.1191H122.5C121.886 43.1191 121.477 42.7102 121.477 42.097V41.4155C121.477 40.8023 121.886 40.3934 122.5 40.3934H123.011C123.624 40.3934 124.033 39.9845 124.033 39.3713V38.8602C124.033 38.2469 123.624 37.8381 123.011 37.8381H122.5C121.886 37.8381 121.477 37.4292 121.477 36.8159V36.1345C121.477 35.5212 121.886 35.1124 122.5 35.1124H123.011C123.624 35.1124 124.033 35.5212 124.033 36.1345V37.8381H125.601V34.4991C125.601 33.8858 126.01 33.4769 126.624 33.4769H127.135C127.748 33.4769 128.157 33.8858 128.157 34.4991V37.8381H129.691V36.1345C129.691 35.5212 130.1 35.1124 130.714 35.1124H131.259C131.873 35.1124 132.281 35.5212 132.281 36.1345V36.8159C132.281 37.4292 131.873 37.8381 131.259 37.8381H130.714C130.1 37.8381 129.691 38.2469 129.691 38.8602V39.3713C129.691 39.9845 130.1 40.3934 130.714 40.3934H131.259C131.873 40.3934 132.281 40.8023 132.281 41.4155V42.097C132.281 42.7102 131.873 43.1191 131.259 43.1191H130.714C130.1 43.1191 129.691 42.7102 129.691 42.097Z" fill="#F1AFDD"/>
<path id="* (Stroke)" fill-rule="evenodd" clip-rule="evenodd" d="M129.691 40.3936H128.157V43.7326C128.157 44.3459 127.748 44.7548 127.135 44.7548H126.624C126.01 44.7548 125.601 44.3459 125.601 43.7326V40.3936H124.033V42.0972C124.033 42.7105 123.624 43.1193 123.011 43.1193H122.5C121.886 43.1193 121.477 42.7105 121.477 42.0972V41.4157C121.477 40.8024 121.886 40.3936 122.5 40.3936H123.011C123.219 40.3936 123.403 40.3466 123.556 40.2606C123.702 40.1789 123.819 40.062 123.9 39.9166C123.986 39.7636 124.033 39.5793 124.033 39.3714V38.8603C124.033 38.6525 123.986 38.4681 123.9 38.3152C123.819 38.1698 123.702 38.0528 123.556 37.9711C123.403 37.8852 123.219 37.8382 123.011 37.8382H122.5C121.886 37.8382 121.477 37.4293 121.477 36.816V36.1346C121.477 35.5213 121.886 35.1125 122.5 35.1125H123.011C123.624 35.1125 124.033 35.5213 124.033 36.1346V37.8382H125.601V34.4992C125.601 33.8859 126.01 33.477 126.624 33.477H127.135C127.748 33.477 128.157 33.8859 128.157 34.4992V37.8382H129.691V36.1346C129.691 35.5213 130.1 35.1125 130.714 35.1125H131.259C131.873 35.1125 132.282 35.5213 132.282 36.1346V36.816C132.282 37.4293 131.873 37.8382 131.259 37.8382H130.714C130.506 37.8382 130.321 37.8852 130.168 37.9711C130.023 38.0528 129.906 38.1698 129.824 38.3152C129.738 38.4681 129.691 38.6525 129.691 38.8603V39.3714C129.691 39.5793 129.738 39.7636 129.824 39.9166C129.906 40.062 130.023 40.1789 130.168 40.2606C130.321 40.3466 130.506 40.3936 130.714 40.3936H131.259C131.873 40.3936 132.282 40.8024 132.282 41.4157V42.0972C132.282 42.7105 131.873 43.1193 131.259 43.1193H130.714C130.1 43.1193 129.691 42.7105 129.691 42.0972V40.3936ZM129.214 40.8706H128.635V43.7326C128.635 44.1477 128.494 44.5306 128.214 44.811C127.933 45.0913 127.55 45.2318 127.135 45.2318H126.624C126.209 45.2318 125.825 45.0913 125.545 44.811C125.265 44.5306 125.124 44.1477 125.124 43.7326V40.8706H124.511V42.0972C124.511 42.5122 124.37 42.8951 124.09 43.1755C123.809 43.4559 123.426 43.5963 123.011 43.5963H122.5C122.084 43.5963 121.701 43.4559 121.421 43.1755C121.14 42.8951 121 42.5122 121 42.0972V41.4157C121 41.0007 121.14 40.6177 121.421 40.3374C121.701 40.057 122.084 39.9166 122.5 39.9166H123.011C123.209 39.9166 123.337 39.8526 123.415 39.7752C123.492 39.6978 123.556 39.5697 123.556 39.3714V38.8603C123.556 38.6621 123.492 38.534 123.415 38.4566C123.337 38.3792 123.209 38.3152 123.011 38.3152H122.5C122.084 38.3152 121.701 38.1748 121.421 37.8944C121.14 37.614 121 37.2311 121 36.816V36.1346C121 35.7196 121.14 35.3366 121.421 35.0562C121.701 34.7759 122.084 34.6354 122.5 34.6354H123.011C123.426 34.6354 123.809 34.7759 124.09 35.0562C124.37 35.3366 124.511 35.7196 124.511 36.1346V37.3612H125.124V34.4992C125.124 34.0841 125.265 33.7012 125.545 33.4208C125.825 33.1404 126.209 33 126.624 33H127.135C127.55 33 127.933 33.1404 128.214 33.4208C128.494 33.7012 128.635 34.0841 128.635 34.4992V37.3612H129.214V36.1346C129.214 35.7196 129.355 35.3366 129.635 35.0562C129.915 34.7759 130.299 34.6354 130.714 34.6354H131.259C131.674 34.6354 132.057 34.7759 132.338 35.0562C132.618 35.3366 132.759 35.7196 132.759 36.1346V36.816C132.759 37.2311 132.618 37.614 132.338 37.8944C132.057 38.1748 131.674 38.3152 131.259 38.3152H130.714C130.515 38.3152 130.387 38.3792 130.31 38.4566C130.232 38.534 130.168 38.6621 130.168 38.8603V39.3714C130.168 39.5697 130.232 39.6978 130.31 39.7752C130.387 39.8526 130.515 39.9166 130.714 39.9166H131.259C131.674 39.9166 132.057 40.057 132.338 40.3374C132.618 40.6177 132.759 41.0007 132.759 41.4157V42.0972C132.759 42.5122 132.618 42.8951 132.338 43.1755C132.057 43.4559 131.674 43.5963 131.259 43.5963H130.714C130.299 43.5963 129.915 43.4559 129.635 43.1755C129.355 42.8951 129.214 42.5122 129.214 42.0972V40.8706Z" fill="#F1AFDD"/>
</g>
<g id="Group 372">
<path id="*_2" d="M330.691 42.097V40.3934H329.157V43.7324C329.157 44.3457 328.748 44.7545 328.135 44.7545H327.624C327.01 44.7545 326.601 44.3457 326.601 43.7324V40.3934H325.033V42.097C325.033 42.7102 324.624 43.1191 324.011 43.1191H323.5C322.886 43.1191 322.477 42.7102 322.477 42.097V41.4155C322.477 40.8023 322.886 40.3934 323.5 40.3934H324.011C324.624 40.3934 325.033 39.9845 325.033 39.3713V38.8602C325.033 38.2469 324.624 37.8381 324.011 37.8381H323.5C322.886 37.8381 322.477 37.4292 322.477 36.8159V36.1345C322.477 35.5212 322.886 35.1124 323.5 35.1124H324.011C324.624 35.1124 325.033 35.5212 325.033 36.1345V37.8381H326.601V34.4991C326.601 33.8858 327.01 33.4769 327.624 33.4769H328.135C328.748 33.4769 329.157 33.8858 329.157 34.4991V37.8381H330.691V36.1345C330.691 35.5212 331.1 35.1124 331.714 35.1124H332.259C332.872 35.1124 333.281 35.5212 333.281 36.1345V36.8159C333.281 37.4292 332.872 37.8381 332.259 37.8381H331.714C331.1 37.8381 330.691 38.2469 330.691 38.8602V39.3713C330.691 39.9845 331.1 40.3934 331.714 40.3934H332.259C332.872 40.3934 333.281 40.8023 333.281 41.4155V42.097C333.281 42.7102 332.872 43.1191 332.259 43.1191H331.714C331.1 43.1191 330.691 42.7102 330.691 42.097Z" fill="#F1AFDD"/>
<path id="* (Stroke)_2" fill-rule="evenodd" clip-rule="evenodd" d="M330.691 40.3936H329.157V43.7326C329.157 44.3459 328.748 44.7548 328.135 44.7548H327.624C327.01 44.7548 326.601 44.3459 326.601 43.7326V40.3936H325.033V42.0972C325.033 42.7105 324.624 43.1193 324.011 43.1193H323.5C322.886 43.1193 322.477 42.7105 322.477 42.0972V41.4157C322.477 40.8024 322.886 40.3936 323.5 40.3936H324.011C324.219 40.3936 324.403 40.3466 324.556 40.2606C324.702 40.1789 324.819 40.062 324.9 39.9166C324.986 39.7636 325.033 39.5793 325.033 39.3714V38.8603C325.033 38.6525 324.986 38.4681 324.9 38.3152C324.819 38.1698 324.702 38.0528 324.556 37.9711C324.403 37.8852 324.219 37.8382 324.011 37.8382H323.5C322.886 37.8382 322.477 37.4293 322.477 36.816V36.1346C322.477 35.5213 322.886 35.1125 323.5 35.1125H324.011C324.624 35.1125 325.033 35.5213 325.033 36.1346V37.8382H326.601V34.4992C326.601 33.8859 327.01 33.477 327.624 33.477H328.135C328.748 33.477 329.157 33.8859 329.157 34.4992V37.8382H330.691V36.1346C330.691 35.5213 331.1 35.1125 331.714 35.1125H332.259C332.873 35.1125 333.282 35.5213 333.282 36.1346V36.816C333.282 37.4293 332.873 37.8382 332.259 37.8382H331.714C331.506 37.8382 331.321 37.8852 331.168 37.9711C331.023 38.0528 330.906 38.1698 330.824 38.3152C330.738 38.4681 330.691 38.6525 330.691 38.8603V39.3714C330.691 39.5793 330.738 39.7636 330.824 39.9166C330.906 40.062 331.023 40.1789 331.168 40.2606C331.321 40.3466 331.506 40.3936 331.714 40.3936H332.259C332.873 40.3936 333.282 40.8024 333.282 41.4157V42.0972C333.282 42.7105 332.873 43.1193 332.259 43.1193H331.714C331.1 43.1193 330.691 42.7105 330.691 42.0972V40.3936ZM330.214 40.8706H329.635V43.7326C329.635 44.1477 329.494 44.5306 329.214 44.811C328.933 45.0913 328.55 45.2318 328.135 45.2318H327.624C327.209 45.2318 326.825 45.0913 326.545 44.811C326.265 44.5306 326.124 44.1477 326.124 43.7326V40.8706H325.511V42.0972C325.511 42.5122 325.37 42.8951 325.09 43.1755C324.809 43.4559 324.426 43.5963 324.011 43.5963H323.5C323.084 43.5963 322.701 43.4559 322.421 43.1755C322.14 42.8951 322 42.5122 322 42.0972V41.4157C322 41.0007 322.14 40.6177 322.421 40.3374C322.701 40.057 323.084 39.9166 323.5 39.9166H324.011C324.209 39.9166 324.337 39.8526 324.415 39.7752C324.492 39.6978 324.556 39.5697 324.556 39.3714V38.8603C324.556 38.6621 324.492 38.534 324.415 38.4566C324.337 38.3792 324.209 38.3152 324.011 38.3152H323.5C323.084 38.3152 322.701 38.1748 322.421 37.8944C322.14 37.614 322 37.2311 322 36.816V36.1346C322 35.7196 322.14 35.3366 322.421 35.0562C322.701 34.7759 323.084 34.6354 323.5 34.6354H324.011C324.426 34.6354 324.809 34.7759 325.09 35.0562C325.37 35.3366 325.511 35.7196 325.511 36.1346V37.3612H326.124V34.4992C326.124 34.0841 326.265 33.7012 326.545 33.4208C326.825 33.1404 327.209 33 327.624 33H328.135C328.55 33 328.933 33.1404 329.214 33.4208C329.494 33.7012 329.635 34.0841 329.635 34.4992V37.3612H330.214V36.1346C330.214 35.7196 330.355 35.3366 330.635 35.0562C330.915 34.7759 331.299 34.6354 331.714 34.6354H332.259C332.674 34.6354 333.057 34.7759 333.338 35.0562C333.618 35.3366 333.759 35.7196 333.759 36.1346V36.816C333.759 37.2311 333.618 37.614 333.338 37.8944C333.057 38.1748 332.674 38.3152 332.259 38.3152H331.714C331.515 38.3152 331.387 38.3792 331.31 38.4566C331.232 38.534 331.168 38.6621 331.168 38.8603V39.3714C331.168 39.5697 331.232 39.6978 331.31 39.7752C331.387 39.8526 331.515 39.9166 331.714 39.9166H332.259C332.674 39.9166 333.057 40.057 333.338 40.3374C333.618 40.6177 333.759 41.0007 333.759 41.4157V42.0972C333.759 42.5122 333.618 42.8951 333.338 43.1755C333.057 43.4559 332.674 43.5963 332.259 43.5963H331.714C331.299 43.5963 330.915 43.4559 330.635 43.1755C330.355 42.8951 330.214 42.5122 330.214 42.0972V40.8706Z" fill="#F1AFDD"/>
</g>
<g id="Group 373">
<path id="*_3" d="M531.691 42.097V40.3934H530.157V43.7324C530.157 44.3457 529.748 44.7545 529.135 44.7545H528.624C528.01 44.7545 527.601 44.3457 527.601 43.7324V40.3934H526.033V42.097C526.033 42.7102 525.624 43.1191 525.011 43.1191H524.5C523.886 43.1191 523.477 42.7102 523.477 42.097V41.4155C523.477 40.8023 523.886 40.3934 524.5 40.3934H525.011C525.624 40.3934 526.033 39.9845 526.033 39.3713V38.8602C526.033 38.2469 525.624 37.8381 525.011 37.8381H524.5C523.886 37.8381 523.477 37.4292 523.477 36.8159V36.1345C523.477 35.5212 523.886 35.1124 524.5 35.1124H525.011C525.624 35.1124 526.033 35.5212 526.033 36.1345V37.8381H527.601V34.4991C527.601 33.8858 528.01 33.4769 528.624 33.4769H529.135C529.748 33.4769 530.157 33.8858 530.157 34.4991V37.8381H531.691V36.1345C531.691 35.5212 532.1 35.1124 532.714 35.1124H533.259C533.872 35.1124 534.281 35.5212 534.281 36.1345V36.8159C534.281 37.4292 533.872 37.8381 533.259 37.8381H532.714C532.1 37.8381 531.691 38.2469 531.691 38.8602V39.3713C531.691 39.9845 532.1 40.3934 532.714 40.3934H533.259C533.872 40.3934 534.281 40.8023 534.281 41.4155V42.097C534.281 42.7102 533.872 43.1191 533.259 43.1191H532.714C532.1 43.1191 531.691 42.7102 531.691 42.097Z" fill="#F1AFDD"/>
<path id="* (Stroke)_3" fill-rule="evenodd" clip-rule="evenodd" d="M531.691 40.3936H530.157V43.7326C530.157 44.3459 529.748 44.7548 529.135 44.7548H528.624C528.01 44.7548 527.601 44.3459 527.601 43.7326V40.3936H526.033V42.0972C526.033 42.7105 525.624 43.1193 525.011 43.1193H524.5C523.886 43.1193 523.477 42.7105 523.477 42.0972V41.4157C523.477 40.8024 523.886 40.3936 524.5 40.3936H525.011C525.219 40.3936 525.403 40.3466 525.556 40.2606C525.702 40.1789 525.819 40.062 525.9 39.9166C525.986 39.7636 526.033 39.5793 526.033 39.3714V38.8603C526.033 38.6525 525.986 38.4681 525.9 38.3152C525.819 38.1698 525.702 38.0528 525.556 37.9711C525.403 37.8852 525.219 37.8382 525.011 37.8382H524.5C523.886 37.8382 523.477 37.4293 523.477 36.816V36.1346C523.477 35.5213 523.886 35.1125 524.5 35.1125H525.011C525.624 35.1125 526.033 35.5213 526.033 36.1346V37.8382H527.601V34.4992C527.601 33.8859 528.01 33.477 528.624 33.477H529.135C529.748 33.477 530.157 33.8859 530.157 34.4992V37.8382H531.691V36.1346C531.691 35.5213 532.1 35.1125 532.714 35.1125H533.259C533.873 35.1125 534.282 35.5213 534.282 36.1346V36.816C534.282 37.4293 533.873 37.8382 533.259 37.8382H532.714C532.506 37.8382 532.321 37.8852 532.168 37.9711C532.023 38.0528 531.906 38.1698 531.824 38.3152C531.738 38.4681 531.691 38.6525 531.691 38.8603V39.3714C531.691 39.5793 531.738 39.7636 531.824 39.9166C531.906 40.062 532.023 40.1789 532.168 40.2606C532.321 40.3466 532.506 40.3936 532.714 40.3936H533.259C533.873 40.3936 534.282 40.8024 534.282 41.4157V42.0972C534.282 42.7105 533.873 43.1193 533.259 43.1193H532.714C532.1 43.1193 531.691 42.7105 531.691 42.0972V40.3936ZM531.214 40.8706H530.635V43.7326C530.635 44.1477 530.494 44.5306 530.214 44.811C529.933 45.0913 529.55 45.2318 529.135 45.2318H528.624C528.209 45.2318 527.825 45.0913 527.545 44.811C527.265 44.5306 527.124 44.1477 527.124 43.7326V40.8706H526.511V42.0972C526.511 42.5122 526.37 42.8951 526.09 43.1755C525.809 43.4559 525.426 43.5963 525.011 43.5963H524.5C524.084 43.5963 523.701 43.4559 523.421 43.1755C523.14 42.8951 523 42.5122 523 42.0972V41.4157C523 41.0007 523.14 40.6177 523.421 40.3374C523.701 40.057 524.084 39.9166 524.5 39.9166H525.011C525.209 39.9166 525.337 39.8526 525.415 39.7752C525.492 39.6978 525.556 39.5697 525.556 39.3714V38.8603C525.556 38.6621 525.492 38.534 525.415 38.4566C525.337 38.3792 525.209 38.3152 525.011 38.3152H524.5C524.084 38.3152 523.701 38.1748 523.421 37.8944C523.14 37.614 523 37.2311 523 36.816V36.1346C523 35.7196 523.14 35.3366 523.421 35.0562C523.701 34.7759 524.084 34.6354 524.5 34.6354H525.011C525.426 34.6354 525.809 34.7759 526.09 35.0562C526.37 35.3366 526.511 35.7196 526.511 36.1346V37.3612H527.124V34.4992C527.124 34.0841 527.265 33.7012 527.545 33.4208C527.825 33.1404 528.209 33 528.624 33H529.135C529.55 33 529.933 33.1404 530.214 33.4208C530.494 33.7012 530.635 34.0841 530.635 34.4992V37.3612H531.214V36.1346C531.214 35.7196 531.355 35.3366 531.635 35.0562C531.915 34.7759 532.299 34.6354 532.714 34.6354H533.259C533.674 34.6354 534.057 34.7759 534.338 35.0562C534.618 35.3366 534.759 35.7196 534.759 36.1346V36.816C534.759 37.2311 534.618 37.614 534.338 37.8944C534.057 38.1748 533.674 38.3152 533.259 38.3152H532.714C532.515 38.3152 532.387 38.3792 532.31 38.4566C532.232 38.534 532.168 38.6621 532.168 38.8603V39.3714C532.168 39.5697 532.232 39.6978 532.31 39.7752C532.387 39.8526 532.515 39.9166 532.714 39.9166H533.259C533.674 39.9166 534.057 40.057 534.338 40.3374C534.618 40.6177 534.759 41.0007 534.759 41.4157V42.0972C534.759 42.5122 534.618 42.8951 534.338 43.1755C534.057 43.4559 533.674 43.5963 533.259 43.5963H532.714C532.299 43.5963 531.915 43.4559 531.635 43.1755C531.355 42.8951 531.214 42.5122 531.214 42.0972V40.8706Z" fill="#F1AFDD"/>
</g>
<g id="Group 374">
<path id="*_4" d="M732.691 42.097V40.3934H731.157V43.7324C731.157 44.3457 730.748 44.7545 730.135 44.7545H729.624C729.01 44.7545 728.601 44.3457 728.601 43.7324V40.3934H727.033V42.097C727.033 42.7102 726.624 43.1191 726.011 43.1191H725.5C724.886 43.1191 724.477 42.7102 724.477 42.097V41.4155C724.477 40.8023 724.886 40.3934 725.5 40.3934H726.011C726.624 40.3934 727.033 39.9845 727.033 39.3713V38.8602C727.033 38.2469 726.624 37.8381 726.011 37.8381H725.5C724.886 37.8381 724.477 37.4292 724.477 36.8159V36.1345C724.477 35.5212 724.886 35.1124 725.5 35.1124H726.011C726.624 35.1124 727.033 35.5212 727.033 36.1345V37.8381H728.601V34.4991C728.601 33.8858 729.01 33.4769 729.624 33.4769H730.135C730.748 33.4769 731.157 33.8858 731.157 34.4991V37.8381H732.691V36.1345C732.691 35.5212 733.1 35.1124 733.714 35.1124H734.259C734.872 35.1124 735.281 35.5212 735.281 36.1345V36.8159C735.281 37.4292 734.872 37.8381 734.259 37.8381H733.714C733.1 37.8381 732.691 38.2469 732.691 38.8602V39.3713C732.691 39.9845 733.1 40.3934 733.714 40.3934H734.259C734.872 40.3934 735.281 40.8023 735.281 41.4155V42.097C735.281 42.7102 734.872 43.1191 734.259 43.1191H733.714C733.1 43.1191 732.691 42.7102 732.691 42.097Z" fill="#F1AFDD"/>
<path id="* (Stroke)_4" fill-rule="evenodd" clip-rule="evenodd" d="M732.691 40.3936H731.157V43.7326C731.157 44.3459 730.748 44.7548 730.135 44.7548H729.624C729.01 44.7548 728.601 44.3459 728.601 43.7326V40.3936H727.033V42.0972C727.033 42.7105 726.624 43.1193 726.011 43.1193H725.5C724.886 43.1193 724.477 42.7105 724.477 42.0972V41.4157C724.477 40.8024 724.886 40.3936 725.5 40.3936H726.011C726.219 40.3936 726.403 40.3466 726.556 40.2606C726.702 40.1789 726.819 40.062 726.9 39.9166C726.986 39.7636 727.033 39.5793 727.033 39.3714V38.8603C727.033 38.6525 726.986 38.4681 726.9 38.3152C726.819 38.1698 726.702 38.0528 726.556 37.9711C726.403 37.8852 726.219 37.8382 726.011 37.8382H725.5C724.886 37.8382 724.477 37.4293 724.477 36.816V36.1346C724.477 35.5213 724.886 35.1125 725.5 35.1125H726.011C726.624 35.1125 727.033 35.5213 727.033 36.1346V37.8382H728.601V34.4992C728.601 33.8859 729.01 33.477 729.624 33.477H730.135C730.748 33.477 731.157 33.8859 731.157 34.4992V37.8382H732.691V36.1346C732.691 35.5213 733.1 35.1125 733.714 35.1125H734.259C734.873 35.1125 735.282 35.5213 735.282 36.1346V36.816C735.282 37.4293 734.873 37.8382 734.259 37.8382H733.714C733.506 37.8382 733.321 37.8852 733.168 37.9711C733.023 38.0528 732.906 38.1698 732.824 38.3152C732.738 38.4681 732.691 38.6525 732.691 38.8603V39.3714C732.691 39.5793 732.738 39.7636 732.824 39.9166C732.906 40.062 733.023 40.1789 733.168 40.2606C733.321 40.3466 733.506 40.3936 733.714 40.3936H734.259C734.873 40.3936 735.282 40.8024 735.282 41.4157V42.0972C735.282 42.7105 734.873 43.1193 734.259 43.1193H733.714C733.1 43.1193 732.691 42.7105 732.691 42.0972V40.3936ZM732.214 40.8706H731.635V43.7326C731.635 44.1477 731.494 44.5306 731.214 44.811C730.933 45.0913 730.55 45.2318 730.135 45.2318H729.624C729.209 45.2318 728.825 45.0913 728.545 44.811C728.265 44.5306 728.124 44.1477 728.124 43.7326V40.8706H727.511V42.0972C727.511 42.5122 727.37 42.8951 727.09 43.1755C726.809 43.4559 726.426 43.5963 726.011 43.5963H725.5C725.084 43.5963 724.701 43.4559 724.421 43.1755C724.14 42.8951 724 42.5122 724 42.0972V41.4157C724 41.0007 724.14 40.6177 724.421 40.3374C724.701 40.057 725.084 39.9166 725.5 39.9166H726.011C726.209 39.9166 726.337 39.8526 726.415 39.7752C726.492 39.6978 726.556 39.5697 726.556 39.3714V38.8603C726.556 38.6621 726.492 38.534 726.415 38.4566C726.337 38.3792 726.209 38.3152 726.011 38.3152H725.5C725.084 38.3152 724.701 38.1748 724.421 37.8944C724.14 37.614 724 37.2311 724 36.816V36.1346C724 35.7196 724.14 35.3366 724.421 35.0562C724.701 34.7759 725.084 34.6354 725.5 34.6354H726.011C726.426 34.6354 726.809 34.7759 727.09 35.0562C727.37 35.3366 727.511 35.7196 727.511 36.1346V37.3612H728.124V34.4992C728.124 34.0841 728.265 33.7012 728.545 33.4208C728.825 33.1404 729.209 33 729.624 33H730.135C730.55 33 730.933 33.1404 731.214 33.4208C731.494 33.7012 731.635 34.0841 731.635 34.4992V37.3612H732.214V36.1346C732.214 35.7196 732.355 35.3366 732.635 35.0562C732.915 34.7759 733.299 34.6354 733.714 34.6354H734.259C734.674 34.6354 735.057 34.7759 735.338 35.0562C735.618 35.3366 735.759 35.7196 735.759 36.1346V36.816C735.759 37.2311 735.618 37.614 735.338 37.8944C735.057 38.1748 734.674 38.3152 734.259 38.3152H733.714C733.515 38.3152 733.387 38.3792 733.31 38.4566C733.232 38.534 733.168 38.6621 733.168 38.8603V39.3714C733.168 39.5697 733.232 39.6978 733.31 39.7752C733.387 39.8526 733.515 39.9166 733.714 39.9166H734.259C734.674 39.9166 735.057 40.057 735.338 40.3374C735.618 40.6177 735.759 41.0007 735.759 41.4157V42.0972C735.759 42.5122 735.618 42.8951 735.338 43.1755C735.057 43.4559 734.674 43.5963 734.259 43.5963H733.714C733.299 43.5963 732.915 43.4559 732.635 43.1755C732.355 42.8951 732.214 42.5122 732.214 42.0972V40.8706Z" fill="#F1AFDD"/>
</g>
</g>
<g id="Logo">
<g id="Group 280">
<circle id="Ellipse 2" cx="47.5" cy="38" r="30" fill="#D400A6"/>
<g id="Vector_3">
<path d="M41.3609 28.131H42.63C43.116 28.131 43.4401 28.455 43.4401 28.9411V30.8312H51.5405V25.1068H45.2222C44.1421 25.1068 43.4401 24.4048 43.4401 23.2977C43.4401 22.7577 43.089 22.4067 42.549 22.4067H42.063C41.2799 22.4067 40.7399 21.8667 40.7399 21.0836V19.1125C40.7399 18.0324 41.4419 17.3304 42.549 17.3304C43.089 17.3304 43.4401 16.9794 43.4401 16.4394V15.9533C43.4401 15.1703 43.9801 14.6302 44.7901 14.6302H49.8394C50.8655 14.6302 51.5405 15.3053 51.5405 16.3583C51.5405 16.9524 51.9185 17.3304 52.5126 17.3304H53.0796C53.7816 17.3304 54.2407 17.7894 54.2407 18.4915V19.4095C54.2407 19.7875 53.9976 20.0306 53.6196 20.0306H52.3506C51.8645 20.0306 51.5405 19.7065 51.5405 19.2205V17.3304H43.4401V22.4067H49.7584C50.8385 22.4067 51.5405 23.1087 51.5405 24.2158C51.5405 24.7558 51.8915 25.1068 52.4316 25.1068H52.9176C53.7006 25.1068 54.2407 25.6469 54.2407 26.4299V29.0491C54.2407 30.1291 53.5386 30.8312 52.4316 30.8312C51.8915 30.8312 51.5405 31.1822 51.5405 31.7222V32.2082C51.5405 32.9913 51.0005 33.5313 50.1904 33.5313H45.1412C44.1151 33.5313 43.4401 32.8563 43.4401 31.8032C43.4401 31.2092 43.062 30.8312 42.468 30.8312H41.901C41.1989 30.8312 40.7399 30.3721 40.7399 29.6701V28.752C40.7399 28.374 40.9829 28.131 41.3609 28.131Z" fill="#E7EB17"/>
<path d="M41.3594 44.7639H42.6285C43.1145 44.7639 43.4386 45.0879 43.4386 45.5739V47.464H51.539V41.7397H45.2207C44.1406 41.7397 43.4386 41.0377 43.4386 39.9306C43.4386 39.3906 43.0875 39.0396 42.5475 39.0396H42.0615C41.2784 39.0396 40.7384 38.4995 40.7384 37.7165V35.7454C40.7384 34.6653 41.4404 33.9633 42.5475 33.9633C43.0875 33.9633 43.4386 33.6123 43.4386 33.0722V32.5862C43.4386 31.8032 43.9786 31.2631 44.7886 31.2631H49.8379C50.864 31.2631 51.539 31.9382 51.539 32.9912C51.539 33.5853 51.917 33.9633 52.5111 33.9633H53.0781C53.7801 33.9633 54.2392 34.4223 54.2392 35.1243V36.0424C54.2392 36.4204 53.9961 36.6634 53.6181 36.6634H52.3491C51.863 36.6634 51.539 36.3394 51.539 35.8534V33.9633H43.4386V39.0396H49.7569C50.837 39.0396 51.539 39.7416 51.539 40.8487C51.539 41.3887 51.89 41.7397 52.4301 41.7397H52.9161C53.6991 41.7397 54.2392 42.2797 54.2392 43.0628V45.6819C54.2392 46.762 53.5371 47.464 52.4301 47.464C51.89 47.464 51.539 47.8151 51.539 48.3551V48.8411C51.539 49.6242 50.999 50.1642 50.1889 50.1642H45.1397C44.1136 50.1642 43.4386 49.4891 43.4386 48.4361C43.4386 47.8421 43.0605 47.464 42.4665 47.464H41.8995C41.1974 47.464 40.7384 47.005 40.7384 46.303V45.3849C40.7384 45.0069 40.9814 44.7639 41.3594 44.7639Z" fill="#E7EB17"/>
<path d="M51.539 54.9165V55.4835C51.539 55.9696 51.863 56.2936 52.3491 56.2936H53.4291C53.9151 56.2936 54.2392 56.6176 54.2392 57.1036V60.5598C54.2392 61.0458 53.9151 61.3699 53.4291 61.3699H52.3491C51.863 61.3699 51.539 61.0458 51.539 60.5598V56.2936H48.8389V53.5934H46.1387V56.2936H43.4386V60.5598C43.4386 61.0458 43.1145 61.3699 42.6285 61.3699H41.5484C41.0624 61.3699 40.7384 61.0458 40.7384 60.5598V57.1036C40.7384 56.6176 41.0624 56.2936 41.5484 56.2936H42.6285C43.1145 56.2936 43.4386 55.9696 43.4386 55.4835V54.9165C43.4386 54.1064 43.9516 53.5934 44.7616 53.5934C45.5987 53.5934 46.1387 53.0534 46.1387 52.2433V51.5413C46.1387 50.7313 45.5987 50.2182 44.7616 50.2182C43.9516 50.2182 43.4386 49.7052 43.4386 48.8952V48.3281C43.4386 47.8421 43.1145 47.5181 42.6285 47.5181H41.5484C41.0624 47.5181 40.7384 47.1941 40.7384 46.708V43.2518C40.7384 42.7658 41.0624 42.4418 41.5484 42.4418H42.6285C43.1145 42.4418 43.4386 42.7658 43.4386 43.2518V47.5181H46.1387V50.0712L47.4998 48.8952L48.8389 50.0712V47.5181H51.539V43.2518C51.539 42.7658 51.863 42.4418 52.3491 42.4418H53.4291C53.9151 42.4418 54.2392 42.7658 54.2392 43.2518V46.708C54.2392 47.1941 53.9151 47.5181 53.4291 47.5181H52.3491C51.863 47.5181 51.539 47.8421 51.539 48.3281V48.8952C51.539 49.7052 50.999 50.2182 50.1619 50.2182C49.3519 50.2182 48.8389 50.7313 48.8389 51.5413V52.2433C48.8389 53.0534 49.3519 53.5934 50.1619 53.5934C50.999 53.5934 51.539 54.1064 51.539 54.9165Z" fill="#E7EB17"/>
</g>
</g>
</g>
</g>
<defs>
<clipPath id="clip0_305_558">
<rect width="778" height="31" fill="white" transform="translate(95 23)"/>
</clipPath>
</defs>
</svg>
