<svg width="19" height="19" viewBox="0 0 19 19" fill="none" xmlns="http://www.w3.org/2000/svg">
<path d="M15.3535 0C14.3996 0 13.4347 0.32957 12.7435 1.0204C12.2298 1.53539 9.77972 3.98737 8.63372 5.13458L8.36368 4.86365C8.1763 4.67629 7.91941 4.59365 7.67375 4.59365C7.4281 4.59365 7.17121 4.67629 6.98373 4.86365C6.60887 5.23933 6.60887 5.87057 6.98373 6.24529L7.73375 6.99569L1.22395 13.511C1.11865 13.6167 1.06114 13.7608 1.01401 13.902C0.894014 14.2623 0.174042 16.4241 0.0540466 16.7844C-0.060957 17.1294 0.00691188 17.5175 0.26399 17.775L1.22395 18.7359C1.48113 18.9934 1.86895 19.0606 2.21396 18.9463L5.09385 17.9855C5.23526 17.9384 5.37839 17.8807 5.48379 17.775L11.9936 11.2598L12.7435 12.0102C13.1185 12.3858 13.7486 12.3858 14.1235 12.0102C14.4984 11.6345 14.4983 11.0042 14.1235 10.6285L13.8535 10.3585L17.9633 6.24529C19.3456 4.86172 19.3456 2.40493 17.9633 1.0204C17.2722 0.32957 16.3073 0 15.3535 0ZM15.3535 1.92163C15.8159 1.92163 16.2672 2.08593 16.5834 2.40203C17.2159 3.03521 17.2159 4.23143 16.5834 4.86365L12.4736 8.97783L10.0137 6.51528C11.1597 5.36807 13.6098 2.91607 14.1235 2.40203C14.4397 2.08593 14.891 1.92163 15.3535 1.92163ZM9.1137 8.37733L10.6136 9.90792L4.22384 16.2733L2.21396 16.9641L2.06392 16.8142C2.28433 16.1522 2.56723 15.2433 2.7239 14.7725L9.1137 8.37733Z" fill="#FDFDFD"/>
</svg>
